<svg width="118" height="39" viewBox="0 0 118 39" fill="none" xmlns="http://www.w3.org/2000/svg">
<path d="M12.364 12.436H4.664L3.146 16H0.198L7.128 0.599999H9.944L16.896 16H13.904L12.364 12.436ZM11.418 10.192L8.514 3.46L5.632 10.192H11.418ZM18.9496 4.252H21.6996V9.026H27.6176V4.252H30.3676V16H27.6176V11.358H21.6996V16H18.9496V4.252ZM43.3591 6.584H39.2451V16H36.4951V6.584H32.3591V4.252H43.3591V6.584ZM50.0742 16.154C48.8862 16.154 47.8156 15.8973 46.8622 15.384C45.9089 14.8707 45.1609 14.1593 44.6182 13.25C44.0902 12.326 43.8262 11.2847 43.8262 10.126C43.8262 8.96733 44.0902 7.93333 44.6182 7.024C45.1609 6.11467 45.9089 5.40333 46.8622 4.89C47.8156 4.37667 48.8862 4.12 50.0742 4.12C51.2769 4.12 52.3549 4.37667 53.3082 4.89C54.2616 5.40333 55.0022 6.11467 55.5302 7.024C56.0729 7.93333 56.3442 8.96733 56.3442 10.126C56.3442 11.2847 56.0729 12.326 55.5302 13.25C55.0022 14.1593 54.2616 14.8707 53.3082 15.384C52.3549 15.8973 51.2769 16.154 50.0742 16.154ZM50.0742 13.8C51.0862 13.8 51.9222 13.4627 52.5822 12.788C53.2422 12.1133 53.5722 11.226 53.5722 10.126C53.5722 9.026 53.2422 8.13867 52.5822 7.464C51.9222 6.78933 51.0862 6.452 50.0742 6.452C49.0622 6.452 48.2262 6.78933 47.5662 7.464C46.9209 8.13867 46.5982 9.026 46.5982 10.126C46.5982 11.226 46.9209 12.1133 47.5662 12.788C48.2262 13.4627 49.0622 13.8 50.0742 13.8ZM59.0609 4.252H61.8109V9.026H67.7289V4.252H70.4789V16H67.7289V11.358H61.8109V16H59.0609V4.252ZM9.24 38.22C7.68533 38.22 6.27733 37.8827 5.016 37.208C3.76933 36.5187 2.78667 35.5727 2.068 34.37C1.364 33.1673 1.012 31.8107 1.012 30.3C1.012 28.7893 1.37133 27.4327 2.09 26.23C2.80867 25.0273 3.79133 24.0887 5.038 23.414C6.29933 22.7247 7.70733 22.38 9.262 22.38C10.5233 22.38 11.6747 22.6 12.716 23.04C13.7573 23.48 14.6373 24.118 15.356 24.954L13.508 26.692C12.3933 25.4893 11.022 24.888 9.394 24.888C8.338 24.888 7.392 25.1227 6.556 25.592C5.72 26.0467 5.06733 26.6847 4.598 27.506C4.12867 28.3273 3.894 29.2587 3.894 30.3C3.894 31.3413 4.12867 32.2727 4.598 33.094C5.06733 33.9153 5.72 34.5607 6.556 35.03C7.392 35.4847 8.338 35.712 9.394 35.712C11.022 35.712 12.3933 35.1033 13.508 33.886L15.356 35.646C14.6373 36.482 13.75 37.12 12.694 37.56C11.6527 38 10.5013 38.22 9.24 38.22ZM21.974 26.12C23.7047 26.12 25.0247 26.538 25.934 27.374C26.858 28.1953 27.32 29.442 27.32 31.114V38H24.724V36.57C24.3867 37.0833 23.9027 37.4793 23.272 37.758C22.656 38.022 21.908 38.154 21.028 38.154C20.148 38.154 19.378 38.0073 18.718 37.714C18.058 37.406 17.5447 36.988 17.178 36.46C16.826 35.9173 16.65 35.3087 16.65 34.634C16.65 33.578 17.0387 32.7347 17.816 32.104C18.608 31.4587 19.8474 31.136 21.534 31.136H24.57V30.96C24.57 30.1387 24.3207 29.508 23.822 29.068C23.338 28.628 22.612 28.408 21.644 28.408C20.984 28.408 20.3314 28.5107 19.686 28.716C19.0554 28.9213 18.52 29.2073 18.08 29.574L17.002 27.572C17.618 27.1027 18.3587 26.7433 19.224 26.494C20.0894 26.2447 21.006 26.12 21.974 26.12ZM21.6 36.152C22.2894 36.152 22.898 35.998 23.426 35.69C23.9687 35.3673 24.35 34.9127 24.57 34.326V32.962H21.732C20.148 32.962 19.356 33.4827 19.356 34.524C19.356 35.0227 19.554 35.4187 19.95 35.712C20.346 36.0053 20.896 36.152 21.6 36.152ZM42.273 38V30.212L38.313 36.768H37.125L33.231 30.19V38H30.723V26.252H33.605L37.785 33.6L42.163 26.252H44.737L44.759 38H42.273ZM53.6836 38.154C52.4956 38.154 51.4249 37.8973 50.4716 37.384C49.5183 36.8707 48.7703 36.1593 48.2276 35.25C47.6996 34.326 47.4356 33.2847 47.4356 32.126C47.4356 30.9673 47.6996 29.9333 48.2276 29.024C48.7703 28.1147 49.5183 27.4033 50.4716 26.89C51.4249 26.3767 52.4956 26.12 53.6836 26.12C54.8863 26.12 55.9643 26.3767 56.9176 26.89C57.8709 27.4033 58.6116 28.1147 59.1396 29.024C59.6823 29.9333 59.9536 30.9673 59.9536 32.126C59.9536 33.2847 59.6823 34.326 59.1396 35.25C58.6116 36.1593 57.8709 36.8707 56.9176 37.384C55.9643 37.8973 54.8863 38.154 53.6836 38.154ZM53.6836 35.8C54.6956 35.8 55.5316 35.4627 56.1916 34.788C56.8516 34.1133 57.1816 33.226 57.1816 32.126C57.1816 31.026 56.8516 30.1387 56.1916 29.464C55.5316 28.7893 54.6956 28.452 53.6836 28.452C52.6716 28.452 51.8356 28.7893 51.1756 29.464C50.5303 30.1387 50.2076 31.026 50.2076 32.126C50.2076 33.226 50.5303 34.1133 51.1756 34.788C51.8356 35.4627 52.6716 35.8 53.6836 35.8ZM62.6703 26.252H65.4203V33.996L71.9103 26.252H74.4183V38H71.6683V30.256L65.2003 38H62.6703V26.252ZM68.3683 24.866C67.1803 24.866 66.2709 24.5947 65.6403 24.052C65.0243 23.4947 64.7089 22.688 64.6943 21.632H66.5203C66.5349 22.16 66.6963 22.578 67.0043 22.886C67.3269 23.194 67.7743 23.348 68.3463 23.348C68.9036 23.348 69.3436 23.194 69.6663 22.886C70.0036 22.578 70.1796 22.16 70.1943 21.632H72.0643C72.0496 22.688 71.7269 23.4947 71.0963 24.052C70.4656 24.5947 69.5563 24.866 68.3683 24.866ZM88.7655 26.252V38H86.0155V28.584H81.6155L81.5055 30.916C81.4322 32.4707 81.2855 33.776 81.0655 34.832C80.8602 35.8733 80.5009 36.702 79.9875 37.318C79.4889 37.9193 78.7995 38.22 77.9195 38.22C77.5089 38.22 77.0029 38.1393 76.4015 37.978L76.5335 35.668C76.7389 35.712 76.9149 35.734 77.0615 35.734C77.6189 35.734 78.0369 35.514 78.3155 35.074C78.5942 34.6193 78.7702 34.084 78.8435 33.468C78.9315 32.8373 79.0049 31.9427 79.0635 30.784L79.2615 26.252H88.7655ZM97.7051 38.154C96.5171 38.154 95.4464 37.8973 94.4931 37.384C93.5398 36.8707 92.7918 36.1593 92.2491 35.25C91.7211 34.326 91.4571 33.2847 91.4571 32.126C91.4571 30.9673 91.7211 29.9333 92.2491 29.024C92.7918 28.1147 93.5398 27.4033 94.4931 26.89C95.4464 26.3767 96.5171 26.12 97.7051 26.12C98.9078 26.12 99.9858 26.3767 100.939 26.89C101.892 27.4033 102.633 28.1147 103.161 29.024C103.704 29.9333 103.975 30.9673 103.975 32.126C103.975 33.2847 103.704 34.326 103.161 35.25C102.633 36.1593 101.892 36.8707 100.939 37.384C99.9858 37.8973 98.9078 38.154 97.7051 38.154ZM97.7051 35.8C98.7171 35.8 99.5531 35.4627 100.213 34.788C100.873 34.1133 101.203 33.226 101.203 32.126C101.203 31.026 100.873 30.1387 100.213 29.464C99.5531 28.7893 98.7171 28.452 97.7051 28.452C96.6931 28.452 95.8571 28.7893 95.1971 29.464C94.5518 30.1387 94.2291 31.026 94.2291 32.126C94.2291 33.226 94.5518 34.1133 95.1971 34.788C95.8571 35.4627 96.6931 35.8 97.7051 35.8ZM115.206 31.884C116.658 32.324 117.384 33.2627 117.384 34.7C117.384 35.756 116.988 36.57 116.196 37.142C115.404 37.714 114.23 38 112.676 38H106.692V26.252H112.434C113.871 26.252 114.993 26.516 115.8 27.044C116.606 27.572 117.01 28.32 117.01 29.288C117.01 29.8893 116.848 30.41 116.526 30.85C116.218 31.29 115.778 31.6347 115.206 31.884ZM109.31 31.158H112.192C113.614 31.158 114.326 30.6667 114.326 29.684C114.326 28.7307 113.614 28.254 112.192 28.254H109.31V31.158ZM112.456 35.998C113.966 35.998 114.722 35.5067 114.722 34.524C114.722 34.0107 114.546 33.6293 114.194 33.38C113.842 33.116 113.292 32.984 112.544 32.984H109.31V35.998H112.456Z" fill="white"/>
</svg>
