<svg width="62" height="11" viewBox="0 0 62 11" fill="none" xmlns="http://www.w3.org/2000/svg">
<path d="M7.338 8L7.327 2.39L4.544 7.065H4.038L1.255 2.423V8H0.199V0.299999H1.101L4.313 5.712L7.481 0.299999H8.383L8.394 8H7.338ZM15.8838 5.118C15.8838 5.19867 15.8765 5.305 15.8618 5.437H11.1318C11.1978 5.95033 11.4215 6.36467 11.8028 6.68C12.1915 6.988 12.6718 7.142 13.2438 7.142C13.9405 7.142 14.5015 6.90733 14.9268 6.438L15.5098 7.12C15.2458 7.428 14.9158 7.66267 14.5198 7.824C14.1311 7.98533 13.6948 8.066 13.2108 8.066C12.5948 8.066 12.0485 7.94133 11.5718 7.692C11.0951 7.43533 10.7248 7.07967 10.4608 6.625C10.2041 6.17033 10.0758 5.657 10.0758 5.085C10.0758 4.52033 10.2005 4.01067 10.4498 3.556C10.7065 3.10133 11.0548 2.74933 11.4948 2.5C11.9421 2.24333 12.4445 2.115 13.0018 2.115C13.5591 2.115 14.0541 2.24333 14.4868 2.5C14.9268 2.74933 15.2678 3.10133 15.5098 3.556C15.7591 4.01067 15.8838 4.53133 15.8838 5.118ZM13.0018 3.006C12.4958 3.006 12.0705 3.16 11.7258 3.468C11.3885 3.776 11.1905 4.17933 11.1318 4.678H14.8718C14.8131 4.18667 14.6115 3.787 14.2668 3.479C13.9295 3.16367 13.5078 3.006 13.0018 3.006ZM17.522 2.17H18.578V4.645H21.9V2.17H22.956V8H21.9V5.558H18.578V8H17.522V2.17ZM30.2783 5.118C30.2783 5.19867 30.271 5.305 30.2563 5.437H25.5263C25.5923 5.95033 25.816 6.36467 26.1973 6.68C26.586 6.988 27.0663 7.142 27.6383 7.142C28.335 7.142 28.896 6.90733 29.3213 6.438L29.9043 7.12C29.6403 7.428 29.3103 7.66267 28.9143 7.824C28.5257 7.98533 28.0893 8.066 27.6053 8.066C26.9893 8.066 26.443 7.94133 25.9663 7.692C25.4897 7.43533 25.1193 7.07967 24.8553 6.625C24.5987 6.17033 24.4703 5.657 24.4703 5.085C24.4703 4.52033 24.595 4.01067 24.8443 3.556C25.101 3.10133 25.4493 2.74933 25.8893 2.5C26.3367 2.24333 26.839 2.115 27.3963 2.115C27.9537 2.115 28.4487 2.24333 28.8813 2.5C29.3213 2.74933 29.6623 3.10133 29.9043 3.556C30.1537 4.01067 30.2783 4.53133 30.2783 5.118ZM27.3963 3.006C26.8903 3.006 26.465 3.16 26.1203 3.468C25.783 3.776 25.585 4.17933 25.5263 4.678H29.2663C29.2077 4.18667 29.006 3.787 28.6613 3.479C28.324 3.16367 27.9023 3.006 27.3963 3.006ZM37.7489 7.076V9.353H36.7589V8H31.8859V9.353H30.8849V7.076H31.1929C31.5669 7.054 31.8235 6.79 31.9629 6.284C32.1022 5.778 32.1975 5.063 32.2489 4.139L32.3369 2.17H36.8579V7.076H37.7489ZM33.2169 4.216C33.1875 4.94933 33.1252 5.558 33.0299 6.042C32.9419 6.51867 32.7769 6.86333 32.5349 7.076H35.8019V3.094H33.2719L33.2169 4.216ZM44.4266 5.536H43.2936V8H42.2376V5.536H41.1046L39.4986 8H38.2446L40.2466 4.986L38.3986 2.17H39.5206L41.0936 4.634H42.2376V2.17H43.2936V4.634H44.4376L46.0106 2.17H47.1436L45.2956 4.997L47.2976 8H46.0436L44.4266 5.536ZM53.5352 5.118C53.5352 5.19867 53.5278 5.305 53.5132 5.437H48.7832C48.8492 5.95033 49.0728 6.36467 49.4542 6.68C49.8428 6.988 50.3232 7.142 50.8952 7.142C51.5918 7.142 52.1528 6.90733 52.5782 6.438L53.1612 7.12C52.8972 7.428 52.5672 7.66267 52.1712 7.824C51.7825 7.98533 51.3462 8.066 50.8622 8.066C50.2462 8.066 49.6998 7.94133 49.2232 7.692C48.7465 7.43533 48.3762 7.07967 48.1122 6.625C47.8555 6.17033 47.7272 5.657 47.7272 5.085C47.7272 4.52033 47.8518 4.01067 48.1012 3.556C48.3578 3.10133 48.7062 2.74933 49.1462 2.5C49.5935 2.24333 50.0958 2.115 50.6532 2.115C51.2105 2.115 51.7055 2.24333 52.1382 2.5C52.5782 2.74933 52.9192 3.10133 53.1612 3.556C53.4105 4.01067 53.5352 4.53133 53.5352 5.118ZM50.6532 3.006C50.1472 3.006 49.7218 3.16 49.3772 3.468C49.0398 3.776 48.8418 4.17933 48.7832 4.678H52.5232C52.4645 4.18667 52.2628 3.787 51.9182 3.479C51.5808 3.16367 51.1592 3.006 50.6532 3.006ZM58.2644 2.115C58.8291 2.115 59.3351 2.23967 59.7824 2.489C60.2297 2.73833 60.5781 3.08667 60.8274 3.534C61.0841 3.98133 61.2124 4.49833 61.2124 5.085C61.2124 5.67167 61.0841 6.19233 60.8274 6.647C60.5781 7.09433 60.2297 7.44267 59.7824 7.692C59.3351 7.94133 58.8291 8.066 58.2644 8.066C57.8464 8.066 57.4614 7.98533 57.1094 7.824C56.7647 7.66267 56.4714 7.428 56.2294 7.12V10.134H55.1734V2.17H56.1854V3.094C56.4201 2.77133 56.7171 2.52933 57.0764 2.368C57.4357 2.19933 57.8317 2.115 58.2644 2.115ZM58.1764 7.142C58.5504 7.142 58.8841 7.05767 59.1774 6.889C59.4781 6.713 59.7127 6.471 59.8814 6.163C60.0574 5.84767 60.1454 5.48833 60.1454 5.085C60.1454 4.68167 60.0574 4.326 59.8814 4.018C59.7127 3.70267 59.4781 3.46067 59.1774 3.292C58.8841 3.12333 58.5504 3.039 58.1764 3.039C57.8097 3.039 57.4761 3.127 57.1754 3.303C56.8821 3.47167 56.6474 3.71 56.4714 4.018C56.3027 4.326 56.2184 4.68167 56.2184 5.085C56.2184 5.48833 56.3027 5.84767 56.4714 6.163C56.6401 6.471 56.8747 6.713 57.1754 6.889C57.4761 7.05767 57.8097 7.142 58.1764 7.142Z" fill="white"/>
</svg>
