<svg width="6" height="6" viewBox="0 0 6 6" fill="none" xmlns="http://www.w3.org/2000/svg">
<path d="M4.75 2.98755C4.75 2.50005 4.58017 2.08655 4.2405 1.74705C3.90083 1.40755 3.48733 1.23772 3 1.23755V0.737549C3.3125 0.737549 3.60525 0.796966 3.87825 0.915799C4.15125 1.03463 4.38875 1.19505 4.59075 1.39705C4.79275 1.59905 4.95317 1.83655 5.072 2.10955C5.19083 2.38255 5.25017 2.67522 5.25 2.98755H4.75ZM3.75 2.98755C3.75 2.77922 3.67708 2.60213 3.53125 2.4563C3.38542 2.31047 3.20833 2.23755 3 2.23755V1.73755C3.34583 1.73755 3.64067 1.85947 3.8845 2.1033C4.12833 2.34713 4.25017 2.64188 4.25 2.98755H3.75ZM4.9875 5.25005C4.45 5.25005 3.926 5.13022 3.4155 4.89055C2.905 4.65088 2.45292 4.33422 2.05925 3.94055C1.66558 3.54688 1.34892 3.0948 1.10925 2.5843C0.869583 2.0738 0.749834 1.54988 0.75 1.01255C0.75 0.937549 0.775 0.875049 0.825 0.825049C0.875 0.775049 0.9375 0.750049 1.0125 0.750049H2.025C2.08333 0.750049 2.13542 0.768799 2.18125 0.806299C2.22708 0.843799 2.25417 0.891715 2.2625 0.950049L2.425 1.82505C2.43333 1.88338 2.43225 1.93655 2.42175 1.98455C2.41125 2.03255 2.38733 2.07522 2.35 2.11255L1.75 2.72505C1.925 3.02505 2.14375 3.3063 2.40625 3.5688C2.66875 3.8313 2.95833 4.05838 3.275 4.25005L3.8625 3.66255C3.9 3.62505 3.949 3.59697 4.0095 3.5783C4.07 3.55963 4.12933 3.55438 4.1875 3.56255L5.05 3.73755C5.10833 3.75005 5.15625 3.77822 5.19375 3.82205C5.23125 3.86588 5.25 3.91688 5.25 3.97505V4.98755C5.25 5.06255 5.225 5.12505 5.175 5.17505C5.125 5.22505 5.0625 5.25005 4.9875 5.25005Z" fill="#F8F8F8"/>
</svg>
