<svg width="59" height="6" viewBox="0 0 59 6" fill="none" xmlns="http://www.w3.org/2000/svg">
<path d="M3.605 2.83H2.331V4.083H1.743V2.83H0.469V2.277H1.743V1.017H2.331V2.277H3.605V2.83ZM7.91186 0.0999997V0.576L5.93086 5H5.18886L7.12786 0.709H4.88786V1.584H4.21586V0.0999997H7.91186ZM11.9943 0.044C12.6523 0.044 13.1587 0.256333 13.5133 0.681C13.8727 1.10567 14.0523 1.70767 14.0523 2.487C14.0523 3.033 13.9543 3.49967 13.7583 3.887C13.567 4.26967 13.2963 4.56133 12.9463 4.762C12.601 4.958 12.1973 5.056 11.7353 5.056C11.4973 5.056 11.2733 5.03267 11.0633 4.986C10.8533 4.93467 10.6713 4.86233 10.5173 4.769L10.7833 4.223C11.0213 4.377 11.3363 4.454 11.7283 4.454C12.237 4.454 12.6337 4.29767 12.9183 3.985C13.2077 3.66767 13.3523 3.208 13.3523 2.606V2.431C13.2123 2.641 13.0187 2.802 12.7713 2.914C12.524 3.02133 12.2463 3.075 11.9383 3.075C11.6163 3.075 11.327 3.01433 11.0703 2.893C10.8183 2.77167 10.62 2.599 10.4753 2.375C10.3353 2.14633 10.2653 1.885 10.2653 1.591C10.2653 1.283 10.34 1.01233 10.4893 0.779C10.6433 0.545666 10.851 0.366 11.1123 0.24C11.3737 0.109333 11.6677 0.044 11.9943 0.044ZM12.0573 2.508C12.2767 2.508 12.4727 2.466 12.6453 2.382C12.818 2.298 12.951 2.18367 13.0443 2.039C13.1423 1.89433 13.1913 1.73333 13.1913 1.556C13.1913 1.38333 13.1447 1.227 13.0513 1.087C12.9627 0.942333 12.8297 0.828 12.6523 0.744C12.4797 0.655333 12.2697 0.611 12.0223 0.611C11.7003 0.611 11.439 0.697333 11.2383 0.87C11.0423 1.04267 10.9443 1.27367 10.9443 1.563C10.9443 1.85233 11.0447 2.08333 11.2453 2.256C11.446 2.424 11.7167 2.508 12.0573 2.508ZM16.3146 0.044C16.9726 0.044 17.479 0.256333 17.8336 0.681C18.193 1.10567 18.3726 1.70767 18.3726 2.487C18.3726 3.033 18.2746 3.49967 18.0786 3.887C17.8873 4.26967 17.6166 4.56133 17.2666 4.762C16.9213 4.958 16.5176 5.056 16.0556 5.056C15.8176 5.056 15.5936 5.03267 15.3836 4.986C15.1736 4.93467 14.9916 4.86233 14.8376 4.769L15.1036 4.223C15.3416 4.377 15.6566 4.454 16.0486 4.454C16.5573 4.454 16.954 4.29767 17.2386 3.985C17.528 3.66767 17.6726 3.208 17.6726 2.606V2.431C17.5326 2.641 17.339 2.802 17.0916 2.914C16.8443 3.02133 16.5666 3.075 16.2586 3.075C15.9366 3.075 15.6473 3.01433 15.3906 2.893C15.1386 2.77167 14.9403 2.599 14.7956 2.375C14.6556 2.14633 14.5856 1.885 14.5856 1.591C14.5856 1.283 14.6603 1.01233 14.8096 0.779C14.9636 0.545666 15.1713 0.366 15.4326 0.24C15.694 0.109333 15.988 0.044 16.3146 0.044ZM16.3776 2.508C16.597 2.508 16.793 2.466 16.9656 2.382C17.1383 2.298 17.2713 2.18367 17.3646 2.039C17.4626 1.89433 17.5116 1.73333 17.5116 1.556C17.5116 1.38333 17.465 1.227 17.3716 1.087C17.283 0.942333 17.15 0.828 16.9726 0.744C16.8 0.655333 16.59 0.611 16.3426 0.611C16.0206 0.611 15.7593 0.697333 15.5586 0.87C15.3626 1.04267 15.2646 1.27367 15.2646 1.563C15.2646 1.85233 15.365 2.08333 15.5656 2.256C15.7663 2.424 16.037 2.508 16.3776 2.508ZM20.635 0.044C21.293 0.044 21.7993 0.256333 22.154 0.681C22.5133 1.10567 22.693 1.70767 22.693 2.487C22.693 3.033 22.595 3.49967 22.399 3.887C22.2076 4.26967 21.937 4.56133 21.587 4.762C21.2416 4.958 20.838 5.056 20.376 5.056C20.138 5.056 19.914 5.03267 19.704 4.986C19.494 4.93467 19.312 4.86233 19.158 4.769L19.424 4.223C19.662 4.377 19.977 4.454 20.369 4.454C20.8776 4.454 21.2743 4.29767 21.559 3.985C21.8483 3.66767 21.993 3.208 21.993 2.606V2.431C21.853 2.641 21.6593 2.802 21.412 2.914C21.1646 3.02133 20.887 3.075 20.579 3.075C20.257 3.075 19.9676 3.01433 19.711 2.893C19.459 2.77167 19.2606 2.599 19.116 2.375C18.976 2.14633 18.906 1.885 18.906 1.591C18.906 1.283 18.9806 1.01233 19.13 0.779C19.284 0.545666 19.4916 0.366 19.753 0.24C20.0143 0.109333 20.3083 0.044 20.635 0.044ZM20.698 2.508C20.9173 2.508 21.1133 2.466 21.286 2.382C21.4586 2.298 21.5916 2.18367 21.685 2.039C21.783 1.89433 21.832 1.73333 21.832 1.556C21.832 1.38333 21.7853 1.227 21.692 1.087C21.6033 0.942333 21.4703 0.828 21.293 0.744C21.1203 0.655333 20.9103 0.611 20.663 0.611C20.341 0.611 20.0796 0.697333 19.879 0.87C19.683 1.04267 19.585 1.27367 19.585 1.563C19.585 1.85233 19.6853 2.08333 19.886 2.256C20.0866 2.424 20.3573 2.508 20.698 2.508ZM26.8352 0.044C27.4932 0.044 27.9995 0.256333 28.3542 0.681C28.7135 1.10567 28.8932 1.70767 28.8932 2.487C28.8932 3.033 28.7952 3.49967 28.5992 3.887C28.4078 4.26967 28.1372 4.56133 27.7872 4.762C27.4418 4.958 27.0382 5.056 26.5762 5.056C26.3382 5.056 26.1142 5.03267 25.9042 4.986C25.6942 4.93467 25.5122 4.86233 25.3582 4.769L25.6242 4.223C25.8622 4.377 26.1772 4.454 26.5692 4.454C27.0778 4.454 27.4745 4.29767 27.7592 3.985C28.0485 3.66767 28.1932 3.208 28.1932 2.606V2.431C28.0532 2.641 27.8595 2.802 27.6122 2.914C27.3648 3.02133 27.0872 3.075 26.7792 3.075C26.4572 3.075 26.1678 3.01433 25.9112 2.893C25.6592 2.77167 25.4608 2.599 25.3162 2.375C25.1762 2.14633 25.1062 1.885 25.1062 1.591C25.1062 1.283 25.1808 1.01233 25.3302 0.779C25.4842 0.545666 25.6918 0.366 25.9532 0.24C26.2145 0.109333 26.5085 0.044 26.8352 0.044ZM26.8982 2.508C27.1175 2.508 27.3135 2.466 27.4862 2.382C27.6588 2.298 27.7918 2.18367 27.8852 2.039C27.9832 1.89433 28.0322 1.73333 28.0322 1.556C28.0322 1.38333 27.9855 1.227 27.8922 1.087C27.8035 0.942333 27.6705 0.828 27.4932 0.744C27.3205 0.655333 27.1105 0.611 26.8632 0.611C26.5412 0.611 26.2798 0.697333 26.0792 0.87C25.8832 1.04267 25.7852 1.27367 25.7852 1.563C25.7852 1.85233 25.8855 2.08333 26.0862 2.256C26.2868 2.424 26.5575 2.508 26.8982 2.508ZM31.1555 0.044C31.8135 0.044 32.3198 0.256333 32.6745 0.681C33.0338 1.10567 33.2135 1.70767 33.2135 2.487C33.2135 3.033 33.1155 3.49967 32.9195 3.887C32.7281 4.26967 32.4575 4.56133 32.1075 4.762C31.7621 4.958 31.3585 5.056 30.8965 5.056C30.6585 5.056 30.4345 5.03267 30.2245 4.986C30.0145 4.93467 29.8325 4.86233 29.6785 4.769L29.9445 4.223C30.1825 4.377 30.4975 4.454 30.8895 4.454C31.3981 4.454 31.7948 4.29767 32.0795 3.985C32.3688 3.66767 32.5135 3.208 32.5135 2.606V2.431C32.3735 2.641 32.1798 2.802 31.9325 2.914C31.6851 3.02133 31.4075 3.075 31.0995 3.075C30.7775 3.075 30.4881 3.01433 30.2315 2.893C29.9795 2.77167 29.7811 2.599 29.6365 2.375C29.4965 2.14633 29.4265 1.885 29.4265 1.591C29.4265 1.283 29.5011 1.01233 29.6505 0.779C29.8045 0.545666 30.0121 0.366 30.2735 0.24C30.5348 0.109333 30.8288 0.044 31.1555 0.044ZM31.2185 2.508C31.4378 2.508 31.6338 2.466 31.8065 2.382C31.9791 2.298 32.1121 2.18367 32.2055 2.039C32.3035 1.89433 32.3525 1.73333 32.3525 1.556C32.3525 1.38333 32.3058 1.227 32.2125 1.087C32.1238 0.942333 31.9908 0.828 31.8135 0.744C31.6408 0.655333 31.4308 0.611 31.1835 0.611C30.8615 0.611 30.6001 0.697333 30.3995 0.87C30.2035 1.04267 30.1055 1.27367 30.1055 1.563C30.1055 1.85233 30.2058 2.08333 30.4065 2.256C30.6071 2.424 30.8778 2.508 31.2185 2.508ZM35.4758 0.044C36.1338 0.044 36.6401 0.256333 36.9948 0.681C37.3541 1.10567 37.5338 1.70767 37.5338 2.487C37.5338 3.033 37.4358 3.49967 37.2398 3.887C37.0484 4.26967 36.7778 4.56133 36.4278 4.762C36.0824 4.958 35.6788 5.056 35.2168 5.056C34.9788 5.056 34.7548 5.03267 34.5448 4.986C34.3348 4.93467 34.1528 4.86233 33.9988 4.769L34.2648 4.223C34.5028 4.377 34.8178 4.454 35.2098 4.454C35.7184 4.454 36.1151 4.29767 36.3998 3.985C36.6891 3.66767 36.8338 3.208 36.8338 2.606V2.431C36.6938 2.641 36.5001 2.802 36.2528 2.914C36.0054 3.02133 35.7278 3.075 35.4198 3.075C35.0978 3.075 34.8084 3.01433 34.5518 2.893C34.2998 2.77167 34.1014 2.599 33.9568 2.375C33.8168 2.14633 33.7468 1.885 33.7468 1.591C33.7468 1.283 33.8214 1.01233 33.9708 0.779C34.1248 0.545666 34.3324 0.366 34.5938 0.24C34.8551 0.109333 35.1491 0.044 35.4758 0.044ZM35.5388 2.508C35.7581 2.508 35.9541 2.466 36.1268 2.382C36.2994 2.298 36.4324 2.18367 36.5258 2.039C36.6238 1.89433 36.6728 1.73333 36.6728 1.556C36.6728 1.38333 36.6261 1.227 36.5328 1.087C36.4441 0.942333 36.3111 0.828 36.1338 0.744C35.9611 0.655333 35.7511 0.611 35.5038 0.611C35.1818 0.611 34.9204 0.697333 34.7198 0.87C34.5238 1.04267 34.4258 1.27367 34.4258 1.563C34.4258 1.85233 34.5261 2.08333 34.7268 2.256C34.9274 2.424 35.1981 2.508 35.5388 2.508ZM41.676 0.044C42.334 0.044 42.8403 0.256333 43.195 0.681C43.5543 1.10567 43.734 1.70767 43.734 2.487C43.734 3.033 43.636 3.49967 43.44 3.887C43.2486 4.26967 42.978 4.56133 42.628 4.762C42.2826 4.958 41.879 5.056 41.417 5.056C41.179 5.056 40.955 5.03267 40.745 4.986C40.535 4.93467 40.353 4.86233 40.199 4.769L40.465 4.223C40.703 4.377 41.018 4.454 41.41 4.454C41.9186 4.454 42.3153 4.29767 42.6 3.985C42.8893 3.66767 43.034 3.208 43.034 2.606V2.431C42.894 2.641 42.7003 2.802 42.453 2.914C42.2056 3.02133 41.928 3.075 41.62 3.075C41.298 3.075 41.0086 3.01433 40.752 2.893C40.5 2.77167 40.3016 2.599 40.157 2.375C40.017 2.14633 39.947 1.885 39.947 1.591C39.947 1.283 40.0216 1.01233 40.171 0.779C40.325 0.545666 40.5326 0.366 40.794 0.24C41.0553 0.109333 41.3493 0.044 41.676 0.044ZM41.739 2.508C41.9583 2.508 42.1543 2.466 42.327 2.382C42.4996 2.298 42.6326 2.18367 42.726 2.039C42.824 1.89433 42.873 1.73333 42.873 1.556C42.873 1.38333 42.8263 1.227 42.733 1.087C42.6443 0.942333 42.5113 0.828 42.334 0.744C42.1613 0.655333 41.9513 0.611 41.704 0.611C41.382 0.611 41.1206 0.697333 40.92 0.87C40.724 1.04267 40.626 1.27367 40.626 1.563C40.626 1.85233 40.7263 2.08333 40.927 2.256C41.1276 2.424 41.3983 2.508 41.739 2.508ZM45.9963 0.044C46.6543 0.044 47.1606 0.256333 47.5153 0.681C47.8746 1.10567 48.0543 1.70767 48.0543 2.487C48.0543 3.033 47.9563 3.49967 47.7603 3.887C47.569 4.26967 47.2983 4.56133 46.9483 4.762C46.603 4.958 46.1993 5.056 45.7373 5.056C45.4993 5.056 45.2753 5.03267 45.0653 4.986C44.8553 4.93467 44.6733 4.86233 44.5193 4.769L44.7853 4.223C45.0233 4.377 45.3383 4.454 45.7303 4.454C46.239 4.454 46.6356 4.29767 46.9203 3.985C47.2096 3.66767 47.3543 3.208 47.3543 2.606V2.431C47.2143 2.641 47.0206 2.802 46.7733 2.914C46.526 3.02133 46.2483 3.075 45.9403 3.075C45.6183 3.075 45.329 3.01433 45.0723 2.893C44.8203 2.77167 44.622 2.599 44.4773 2.375C44.3373 2.14633 44.2673 1.885 44.2673 1.591C44.2673 1.283 44.342 1.01233 44.4913 0.779C44.6453 0.545666 44.853 0.366 45.1143 0.24C45.3756 0.109333 45.6696 0.044 45.9963 0.044ZM46.0593 2.508C46.2786 2.508 46.4746 2.466 46.6473 2.382C46.82 2.298 46.953 2.18367 47.0463 2.039C47.1443 1.89433 47.1933 1.73333 47.1933 1.556C47.1933 1.38333 47.1466 1.227 47.0533 1.087C46.9646 0.942333 46.8316 0.828 46.6543 0.744C46.4816 0.655333 46.2716 0.611 46.0243 0.611C45.7023 0.611 45.441 0.697333 45.2403 0.87C45.0443 1.04267 44.9463 1.27367 44.9463 1.563C44.9463 1.85233 45.0466 2.08333 45.2473 2.256C45.448 2.424 45.7186 2.508 46.0593 2.508ZM52.1965 0.044C52.8545 0.044 53.3608 0.256333 53.7155 0.681C54.0748 1.10567 54.2545 1.70767 54.2545 2.487C54.2545 3.033 54.1565 3.49967 53.9605 3.887C53.7692 4.26967 53.4985 4.56133 53.1485 4.762C52.8032 4.958 52.3995 5.056 51.9375 5.056C51.6995 5.056 51.4755 5.03267 51.2655 4.986C51.0555 4.93467 50.8735 4.86233 50.7195 4.769L50.9855 4.223C51.2235 4.377 51.5385 4.454 51.9305 4.454C52.4392 4.454 52.8358 4.29767 53.1205 3.985C53.4098 3.66767 53.5545 3.208 53.5545 2.606V2.431C53.4145 2.641 53.2208 2.802 52.9735 2.914C52.7262 3.02133 52.4485 3.075 52.1405 3.075C51.8185 3.075 51.5292 3.01433 51.2725 2.893C51.0205 2.77167 50.8222 2.599 50.6775 2.375C50.5375 2.14633 50.4675 1.885 50.4675 1.591C50.4675 1.283 50.5422 1.01233 50.6915 0.779C50.8455 0.545666 51.0532 0.366 51.3145 0.24C51.5758 0.109333 51.8698 0.044 52.1965 0.044ZM52.2595 2.508C52.4788 2.508 52.6748 2.466 52.8475 2.382C53.0202 2.298 53.1532 2.18367 53.2465 2.039C53.3445 1.89433 53.3935 1.73333 53.3935 1.556C53.3935 1.38333 53.3468 1.227 53.2535 1.087C53.1648 0.942333 53.0318 0.828 52.8545 0.744C52.6818 0.655333 52.4718 0.611 52.2245 0.611C51.9025 0.611 51.6412 0.697333 51.4405 0.87C51.2445 1.04267 51.1465 1.27367 51.1465 1.563C51.1465 1.85233 51.2468 2.08333 51.4475 2.256C51.6482 2.424 51.9188 2.508 52.2595 2.508ZM56.5168 0.044C57.1748 0.044 57.6811 0.256333 58.0358 0.681C58.3951 1.10567 58.5748 1.70767 58.5748 2.487C58.5748 3.033 58.4768 3.49967 58.2808 3.887C58.0895 4.26967 57.8188 4.56133 57.4688 4.762C57.1235 4.958 56.7198 5.056 56.2578 5.056C56.0198 5.056 55.7958 5.03267 55.5858 4.986C55.3758 4.93467 55.1938 4.86233 55.0398 4.769L55.3058 4.223C55.5438 4.377 55.8588 4.454 56.2508 4.454C56.7595 4.454 57.1561 4.29767 57.4408 3.985C57.7301 3.66767 57.8748 3.208 57.8748 2.606V2.431C57.7348 2.641 57.5411 2.802 57.2938 2.914C57.0465 3.02133 56.7688 3.075 56.4608 3.075C56.1388 3.075 55.8495 3.01433 55.5928 2.893C55.3408 2.77167 55.1425 2.599 54.9978 2.375C54.8578 2.14633 54.7878 1.885 54.7878 1.591C54.7878 1.283 54.8625 1.01233 55.0118 0.779C55.1658 0.545666 55.3735 0.366 55.6348 0.24C55.8961 0.109333 56.1901 0.044 56.5168 0.044ZM56.5798 2.508C56.7991 2.508 56.9951 2.466 57.1678 2.382C57.3405 2.298 57.4735 2.18367 57.5668 2.039C57.6648 1.89433 57.7138 1.73333 57.7138 1.556C57.7138 1.38333 57.6671 1.227 57.5738 1.087C57.4851 0.942333 57.3521 0.828 57.1748 0.744C57.0021 0.655333 56.7921 0.611 56.5448 0.611C56.2228 0.611 55.9615 0.697333 55.7608 0.87C55.5648 1.04267 55.4668 1.27367 55.4668 1.563C55.4668 1.85233 55.5671 2.08333 55.7678 2.256C55.9685 2.424 56.2391 2.508 56.5798 2.508Z" fill="white"/>
</svg>
