<svg width="6" height="5" viewBox="0 0 6 5" fill="none" xmlns="http://www.w3.org/2000/svg">
<path fill-rule="evenodd" clip-rule="evenodd" d="M4.94429 0.107491C5.00607 0.081489 5.07369 0.072521 5.14011 0.0815206C5.20653 0.0905201 5.26932 0.117158 5.32196 0.158663C5.37459 0.200167 5.41514 0.25502 5.43938 0.317512C5.46362 0.380004 5.47066 0.447851 5.45979 0.513991L4.89279 3.95324C4.83779 4.28499 4.47379 4.47524 4.16954 4.30999C3.91504 4.17174 3.53704 3.95874 3.19704 3.73649C3.02704 3.62524 2.50629 3.26899 2.57029 3.01549C2.62529 2.79874 3.50029 1.98424 4.00029 1.49999C4.19654 1.30974 4.10704 1.19999 3.87529 1.37499C3.29954 1.80949 2.37579 2.47024 2.07029 2.65624C1.80079 2.82024 1.66029 2.84824 1.49229 2.82024C1.18579 2.76924 0.901535 2.69024 0.669535 2.59399C0.356035 2.46399 0.371285 2.03299 0.669285 1.90749L4.94429 0.107491Z" fill="#F8F8F8"/>
</svg>
