<svg width="46" height="8" viewBox="0 0 46 8" fill="none" xmlns="http://www.w3.org/2000/svg">
<path d="M3.64 1.051C4.27 1.051 4.83233 1.18167 5.327 1.443C5.82167 1.69967 6.20667 2.06133 6.482 2.528C6.762 2.99467 6.902 3.52667 6.902 4.124C6.902 4.72133 6.79233 5.19033 6.573 5.531C6.35367 5.87167 6.048 6.042 5.656 6.042C5.432 6.042 5.24533 5.986 5.096 5.874C4.95133 5.75733 4.858 5.59167 4.816 5.377C4.676 5.59167 4.49167 5.75733 4.263 5.874C4.039 5.986 3.78 6.042 3.486 6.042C3.15933 6.042 2.86533 5.965 2.604 5.811C2.34267 5.657 2.13733 5.44467 1.988 5.174C1.84333 4.89867 1.771 4.58833 1.771 4.243C1.771 3.90233 1.84333 3.59667 1.988 3.326C2.13733 3.05067 2.34267 2.83833 2.604 2.689C2.86533 2.535 3.15933 2.458 3.486 2.458C3.75667 2.458 4.00167 2.50933 4.221 2.612C4.44033 2.71 4.62233 2.857 4.767 3.053V2.486H5.376V5.006C5.376 5.17867 5.41333 5.307 5.488 5.391C5.56267 5.47033 5.65833 5.51 5.775 5.51C5.98033 5.51 6.139 5.391 6.251 5.153C6.36767 4.91033 6.426 4.56967 6.426 4.131C6.426 3.613 6.30933 3.158 6.076 2.766C5.84267 2.36933 5.51367 2.06133 5.089 1.842C4.669 1.62267 4.186 1.513 3.64 1.513C3.08933 1.513 2.60167 1.62733 2.177 1.856C1.757 2.08467 1.43033 2.40433 1.197 2.815C0.963667 3.22567 0.847 3.69467 0.847 4.222C0.847 4.754 0.961333 5.22533 1.19 5.636C1.42333 6.04667 1.74767 6.36633 2.163 6.595C2.583 6.82833 3.066 6.945 3.612 6.945C3.84067 6.945 4.074 6.91933 4.312 6.868C4.55 6.81667 4.767 6.73967 4.963 6.637L5.117 7.085C4.91167 7.19233 4.67367 7.274 4.403 7.33C4.13233 7.386 3.86867 7.414 3.612 7.414C2.97267 7.414 2.40333 7.27633 1.904 7.001C1.40933 6.73033 1.02433 6.35233 0.749 5.867C0.473667 5.38167 0.336 4.83333 0.336 4.222C0.336 3.61067 0.473667 3.06467 0.749 2.584C1.029 2.10333 1.41867 1.72767 1.918 1.457C2.422 1.18633 2.996 1.051 3.64 1.051ZM3.584 5.496C3.81267 5.496 4.01567 5.44467 4.193 5.342C4.375 5.23933 4.51733 5.09467 4.62 4.908C4.72733 4.71667 4.781 4.495 4.781 4.243C4.781 3.991 4.72733 3.77167 4.62 3.585C4.51733 3.39367 4.375 3.249 4.193 3.151C4.01567 3.04833 3.81267 2.997 3.584 2.997C3.22933 2.997 2.94233 3.11133 2.723 3.34C2.50367 3.564 2.394 3.865 2.394 4.243C2.394 4.621 2.50367 4.92433 2.723 5.153C2.947 5.38167 3.234 5.496 3.584 5.496ZM9.46526 6.042C9.09659 6.042 8.76526 5.96033 8.47126 5.797C8.17726 5.63367 7.94626 5.40967 7.77826 5.125C7.61492 4.83567 7.53326 4.509 7.53326 4.145C7.53326 3.781 7.61492 3.45667 7.77826 3.172C7.94626 2.88267 8.17726 2.65867 8.47126 2.5C8.76526 2.33667 9.09659 2.255 9.46526 2.255C9.83392 2.255 10.1629 2.33667 10.4523 2.5C10.7463 2.65867 10.9749 2.88267 11.1383 3.172C11.3063 3.45667 11.3903 3.781 11.3903 4.145C11.3903 4.509 11.3063 4.83567 11.1383 5.125C10.9749 5.40967 10.7463 5.63367 10.4523 5.797C10.1629 5.96033 9.83392 6.042 9.46526 6.042ZM9.46526 5.454C9.70326 5.454 9.91559 5.40033 10.1023 5.293C10.2936 5.181 10.4429 5.027 10.5503 4.831C10.6576 4.63033 10.7113 4.40167 10.7113 4.145C10.7113 3.88833 10.6576 3.662 10.5503 3.466C10.4429 3.26533 10.2936 3.11133 10.1023 3.004C9.91559 2.89667 9.70326 2.843 9.46526 2.843C9.22726 2.843 9.01259 2.89667 8.82126 3.004C8.63459 3.11133 8.48526 3.26533 8.37326 3.466C8.26592 3.662 8.21226 3.88833 8.21226 4.145C8.21226 4.40167 8.26592 4.63033 8.37326 4.831C8.48526 5.027 8.63459 5.181 8.82126 5.293C9.01259 5.40033 9.22726 5.454 9.46526 5.454ZM14.2866 2.255C14.646 2.255 14.968 2.33433 15.2526 2.493C15.5373 2.65167 15.759 2.87333 15.9176 3.158C16.081 3.44267 16.1626 3.77167 16.1626 4.145C16.1626 4.51833 16.081 4.84967 15.9176 5.139C15.759 5.42367 15.5373 5.64533 15.2526 5.804C14.968 5.96267 14.646 6.042 14.2866 6.042C14.0206 6.042 13.7756 5.99067 13.5516 5.888C13.3323 5.78533 13.1456 5.636 12.9916 5.44V7.358H12.3196V2.29H12.9636V2.878C13.113 2.67267 13.302 2.51867 13.5306 2.416C13.7593 2.30867 14.0113 2.255 14.2866 2.255ZM14.2306 5.454C14.4686 5.454 14.681 5.40033 14.8676 5.293C15.059 5.181 15.2083 5.027 15.3156 4.831C15.4276 4.63033 15.4836 4.40167 15.4836 4.145C15.4836 3.88833 15.4276 3.662 15.3156 3.466C15.2083 3.26533 15.059 3.11133 14.8676 3.004C14.681 2.89667 14.4686 2.843 14.2306 2.843C13.9973 2.843 13.785 2.899 13.5936 3.011C13.407 3.11833 13.2576 3.27 13.1456 3.466C13.0383 3.662 12.9846 3.88833 12.9846 4.145C12.9846 4.40167 13.0383 4.63033 13.1456 4.831C13.253 5.027 13.4023 5.181 13.5936 5.293C13.785 5.40033 13.9973 5.454 14.2306 5.454ZM18.4079 2.255C18.9213 2.255 19.3133 2.381 19.5839 2.633C19.8593 2.885 19.9969 3.26067 19.9969 3.76V6H19.3599V5.51C19.2479 5.68267 19.0869 5.81567 18.8769 5.909C18.6716 5.99767 18.4266 6.042 18.1419 6.042C17.7266 6.042 17.3929 5.94167 17.1409 5.741C16.8936 5.54033 16.7699 5.27667 16.7699 4.95C16.7699 4.62333 16.8889 4.362 17.1269 4.166C17.3649 3.96533 17.7429 3.865 18.2609 3.865H19.3249V3.732C19.3249 3.44267 19.2409 3.221 19.0729 3.067C18.9049 2.913 18.6576 2.836 18.3309 2.836C18.1116 2.836 17.8969 2.87333 17.6869 2.948C17.4769 3.018 17.2996 3.11367 17.1549 3.235L16.8749 2.731C17.0663 2.577 17.2949 2.46033 17.5609 2.381C17.8269 2.297 18.1093 2.255 18.4079 2.255ZM18.2539 5.524C18.5106 5.524 18.7323 5.468 18.9189 5.356C19.1056 5.23933 19.2409 5.076 19.3249 4.866V4.348H18.2889C17.7196 4.348 17.4349 4.53933 17.4349 4.922C17.4349 5.10867 17.5073 5.25567 17.6519 5.363C17.7966 5.47033 17.9973 5.524 18.2539 5.524ZM22.5915 2.255C23.1048 2.255 23.4968 2.381 23.7675 2.633C24.0428 2.885 24.1805 3.26067 24.1805 3.76V6H23.5435V5.51C23.4315 5.68267 23.2705 5.81567 23.0605 5.909C22.8552 5.99767 22.6102 6.042 22.3255 6.042C21.9102 6.042 21.5765 5.94167 21.3245 5.741C21.0772 5.54033 20.9535 5.27667 20.9535 4.95C20.9535 4.62333 21.0725 4.362 21.3105 4.166C21.5485 3.96533 21.9265 3.865 22.4445 3.865H23.5085V3.732C23.5085 3.44267 23.4245 3.221 23.2565 3.067C23.0885 2.913 22.8412 2.836 22.5145 2.836C22.2952 2.836 22.0805 2.87333 21.8705 2.948C21.6605 3.018 21.4832 3.11367 21.3385 3.235L21.0585 2.731C21.2498 2.577 21.4785 2.46033 21.7445 2.381C22.0105 2.297 22.2928 2.255 22.5915 2.255ZM22.4375 5.524C22.6942 5.524 22.9158 5.468 23.1025 5.356C23.2892 5.23933 23.4245 5.076 23.5085 4.866V4.348H22.4725C21.9032 4.348 21.6185 4.53933 21.6185 4.922C21.6185 5.10867 21.6908 5.25567 21.8355 5.363C21.9802 5.47033 22.1808 5.524 22.4375 5.524ZM27.4051 2.255C27.8764 2.255 28.2498 2.39267 28.5251 2.668C28.8051 2.93867 28.9451 3.33767 28.9451 3.865V6H28.2731V3.942C28.2731 3.58267 28.1868 3.312 28.0141 3.13C27.8414 2.948 27.5941 2.857 27.2721 2.857C26.9081 2.857 26.6211 2.96433 26.4111 3.179C26.2011 3.389 26.0961 3.69233 26.0961 4.089V6H25.4241V2.29H26.0681V2.85C26.2034 2.65867 26.3854 2.51167 26.6141 2.409C26.8474 2.30633 27.1111 2.255 27.4051 2.255ZM32.2748 5.783C32.1768 5.867 32.0554 5.93233 31.9108 5.979C31.7661 6.021 31.6168 6.042 31.4628 6.042C31.0894 6.042 30.8001 5.94167 30.5948 5.741C30.3894 5.54033 30.2868 5.25333 30.2868 4.88V2.843H29.6568V2.29H30.2868V1.478H30.9588V2.29H32.0228V2.843H30.9588V4.852C30.9588 5.05267 31.0078 5.20667 31.1058 5.314C31.2084 5.42133 31.3531 5.475 31.5398 5.475C31.7451 5.475 31.9201 5.41667 32.0648 5.3L32.2748 5.783ZM34.5531 6.042C34.1845 6.042 33.8531 5.96033 33.5591 5.797C33.2651 5.63367 33.0341 5.40967 32.8661 5.125C32.7028 4.83567 32.6211 4.509 32.6211 4.145C32.6211 3.781 32.7028 3.45667 32.8661 3.172C33.0341 2.88267 33.2651 2.65867 33.5591 2.5C33.8531 2.33667 34.1845 2.255 34.5531 2.255C34.9218 2.255 35.2508 2.33667 35.5401 2.5C35.8341 2.65867 36.0628 2.88267 36.2261 3.172C36.3941 3.45667 36.4781 3.781 36.4781 4.145C36.4781 4.509 36.3941 4.83567 36.2261 5.125C36.0628 5.40967 35.8341 5.63367 35.5401 5.797C35.2508 5.96033 34.9218 6.042 34.5531 6.042ZM34.5531 5.454C34.7911 5.454 35.0035 5.40033 35.1901 5.293C35.3815 5.181 35.5308 5.027 35.6381 4.831C35.7455 4.63033 35.7991 4.40167 35.7991 4.145C35.7991 3.88833 35.7455 3.662 35.6381 3.466C35.5308 3.26533 35.3815 3.11133 35.1901 3.004C35.0035 2.89667 34.7911 2.843 34.5531 2.843C34.3151 2.843 34.1005 2.89667 33.9091 3.004C33.7225 3.11133 33.5731 3.26533 33.4611 3.466C33.3538 3.662 33.3001 3.88833 33.3001 4.145C33.3001 4.40167 33.3538 4.63033 33.4611 4.831C33.5731 5.027 33.7225 5.181 33.9091 5.293C34.1005 5.40033 34.3151 5.454 34.5531 5.454ZM39.3885 2.255C39.8598 2.255 40.2332 2.39267 40.5085 2.668C40.7885 2.93867 40.9285 3.33767 40.9285 3.865V6H40.2565V3.942C40.2565 3.58267 40.1702 3.312 39.9975 3.13C39.8248 2.948 39.5775 2.857 39.2555 2.857C38.8915 2.857 38.6045 2.96433 38.3945 3.179C38.1845 3.389 38.0795 3.69233 38.0795 4.089V6H37.4075V0.806H38.0795V2.815C38.2195 2.63767 38.4015 2.5 38.6255 2.402C38.8542 2.304 39.1085 2.255 39.3885 2.255ZM43.5232 2.255C44.0365 2.255 44.4285 2.381 44.6992 2.633C44.9745 2.885 45.1122 3.26067 45.1122 3.76V6H44.4752V5.51C44.3632 5.68267 44.2022 5.81567 43.9922 5.909C43.7868 5.99767 43.5418 6.042 43.2572 6.042C42.8418 6.042 42.5082 5.94167 42.2562 5.741C42.0088 5.54033 41.8852 5.27667 41.8852 4.95C41.8852 4.62333 42.0042 4.362 42.2422 4.166C42.4802 3.96533 42.8582 3.865 43.3762 3.865H44.4402V3.732C44.4402 3.44267 44.3562 3.221 44.1882 3.067C44.0202 2.913 43.7728 2.836 43.4462 2.836C43.2268 2.836 43.0122 2.87333 42.8022 2.948C42.5922 3.018 42.4148 3.11367 42.2702 3.235L41.9902 2.731C42.1815 2.577 42.4102 2.46033 42.6762 2.381C42.9422 2.297 43.2245 2.255 43.5232 2.255ZM43.3692 5.524C43.6258 5.524 43.8475 5.468 44.0342 5.356C44.2208 5.23933 44.3562 5.076 44.4402 4.866V4.348H43.4042C42.8348 4.348 42.5502 4.53933 42.5502 4.922C42.5502 5.10867 42.6225 5.25567 42.7672 5.363C42.9118 5.47033 43.1125 5.524 43.3692 5.524Z" fill="white"/>
</svg>
