<svg width="273" height="42" viewBox="0 0 273 42" fill="none" xmlns="http://www.w3.org/2000/svg">
<rect width="273" height="42" rx="15" fill="url(#paint0_linear_12_288)"/>
<path d="M28.216 26.47V32.427H25.456V29H13.105V32.427H10.322L10.345 26.47H11.035C12.047 26.424 12.7523 25.6803 13.151 24.239C13.565 22.7823 13.818 20.7047 13.91 18.006L14.094 12.9H25.893V26.47H28.216ZM16.532 18.282C16.4553 20.3673 16.2867 22.1077 16.026 23.503C15.7653 24.883 15.3513 25.872 14.784 26.47H22.949V15.43H16.647L16.532 18.282ZM35.5507 29.161C34.3087 29.161 33.1894 28.8927 32.1927 28.356C31.1961 27.8193 30.4141 27.0757 29.8467 26.125C29.2947 25.159 29.0187 24.0703 29.0187 22.859C29.0187 21.6477 29.2947 20.5667 29.8467 19.616C30.4141 18.6653 31.1961 17.9217 32.1927 17.385C33.1894 16.8483 34.3087 16.58 35.5507 16.58C36.8081 16.58 37.9351 16.8483 38.9317 17.385C39.9284 17.9217 40.7027 18.6653 41.2547 19.616C41.8221 20.5667 42.1057 21.6477 42.1057 22.859C42.1057 24.0703 41.8221 25.159 41.2547 26.125C40.7027 27.0757 39.9284 27.8193 38.9317 28.356C37.9351 28.8927 36.8081 29.161 35.5507 29.161ZM35.5507 26.7C36.6087 26.7 37.4827 26.3473 38.1727 25.642C38.8627 24.9367 39.2077 24.009 39.2077 22.859C39.2077 21.709 38.8627 20.7813 38.1727 20.076C37.4827 19.3707 36.6087 19.018 35.5507 19.018C34.4927 19.018 33.6187 19.3707 32.9287 20.076C32.2541 20.7813 31.9167 21.709 31.9167 22.859C31.9167 24.009 32.2541 24.9367 32.9287 25.642C33.6187 26.3473 34.4927 26.7 35.5507 26.7ZM51.1849 17.316C52.3502 17.316 53.3775 17.569 54.2669 18.075C55.1562 18.5657 55.8462 19.2557 56.3369 20.145C56.8429 21.0343 57.0959 22.054 57.0959 23.204C57.0959 24.3847 56.8199 25.435 56.2679 26.355C55.7159 27.2597 54.9415 27.965 53.9449 28.471C52.9482 28.977 51.8135 29.23 50.5409 29.23C48.4095 29.23 46.7612 28.5247 45.5959 27.114C44.4305 25.7033 43.8479 23.6717 43.8479 21.019C43.8479 18.5503 44.3769 16.5953 45.4349 15.154C46.4929 13.7127 48.1105 12.762 50.2879 12.302L55.9919 11.083L56.4059 13.659L51.2309 14.717C49.7435 15.0237 48.6319 15.545 47.8959 16.281C47.1599 17.017 46.7305 18.052 46.6079 19.386C47.1599 18.7267 47.8269 18.2207 48.6089 17.868C49.3909 17.5 50.2495 17.316 51.1849 17.316ZM50.6099 26.907C51.6679 26.907 52.5189 26.5697 53.1629 25.895C53.8222 25.205 54.1519 24.331 54.1519 23.273C54.1519 22.215 53.8222 21.364 53.1629 20.72C52.5189 20.076 51.6679 19.754 50.6099 19.754C49.5365 19.754 48.6702 20.076 48.0109 20.72C47.3515 21.364 47.0219 22.215 47.0219 23.273C47.0219 24.3463 47.3515 25.2203 48.0109 25.895C48.6855 26.5697 49.5519 26.907 50.6099 26.907ZM63.8905 16.58C65.6998 16.58 67.0798 17.017 68.0305 17.891C68.9965 18.7497 69.4795 20.053 69.4795 21.801V29H66.7655V27.505C66.4128 28.0417 65.9068 28.4557 65.2475 28.747C64.6035 29.023 63.8215 29.161 62.9015 29.161C61.9815 29.161 61.1765 29.0077 60.4865 28.701C59.7965 28.379 59.2598 27.942 58.8765 27.39C58.5085 26.8227 58.3245 26.1863 58.3245 25.481C58.3245 24.377 58.7308 23.4953 59.5435 22.836C60.3715 22.1613 61.6671 21.824 63.4305 21.824H66.6045V21.64C66.6045 20.7813 66.3438 20.122 65.8225 19.662C65.3165 19.202 64.5575 18.972 63.5455 18.972C62.8555 18.972 62.1731 19.0793 61.4985 19.294C60.8391 19.5087 60.2795 19.8077 59.8195 20.191L58.6925 18.098C59.3365 17.6073 60.1108 17.2317 61.0155 16.971C61.9201 16.7103 62.8785 16.58 63.8905 16.58ZM63.4995 27.068C64.2201 27.068 64.8565 26.907 65.4085 26.585C65.9758 26.2477 66.3745 25.7723 66.6045 25.159V23.733H63.6375C61.9815 23.733 61.1535 24.2773 61.1535 25.366C61.1535 25.8873 61.3605 26.3013 61.7745 26.608C62.1885 26.9147 62.7635 27.068 63.4995 27.068ZM81.5301 22.606C83.0481 23.066 83.8071 24.0473 83.8071 25.55C83.8071 26.654 83.3931 27.505 82.5651 28.103C81.7371 28.701 80.5104 29 78.8851 29H72.6291V16.718H78.6321C80.1348 16.718 81.3078 16.994 82.1511 17.546C82.9944 18.098 83.4161 18.88 83.4161 19.892C83.4161 20.5207 83.2474 21.065 82.9101 21.525C82.5881 21.985 82.1281 22.3453 81.5301 22.606ZM75.3661 21.847H78.3791C79.8664 21.847 80.6101 21.3333 80.6101 20.306C80.6101 19.3093 79.8664 18.811 78.3791 18.811H75.3661V21.847ZM78.6551 26.907C80.2344 26.907 81.0241 26.3933 81.0241 25.366C81.0241 24.8293 80.8401 24.4307 80.4721 24.17C80.1041 23.894 79.5291 23.756 78.7471 23.756H75.3661V26.907H78.6551ZM86.4613 16.718H89.3363V24.814L96.1213 16.718H98.7433V29H95.8683V20.904L89.1063 29H86.4613V16.718ZM111.932 19.156H107.631V29H104.756V19.156H100.432V16.718H111.932V19.156ZM119.773 20.766C121.337 20.766 122.533 21.1187 123.361 21.824C124.205 22.5293 124.626 23.526 124.626 24.814C124.626 26.1633 124.166 27.206 123.246 27.942C122.326 28.678 121.031 29.0383 119.359 29.023L113.609 29V16.718H116.484V20.743L119.773 20.766ZM119.106 26.907C119.95 26.9223 120.594 26.746 121.038 26.378C121.483 26.01 121.705 25.4733 121.705 24.768C121.705 24.078 121.491 23.572 121.061 23.25C120.632 22.928 119.98 22.7593 119.106 22.744L116.484 22.721V26.884L119.106 26.907ZM141.595 22.606C143.113 23.066 143.872 24.0473 143.872 25.55C143.872 26.654 143.458 27.505 142.63 28.103C141.802 28.701 140.575 29 138.95 29H132.694V16.718H138.697C140.199 16.718 141.372 16.994 142.216 17.546C143.059 18.098 143.481 18.88 143.481 19.892C143.481 20.5207 143.312 21.065 142.975 21.525C142.653 21.985 142.193 22.3453 141.595 22.606ZM135.431 21.847H138.444C139.931 21.847 140.675 21.3333 140.675 20.306C140.675 19.3093 139.931 18.811 138.444 18.811H135.431V21.847ZM138.72 26.907C140.299 26.907 141.089 26.3933 141.089 25.366C141.089 24.8293 140.905 24.4307 140.537 24.17C140.169 23.894 139.594 23.756 138.812 23.756H135.431V26.907H138.72ZM157.58 24.078H155.349V29H152.474V16.718H155.349V21.686H157.649L161.283 16.718H164.365L159.903 22.629L164.664 29H161.283L157.58 24.078ZM171.354 29.161C170.112 29.161 168.992 28.8927 167.996 28.356C166.999 27.8193 166.217 27.0757 165.65 26.125C165.098 25.159 164.822 24.0703 164.822 22.859C164.822 21.6477 165.098 20.5667 165.65 19.616C166.217 18.6653 166.999 17.9217 167.996 17.385C168.992 16.8483 170.112 16.58 171.354 16.58C172.611 16.58 173.738 16.8483 174.735 17.385C175.731 17.9217 176.506 18.6653 177.058 19.616C177.625 20.5667 177.909 21.6477 177.909 22.859C177.909 24.0703 177.625 25.159 177.058 26.125C176.506 27.0757 175.731 27.8193 174.735 28.356C173.738 28.8927 172.611 29.161 171.354 29.161ZM171.354 26.7C172.412 26.7 173.286 26.3473 173.976 25.642C174.666 24.9367 175.011 24.009 175.011 22.859C175.011 21.709 174.666 20.7813 173.976 20.076C173.286 19.3707 172.412 19.018 171.354 19.018C170.296 19.018 169.422 19.3707 168.732 20.076C168.057 20.7813 167.72 21.709 167.72 22.859C167.72 24.009 168.057 24.9367 168.732 25.642C169.422 26.3473 170.296 26.7 171.354 26.7ZM180.341 16.718H183.216V21.709H189.403V16.718H192.278V29H189.403V24.147H183.216V29H180.341V16.718ZM205.452 19.156H201.151V29H198.276V19.156H193.952V16.718H205.452V19.156ZM211.706 16.58C213.516 16.58 214.896 17.017 215.846 17.891C216.812 18.7497 217.295 20.053 217.295 21.801V29H214.581V27.505C214.229 28.0417 213.723 28.4557 213.063 28.747C212.419 29.023 211.637 29.161 210.717 29.161C209.797 29.161 208.992 29.0077 208.302 28.701C207.612 28.379 207.076 27.942 206.692 27.39C206.324 26.8227 206.14 26.1863 206.14 25.481C206.14 24.377 206.547 23.4953 207.359 22.836C208.187 22.1613 209.483 21.824 211.246 21.824H214.42V21.64C214.42 20.7813 214.16 20.122 213.638 19.662C213.132 19.202 212.373 18.972 211.361 18.972C210.671 18.972 209.989 19.0793 209.314 19.294C208.655 19.5087 208.095 19.8077 207.635 20.191L206.508 18.098C207.152 17.6073 207.927 17.2317 208.831 16.971C209.736 16.7103 210.694 16.58 211.706 16.58ZM211.315 27.068C212.036 27.068 212.672 26.907 213.224 26.585C213.792 26.2477 214.19 25.7723 214.42 25.159V23.733H211.453C209.797 23.733 208.969 24.2773 208.969 25.366C208.969 25.8873 209.176 26.3013 209.59 26.608C210.004 26.9147 210.579 27.068 211.315 27.068ZM225.551 24.078H223.32V29H220.445V16.718H223.32V21.686H225.62L229.254 16.718H232.336L227.874 22.629L232.635 29H229.254L225.551 24.078ZM243.827 19.156H239.526V29H236.651V19.156H232.327V16.718H243.827V19.156ZM251.484 20.766C253.048 20.766 254.244 21.1187 255.072 21.824C255.9 22.5293 256.314 23.526 256.314 24.814C256.314 26.1633 255.854 27.206 254.934 27.942C254.029 28.678 252.741 29.0383 251.07 29.023L245.504 29V16.718H248.379V20.743L251.484 20.766ZM257.901 16.718H260.776V29H257.901V16.718ZM250.817 26.907C251.66 26.9223 252.304 26.746 252.749 26.378C253.194 26.01 253.416 25.4733 253.416 24.768C253.416 24.078 253.201 23.572 252.772 23.25C252.343 22.928 251.691 22.7593 250.817 22.744L248.379 22.721V26.884L250.817 26.907Z" fill="white"/>
<defs>
<linearGradient id="paint0_linear_12_288" x1="-17.9605" y1="-9.04916e-07" x2="431.086" y2="100.328" gradientUnits="userSpaceOnUse">
<stop stop-color="#FF4E50"/>
<stop offset="1" stop-color="#F9D423"/>
</linearGradient>
</defs>
</svg>
