<svg width="230" height="42" viewBox="0 0 230 42" fill="none" xmlns="http://www.w3.org/2000/svg">
<rect width="230" height="42" rx="15" fill="url(#paint0_linear_12_357)"/>
<path d="M22.926 25.274H14.876L13.289 29H10.207L17.452 12.9H20.396L27.664 29H24.536L22.926 25.274ZM21.937 22.928L18.901 15.89L15.888 22.928H21.937ZM29.4029 16.718H32.2779V21.709H38.4649V16.718H41.3399V29H38.4649V24.147H32.2779V29H29.4029V16.718ZM57.8949 26.562V31.737H55.2039V29H45.7279V31.737H43.0599V26.562H43.6349C44.4169 26.5313 44.9459 26.033 45.2219 25.067C45.5133 24.0857 45.7049 22.7057 45.7969 20.927L45.9579 16.718H56.0779V26.562H57.8949ZM48.4189 21.134C48.3576 22.5447 48.2426 23.6947 48.0739 24.584C47.9053 25.4733 47.5986 26.1327 47.1539 26.562H53.2029V19.156H48.4879L48.4189 21.134ZM66.8627 16.58C68.0587 16.58 69.1243 16.8407 70.0597 17.362C71.0103 17.8833 71.754 18.6193 72.2907 19.57C72.8273 20.5207 73.0957 21.617 73.0957 22.859C73.0957 24.101 72.8273 25.205 72.2907 26.171C71.754 27.1217 71.0103 27.8577 70.0597 28.379C69.1243 28.9003 68.0587 29.161 66.8627 29.161C65.2067 29.161 63.8957 28.609 62.9297 27.505V33.462H60.0547V16.718H62.7917V18.328C63.267 17.7453 63.8497 17.3083 64.5397 17.017C65.245 16.7257 66.0193 16.58 66.8627 16.58ZM66.5407 26.7C67.5987 26.7 68.465 26.3473 69.1397 25.642C69.8297 24.9367 70.1747 24.009 70.1747 22.859C70.1747 21.709 69.8297 20.7813 69.1397 20.076C68.465 19.3707 67.5987 19.018 66.5407 19.018C65.8507 19.018 65.2297 19.179 64.6777 19.501C64.1257 19.8077 63.6887 20.2523 63.3667 20.835C63.0447 21.4177 62.8837 22.0923 62.8837 22.859C62.8837 23.6257 63.0447 24.3003 63.3667 24.883C63.6887 25.4657 64.1257 25.918 64.6777 26.24C65.2297 26.5467 65.8507 26.7 66.5407 26.7ZM87.049 22.928C87.049 23.1273 87.0337 23.411 87.003 23.779H77.366C77.5347 24.6837 77.9717 25.4043 78.677 25.941C79.3977 26.4623 80.287 26.723 81.345 26.723C82.6944 26.723 83.806 26.2783 84.68 25.389L86.221 27.16C85.669 27.8193 84.9714 28.3177 84.128 28.655C83.2847 28.9923 82.334 29.161 81.276 29.161C79.9267 29.161 78.7384 28.8927 77.711 28.356C76.6837 27.8193 75.8864 27.0757 75.319 26.125C74.767 25.159 74.491 24.0703 74.491 22.859C74.491 21.663 74.7594 20.5897 75.296 19.639C75.848 18.673 76.607 17.9217 77.573 17.385C78.539 16.8483 79.6277 16.58 80.839 16.58C82.035 16.58 83.1007 16.8483 84.036 17.385C84.9867 17.9063 85.7227 18.65 86.244 19.616C86.7807 20.5667 87.049 21.6707 87.049 22.928ZM80.839 18.88C79.919 18.88 79.137 19.156 78.493 19.708C77.8644 20.2447 77.481 20.9653 77.343 21.87H84.312C84.1894 20.9807 83.8137 20.26 83.185 19.708C82.5564 19.156 81.7744 18.88 80.839 18.88ZM89.7856 16.718H92.6606V24.814L99.4456 16.718H102.068V29H99.1926V20.904L92.4306 29H89.7856V16.718ZM95.7426 15.269C94.5006 15.269 93.5499 14.9853 92.8906 14.418C92.2466 13.8353 91.9169 12.992 91.9016 11.888H93.8106C93.8259 12.44 93.9946 12.877 94.3166 13.199C94.6539 13.521 95.1216 13.682 95.7196 13.682C96.3022 13.682 96.7622 13.521 97.0996 13.199C97.4522 12.877 97.6362 12.44 97.6516 11.888H99.6066C99.5912 12.992 99.2539 13.8353 98.5946 14.418C97.9352 14.9853 96.9846 15.269 95.7426 15.269ZM122.4 20.628C123.428 20.904 124.21 21.3793 124.746 22.054C125.283 22.7133 125.551 23.5413 125.551 24.538C125.551 25.9487 125.03 27.045 123.987 27.827C122.945 28.609 121.434 29 119.456 29H111.82V12.9H119.019C120.829 12.9 122.239 13.2603 123.251 13.981C124.263 14.7017 124.769 15.7213 124.769 17.04C124.769 17.8833 124.562 18.6117 124.148 19.225C123.75 19.8383 123.167 20.306 122.4 20.628ZM114.764 19.777H118.766C119.732 19.777 120.468 19.5853 120.974 19.202C121.48 18.8187 121.733 18.2513 121.733 17.5C121.733 16.7487 121.48 16.1813 120.974 15.798C120.468 15.3993 119.732 15.2 118.766 15.2H114.764V19.777ZM119.364 26.7C121.48 26.7 122.538 25.9027 122.538 24.308C122.538 22.744 121.48 21.962 119.364 21.962H114.764V26.7H119.364ZM133.702 29.161C132.46 29.161 131.34 28.8927 130.344 28.356C129.347 27.8193 128.565 27.0757 127.998 26.125C127.446 25.159 127.17 24.0703 127.17 22.859C127.17 21.6477 127.446 20.5667 127.998 19.616C128.565 18.6653 129.347 17.9217 130.344 17.385C131.34 16.8483 132.46 16.58 133.702 16.58C134.959 16.58 136.086 16.8483 137.083 17.385C138.079 17.9217 138.854 18.6653 139.406 19.616C139.973 20.5667 140.257 21.6477 140.257 22.859C140.257 24.0703 139.973 25.159 139.406 26.125C138.854 27.0757 138.079 27.8193 137.083 28.356C136.086 28.8927 134.959 29.161 133.702 29.161ZM133.702 26.7C134.76 26.7 135.634 26.3473 136.324 25.642C137.014 24.9367 137.359 24.009 137.359 22.859C137.359 21.709 137.014 20.7813 136.324 20.076C135.634 19.3707 134.76 19.018 133.702 19.018C132.644 19.018 131.77 19.3707 131.08 20.076C130.405 20.7813 130.068 21.709 130.068 22.859C130.068 24.009 130.405 24.9367 131.08 25.642C131.77 26.3473 132.644 26.7 133.702 26.7ZM153.686 16.718V29H150.811V19.156H146.211L146.096 21.594C146.019 23.2193 145.866 24.584 145.636 25.688C145.421 26.7767 145.046 27.643 144.509 28.287C143.988 28.9157 143.267 29.23 142.347 29.23C141.918 29.23 141.389 29.1457 140.76 28.977L140.898 26.562C141.113 26.608 141.297 26.631 141.45 26.631C142.033 26.631 142.47 26.401 142.761 25.941C143.052 25.4657 143.236 24.906 143.313 24.262C143.405 23.6027 143.482 22.6673 143.543 21.456L143.75 16.718H153.686ZM162.624 29.161C161.382 29.161 160.263 28.8927 159.266 28.356C158.269 27.8193 157.487 27.0757 156.92 26.125C156.368 25.159 156.092 24.0703 156.092 22.859C156.092 21.6477 156.368 20.5667 156.92 19.616C157.487 18.6653 158.269 17.9217 159.266 17.385C160.263 16.8483 161.382 16.58 162.624 16.58C163.881 16.58 165.008 16.8483 166.005 17.385C167.002 17.9217 167.776 18.6653 168.328 19.616C168.895 20.5667 169.179 21.6477 169.179 22.859C169.179 24.0703 168.895 25.159 168.328 26.125C167.776 27.0757 167.002 27.8193 166.005 28.356C165.008 28.8927 163.881 29.161 162.624 29.161ZM162.624 26.7C163.682 26.7 164.556 26.3473 165.246 25.642C165.936 24.9367 166.281 24.009 166.281 22.859C166.281 21.709 165.936 20.7813 165.246 20.076C164.556 19.3707 163.682 19.018 162.624 19.018C161.566 19.018 160.692 19.3707 160.002 20.076C159.327 20.7813 158.99 21.709 158.99 22.859C158.99 24.009 159.327 24.9367 160.002 25.642C160.692 26.3473 161.566 26.7 162.624 26.7ZM189.712 16.718V29H171.611V16.718H174.486V26.562H179.247V16.718H182.122V26.562H186.837V16.718H189.712ZM198.276 24.078H196.045V29H193.17V16.718H196.045V21.686H198.345L201.979 16.718H205.061L200.599 22.629L205.36 29H201.979L198.276 24.078ZM212.049 29.161C210.807 29.161 209.688 28.8927 208.691 28.356C207.695 27.8193 206.913 27.0757 206.345 26.125C205.793 25.159 205.517 24.0703 205.517 22.859C205.517 21.6477 205.793 20.5667 206.345 19.616C206.913 18.6653 207.695 17.9217 208.691 17.385C209.688 16.8483 210.807 16.58 212.049 16.58C213.307 16.58 214.434 16.8483 215.43 17.385C216.427 17.9217 217.201 18.6653 217.753 19.616C218.321 20.5667 218.604 21.6477 218.604 22.859C218.604 24.0703 218.321 25.159 217.753 26.125C217.201 27.0757 216.427 27.8193 215.43 28.356C214.434 28.8927 213.307 29.161 212.049 29.161ZM212.049 26.7C213.107 26.7 213.981 26.3473 214.671 25.642C215.361 24.9367 215.706 24.009 215.706 22.859C215.706 21.709 215.361 20.7813 214.671 20.076C213.981 19.3707 213.107 19.018 212.049 19.018C210.991 19.018 210.117 19.3707 209.427 20.076C208.753 20.7813 208.415 21.709 208.415 22.859C208.415 24.009 208.753 24.9367 209.427 25.642C210.117 26.3473 210.991 26.7 212.049 26.7Z" fill="white"/>
<defs>
<linearGradient id="paint0_linear_12_357" x1="-43.8816" y1="-8.50001" x2="368.442" y2="72.349" gradientUnits="userSpaceOnUse">
<stop stop-color="#3F3F3F"/>
<stop offset="1" stop-color="#236CF9"/>
</linearGradient>
</defs>
</svg>
