<svg width="116" height="13" viewBox="0 0 116 13" fill="none" xmlns="http://www.w3.org/2000/svg">
<path d="M7.306 7.894H2.756L1.859 10H0.117L4.212 0.899999H5.876L9.984 10H8.216L7.306 7.894ZM6.747 6.568L5.031 2.59L3.328 6.568H6.747ZM10.7895 3.058H12.4145V5.879H15.9115V3.058H17.5365V10H15.9115V7.257H12.4145V10H10.7895V3.058ZM26.7163 8.622V11.547H25.1953V10H19.8393V11.547H18.3313V8.622H18.6563C19.0983 8.60467 19.3973 8.323 19.5533 7.777C19.7179 7.22233 19.8263 6.44233 19.8783 5.437L19.9693 3.058H25.6893V8.622H26.7163ZM21.3603 5.554C21.3256 6.35133 21.2606 7.00133 21.1653 7.504C21.0699 8.00667 20.8966 8.37933 20.6453 8.622H24.0643V4.436H21.3993L21.3603 5.554ZM31.6076 2.98C32.2836 2.98 32.8859 3.12733 33.4146 3.422C33.9519 3.71667 34.3723 4.13267 34.6756 4.67C34.9789 5.20733 35.1306 5.827 35.1306 6.529C35.1306 7.231 34.9789 7.855 34.6756 8.401C34.3723 8.93833 33.9519 9.35433 33.4146 9.649C32.8859 9.94367 32.2836 10.091 31.6076 10.091C30.6716 10.091 29.9306 9.779 29.3846 9.155V12.522H27.7596V3.058H29.3066V3.968C29.5753 3.63867 29.9046 3.39167 30.2946 3.227C30.6933 3.06233 31.1309 2.98 31.6076 2.98ZM31.4256 8.7C32.0236 8.7 32.5133 8.50067 32.8946 8.102C33.2846 7.70333 33.4796 7.179 33.4796 6.529C33.4796 5.879 33.2846 5.35467 32.8946 4.956C32.5133 4.55733 32.0236 4.358 31.4256 4.358C31.0356 4.358 30.6846 4.449 30.3726 4.631C30.0606 4.80433 29.8136 5.05567 29.6316 5.385C29.4496 5.71433 29.3586 6.09567 29.3586 6.529C29.3586 6.96233 29.4496 7.34367 29.6316 7.673C29.8136 8.00233 30.0606 8.258 30.3726 8.44C30.6846 8.61333 31.0356 8.7 31.4256 8.7ZM42.8399 6.568C42.8399 6.68067 42.8312 6.841 42.8139 7.049H37.3669C37.4622 7.56033 37.7092 7.96767 38.1079 8.271C38.5152 8.56567 39.0179 8.713 39.6159 8.713C40.3785 8.713 41.0069 8.46167 41.5009 7.959L42.3719 8.96C42.0599 9.33267 41.6655 9.61433 41.1889 9.805C40.7122 9.99567 40.1749 10.091 39.5769 10.091C38.8142 10.091 38.1425 9.93933 37.5619 9.636C36.9812 9.33267 36.5305 8.91233 36.2099 8.375C35.8979 7.829 35.7419 7.21367 35.7419 6.529C35.7419 5.853 35.8935 5.24633 36.1969 4.709C36.5089 4.163 36.9379 3.73833 37.4839 3.435C38.0299 3.13167 38.6452 2.98 39.3299 2.98C40.0059 2.98 40.6082 3.13167 41.1369 3.435C41.6742 3.72967 42.0902 4.15 42.3849 4.696C42.6882 5.23333 42.8399 5.85733 42.8399 6.568ZM39.3299 4.28C38.8099 4.28 38.3679 4.436 38.0039 4.748C37.6485 5.05133 37.4319 5.45867 37.3539 5.97H41.2929C41.2235 5.46733 41.0112 5.06 40.6559 4.748C40.3005 4.436 39.8585 4.28 39.3299 4.28ZM44.2092 3.058H45.8342V7.634L49.6692 3.058H51.1512V10H49.5262V5.424L45.7042 10H44.2092V3.058ZM47.5762 2.239C46.8742 2.239 46.3369 2.07867 45.9642 1.758C45.6002 1.42867 45.4139 0.951999 45.4052 0.328H46.4842C46.4929 0.64 46.5882 0.887 46.7702 1.069C46.9609 1.251 47.2252 1.342 47.5632 1.342C47.8926 1.342 48.1526 1.251 48.3432 1.069C48.5426 0.887 48.6466 0.64 48.6552 0.328H49.7602C49.7516 0.951999 49.5609 1.42867 49.1882 1.758C48.8156 2.07867 48.2782 2.239 47.5762 2.239ZM62.2889 5.268C62.8696 5.424 63.3116 5.69267 63.6149 6.074C63.9183 6.44667 64.0699 6.91467 64.0699 7.478C64.0699 8.27533 63.7753 8.895 63.1859 9.337C62.5966 9.779 61.7429 10 60.6249 10H56.3089V0.899999H60.3779C61.4006 0.899999 62.1979 1.10367 62.7699 1.511C63.3419 1.91833 63.6279 2.49467 63.6279 3.24C63.6279 3.71667 63.5109 4.12833 63.2769 4.475C63.0516 4.82167 62.7223 5.086 62.2889 5.268ZM57.9729 4.787H60.2349C60.7809 4.787 61.1969 4.67867 61.4829 4.462C61.7689 4.24533 61.9119 3.92467 61.9119 3.5C61.9119 3.07533 61.7689 2.75467 61.4829 2.538C61.1969 2.31267 60.7809 2.2 60.2349 2.2H57.9729V4.787ZM60.5729 8.7C61.7689 8.7 62.3669 8.24933 62.3669 7.348C62.3669 6.464 61.7689 6.022 60.5729 6.022H57.9729V8.7H60.5729ZM68.4991 10.091C67.7971 10.091 67.1645 9.93933 66.6011 9.636C66.0378 9.33267 65.5958 8.91233 65.2751 8.375C64.9631 7.829 64.8071 7.21367 64.8071 6.529C64.8071 5.84433 64.9631 5.23333 65.2751 4.696C65.5958 4.15867 66.0378 3.73833 66.6011 3.435C67.1645 3.13167 67.7971 2.98 68.4991 2.98C69.2098 2.98 69.8468 3.13167 70.4101 3.435C70.9735 3.73833 71.4111 4.15867 71.7231 4.696C72.0438 5.23333 72.2041 5.84433 72.2041 6.529C72.2041 7.21367 72.0438 7.829 71.7231 8.375C71.4111 8.91233 70.9735 9.33267 70.4101 9.636C69.8468 9.93933 69.2098 10.091 68.4991 10.091ZM68.4991 8.7C69.0971 8.7 69.5911 8.50067 69.9811 8.102C70.3711 7.70333 70.5661 7.179 70.5661 6.529C70.5661 5.879 70.3711 5.35467 69.9811 4.956C69.5911 4.55733 69.0971 4.358 68.4991 4.358C67.9011 4.358 67.4071 4.55733 67.0171 4.956C66.6358 5.35467 66.4451 5.879 66.4451 6.529C66.4451 7.179 66.6358 7.70333 67.0171 8.102C67.4071 8.50067 67.9011 8.7 68.4991 8.7ZM79.6173 3.058V10H77.9923V4.436H75.3923L75.3273 5.814C75.2839 6.73267 75.1973 7.504 75.0673 8.128C74.9459 8.74333 74.7336 9.233 74.4303 9.597C74.1356 9.95233 73.7283 10.13 73.2083 10.13C72.9656 10.13 72.6666 10.0823 72.3113 9.987L72.3893 8.622C72.5106 8.648 72.6146 8.661 72.7013 8.661C73.0306 8.661 73.2776 8.531 73.4423 8.271C73.6069 8.00233 73.7109 7.686 73.7543 7.322C73.8063 6.94933 73.8496 6.42067 73.8843 5.736L74.0013 3.058H79.6173ZM84.4917 10.091C83.7897 10.091 83.1571 9.93933 82.5937 9.636C82.0304 9.33267 81.5884 8.91233 81.2677 8.375C80.9557 7.829 80.7997 7.21367 80.7997 6.529C80.7997 5.84433 80.9557 5.23333 81.2677 4.696C81.5884 4.15867 82.0304 3.73833 82.5937 3.435C83.1571 3.13167 83.7897 2.98 84.4917 2.98C85.2024 2.98 85.8394 3.13167 86.4027 3.435C86.9661 3.73833 87.4037 4.15867 87.7157 4.696C88.0364 5.23333 88.1967 5.84433 88.1967 6.529C88.1967 7.21367 88.0364 7.829 87.7157 8.375C87.4037 8.91233 86.9661 9.33267 86.4027 9.636C85.8394 9.93933 85.2024 10.091 84.4917 10.091ZM84.4917 8.7C85.0897 8.7 85.5837 8.50067 85.9737 8.102C86.3637 7.70333 86.5587 7.179 86.5587 6.529C86.5587 5.879 86.3637 5.35467 85.9737 4.956C85.5837 4.55733 85.0897 4.358 84.4917 4.358C83.8937 4.358 83.3997 4.55733 83.0097 4.956C82.6284 5.35467 82.4377 5.879 82.4377 6.529C82.4377 7.179 82.6284 7.70333 83.0097 8.102C83.3997 8.50067 83.8937 8.7 84.4917 8.7ZM99.625 3.058V10H89.394V3.058H91.019V8.622H93.71V3.058H95.335V8.622H98V3.058H99.625ZM104.288 7.218H103.027V10H101.402V3.058H103.027V5.866H104.327L106.381 3.058H108.123L105.601 6.399L108.292 10H106.381L104.288 7.218ZM111.896 10.091C111.194 10.091 110.561 9.93933 109.998 9.636C109.434 9.33267 108.992 8.91233 108.672 8.375C108.36 7.829 108.204 7.21367 108.204 6.529C108.204 5.84433 108.36 5.23333 108.672 4.696C108.992 4.15867 109.434 3.73833 109.998 3.435C110.561 3.13167 111.194 2.98 111.896 2.98C112.606 2.98 113.243 3.13167 113.807 3.435C114.37 3.73833 114.808 4.15867 115.12 4.696C115.44 5.23333 115.601 5.84433 115.601 6.529C115.601 7.21367 115.44 7.829 115.12 8.375C114.808 8.91233 114.37 9.33267 113.807 9.636C113.243 9.93933 112.606 10.091 111.896 10.091ZM111.896 8.7C112.494 8.7 112.988 8.50067 113.378 8.102C113.768 7.70333 113.963 7.179 113.963 6.529C113.963 5.879 113.768 5.35467 113.378 4.956C112.988 4.55733 112.494 4.358 111.896 4.358C111.298 4.358 110.804 4.55733 110.414 4.956C110.032 5.35467 109.842 5.879 109.842 6.529C109.842 7.179 110.032 7.70333 110.414 8.102C110.804 8.50067 111.298 8.7 111.896 8.7Z" fill="white"/>
</svg>
