<svg width="221" height="42" viewBox="0 0 221 42" fill="none" xmlns="http://www.w3.org/2000/svg">
<rect width="221" height="42" rx="15" fill="url(#paint0_linear_12_497)"/>
<path d="M22.926 25.274H14.876L13.289 29H10.207L17.452 12.9H20.396L27.664 29H24.536L22.926 25.274ZM21.937 22.928L18.901 15.89L15.888 22.928H21.937ZM29.4029 16.718H32.2779V21.709H38.4649V16.718H41.3399V29H38.4649V24.147H32.2779V29H29.4029V16.718ZM54.5139 19.156H50.2129V29H47.3379V19.156H43.0139V16.718H54.5139V19.156ZM61.1263 29.161C59.8843 29.161 58.765 28.8927 57.7683 28.356C56.7717 27.8193 55.9897 27.0757 55.4223 26.125C54.8703 25.159 54.5943 24.0703 54.5943 22.859C54.5943 21.6477 54.8703 20.5667 55.4223 19.616C55.9897 18.6653 56.7717 17.9217 57.7683 17.385C58.765 16.8483 59.8843 16.58 61.1263 16.58C62.3837 16.58 63.5107 16.8483 64.5073 17.385C65.504 17.9217 66.2783 18.6653 66.8303 19.616C67.3977 20.5667 67.6813 21.6477 67.6813 22.859C67.6813 24.0703 67.3977 25.159 66.8303 26.125C66.2783 27.0757 65.504 27.8193 64.5073 28.356C63.5107 28.8927 62.3837 29.161 61.1263 29.161ZM61.1263 26.7C62.1843 26.7 63.0583 26.3473 63.7483 25.642C64.4383 24.9367 64.7833 24.009 64.7833 22.859C64.7833 21.709 64.4383 20.7813 63.7483 20.076C63.0583 19.3707 62.1843 19.018 61.1263 19.018C60.0683 19.018 59.1943 19.3707 58.5043 20.076C57.8297 20.7813 57.4923 21.709 57.4923 22.859C57.4923 24.009 57.8297 24.9367 58.5043 25.642C59.1943 26.3473 60.0683 26.7 61.1263 26.7ZM70.1135 16.718H72.9885V21.709H79.1755V16.718H82.0505V29H79.1755V24.147H72.9885V29H70.1135V16.718ZM99.172 29.23C97.5466 29.23 96.0746 28.8773 94.756 28.172C93.4526 27.4513 92.4253 26.4623 91.674 25.205C90.938 23.9477 90.57 22.5293 90.57 20.95C90.57 19.3707 90.9456 17.9523 91.697 16.695C92.4483 15.4377 93.4756 14.4563 94.779 13.751C96.0976 13.0303 97.5696 12.67 99.195 12.67C100.514 12.67 101.717 12.9 102.806 13.36C103.895 13.82 104.815 14.487 105.566 15.361L103.634 17.178C102.469 15.9207 101.035 15.292 99.333 15.292C98.229 15.292 97.24 15.5373 96.366 16.028C95.492 16.5033 94.8096 17.1703 94.319 18.029C93.8283 18.8877 93.583 19.8613 93.583 20.95C93.583 22.0387 93.8283 23.0123 94.319 23.871C94.8096 24.7297 95.492 25.4043 96.366 25.895C97.24 26.3703 98.229 26.608 99.333 26.608C101.035 26.608 102.469 25.9717 103.634 24.699L105.566 26.539C104.815 27.413 103.887 28.08 102.783 28.54C101.694 29 100.491 29.23 99.172 29.23ZM112.077 16.58C113.886 16.58 115.266 17.017 116.217 17.891C117.183 18.7497 117.666 20.053 117.666 21.801V29H114.952V27.505C114.599 28.0417 114.093 28.4557 113.434 28.747C112.79 29.023 112.008 29.161 111.088 29.161C110.168 29.161 109.363 29.0077 108.673 28.701C107.983 28.379 107.446 27.942 107.063 27.39C106.695 26.8227 106.511 26.1863 106.511 25.481C106.511 24.377 106.917 23.4953 107.73 22.836C108.558 22.1613 109.853 21.824 111.617 21.824H114.791V21.64C114.791 20.7813 114.53 20.122 114.009 19.662C113.503 19.202 112.744 18.972 111.732 18.972C111.042 18.972 110.359 19.0793 109.685 19.294C109.025 19.5087 108.466 19.8077 108.006 20.191L106.879 18.098C107.523 17.6073 108.297 17.2317 109.202 16.971C110.106 16.7103 111.065 16.58 112.077 16.58ZM111.686 27.068C112.406 27.068 113.043 26.907 113.595 26.585C114.162 26.2477 114.561 25.7723 114.791 25.159V23.733H111.824C110.168 23.733 109.34 24.2773 109.34 25.366C109.34 25.8873 109.547 26.3013 109.961 26.608C110.375 26.9147 110.95 27.068 111.686 27.068ZM132.89 29V20.858L128.75 27.712H127.508L123.437 20.835V29H120.815V16.718H123.828L128.198 24.4L132.775 16.718H135.466L135.489 29H132.89ZM144.412 29.161C143.17 29.161 142.05 28.8927 141.054 28.356C140.057 27.8193 139.275 27.0757 138.708 26.125C138.156 25.159 137.88 24.0703 137.88 22.859C137.88 21.6477 138.156 20.5667 138.708 19.616C139.275 18.6653 140.057 17.9217 141.054 17.385C142.05 16.8483 143.17 16.58 144.412 16.58C145.669 16.58 146.796 16.8483 147.793 17.385C148.789 17.9217 149.564 18.6653 150.116 19.616C150.683 20.5667 150.967 21.6477 150.967 22.859C150.967 24.0703 150.683 25.159 150.116 26.125C149.564 27.0757 148.789 27.8193 147.793 28.356C146.796 28.8927 145.669 29.161 144.412 29.161ZM144.412 26.7C145.47 26.7 146.344 26.3473 147.034 25.642C147.724 24.9367 148.069 24.009 148.069 22.859C148.069 21.709 147.724 20.7813 147.034 20.076C146.344 19.3707 145.47 19.018 144.412 19.018C143.354 19.018 142.48 19.3707 141.79 20.076C141.115 20.7813 140.778 21.709 140.778 22.859C140.778 24.009 141.115 24.9367 141.79 25.642C142.48 26.3473 143.354 26.7 144.412 26.7ZM153.399 16.718H156.274V24.814L163.059 16.718H165.681V29H162.806V20.904L156.044 29H153.399V16.718ZM159.356 15.269C158.114 15.269 157.163 14.9853 156.504 14.418C155.86 13.8353 155.53 12.992 155.515 11.888H157.424C157.439 12.44 157.608 12.877 157.93 13.199C158.267 13.521 158.735 13.682 159.333 13.682C159.916 13.682 160.376 13.521 160.713 13.199C161.066 12.877 161.25 12.44 161.265 11.888H163.22C163.205 12.992 162.867 13.8353 162.208 14.418C161.549 14.9853 160.598 15.269 159.356 15.269ZM180.272 16.718V29H177.397V19.156H172.797L172.682 21.594C172.606 23.2193 172.452 24.584 172.222 25.688C172.008 26.7767 171.632 27.643 171.095 28.287C170.574 28.9157 169.853 29.23 168.933 29.23C168.504 29.23 167.975 29.1457 167.346 28.977L167.484 26.562C167.699 26.608 167.883 26.631 168.036 26.631C168.619 26.631 169.056 26.401 169.347 25.941C169.639 25.4657 169.823 24.906 169.899 24.262C169.991 23.6027 170.068 22.6673 170.129 21.456L170.336 16.718H180.272ZM189.21 29.161C187.968 29.161 186.849 28.8927 185.852 28.356C184.856 27.8193 184.074 27.0757 183.506 26.125C182.954 25.159 182.678 24.0703 182.678 22.859C182.678 21.6477 182.954 20.5667 183.506 19.616C184.074 18.6653 184.856 17.9217 185.852 17.385C186.849 16.8483 187.968 16.58 189.21 16.58C190.468 16.58 191.595 16.8483 192.591 17.385C193.588 17.9217 194.362 18.6653 194.914 19.616C195.482 20.5667 195.765 21.6477 195.765 22.859C195.765 24.0703 195.482 25.159 194.914 26.125C194.362 27.0757 193.588 27.8193 192.591 28.356C191.595 28.8927 190.468 29.161 189.21 29.161ZM189.21 26.7C190.268 26.7 191.142 26.3473 191.832 25.642C192.522 24.9367 192.867 24.009 192.867 22.859C192.867 21.709 192.522 20.7813 191.832 20.076C191.142 19.3707 190.268 19.018 189.21 19.018C188.152 19.018 187.278 19.3707 186.588 20.076C185.914 20.7813 185.576 21.709 185.576 22.859C185.576 24.009 185.914 24.9367 186.588 25.642C187.278 26.3473 188.152 26.7 189.21 26.7ZM207.098 22.606C208.616 23.066 209.375 24.0473 209.375 25.55C209.375 26.654 208.961 27.505 208.133 28.103C207.305 28.701 206.079 29 204.453 29H198.197V16.718H204.2C205.703 16.718 206.876 16.994 207.719 17.546C208.563 18.098 208.984 18.88 208.984 19.892C208.984 20.5207 208.816 21.065 208.478 21.525C208.156 21.985 207.696 22.3453 207.098 22.606ZM200.934 21.847H203.947C205.435 21.847 206.178 21.3333 206.178 20.306C206.178 19.3093 205.435 18.811 203.947 18.811H200.934V21.847ZM204.223 26.907C205.803 26.907 206.592 26.3933 206.592 25.366C206.592 24.8293 206.408 24.4307 206.04 24.17C205.672 23.894 205.097 23.756 204.315 23.756H200.934V26.907H204.223Z" fill="white"/>
<defs>
<linearGradient id="paint0_linear_12_497" x1="-14.5395" y1="-9.04916e-07" x2="355.03" y2="66.8432" gradientUnits="userSpaceOnUse">
<stop stop-color="#FF4E50"/>
<stop offset="1" stop-color="#F9D423"/>
</linearGradient>
</defs>
</svg>
