<svg width="137" height="24" viewBox="0 0 137 24" fill="none" xmlns="http://www.w3.org/2000/svg">
<path d="M21.088 13.08C20.4907 15.2133 18.528 16.28 15.2 16.28C11.1467 16.28 9.12 14.7867 9.12 11.8C9.12 8.81333 11.1467 7.32 15.2 7.32C18.528 7.32 20.4907 8.38667 21.088 10.52H29.504C29.2053 7.256 27.872 4.74933 25.504 3C23.0507 1.18667 19.616 0.279999 15.2 0.279999C10.4853 0.279999 6.89067 1.29333 4.416 3.32C2.00533 5.304 0.8 8.13067 0.8 11.8C0.8 15.4693 2.00533 18.296 4.416 20.28C6.89067 22.3067 10.4853 23.32 15.2 23.32C19.616 23.32 23.0507 22.4133 25.504 20.6C27.872 18.8507 29.2053 16.344 29.504 13.08H21.088ZM37.5982 0.599998L27.9982 23H36.6382L38.2702 19.16H49.0863L50.7183 23H59.3582L49.7582 0.599998H37.5982ZM43.6782 6.584L46.5903 13.4H40.7662L43.6782 6.584ZM68.8852 7.64H75.6692C77.1199 7.64 77.8452 8.17333 77.8452 9.24C77.8452 10.3067 77.1199 10.84 75.6692 10.84H68.8852V7.64ZM68.8852 17.88H74.1012L77.5252 23H86.1652L81.8772 16.6C84.7359 15.1707 86.1652 12.7173 86.1652 9.24C86.1652 6.488 85.2586 4.376 83.4452 2.904C81.5892 1.368 78.9012 0.599998 75.3812 0.599998H60.5652V23H68.8852V17.88ZM86.4085 0.599998V7.64H94.7285V23H103.049V7.64H111.369V0.599998H86.4085ZM112.874 0.599998V23H136.554V16.6H121.194V14.68H136.234V8.92H121.194V7H136.554V0.599998H112.874Z" fill="url(#paint0_linear_55_2644)"/>
<defs>
<linearGradient id="paint0_linear_55_2644" x1="-9.07895" y1="3" x2="212.028" y2="64.695" gradientUnits="userSpaceOnUse">
<stop stop-color="#FF4E50"/>
<stop offset="1" stop-color="#F9D423"/>
</linearGradient>
</defs>
</svg>
