<svg width="51" height="10" viewBox="0 0 51 10" fill="none" xmlns="http://www.w3.org/2000/svg">
<path d="M7.92 6.9V9.49H6.72V8H1.35V9.49H0.14L0.15 6.9H0.45C0.89 6.88 1.19667 6.55667 1.37 5.93C1.55 5.29667 1.66 4.39333 1.7 3.22L1.78 1H6.91V6.9H7.92ZM2.84 3.34C2.80667 4.24667 2.73333 5.00333 2.62 5.61C2.50667 6.21 2.32667 6.64 2.08 6.9H5.63V2.1H2.89L2.84 3.34ZM8.59606 2.66H9.84606V6.18L12.7961 2.66H13.9361V8H12.6861V4.48L9.74606 8H8.59606V2.66ZM18.3312 5.22C18.6645 5.31333 18.9212 5.46667 19.1012 5.68C19.2879 5.88667 19.3812 6.13667 19.3812 6.43C19.3812 6.75667 19.2712 7.04667 19.0512 7.3C18.8312 7.54667 18.5279 7.74 18.1412 7.88C17.7545 8.02 17.3145 8.09 16.8212 8.09C16.4079 8.09 16.0045 8.04333 15.6112 7.95C15.2179 7.85 14.8612 7.71 14.5412 7.53L14.9012 6.6C15.1612 6.74667 15.4545 6.86 15.7812 6.94C16.1079 7.02 16.4345 7.06 16.7612 7.06C17.1812 7.06 17.5079 6.99667 17.7412 6.87C17.9812 6.73667 18.1012 6.55667 18.1012 6.33C18.1012 6.12333 18.0079 5.96333 17.8212 5.85C17.6412 5.73667 17.3845 5.68 17.0512 5.68H16.0112V4.84H16.9512C17.2645 4.84 17.5079 4.78667 17.6812 4.68C17.8612 4.57333 17.9512 4.42333 17.9512 4.23C17.9512 4.03667 17.8445 3.88333 17.6312 3.77C17.4179 3.65667 17.1245 3.6 16.7512 3.6C16.2179 3.6 15.6545 3.73 15.0612 3.99L14.7412 3.07C15.4412 2.74333 16.1479 2.58 16.8612 2.58C17.3145 2.58 17.7212 2.64333 18.0812 2.77C18.4412 2.89 18.7212 3.06333 18.9212 3.29C19.1279 3.51 19.2312 3.76333 19.2312 4.05C19.2312 4.31 19.1512 4.54333 18.9912 4.75C18.8312 4.95 18.6112 5.10667 18.3312 5.22ZM22.2603 2.6C23.047 2.6 23.647 2.79 24.0603 3.17C24.4803 3.54333 24.6903 4.11 24.6903 4.87V8H23.5103V7.35C23.357 7.58333 23.137 7.76333 22.8503 7.89C22.5703 8.01 22.2303 8.07 21.8303 8.07C21.4303 8.07 21.0803 8.00333 20.7803 7.87C20.4803 7.73 20.247 7.54 20.0803 7.3C19.9203 7.05333 19.8403 6.77667 19.8403 6.47C19.8403 5.99 20.017 5.60667 20.3703 5.32C20.7303 5.02667 21.2936 4.88 22.0603 4.88H23.4403V4.8C23.4403 4.42667 23.327 4.14 23.1003 3.94C22.8803 3.74 22.5503 3.64 22.1103 3.64C21.8103 3.64 21.5136 3.68667 21.2203 3.78C20.9336 3.87333 20.6903 4.00333 20.4903 4.17L20.0003 3.26C20.2803 3.04667 20.617 2.88333 21.0103 2.77C21.4036 2.65667 21.8203 2.6 22.2603 2.6ZM22.0903 7.16C22.4036 7.16 22.6803 7.09 22.9203 6.95C23.167 6.80333 23.3403 6.59667 23.4403 6.33V5.71H22.1503C21.4303 5.71 21.0703 5.94667 21.0703 6.42C21.0703 6.64667 21.1603 6.82667 21.3403 6.96C21.5203 7.09333 21.7703 7.16 22.0903 7.16ZM25.8291 2.66H27.0791V6.18L30.0291 2.66H31.1691V8H29.9191V4.48L26.9791 8H25.8291V2.66ZM28.4191 2.03C27.8791 2.03 27.4658 1.90667 27.1791 1.66C26.8991 1.40667 26.7558 1.04 26.7491 0.56H27.5791C27.5858 0.8 27.6591 0.99 27.7991 1.13C27.9458 1.27 28.1491 1.34 28.4091 1.34C28.6624 1.34 28.8624 1.27 29.0091 1.13C29.1624 0.99 29.2424 0.8 29.2491 0.56H30.0991C30.0924 1.04 29.9458 1.40667 29.6591 1.66C29.3724 1.90667 28.9591 2.03 28.4191 2.03ZM32.4426 2.66H33.6926V4.83H36.3826V2.66H37.6326V8H36.3826V5.89H33.6926V8H32.4426V2.66ZM43.8998 5.36C43.8998 5.44667 43.8931 5.57 43.8798 5.73H39.6898C39.7631 6.12333 39.9531 6.43667 40.2598 6.67C40.5731 6.89667 40.9598 7.01 41.4198 7.01C42.0065 7.01 42.4898 6.81667 42.8698 6.43L43.5398 7.2C43.2998 7.48667 42.9965 7.70333 42.6298 7.85C42.2631 7.99667 41.8498 8.07 41.3898 8.07C40.8031 8.07 40.2865 7.95333 39.8398 7.72C39.3931 7.48667 39.0465 7.16333 38.7998 6.75C38.5598 6.33 38.4398 5.85667 38.4398 5.33C38.4398 4.81 38.5565 4.34333 38.7898 3.93C39.0298 3.51 39.3598 3.18333 39.7798 2.95C40.1998 2.71667 40.6731 2.6 41.1998 2.6C41.7198 2.6 42.1831 2.71667 42.5898 2.95C43.0031 3.17667 43.3231 3.5 43.5498 3.92C43.7831 4.33333 43.8998 4.81333 43.8998 5.36ZM41.1998 3.6C40.7998 3.6 40.4598 3.72 40.1798 3.96C39.9065 4.19333 39.7398 4.50667 39.6798 4.9H42.7098C42.6565 4.51333 42.4931 4.2 42.2198 3.96C41.9465 3.72 41.6065 3.6 41.1998 3.6ZM47.819 2.6C48.339 2.6 48.8023 2.71333 49.209 2.94C49.6223 3.16667 49.9457 3.48667 50.179 3.9C50.4123 4.31333 50.529 4.79 50.529 5.33C50.529 5.87 50.4123 6.35 50.179 6.77C49.9457 7.18333 49.6223 7.50333 49.209 7.73C48.8023 7.95667 48.339 8.07 47.819 8.07C47.099 8.07 46.529 7.83 46.109 7.35V9.94H44.859V2.66H46.049V3.36C46.2557 3.10667 46.509 2.91667 46.809 2.79C47.1157 2.66333 47.4523 2.6 47.819 2.6ZM47.679 7C48.139 7 48.5157 6.84667 48.809 6.54C49.109 6.23333 49.259 5.83 49.259 5.33C49.259 4.83 49.109 4.42667 48.809 4.12C48.5157 3.81333 48.139 3.66 47.679 3.66C47.379 3.66 47.109 3.73 46.869 3.87C46.629 4.00333 46.439 4.19667 46.299 4.45C46.159 4.70333 46.089 4.99667 46.089 5.33C46.089 5.66333 46.159 5.95667 46.299 6.21C46.439 6.46333 46.629 6.66 46.869 6.8C47.109 6.93333 47.379 7 47.679 7Z" fill="white"/>
</svg>
