<svg width="330" height="86" viewBox="0 0 330 86" fill="none" xmlns="http://www.w3.org/2000/svg">
<g filter="url(#filter0_b_12_332)">
<rect width="330" height="86" rx="15" fill="white" fill-opacity="0.3"/>
<path d="M11.683 15.1H20.948V16.919H13.859V19.843H17.378C18.806 19.843 19.8883 20.1433 20.625 20.744C21.373 21.3333 21.747 22.189 21.747 23.311C21.747 24.4897 21.339 25.402 20.523 26.048C19.707 26.6827 18.5453 27 17.038 27H11.683V15.1ZM16.919 25.3C17.769 25.3 18.415 25.1357 18.857 24.807C19.299 24.4783 19.52 24.0023 19.52 23.379C19.52 22.155 18.653 21.543 16.919 21.543H13.859V25.3H16.919ZM31.5332 17.922V27H29.4082V19.724H26.0082L25.9232 21.526C25.8665 22.7273 25.7532 23.736 25.5832 24.552C25.4245 25.3567 25.1468 25.997 24.7502 26.473C24.3648 26.9377 23.8322 27.17 23.1522 27.17C22.8348 27.17 22.4438 27.1077 21.9792 26.983L22.0812 25.198C22.2398 25.232 22.3758 25.249 22.4892 25.249C22.9198 25.249 23.2428 25.079 23.4582 24.739C23.6735 24.3877 23.8095 23.974 23.8662 23.498C23.9342 23.0107 23.9908 22.3193 24.0362 21.424L24.1892 17.922H31.5332ZM38.033 27.119C37.115 27.119 36.2877 26.9207 35.551 26.524C34.8143 26.1273 34.2363 25.5777 33.817 24.875C33.409 24.161 33.205 23.3563 33.205 22.461C33.205 21.5657 33.409 20.7667 33.817 20.064C34.2363 19.3613 34.8143 18.8117 35.551 18.415C36.2877 18.0183 37.115 17.82 38.033 17.82C38.9623 17.82 39.7953 18.0183 40.532 18.415C41.2687 18.8117 41.841 19.3613 42.249 20.064C42.6683 20.7667 42.878 21.5657 42.878 22.461C42.878 23.3563 42.6683 24.161 42.249 24.875C41.841 25.5777 41.2687 26.1273 40.532 26.524C39.7953 26.9207 38.9623 27.119 38.033 27.119ZM38.033 25.3C38.815 25.3 39.461 25.0393 39.971 24.518C40.481 23.9967 40.736 23.311 40.736 22.461C40.736 21.611 40.481 20.9253 39.971 20.404C39.461 19.8827 38.815 19.622 38.033 19.622C37.251 19.622 36.605 19.8827 36.095 20.404C35.5963 20.9253 35.347 21.611 35.347 22.461C35.347 23.311 35.5963 23.9967 36.095 24.518C36.605 25.0393 37.251 25.3 38.033 25.3ZM48.3432 23.362H46.6942V27H44.5692V17.922H46.6942V21.594H48.3942L51.0802 17.922H53.3582L50.0602 22.291L53.5792 27H51.0802L48.3432 23.362ZM58.2463 22.461L60.6603 19.163H62.5813L60.2183 22.461L62.5813 25.742H60.6603L58.2463 22.461ZM61.7823 22.461L64.1963 19.163H66.1173L63.7543 22.461L66.1173 25.742H64.1963L61.7823 22.461ZM79.6859 25.13V29.533H77.6459V27H68.5169V29.533H66.4599L66.4769 25.13H66.9869C67.7349 25.096 68.2563 24.5463 68.5509 23.481C68.8569 22.4043 69.0439 20.8687 69.1119 18.874L69.2479 15.1H77.9689V25.13H79.6859ZM71.0499 19.078C70.9933 20.6193 70.8686 21.9057 70.6759 22.937C70.4833 23.957 70.1773 24.688 69.7579 25.13H75.7929V16.97H71.1349L71.0499 19.078ZM85.0008 27.119C84.0828 27.119 83.2555 26.9207 82.5188 26.524C81.7821 26.1273 81.2041 25.5777 80.7848 24.875C80.3768 24.161 80.1728 23.3563 80.1728 22.461C80.1728 21.5657 80.3768 20.7667 80.7848 20.064C81.2041 19.3613 81.7821 18.8117 82.5188 18.415C83.2555 18.0183 84.0828 17.82 85.0008 17.82C85.9301 17.82 86.7631 18.0183 87.4998 18.415C88.2365 18.8117 88.8088 19.3613 89.2168 20.064C89.6361 20.7667 89.8458 21.5657 89.8458 22.461C89.8458 23.3563 89.6361 24.161 89.2168 24.875C88.8088 25.5777 88.2365 26.1273 87.4998 26.524C86.7631 26.9207 85.9301 27.119 85.0008 27.119ZM85.0008 25.3C85.7828 25.3 86.4288 25.0393 86.9388 24.518C87.4488 23.9967 87.7038 23.311 87.7038 22.461C87.7038 21.611 87.4488 20.9253 86.9388 20.404C86.4288 19.8827 85.7828 19.622 85.0008 19.622C84.2188 19.622 83.5728 19.8827 83.0628 20.404C82.5641 20.9253 82.3148 21.611 82.3148 22.461C82.3148 23.311 82.5641 23.9967 83.0628 24.518C83.5728 25.0393 84.2188 25.3 85.0008 25.3ZM95.668 27.119C94.7274 27.119 93.883 26.9207 93.135 26.524C92.387 26.1273 91.8034 25.5777 91.384 24.875C90.9647 24.161 90.755 23.3563 90.755 22.461C90.755 21.5657 90.9647 20.7667 91.384 20.064C91.8034 19.3613 92.3814 18.8117 93.118 18.415C93.866 18.0183 94.716 17.82 95.668 17.82C96.5634 17.82 97.3454 18.0013 98.014 18.364C98.694 18.7267 99.204 19.248 99.544 19.928L97.912 20.88C97.6514 20.4607 97.3227 20.149 96.926 19.945C96.5407 19.7297 96.1157 19.622 95.651 19.622C94.8577 19.622 94.2004 19.8827 93.679 20.404C93.1577 20.914 92.897 21.5997 92.897 22.461C92.897 23.3223 93.152 24.0137 93.662 24.535C94.1834 25.045 94.8464 25.3 95.651 25.3C96.1157 25.3 96.5407 25.198 96.926 24.994C97.3227 24.7787 97.6514 24.4613 97.912 24.042L99.544 24.994C99.1927 25.674 98.677 26.201 97.997 26.575C97.3284 26.9377 96.552 27.119 95.668 27.119ZM108.115 19.724H104.936V27H102.811V19.724H99.615V17.922H108.115V19.724ZM109.248 17.922H111.373V23.906L116.388 17.922H118.326V27H116.201V21.016L111.203 27H109.248V17.922ZM129.396 23.362H127.866V27H125.758V23.362H124.228L122.018 27H119.502L122.477 22.308L119.723 17.922H121.984L124.194 21.594H125.758V17.922H127.866V21.594H129.413L131.64 17.922H133.901L131.147 22.308L134.139 27H131.606L129.396 23.362ZM143.511 22.512C143.511 22.6593 143.5 22.869 143.477 23.141H136.354C136.479 23.8097 136.802 24.3423 137.323 24.739C137.856 25.1243 138.513 25.317 139.295 25.317C140.293 25.317 141.114 24.9883 141.76 24.331L142.899 25.64C142.491 26.1273 141.976 26.4957 141.352 26.745C140.729 26.9943 140.026 27.119 139.244 27.119C138.247 27.119 137.369 26.9207 136.609 26.524C135.85 26.1273 135.261 25.5777 134.841 24.875C134.433 24.161 134.229 23.3563 134.229 22.461C134.229 21.577 134.428 20.7837 134.824 20.081C135.232 19.367 135.793 18.8117 136.507 18.415C137.221 18.0183 138.026 17.82 138.921 17.82C139.805 17.82 140.593 18.0183 141.284 18.415C141.987 18.8003 142.531 19.35 142.916 20.064C143.313 20.7667 143.511 21.5827 143.511 22.512ZM138.921 19.52C138.241 19.52 137.663 19.724 137.187 20.132C136.723 20.5287 136.439 21.0613 136.337 21.73H141.488C141.398 21.0727 141.12 20.54 140.655 20.132C140.191 19.724 139.613 19.52 138.921 19.52ZM145.428 17.922H147.553V21.611H152.126V17.922H154.251V27H152.126V23.413H147.553V27H145.428V17.922ZM156.691 17.922H158.816V23.906L163.831 17.922H165.769V27H163.644V21.016L158.646 27H156.691V17.922ZM175.886 17.922V27H173.982V24.263H171.585L169.732 27H167.454L169.596 23.974C168.939 23.7473 168.434 23.4017 168.083 22.937C167.743 22.461 167.573 21.8773 167.573 21.186C167.573 20.1433 167.941 19.3387 168.678 18.772C169.415 18.2053 170.429 17.922 171.721 17.922H175.886ZM171.789 19.707C170.418 19.707 169.732 20.2227 169.732 21.254C169.732 22.274 170.395 22.784 171.721 22.784H173.982V19.707H171.789ZM177.419 25.742L179.782 22.461L177.419 19.163H179.34L181.754 22.461L179.34 25.742H177.419ZM180.955 25.742L183.318 22.461L180.955 19.163H182.876L185.29 22.461L182.876 25.742H180.955ZM187.672 20.642C187.287 20.642 186.958 20.5117 186.686 20.251C186.414 19.979 186.278 19.639 186.278 19.231C186.278 18.8117 186.409 18.4717 186.669 18.211C186.941 17.9503 187.276 17.82 187.672 17.82C188.069 17.82 188.398 17.9503 188.658 18.211C188.93 18.4717 189.066 18.8117 189.066 19.231C189.066 19.639 188.93 19.979 188.658 20.251C188.386 20.5117 188.058 20.642 187.672 20.642ZM187.672 27.119C187.287 27.119 186.958 26.9887 186.686 26.728C186.414 26.456 186.278 26.116 186.278 25.708C186.278 25.2887 186.409 24.9487 186.669 24.688C186.941 24.4273 187.276 24.297 187.672 24.297C188.069 24.297 188.398 24.4273 188.658 24.688C188.93 24.9487 189.066 25.2887 189.066 25.708C189.066 26.116 188.93 26.456 188.658 26.728C188.386 26.9887 188.058 27.119 187.672 27.119ZM21.883 37.1L16.715 46.705C16.2617 47.555 15.7177 48.1953 15.083 48.626C14.4597 49.0453 13.7797 49.255 13.043 49.255C12.4537 49.255 11.87 49.1303 11.292 48.881L11.836 47.147C12.3007 47.2943 12.686 47.368 12.992 47.368C13.706 47.368 14.2953 46.9997 14.76 46.263L14.947 45.974L10.204 37.1H12.567L16.086 44.087L19.707 37.1H21.883ZM30.1761 39.922V49H28.0511V45.481C27.1784 45.9003 26.2661 46.11 25.3141 46.11C24.1467 46.11 23.2514 45.8437 22.6281 45.311C22.0047 44.767 21.6931 43.9397 21.6931 42.829V39.922H23.8181V42.693C23.8181 43.271 23.9881 43.7017 24.3281 43.985C24.6681 44.2683 25.1497 44.41 25.7731 44.41C26.5664 44.41 27.3257 44.24 28.0511 43.9V39.922H30.1761ZM36.0087 39.82C37.346 39.82 38.366 40.143 39.0687 40.789C39.7827 41.4237 40.1397 42.387 40.1397 43.679V49H38.1337V47.895C37.873 48.2917 37.499 48.5977 37.0117 48.813C36.5357 49.017 35.9577 49.119 35.2777 49.119C34.5977 49.119 34.0027 49.0057 33.4927 48.779C32.9827 48.541 32.586 48.218 32.3027 47.81C32.0307 47.3907 31.8947 46.9203 31.8947 46.399C31.8947 45.583 32.195 44.9313 32.7957 44.444C33.4077 43.9453 34.3653 43.696 35.6687 43.696H38.0147V43.56C38.0147 42.9253 37.822 42.438 37.4367 42.098C37.0627 41.758 36.5017 41.588 35.7537 41.588C35.2437 41.588 34.7393 41.6673 34.2407 41.826C33.7533 41.9847 33.3397 42.2057 32.9997 42.489L32.1667 40.942C32.6427 40.5793 33.215 40.3017 33.8837 40.109C34.5523 39.9163 35.2607 39.82 36.0087 39.82ZM35.7197 47.572C36.2523 47.572 36.7227 47.453 37.1307 47.215C37.55 46.9657 37.8447 46.6143 38.0147 46.161V45.107H35.8217C34.5977 45.107 33.9857 45.5093 33.9857 46.314C33.9857 46.6993 34.1387 47.0053 34.4447 47.232C34.7507 47.4587 35.1757 47.572 35.7197 47.572ZM46.4922 49.119C45.5516 49.119 44.7072 48.9207 43.9592 48.524C43.2112 48.1273 42.6276 47.5777 42.2082 46.875C41.7889 46.161 41.5792 45.3563 41.5792 44.461C41.5792 43.5657 41.7889 42.7667 42.2082 42.064C42.6276 41.3613 43.2056 40.8117 43.9422 40.415C44.6902 40.0183 45.5402 39.82 46.4922 39.82C47.3876 39.82 48.1696 40.0013 48.8382 40.364C49.5182 40.7267 50.0282 41.248 50.3682 41.928L48.7362 42.88C48.4756 42.4607 48.1469 42.149 47.7502 41.945C47.3649 41.7297 46.9399 41.622 46.4752 41.622C45.6819 41.622 45.0246 41.8827 44.5032 42.404C43.9819 42.914 43.7212 43.5997 43.7212 44.461C43.7212 45.3223 43.9762 46.0137 44.4862 46.535C45.0076 47.045 45.6706 47.3 46.4752 47.3C46.9399 47.3 47.3649 47.198 47.7502 46.994C48.1469 46.7787 48.4756 46.4613 48.7362 46.042L50.3682 46.994C50.0169 47.674 49.5012 48.201 48.8212 48.575C48.1526 48.9377 47.3762 49.119 46.4922 49.119ZM58.9391 41.724H55.7601V49H53.6351V41.724H50.4391V39.922H58.9391V41.724ZM60.0726 39.922H62.1976V45.906L67.2126 39.922H69.1506V49H67.0256V43.016L62.0276 49H60.0726V39.922ZM80.1011 44.512C80.1011 44.6593 80.0898 44.869 80.0671 45.141H72.9441C73.0688 45.8097 73.3918 46.3423 73.9131 46.739C74.4458 47.1243 75.1031 47.317 75.8851 47.317C76.8824 47.317 77.7041 46.9883 78.3501 46.331L79.4891 47.64C79.0811 48.1273 78.5654 48.4957 77.9421 48.745C77.3188 48.9943 76.6161 49.119 75.8341 49.119C74.8368 49.119 73.9584 48.9207 73.1991 48.524C72.4398 48.1273 71.8504 47.5777 71.4311 46.875C71.0231 46.161 70.8191 45.3563 70.8191 44.461C70.8191 43.577 71.0174 42.7837 71.4141 42.081C71.8221 41.367 72.3831 40.8117 73.0971 40.415C73.8111 40.0183 74.6158 39.82 75.5111 39.82C76.3951 39.82 77.1828 40.0183 77.8741 40.415C78.5768 40.8003 79.1208 41.35 79.5061 42.064C79.9028 42.7667 80.1011 43.5827 80.1011 44.512ZM75.5111 41.52C74.8311 41.52 74.2531 41.724 73.7771 42.132C73.3124 42.5287 73.0291 43.0613 72.9271 43.73H78.0781C77.9874 43.0727 77.7098 42.54 77.2451 42.132C76.7804 41.724 76.2024 41.52 75.5111 41.52ZM92.8866 44.274C94.0086 44.614 94.5696 45.3393 94.5696 46.45C94.5696 47.266 94.2636 47.895 93.6516 48.337C93.0396 48.779 92.1329 49 90.9316 49H86.3076V39.922H90.7446C91.8552 39.922 92.7222 40.126 93.3456 40.534C93.9689 40.942 94.2806 41.52 94.2806 42.268C94.2806 42.7327 94.1559 43.135 93.9066 43.475C93.6686 43.815 93.3286 44.0813 92.8866 44.274ZM88.3306 43.713H90.5576C91.6569 43.713 92.2066 43.3333 92.2066 42.574C92.2066 41.8373 91.6569 41.469 90.5576 41.469H88.3306V43.713ZM90.7616 47.453C91.9289 47.453 92.5126 47.0733 92.5126 46.314C92.5126 45.9173 92.3766 45.6227 92.1046 45.43C91.8326 45.226 91.4076 45.124 90.8296 45.124H88.3306V47.453H90.7616ZM109.64 49V42.982L106.58 48.048H105.662L102.653 42.965V49H100.715V39.922H102.942L106.172 45.6L109.555 39.922H111.544L111.561 49H109.64ZM122.503 44.512C122.503 44.6593 122.492 44.869 122.469 45.141H115.346C115.471 45.8097 115.794 46.3423 116.315 46.739C116.848 47.1243 117.505 47.317 118.287 47.317C119.285 47.317 120.106 46.9883 120.752 46.331L121.891 47.64C121.483 48.1273 120.968 48.4957 120.344 48.745C119.721 48.9943 119.018 49.119 118.236 49.119C117.239 49.119 116.361 48.9207 115.601 48.524C114.842 48.1273 114.253 47.5777 113.833 46.875C113.425 46.161 113.221 45.3563 113.221 44.461C113.221 43.577 113.42 42.7837 113.816 42.081C114.224 41.367 114.785 40.8117 115.499 40.415C116.213 40.0183 117.018 39.82 117.913 39.82C118.797 39.82 119.585 40.0183 120.276 40.415C120.979 40.8003 121.523 41.35 121.908 42.064C122.305 42.7667 122.503 43.5827 122.503 44.512ZM117.913 41.52C117.233 41.52 116.655 41.724 116.179 42.132C115.715 42.5287 115.431 43.0613 115.329 43.73H120.48C120.39 43.0727 120.112 42.54 119.647 42.132C119.183 41.724 118.605 41.52 117.913 41.52ZM129.452 39.82C130.336 39.82 131.123 40.0127 131.815 40.398C132.517 40.7833 133.067 41.3273 133.464 42.03C133.86 42.7327 134.059 43.543 134.059 44.461C134.059 45.379 133.86 46.195 133.464 46.909C133.067 47.6117 132.517 48.1557 131.815 48.541C131.123 48.9263 130.336 49.119 129.452 49.119C128.228 49.119 127.259 48.711 126.545 47.895V52.298H124.42V39.922H126.443V41.112C126.794 40.6813 127.225 40.3583 127.735 40.143C128.256 39.9277 128.828 39.82 129.452 39.82ZM129.214 47.3C129.996 47.3 130.636 47.0393 131.135 46.518C131.645 45.9967 131.9 45.311 131.9 44.461C131.9 43.611 131.645 42.9253 131.135 42.404C130.636 41.8827 129.996 41.622 129.214 41.622C128.704 41.622 128.245 41.741 127.837 41.979C127.429 42.2057 127.106 42.5343 126.868 42.965C126.63 43.3957 126.511 43.8943 126.511 44.461C126.511 45.0277 126.63 45.5263 126.868 45.957C127.106 46.3877 127.429 46.722 127.837 46.96C128.245 47.1867 128.704 47.3 129.214 47.3ZM139.812 49.119C138.894 49.119 138.066 48.9207 137.33 48.524C136.593 48.1273 136.015 47.5777 135.596 46.875C135.188 46.161 134.984 45.3563 134.984 44.461C134.984 43.5657 135.188 42.7667 135.596 42.064C136.015 41.3613 136.593 40.8117 137.33 40.415C138.066 40.0183 138.894 39.82 139.812 39.82C140.741 39.82 141.574 40.0183 142.311 40.415C143.047 40.8117 143.62 41.3613 144.028 42.064C144.447 42.7667 144.657 43.5657 144.657 44.461C144.657 45.3563 144.447 46.161 144.028 46.875C143.62 47.5777 143.047 48.1273 142.311 48.524C141.574 48.9207 140.741 49.119 139.812 49.119ZM139.812 47.3C140.594 47.3 141.24 47.0393 141.75 46.518C142.26 45.9967 142.515 45.311 142.515 44.461C142.515 43.611 142.26 42.9253 141.75 42.404C141.24 41.8827 140.594 41.622 139.812 41.622C139.03 41.622 138.384 41.8827 137.874 42.404C137.375 42.9253 137.126 43.611 137.126 44.461C137.126 45.311 137.375 45.9967 137.874 46.518C138.384 47.0393 139.03 47.3 139.812 47.3ZM155.052 39.922V49H152.944V41.724H148.473V49H146.348V39.922H155.052ZM162.543 39.82C163.427 39.82 164.215 40.0127 164.906 40.398C165.609 40.7833 166.158 41.3273 166.555 42.03C166.952 42.7327 167.15 43.543 167.15 44.461C167.15 45.379 166.952 46.195 166.555 46.909C166.158 47.6117 165.609 48.1557 164.906 48.541C164.215 48.9263 163.427 49.119 162.543 49.119C161.319 49.119 160.35 48.711 159.636 47.895V52.298H157.511V39.922H159.534V41.112C159.885 40.6813 160.316 40.3583 160.826 40.143C161.347 39.9277 161.92 39.82 162.543 39.82ZM162.305 47.3C163.087 47.3 163.727 47.0393 164.226 46.518C164.736 45.9967 164.991 45.311 164.991 44.461C164.991 43.611 164.736 42.9253 164.226 42.404C163.727 41.8827 163.087 41.622 162.305 41.622C161.795 41.622 161.336 41.741 160.928 41.979C160.52 42.2057 160.197 42.5343 159.959 42.965C159.721 43.3957 159.602 43.8943 159.602 44.461C159.602 45.0277 159.721 45.5263 159.959 45.957C160.197 46.3877 160.52 46.722 160.928 46.96C161.336 47.1867 161.795 47.3 162.305 47.3ZM168.857 39.922H170.982V45.906L175.997 39.922H177.935V49H175.81V43.016L170.812 49H168.857V39.922ZM188.053 39.922V49H186.149V46.263H183.752L181.899 49H179.621L181.763 45.974C181.105 45.7473 180.601 45.4017 180.25 44.937C179.91 44.461 179.74 43.8773 179.74 43.186C179.74 42.1433 180.108 41.3387 180.845 40.772C181.581 40.2053 182.596 39.922 183.888 39.922H188.053ZM183.956 41.707C182.584 41.707 181.899 42.2227 181.899 43.254C181.899 44.274 182.562 44.784 183.888 44.784H186.149V41.707H183.956ZM197.694 41.724H194.515V49H192.39V41.724H189.194V39.922H197.694V41.724ZM198.827 39.922H200.952V45.906L205.967 39.922H207.905V49H205.78V43.016L200.782 49H198.827V39.922ZM218.023 39.922V49H216.119V46.263H213.722L211.869 49H209.591L211.733 45.974C211.076 45.7473 210.571 45.4017 210.22 44.937C209.88 44.461 209.71 43.8773 209.71 43.186C209.71 42.1433 210.078 41.3387 210.815 40.772C211.552 40.2053 212.566 39.922 213.858 39.922H218.023ZM213.926 41.707C212.555 41.707 211.869 42.2227 211.869 43.254C211.869 44.274 212.532 44.784 213.858 44.784H216.119V41.707H213.926ZM226.151 49L223.822 45.855L221.476 49H219.13L222.666 44.393L219.283 39.922H221.646L223.873 42.897L226.1 39.922H228.395L224.995 44.359L228.548 49H226.151ZM22.206 59.1V71H20.03V60.97H13.859V71H11.683V59.1H22.206ZM29.9475 61.82C30.8315 61.82 31.6192 62.0127 32.3105 62.398C33.0132 62.7833 33.5628 63.3273 33.9595 64.03C34.3562 64.7327 34.5545 65.543 34.5545 66.461C34.5545 67.379 34.3562 68.195 33.9595 68.909C33.5628 69.6117 33.0132 70.1557 32.3105 70.541C31.6192 70.9263 30.8315 71.119 29.9475 71.119C28.7235 71.119 27.7545 70.711 27.0405 69.895V74.298H24.9155V61.922H26.9385V63.112C27.2898 62.6813 27.7205 62.3583 28.2305 62.143C28.7518 61.9277 29.3242 61.82 29.9475 61.82ZM29.7095 69.3C30.4915 69.3 31.1318 69.0393 31.6305 68.518C32.1405 67.9967 32.3955 67.311 32.3955 66.461C32.3955 65.611 32.1405 64.9253 31.6305 64.404C31.1318 63.8827 30.4915 63.622 29.7095 63.622C29.1995 63.622 28.7405 63.741 28.3325 63.979C27.9245 64.2057 27.6015 64.5343 27.3635 64.965C27.1255 65.3957 27.0065 65.8943 27.0065 66.461C27.0065 67.0277 27.1255 67.5263 27.3635 67.957C27.6015 68.3877 27.9245 68.722 28.3325 68.96C28.7405 69.1867 29.1995 69.3 29.7095 69.3ZM40.3074 71.119C39.3894 71.119 38.5621 70.9207 37.8254 70.524C37.0887 70.1273 36.5107 69.5777 36.0914 68.875C35.6834 68.161 35.4794 67.3563 35.4794 66.461C35.4794 65.5657 35.6834 64.7667 36.0914 64.064C36.5107 63.3613 37.0887 62.8117 37.8254 62.415C38.5621 62.0183 39.3894 61.82 40.3074 61.82C41.2367 61.82 42.0697 62.0183 42.8064 62.415C43.5431 62.8117 44.1154 63.3613 44.5234 64.064C44.9427 64.7667 45.1524 65.5657 45.1524 66.461C45.1524 67.3563 44.9427 68.161 44.5234 68.875C44.1154 69.5777 43.5431 70.1273 42.8064 70.524C42.0697 70.9207 41.2367 71.119 40.3074 71.119ZM40.3074 69.3C41.0894 69.3 41.7354 69.0393 42.2454 68.518C42.7554 67.9967 43.0104 67.311 43.0104 66.461C43.0104 65.611 42.7554 64.9253 42.2454 64.404C41.7354 63.8827 41.0894 63.622 40.3074 63.622C39.5254 63.622 38.8794 63.8827 38.3694 64.404C37.8707 64.9253 37.6214 65.611 37.6214 66.461C37.6214 67.311 37.8707 67.9967 38.3694 68.518C38.8794 69.0393 39.5254 69.3 40.3074 69.3ZM53.4226 66.274C54.5447 66.614 55.1057 67.3393 55.1057 68.45C55.1057 69.266 54.7997 69.895 54.1876 70.337C53.5756 70.779 52.669 71 51.4676 71H46.8436V61.922H51.2806C52.3913 61.922 53.2583 62.126 53.8816 62.534C54.505 62.942 54.8166 63.52 54.8166 64.268C54.8166 64.7327 54.692 65.135 54.4426 65.475C54.2047 65.815 53.8647 66.0813 53.4226 66.274ZM48.8666 65.713H51.0936C52.193 65.713 52.7426 65.3333 52.7426 64.574C52.7426 63.8373 52.193 63.469 51.0936 63.469H48.8666V65.713ZM51.2976 69.453C52.465 69.453 53.0486 69.0733 53.0486 68.314C53.0486 67.9173 52.9126 67.6227 52.6406 67.43C52.3686 67.226 51.9436 67.124 51.3656 67.124H48.8666V69.453H51.2976ZM65.461 66.512C65.461 66.6593 65.4497 66.869 65.427 67.141H58.304C58.4287 67.8097 58.7517 68.3423 59.273 68.739C59.8057 69.1243 60.463 69.317 61.245 69.317C62.2424 69.317 63.064 68.9883 63.71 68.331L64.849 69.64C64.441 70.1273 63.9254 70.4957 63.302 70.745C62.6787 70.9943 61.976 71.119 61.194 71.119C60.1967 71.119 59.3184 70.9207 58.559 70.524C57.7997 70.1273 57.2104 69.5777 56.791 68.875C56.383 68.161 56.179 67.3563 56.179 66.461C56.179 65.577 56.3774 64.7837 56.774 64.081C57.182 63.367 57.743 62.8117 58.457 62.415C59.171 62.0183 59.9757 61.82 60.871 61.82C61.755 61.82 62.5427 62.0183 63.234 62.415C63.9367 62.8003 64.4807 63.35 64.866 64.064C65.2627 64.7667 65.461 65.5827 65.461 66.512ZM60.871 63.52C60.191 63.52 59.613 63.724 59.137 64.132C58.6724 64.5287 58.389 65.0613 58.287 65.73H63.438C63.3474 65.0727 63.0697 64.54 62.605 64.132C62.1404 63.724 61.5624 63.52 60.871 63.52ZM76.951 69.198V73.023H74.962V71H67.958V73.023H65.986V69.198H66.411C66.989 69.1753 67.38 68.807 67.584 68.093C67.7994 67.3677 67.941 66.3477 68.009 65.033L68.128 61.922H75.608V69.198H76.951ZM69.947 65.186C69.9017 66.2287 69.8167 67.0787 69.692 67.736C69.5674 68.3933 69.3407 68.8807 69.012 69.198H73.483V63.724H69.998L69.947 65.186ZM86.9409 66.512C86.9409 66.6593 86.9296 66.869 86.9069 67.141H79.7839C79.9086 67.8097 80.2316 68.3423 80.7529 68.739C81.2856 69.1243 81.9429 69.317 82.7249 69.317C83.7223 69.317 84.5439 68.9883 85.1899 68.331L86.3289 69.64C85.9209 70.1273 85.4053 70.4957 84.7819 70.745C84.1586 70.9943 83.4559 71.119 82.6739 71.119C81.6766 71.119 80.7983 70.9207 80.0389 70.524C79.2796 70.1273 78.6903 69.5777 78.2709 68.875C77.8629 68.161 77.6589 67.3563 77.6589 66.461C77.6589 65.577 77.8573 64.7837 78.2539 64.081C78.6619 63.367 79.2229 62.8117 79.9369 62.415C80.6509 62.0183 81.4556 61.82 82.3509 61.82C83.2349 61.82 84.0226 62.0183 84.7139 62.415C85.4166 62.8003 85.9606 63.35 86.3459 64.064C86.7426 64.7667 86.9409 65.5827 86.9409 66.512ZM82.3509 63.52C81.6709 63.52 81.0929 63.724 80.6169 64.132C80.1523 64.5287 79.8689 65.0613 79.7669 65.73H84.9179C84.8273 65.0727 84.5496 64.54 84.0849 64.132C83.6203 63.724 83.0423 63.52 82.3509 63.52ZM88.8572 61.922H90.9822V65.611H95.5552V61.922H97.6802V71H95.5552V67.413H90.9822V71H88.8572V61.922ZM100.12 61.922H102.245V67.906L107.26 61.922H109.198V71H107.073V65.016L102.075 71H100.12V61.922ZM120.149 66.512C120.149 66.6593 120.137 66.869 120.115 67.141H112.992C113.116 67.8097 113.439 68.3423 113.961 68.739C114.493 69.1243 115.151 69.317 115.933 69.317C116.93 69.317 117.752 68.9883 118.398 68.331L119.537 69.64C119.129 70.1273 118.613 70.4957 117.99 70.745C117.366 70.9943 116.664 71.119 115.882 71.119C114.884 71.119 114.006 70.9207 113.247 70.524C112.487 70.1273 111.898 69.5777 111.479 68.875C111.071 68.161 110.867 67.3563 110.867 66.461C110.867 65.577 111.065 64.7837 111.462 64.081C111.87 63.367 112.431 62.8117 113.145 62.415C113.859 62.0183 114.663 61.82 115.559 61.82C116.443 61.82 117.23 62.0183 117.922 62.415C118.624 62.8003 119.168 63.35 119.554 64.064C119.95 64.7667 120.149 65.5827 120.149 66.512ZM115.559 63.52C114.879 63.52 114.301 63.724 113.825 64.132C113.36 64.5287 113.077 65.0613 112.975 65.73H118.126C118.035 65.0727 117.757 64.54 117.293 64.132C116.828 63.724 116.25 63.52 115.559 63.52ZM135.28 71V64.982L132.22 70.048H131.302L128.293 64.965V71H126.355V61.922H128.582L131.812 67.6L135.195 61.922H137.184L137.201 71H135.28ZM148.143 66.512C148.143 66.6593 148.132 66.869 148.109 67.141H140.986C141.111 67.8097 141.434 68.3423 141.955 68.739C142.488 69.1243 143.145 69.317 143.927 69.317C144.925 69.317 145.746 68.9883 146.392 68.331L147.531 69.64C147.123 70.1273 146.608 70.4957 145.984 70.745C145.361 70.9943 144.658 71.119 143.876 71.119C142.879 71.119 142.001 70.9207 141.241 70.524C140.482 70.1273 139.893 69.5777 139.473 68.875C139.065 68.161 138.861 67.3563 138.861 66.461C138.861 65.577 139.06 64.7837 139.456 64.081C139.864 63.367 140.425 62.8117 141.139 62.415C141.853 62.0183 142.658 61.82 143.553 61.82C144.437 61.82 145.225 62.0183 145.916 62.415C146.619 62.8003 147.163 63.35 147.548 64.064C147.945 64.7667 148.143 65.5827 148.143 66.512ZM143.553 63.52C142.873 63.52 142.295 63.724 141.819 64.132C141.355 64.5287 141.071 65.0613 140.969 65.73H146.12C146.03 65.0727 145.752 64.54 145.287 64.132C144.823 63.724 144.245 63.52 143.553 63.52ZM155.092 61.82C155.976 61.82 156.763 62.0127 157.455 62.398C158.157 62.7833 158.707 63.3273 159.104 64.03C159.5 64.7327 159.699 65.543 159.699 66.461C159.699 67.379 159.5 68.195 159.104 68.909C158.707 69.6117 158.157 70.1557 157.455 70.541C156.763 70.9263 155.976 71.119 155.092 71.119C153.868 71.119 152.899 70.711 152.185 69.895V74.298H150.06V61.922H152.083V63.112C152.434 62.6813 152.865 62.3583 153.375 62.143C153.896 61.9277 154.468 61.82 155.092 61.82ZM154.854 69.3C155.636 69.3 156.276 69.0393 156.775 68.518C157.285 67.9967 157.54 67.311 157.54 66.461C157.54 65.611 157.285 64.9253 156.775 64.404C156.276 63.8827 155.636 63.622 154.854 63.622C154.344 63.622 153.885 63.741 153.477 63.979C153.069 64.2057 152.746 64.5343 152.508 64.965C152.27 65.3957 152.151 65.8943 152.151 66.461C152.151 67.0277 152.27 67.5263 152.508 67.957C152.746 68.3877 153.069 68.722 153.477 68.96C153.885 69.1867 154.344 69.3 154.854 69.3ZM165.451 71.119C164.533 71.119 163.706 70.9207 162.969 70.524C162.233 70.1273 161.655 69.5777 161.235 68.875C160.827 68.161 160.623 67.3563 160.623 66.461C160.623 65.5657 160.827 64.7667 161.235 64.064C161.655 63.3613 162.233 62.8117 162.969 62.415C163.706 62.0183 164.533 61.82 165.451 61.82C166.381 61.82 167.214 62.0183 167.95 62.415C168.687 62.8117 169.259 63.3613 169.667 64.064C170.087 64.7667 170.296 65.5657 170.296 66.461C170.296 67.3563 170.087 68.161 169.667 68.875C169.259 69.5777 168.687 70.1273 167.95 70.524C167.214 70.9207 166.381 71.119 165.451 71.119ZM165.451 69.3C166.233 69.3 166.879 69.0393 167.389 68.518C167.899 67.9967 168.154 67.311 168.154 66.461C168.154 65.611 167.899 64.9253 167.389 64.404C166.879 63.8827 166.233 63.622 165.451 63.622C164.669 63.622 164.023 63.8827 163.513 64.404C163.015 64.9253 162.765 65.611 162.765 66.461C162.765 67.311 163.015 67.9967 163.513 68.518C164.023 69.0393 164.669 69.3 165.451 69.3ZM180.692 61.922V71H178.584V63.724H174.113V71H171.988V61.922H180.692ZM188.183 61.82C189.067 61.82 189.855 62.0127 190.546 62.398C191.249 62.7833 191.798 63.3273 192.195 64.03C192.592 64.7327 192.79 65.543 192.79 66.461C192.79 67.379 192.592 68.195 192.195 68.909C191.798 69.6117 191.249 70.1557 190.546 70.541C189.855 70.9263 189.067 71.119 188.183 71.119C186.959 71.119 185.99 70.711 185.276 69.895V74.298H183.151V61.922H185.174V63.112C185.525 62.6813 185.956 62.3583 186.466 62.143C186.987 61.9277 187.56 61.82 188.183 61.82ZM187.945 69.3C188.727 69.3 189.367 69.0393 189.866 68.518C190.376 67.9967 190.631 67.311 190.631 66.461C190.631 65.611 190.376 64.9253 189.866 64.404C189.367 63.8827 188.727 63.622 187.945 63.622C187.435 63.622 186.976 63.741 186.568 63.979C186.16 64.2057 185.837 64.5343 185.599 64.965C185.361 65.3957 185.242 65.8943 185.242 66.461C185.242 67.0277 185.361 67.5263 185.599 67.957C185.837 68.3877 186.16 68.722 186.568 68.96C186.976 69.1867 187.435 69.3 187.945 69.3ZM194.497 61.922H196.622V67.906L201.637 61.922H203.575V71H201.45V65.016L196.452 71H194.497V61.922ZM213.692 61.922V71H211.788V68.263H209.391L207.538 71H205.26L207.402 67.974C206.745 67.7473 206.241 67.4017 205.889 66.937C205.549 66.461 205.379 65.8773 205.379 65.186C205.379 64.1433 205.748 63.3387 206.484 62.772C207.221 62.2053 208.235 61.922 209.527 61.922H213.692ZM209.595 63.707C208.224 63.707 207.538 64.2227 207.538 65.254C207.538 66.274 208.201 66.784 209.527 66.784H211.788V63.707H209.595ZM223.334 63.724H220.155V71H218.03V63.724H214.834V61.922H223.334V63.724ZM224.467 61.922H226.592V67.906L231.607 61.922H233.545V71H231.42V65.016L226.422 71H224.467V61.922ZM235.996 61.922H238.121V67.906L243.136 61.922H245.074V71H242.949V65.016L237.951 71H235.996V61.922ZM240.399 60.851C239.481 60.851 238.778 60.6413 238.291 60.222C237.815 59.7913 237.571 59.168 237.56 58.352H238.971C238.982 58.76 239.107 59.083 239.345 59.321C239.594 59.559 239.94 59.678 240.382 59.678C240.812 59.678 241.152 59.559 241.402 59.321C241.662 59.083 241.798 58.76 241.81 58.352H243.255C243.243 59.168 242.994 59.7913 242.507 60.222C242.019 60.6413 241.317 60.851 240.399 60.851Z" fill="white"/>
<circle cx="165" cy="81" r="2" fill="#D9D9D9"/>
<circle cx="173" cy="81" r="2" fill="#D9D9D9"/>
<circle cx="157" cy="81" r="2" fill="white"/>
<path d="M283.473 77.642H282.444V79H282.094V77.642H279.301V77.383L281.961 74.1H282.36L279.749 77.327H282.101V76.13H282.444V77.327H283.473V77.642ZM285.517 76.102C285.839 76.102 286.124 76.1627 286.371 76.284C286.623 76.4007 286.817 76.571 286.952 76.795C287.087 77.0143 287.155 77.2687 287.155 77.558C287.155 77.852 287.085 78.111 286.945 78.335C286.805 78.559 286.611 78.7317 286.364 78.853C286.117 78.9743 285.837 79.035 285.524 79.035C284.889 79.035 284.402 78.8203 284.061 78.391C283.725 77.957 283.557 77.3527 283.557 76.578C283.557 76.0367 283.646 75.5793 283.823 75.206C284.005 74.828 284.259 74.5433 284.586 74.352C284.913 74.1607 285.295 74.065 285.734 74.065C286.196 74.065 286.567 74.149 286.847 74.317L286.7 74.604C286.467 74.4547 286.145 74.38 285.734 74.38C285.169 74.38 284.724 74.5643 284.397 74.933C284.075 75.297 283.914 75.8267 283.914 76.522C283.914 76.7367 283.928 76.9327 283.956 77.11C284.054 76.7927 284.243 76.5453 284.523 76.368C284.808 76.1907 285.139 76.102 285.517 76.102ZM285.51 78.727C285.893 78.727 286.203 78.622 286.441 78.412C286.679 78.1973 286.798 77.915 286.798 77.565C286.798 77.215 286.679 76.935 286.441 76.725C286.203 76.515 285.879 76.41 285.468 76.41C285.207 76.41 284.971 76.4613 284.761 76.564C284.556 76.6667 284.395 76.8067 284.278 76.984C284.166 77.1613 284.11 77.3597 284.11 77.579C284.11 77.775 284.164 77.9617 284.271 78.139C284.383 78.3163 284.544 78.4587 284.754 78.566C284.964 78.6733 285.216 78.727 285.51 78.727ZM289.192 73.106H289.514L287.204 79.7H286.882L289.192 73.106ZM292.532 78.678V79H289.165V78.748L291.237 76.69C291.507 76.4193 291.689 76.1883 291.783 75.997C291.881 75.801 291.93 75.6003 291.93 75.395C291.93 75.0823 291.822 74.8373 291.608 74.66C291.398 74.4827 291.092 74.394 290.691 74.394C290.383 74.394 290.112 74.4407 289.879 74.534C289.65 74.6273 289.452 74.7697 289.284 74.961L289.032 74.737C289.218 74.5223 289.454 74.3567 289.739 74.24C290.028 74.1233 290.355 74.065 290.719 74.065C291.199 74.065 291.582 74.1817 291.867 74.415C292.151 74.6483 292.294 74.9633 292.294 75.36C292.294 75.612 292.238 75.8523 292.126 76.081C292.014 76.3097 291.804 76.5757 291.496 76.879L289.69 78.678H292.532ZM294.69 79.035C294.316 79.035 293.983 78.9347 293.689 78.734C293.399 78.5287 293.173 78.2393 293.01 77.866C292.851 77.4927 292.772 77.054 292.772 76.55C292.772 76.046 292.851 75.6073 293.01 75.234C293.173 74.8607 293.399 74.5737 293.689 74.373C293.983 74.1677 294.316 74.065 294.69 74.065C295.063 74.065 295.394 74.1677 295.684 74.373C295.978 74.5737 296.204 74.8607 296.363 75.234C296.526 75.6073 296.608 76.046 296.608 76.55C296.608 77.054 296.526 77.4927 296.363 77.866C296.204 78.2393 295.978 78.5287 295.684 78.734C295.394 78.9347 295.063 79.035 294.69 79.035ZM294.69 78.706C294.998 78.706 295.268 78.622 295.502 78.454C295.74 78.2813 295.924 78.034 296.055 77.712C296.185 77.3853 296.251 76.998 296.251 76.55C296.251 76.102 296.185 75.717 296.055 75.395C295.924 75.0683 295.74 74.821 295.502 74.653C295.268 74.4803 294.998 74.394 294.69 74.394C294.382 74.394 294.109 74.4803 293.871 74.653C293.637 74.821 293.455 75.0683 293.325 75.395C293.194 75.717 293.129 76.102 293.129 76.55C293.129 76.998 293.194 77.3853 293.325 77.712C293.455 78.034 293.637 78.2813 293.871 78.454C294.109 78.622 294.382 78.706 294.69 78.706ZM298.889 79.035C298.516 79.035 298.182 78.9347 297.888 78.734C297.599 78.5287 297.372 78.2393 297.209 77.866C297.05 77.4927 296.971 77.054 296.971 76.55C296.971 76.046 297.05 75.6073 297.209 75.234C297.372 74.8607 297.599 74.5737 297.888 74.373C298.182 74.1677 298.516 74.065 298.889 74.065C299.262 74.065 299.594 74.1677 299.883 74.373C300.177 74.5737 300.403 74.8607 300.562 75.234C300.725 75.6073 300.807 76.046 300.807 76.55C300.807 77.054 300.725 77.4927 300.562 77.866C300.403 78.2393 300.177 78.5287 299.883 78.734C299.594 78.9347 299.262 79.035 298.889 79.035ZM298.889 78.706C299.197 78.706 299.468 78.622 299.701 78.454C299.939 78.2813 300.123 78.034 300.254 77.712C300.385 77.3853 300.45 76.998 300.45 76.55C300.45 76.102 300.385 75.717 300.254 75.395C300.123 75.0683 299.939 74.821 299.701 74.653C299.468 74.4803 299.197 74.394 298.889 74.394C298.581 74.394 298.308 74.4803 298.07 74.653C297.837 74.821 297.655 75.0683 297.524 75.395C297.393 75.717 297.328 76.102 297.328 76.55C297.328 76.998 297.393 77.3853 297.524 77.712C297.655 78.034 297.837 78.2813 298.07 78.454C298.308 78.622 298.581 78.706 298.889 78.706Z" fill="white"/>
</g>
<defs>
<filter id="filter0_b_12_332" x="-12" y="-12" width="354" height="110" filterUnits="userSpaceOnUse" color-interpolation-filters="sRGB">
<feFlood flood-opacity="0" result="BackgroundImageFix"/>
<feGaussianBlur in="BackgroundImageFix" stdDeviation="6"/>
<feComposite in2="SourceAlpha" operator="in" result="effect1_backgroundBlur_12_332"/>
<feBlend mode="normal" in="SourceGraphic" in2="effect1_backgroundBlur_12_332" result="shape"/>
</filter>
</defs>
</svg>
