<svg width="224" height="42" viewBox="0 0 224 42" fill="none" xmlns="http://www.w3.org/2000/svg">
<g filter="url(#filter0_b_103_2657)">
<rect width="224" height="42" rx="15" fill="white" fill-opacity="0.3"/>
<path d="M20.761 15.1V27H18.585V23.685H15.644H15.406L13.196 27H10.867L13.417 23.328C12.5897 23.022 11.9493 22.5403 11.496 21.883C11.054 21.2143 10.833 20.4097 10.833 19.469C10.833 18.5623 11.037 17.7803 11.445 17.123C11.853 16.4657 12.431 15.967 13.179 15.627C13.927 15.2757 14.8053 15.1 15.814 15.1H20.761ZM15.882 16.97C14.9753 16.97 14.2783 17.1797 13.791 17.599C13.315 18.0183 13.077 18.6303 13.077 19.435C13.077 20.217 13.3093 20.8233 13.774 21.254C14.2387 21.6733 14.913 21.883 15.797 21.883H18.585V16.97H15.882ZM28.5032 17.82C29.3872 17.82 30.1748 18.0127 30.8662 18.398C31.5688 18.7833 32.1185 19.3273 32.5152 20.03C32.9118 20.7327 33.1102 21.543 33.1102 22.461C33.1102 23.379 32.9118 24.195 32.5152 24.909C32.1185 25.6117 31.5688 26.1557 30.8662 26.541C30.1748 26.9263 29.3872 27.119 28.5032 27.119C27.2792 27.119 26.3102 26.711 25.5962 25.895V30.298H23.4712V17.922H25.4942V19.112C25.8455 18.6813 26.2762 18.3583 26.7862 18.143C27.3075 17.9277 27.8798 17.82 28.5032 17.82ZM28.2652 25.3C29.0472 25.3 29.6875 25.0393 30.1862 24.518C30.6962 23.9967 30.9512 23.311 30.9512 22.461C30.9512 21.611 30.6962 20.9253 30.1862 20.404C29.6875 19.8827 29.0472 19.622 28.2652 19.622C27.7552 19.622 27.2962 19.741 26.8882 19.979C26.4802 20.2057 26.1572 20.5343 25.9192 20.965C25.6812 21.3957 25.5622 21.8943 25.5622 22.461C25.5622 23.0277 25.6812 23.5263 25.9192 23.957C26.1572 24.3877 26.4802 24.722 26.8882 24.96C27.2962 25.1867 27.7552 25.3 28.2652 25.3ZM43.1301 16.97H37.2311L37.2481 27H35.0721V15.1H43.1471L43.1301 16.97ZM54.8084 15.1L49.6404 24.705C49.1871 25.555 48.6431 26.1953 48.0084 26.626C47.3851 27.0453 46.7051 27.255 45.9684 27.255C45.3791 27.255 44.7954 27.1303 44.2174 26.881L44.7614 25.147C45.2261 25.2943 45.6114 25.368 45.9174 25.368C46.6314 25.368 47.2207 24.9997 47.6854 24.263L47.8724 23.974L43.1294 15.1H45.4924L49.0114 22.087L52.6324 15.1H54.8084ZM60.2386 17.922H62.3636V23.906L67.3786 17.922H69.3166V27H67.1916V21.016L62.1936 27H60.2386V17.922ZM80.6921 27V20.982L77.6321 26.048H76.7141L73.7051 20.965V27H71.7671V17.922H73.9941L77.2241 23.6L80.6071 17.922H82.5961L82.6131 27H80.6921ZM85.7014 27.119C85.3161 27.119 84.9874 26.9887 84.7154 26.728C84.4434 26.456 84.3074 26.116 84.3074 25.708C84.3074 25.2887 84.4377 24.9487 84.6984 24.688C84.9704 24.4273 85.3047 24.297 85.7014 24.297C86.0981 24.297 86.4267 24.4273 86.6874 24.688C86.9594 24.9487 87.0954 25.2887 87.0954 25.708C87.0954 26.116 86.9594 26.456 86.6874 26.728C86.4154 26.9887 86.0867 27.119 85.7014 27.119ZM103.866 15.1V27H101.69V16.97H95.519V27H93.343V15.1H103.866ZM107.222 27.119C106.836 27.119 106.508 26.9887 106.236 26.728C105.964 26.456 105.828 26.116 105.828 25.708C105.828 25.2887 105.958 24.9487 106.219 24.688C106.491 24.4273 106.825 24.297 107.222 24.297C107.618 24.297 107.947 24.4273 108.208 24.688C108.48 24.9487 108.616 25.2887 108.616 25.708C108.616 26.116 108.48 26.456 108.208 26.728C107.936 26.9887 107.607 27.119 107.222 27.119ZM118.631 16.97H112.732L112.749 27H110.573V15.1H118.648L118.631 16.97ZM117.363 27.119C116.977 27.119 116.649 26.9887 116.377 26.728C116.105 26.456 115.969 26.116 115.969 25.708C115.969 25.2887 116.099 24.9487 116.36 24.688C116.632 24.4273 116.966 24.297 117.363 24.297C117.759 24.297 118.088 24.4273 118.349 24.688C118.621 24.9487 118.757 25.2887 118.757 25.708C118.757 26.116 118.621 26.456 118.349 26.728C118.077 26.9887 117.748 27.119 117.363 27.119ZM136.785 25.13V29.533H134.745V27H125.616V29.533H123.559L123.576 25.13H124.086C124.834 25.096 125.356 24.5463 125.65 23.481C125.956 22.4043 126.143 20.8687 126.211 18.874L126.347 15.1H135.068V25.13H136.785ZM128.149 19.078C128.093 20.6193 127.968 21.9057 127.775 22.937C127.583 23.957 127.277 24.688 126.857 25.13H132.892V16.97H128.234L128.149 19.078ZM146.554 22.512C146.554 22.6593 146.543 22.869 146.52 23.141H139.397C139.522 23.8097 139.845 24.3423 140.366 24.739C140.899 25.1243 141.556 25.317 142.338 25.317C143.335 25.317 144.157 24.9883 144.803 24.331L145.942 25.64C145.534 26.1273 145.018 26.4957 144.395 26.745C143.772 26.9943 143.069 27.119 142.287 27.119C141.29 27.119 140.411 26.9207 139.652 26.524C138.893 26.1273 138.303 25.5777 137.884 24.875C137.476 24.161 137.272 23.3563 137.272 22.461C137.272 21.577 137.47 20.7837 137.867 20.081C138.275 19.367 138.836 18.8117 139.55 18.415C140.264 18.0183 141.069 17.82 141.964 17.82C142.848 17.82 143.636 18.0183 144.327 18.415C145.03 18.8003 145.574 19.35 145.959 20.064C146.356 20.7667 146.554 21.5827 146.554 22.512ZM141.964 19.52C141.284 19.52 140.706 19.724 140.23 20.132C139.765 20.5287 139.482 21.0613 139.38 21.73H144.531C144.44 21.0727 144.163 20.54 143.698 20.132C143.233 19.724 142.655 19.52 141.964 19.52ZM157.395 27V20.982L154.335 26.048H153.417L150.408 20.965V27H148.47V17.922H150.697L153.927 23.6L157.31 17.922H159.299L159.316 27H157.395ZM161.759 17.922H163.884V23.906L168.899 17.922H170.837V27H168.712V21.016L163.714 27H161.759V17.922ZM182.977 25.198V29.023H180.988V27H173.984V29.023H172.012V25.198H172.437C173.015 25.1753 173.406 24.807 173.61 24.093C173.825 23.3677 173.967 22.3477 174.035 21.033L174.154 17.922H181.634V25.198H182.977ZM175.973 21.186C175.928 22.2287 175.843 23.0787 175.718 23.736C175.593 24.3933 175.367 24.8807 175.038 25.198H179.509V19.724H176.024L175.973 21.186ZM188.513 27.119C187.595 27.119 186.768 26.9207 186.031 26.524C185.294 26.1273 184.716 25.5777 184.297 24.875C183.889 24.161 183.685 23.3563 183.685 22.461C183.685 21.5657 183.889 20.7667 184.297 20.064C184.716 19.3613 185.294 18.8117 186.031 18.415C186.768 18.0183 187.595 17.82 188.513 17.82C189.442 17.82 190.275 18.0183 191.012 18.415C191.749 18.8117 192.321 19.3613 192.729 20.064C193.148 20.7667 193.358 21.5657 193.358 22.461C193.358 23.3563 193.148 24.161 192.729 24.875C192.321 25.5777 191.749 26.1273 191.012 26.524C190.275 26.9207 189.442 27.119 188.513 27.119ZM188.513 25.3C189.295 25.3 189.941 25.0393 190.451 24.518C190.961 23.9967 191.216 23.311 191.216 22.461C191.216 21.611 190.961 20.9253 190.451 20.404C189.941 19.8827 189.295 19.622 188.513 19.622C187.731 19.622 187.085 19.8827 186.575 20.404C186.076 20.9253 185.827 21.611 185.827 22.461C185.827 23.311 186.076 23.9967 186.575 24.518C187.085 25.0393 187.731 25.3 188.513 25.3ZM201.628 22.274C202.75 22.614 203.311 23.3393 203.311 24.45C203.311 25.266 203.005 25.895 202.393 26.337C201.781 26.779 200.875 27 199.673 27H195.049V17.922H199.486C200.597 17.922 201.464 18.126 202.087 18.534C202.711 18.942 203.022 19.52 203.022 20.268C203.022 20.7327 202.898 21.135 202.648 21.475C202.41 21.815 202.07 22.0813 201.628 22.274ZM197.072 21.713H199.299C200.399 21.713 200.948 21.3333 200.948 20.574C200.948 19.8373 200.399 19.469 199.299 19.469H197.072V21.713ZM199.503 25.453C200.671 25.453 201.254 25.0733 201.254 24.314C201.254 23.9173 201.118 23.6227 200.846 23.43C200.574 23.226 200.149 23.124 199.571 23.124H197.072V25.453H199.503ZM208.55 17.82C209.887 17.82 210.907 18.143 211.61 18.789C212.324 19.4237 212.681 20.387 212.681 21.679V27H210.675V25.895C210.414 26.2917 210.04 26.5977 209.553 26.813C209.077 27.017 208.499 27.119 207.819 27.119C207.139 27.119 206.544 27.0057 206.034 26.779C205.524 26.541 205.127 26.218 204.844 25.81C204.572 25.3907 204.436 24.9203 204.436 24.399C204.436 23.583 204.736 22.9313 205.337 22.444C205.949 21.9453 206.906 21.696 208.21 21.696H210.556V21.56C210.556 20.9253 210.363 20.438 209.978 20.098C209.604 19.758 209.043 19.588 208.295 19.588C207.785 19.588 207.28 19.6673 206.782 19.826C206.294 19.9847 205.881 20.2057 205.541 20.489L204.708 18.942C205.184 18.5793 205.756 18.3017 206.425 18.109C207.093 17.9163 207.802 17.82 208.55 17.82ZM208.261 25.572C208.793 25.572 209.264 25.453 209.672 25.215C210.091 24.9657 210.386 24.6143 210.556 24.161V23.107H208.363C207.139 23.107 206.527 23.5093 206.527 24.314C206.527 24.6993 206.68 25.0053 206.986 25.232C207.292 25.4587 207.717 25.572 208.261 25.572Z" fill="white"/>
</g>
<defs>
<filter id="filter0_b_103_2657" x="-12" y="-12" width="248" height="66" filterUnits="userSpaceOnUse" color-interpolation-filters="sRGB">
<feFlood flood-opacity="0" result="BackgroundImageFix"/>
<feGaussianBlur in="BackgroundImageFix" stdDeviation="6"/>
<feComposite in2="SourceAlpha" operator="in" result="effect1_backgroundBlur_103_2657"/>
<feBlend mode="normal" in="SourceGraphic" in2="effect1_backgroundBlur_103_2657" result="shape"/>
</filter>
</defs>
</svg>
