<svg width="213" height="42" viewBox="0 0 213 42" fill="none" xmlns="http://www.w3.org/2000/svg">
<rect width="213" height="42" rx="15" fill="url(#paint0_linear_103_2661)"/>
<path d="M19.554 24.246H13.604L12.431 27H10.153L15.508 15.1H17.684L23.056 27H20.744L19.554 24.246ZM18.823 22.512L16.579 17.31L14.352 22.512H18.823ZM24.2348 17.922H26.3598V21.611H30.9328V17.922H33.0578V27H30.9328V23.413H26.3598V27H24.2348V17.922ZM42.4677 19.724H37.6227V27H35.4977V17.922H42.4677V19.724ZM51.2201 17.922V27H49.0951V19.724H45.6951L45.6101 21.526C45.5534 22.7273 45.4401 23.736 45.2701 24.552C45.1114 25.3567 44.8338 25.997 44.4371 26.473C44.0518 26.9377 43.5191 27.17 42.8391 27.17C42.5218 27.17 42.1308 27.1077 41.6661 26.983L41.7681 25.198C41.9268 25.232 42.0628 25.249 42.1761 25.249C42.6068 25.249 42.9298 25.079 43.1451 24.739C43.3604 24.3877 43.4964 23.974 43.5531 23.498C43.6211 23.0107 43.6778 22.3193 43.7231 21.424L43.8761 17.922H51.2201ZM53.6739 17.922H55.7989V23.906L60.8139 17.922H62.7519V27H60.6269V21.016L55.6289 27H53.6739V17.922ZM65.2025 17.922H67.3275V23.906L72.3425 17.922H74.2805V27H72.1555V21.016L67.1575 27H65.2025V17.922ZM69.6055 16.851C68.6875 16.851 67.9848 16.6413 67.4975 16.222C67.0215 15.7913 66.7778 15.168 66.7665 14.352H68.1775C68.1888 14.76 68.3135 15.083 68.5515 15.321C68.8008 15.559 69.1465 15.678 69.5885 15.678C70.0191 15.678 70.3591 15.559 70.6085 15.321C70.8691 15.083 71.0051 14.76 71.0165 14.352H72.4615C72.4501 15.168 72.2008 15.7913 71.7135 16.222C71.2261 16.6413 70.5235 16.851 69.6055 16.851ZM80.862 27.119C79.9213 27.119 79.077 26.9207 78.329 26.524C77.581 26.1273 76.9973 25.5777 76.578 24.875C76.1586 24.161 75.949 23.3563 75.949 22.461C75.949 21.5657 76.1586 20.7667 76.578 20.064C76.9973 19.3613 77.5753 18.8117 78.312 18.415C79.06 18.0183 79.91 17.82 80.862 17.82C81.7573 17.82 82.5393 18.0013 83.208 18.364C83.888 18.7267 84.398 19.248 84.738 19.928L83.106 20.88C82.8453 20.4607 82.5166 20.149 82.12 19.945C81.7346 19.7297 81.3096 19.622 80.845 19.622C80.0516 19.622 79.3943 19.8827 78.873 20.404C78.3516 20.914 78.091 21.5997 78.091 22.461C78.091 23.3223 78.346 24.0137 78.856 24.535C79.3773 25.045 80.0403 25.3 80.845 25.3C81.3096 25.3 81.7346 25.198 82.12 24.994C82.5166 24.7787 82.8453 24.4613 83.106 24.042L84.738 24.994C84.3866 25.674 83.871 26.201 83.191 26.575C82.5223 26.9377 81.746 27.119 80.862 27.119ZM89.9749 23.362H88.3259V27H86.2009V17.922H88.3259V21.594H90.0259L92.7119 17.922H94.9899L91.6919 22.291L95.2109 27H92.7119L89.9749 23.362ZM96.3017 17.922H98.4267V23.906L103.442 17.922H105.38V27H103.255V21.016L98.2567 27H96.3017V17.922ZM107.83 17.922H109.955V23.906L114.97 17.922H116.908V27H114.783V21.016L109.785 27H107.83V17.922ZM112.233 16.851C111.315 16.851 110.613 16.6413 110.125 16.222C109.649 15.7913 109.406 15.168 109.394 14.352H110.805C110.817 14.76 110.941 15.083 111.179 15.321C111.429 15.559 111.774 15.678 112.216 15.678C112.647 15.678 112.987 15.559 113.236 15.321C113.497 15.083 113.633 14.76 113.644 14.352H115.089C115.078 15.168 114.829 15.7913 114.341 16.222C113.854 16.6413 113.151 16.851 112.233 16.851ZM131.316 17.922V27H129.412V24.263H127.015L125.162 27H122.884L125.026 23.974C124.369 23.7473 123.864 23.4017 123.513 22.937C123.173 22.461 123.003 21.8773 123.003 21.186C123.003 20.1433 123.371 19.3387 124.108 18.772C124.845 18.2053 125.859 17.922 127.151 17.922H131.316ZM127.219 19.707C125.848 19.707 125.162 20.2227 125.162 21.254C125.162 22.274 125.825 22.784 127.151 22.784H129.412V19.707H127.219ZM139.073 22.274C139.64 22.4327 140.076 22.6933 140.382 23.056C140.7 23.4073 140.858 23.8323 140.858 24.331C140.858 24.8863 140.671 25.3793 140.297 25.81C139.923 26.2293 139.408 26.558 138.75 26.796C138.093 27.034 137.345 27.153 136.506 27.153C135.804 27.153 135.118 27.0737 134.449 26.915C133.781 26.745 133.174 26.507 132.63 26.201L133.242 24.62C133.684 24.8693 134.183 25.062 134.738 25.198C135.294 25.334 135.849 25.402 136.404 25.402C137.118 25.402 137.674 25.2943 138.07 25.079C138.478 24.8523 138.682 24.5463 138.682 24.161C138.682 23.8097 138.524 23.5377 138.206 23.345C137.9 23.1523 137.464 23.056 136.897 23.056H135.129V21.628H136.727C137.26 21.628 137.674 21.5373 137.968 21.356C138.274 21.1747 138.427 20.9197 138.427 20.591C138.427 20.2623 138.246 20.0017 137.883 19.809C137.521 19.6163 137.022 19.52 136.387 19.52C135.481 19.52 134.523 19.741 133.514 20.183L132.97 18.619C134.16 18.0637 135.362 17.786 136.574 17.786C137.345 17.786 138.036 17.8937 138.648 18.109C139.26 18.313 139.736 18.6077 140.076 18.993C140.428 19.367 140.603 19.7977 140.603 20.285C140.603 20.727 140.467 21.1237 140.195 21.475C139.923 21.815 139.549 22.0813 139.073 22.274ZM147.075 20.914C148.231 20.914 149.115 21.1747 149.727 21.696C150.339 22.2173 150.645 22.954 150.645 23.906C150.645 24.9033 150.305 25.674 149.625 26.218C148.957 26.762 148.005 27.0283 146.769 27.017L142.655 27V17.922H144.78V20.897L147.075 20.914ZM151.818 17.922H153.943V27H151.818V17.922ZM146.582 25.453C147.206 25.4643 147.682 25.334 148.01 25.062C148.339 24.79 148.503 24.3933 148.503 23.872C148.503 23.362 148.345 22.988 148.027 22.75C147.71 22.512 147.228 22.3873 146.582 22.376L144.78 22.359V25.436L146.582 25.453ZM160.166 23.362H158.517V27H156.392V17.922H158.517V21.594H160.217L162.903 17.922H165.181L161.883 22.291L165.402 27H162.903L160.166 23.362ZM170.29 21.39H174.965V23.158H170.29V21.39ZM189.808 20.812C190.465 21.0273 190.987 21.39 191.372 21.9C191.757 22.3987 191.95 23.022 191.95 23.77C191.95 24.8013 191.553 25.6003 190.76 26.167C189.967 26.7223 188.811 27 187.292 27H181.376V15.1H186.952C188.357 15.1 189.44 15.3777 190.199 15.933C190.958 16.477 191.338 17.2307 191.338 18.194C191.338 18.7833 191.202 19.3047 190.93 19.758C190.658 20.2113 190.284 20.5627 189.808 20.812ZM183.586 16.834V20.115H186.714C187.485 20.115 188.074 19.979 188.482 19.707C188.901 19.4237 189.111 19.0157 189.111 18.483C189.111 17.939 188.901 17.531 188.482 17.259C188.074 16.9757 187.485 16.834 186.714 16.834H183.586ZM187.156 25.266C188.867 25.266 189.723 24.6937 189.723 23.549C189.723 22.4043 188.867 21.832 187.156 21.832H183.586V25.266H187.156ZM201.67 25.13V27H192.898V25.521L197.624 21.033C198.156 20.523 198.513 20.081 198.695 19.707C198.887 19.3217 198.984 18.942 198.984 18.568C198.984 18.0127 198.797 17.5877 198.423 17.293C198.049 16.9983 197.499 16.851 196.774 16.851C195.561 16.851 194.632 17.2647 193.986 18.092L192.439 16.902C192.903 16.2787 193.527 15.797 194.309 15.457C195.102 15.1057 195.986 14.93 196.961 14.93C198.253 14.93 199.284 15.236 200.055 15.848C200.825 16.46 201.211 17.293 201.211 18.347C201.211 18.993 201.075 19.5993 200.803 20.166C200.531 20.7327 200.009 21.3787 199.239 22.104L196.06 25.13H201.67Z" fill="white"/>
<defs>
<linearGradient id="paint0_linear_103_2661" x1="-14.0132" y1="-9.04916e-07" x2="342.982" y2="62.2316" gradientUnits="userSpaceOnUse">
<stop stop-color="#FF4E50"/>
<stop offset="1" stop-color="#F9D423"/>
</linearGradient>
</defs>
</svg>
