<svg width="114" height="42" viewBox="0 0 114 42" fill="none" xmlns="http://www.w3.org/2000/svg">
<g filter="url(#filter0_b_103_2659)">
<rect width="236" height="42" rx="15" fill="white" fill-opacity="0.3"/>
<path d="M20.761 15.1V27H18.585V23.685H15.644H15.406L13.196 27H10.867L13.417 23.328C12.5897 23.022 11.9493 22.5403 11.496 21.883C11.054 21.2143 10.833 20.4097 10.833 19.469C10.833 18.5623 11.037 17.7803 11.445 17.123C11.853 16.4657 12.431 15.967 13.179 15.627C13.927 15.2757 14.8053 15.1 15.814 15.1H20.761ZM15.882 16.97C14.9753 16.97 14.2783 17.1797 13.791 17.599C13.315 18.0183 13.077 18.6303 13.077 19.435C13.077 20.217 13.3093 20.8233 13.774 21.254C14.2387 21.6733 14.913 21.883 15.797 21.883H18.585V16.97H15.882ZM31.7842 16.97H25.8852L25.9022 27H23.7262V15.1H31.8012L31.7842 16.97ZM43.7855 15.1V27H41.6095V16.97H35.4385V27H33.2625V15.1H43.7855ZM56.95 15.1L51.782 24.705C51.3287 25.555 50.7847 26.1953 50.15 26.626C49.5267 27.0453 48.8467 27.255 48.11 27.255C47.5207 27.255 46.937 27.1303 46.359 26.881L46.903 25.147C47.3677 25.2943 47.753 25.368 48.059 25.368C48.773 25.368 49.3624 24.9997 49.827 24.263L50.014 23.974L45.271 15.1H47.634L51.153 22.087L54.774 15.1H56.95ZM62.3802 17.922H64.5052V23.906L69.5202 17.922H71.4582V27H69.3332V21.016L64.3352 27H62.3802V17.922ZM82.8337 27V20.982L79.7737 26.048H78.8557L75.8467 20.965V27H73.9087V17.922H76.1357L79.3657 23.6L82.7487 17.922H84.7377L84.7547 27H82.8337ZM87.843 27.119C87.4577 27.119 87.129 26.9887 86.857 26.728C86.585 26.456 86.449 26.116 86.449 25.708C86.449 25.2887 86.5793 24.9487 86.84 24.688C87.112 24.4273 87.4463 24.297 87.843 24.297C88.2397 24.297 88.5683 24.4273 88.829 24.688C89.101 24.9487 89.237 25.2887 89.237 25.708C89.237 26.116 89.101 26.456 88.829 26.728C88.557 26.9887 88.2283 27.119 87.843 27.119ZM99.8536 21.985H97.6436V27H95.4676V15.1H97.6436V20.081H99.9216L103.339 15.1H105.685L101.622 20.863L105.838 27H103.339L99.8536 21.985ZM107.736 27.119C107.351 27.119 107.022 26.9887 106.75 26.728C106.478 26.456 106.342 26.116 106.342 25.708C106.342 25.2887 106.473 24.9487 106.733 24.688C107.005 24.4273 107.34 24.297 107.736 24.297C108.133 24.297 108.462 24.4273 108.722 24.688C108.994 24.9487 109.13 25.2887 109.13 25.708C109.13 26.116 108.994 26.456 108.722 26.728C108.45 26.9887 108.122 27.119 107.736 27.119ZM123.25 25.13V29.533H121.21V27H112.081V29.533H110.024L110.041 25.13H110.551C111.299 25.096 111.821 24.5463 112.115 23.481C112.421 22.4043 112.608 20.8687 112.676 18.874L112.812 15.1H121.533V25.13H123.25ZM114.614 19.078C114.558 20.6193 114.433 21.9057 114.24 22.937C114.048 23.957 113.742 24.688 113.322 25.13H119.357V16.97H114.699L114.614 19.078ZM125.464 27.119C125.079 27.119 124.75 26.9887 124.478 26.728C124.206 26.456 124.07 26.116 124.07 25.708C124.07 25.2887 124.2 24.9487 124.461 24.688C124.733 24.4273 125.067 24.297 125.464 24.297C125.861 24.297 126.189 24.4273 126.45 24.688C126.722 24.9487 126.858 25.2887 126.858 25.708C126.858 26.116 126.722 26.456 126.45 26.728C126.178 26.9887 125.849 27.119 125.464 27.119ZM139.016 15.1L133.848 24.705C133.394 25.555 132.85 26.1953 132.216 26.626C131.592 27.0453 130.912 27.255 130.176 27.255C129.586 27.255 129.003 27.1303 128.425 26.881L128.969 25.147C129.433 25.2943 129.819 25.368 130.125 25.368C130.839 25.368 131.428 24.9997 131.893 24.263L132.08 23.974L127.337 15.1H129.7L133.219 22.087L136.84 15.1H139.016ZM152.937 17.922V27H139.558V17.922H141.683V25.198H145.202V17.922H147.327V25.198H150.812V17.922H152.937ZM155.386 17.922H157.511V23.906L162.526 17.922H164.464V27H162.339V21.016L157.341 27H155.386V17.922ZM166.915 17.922H169.04V21.611H173.613V17.922H175.738V27H173.613V23.413H169.04V27H166.915V17.922ZM182.309 27.119C181.368 27.119 180.524 26.9207 179.776 26.524C179.028 26.1273 178.444 25.5777 178.025 24.875C177.605 24.161 177.396 23.3563 177.396 22.461C177.396 21.5657 177.605 20.7667 178.025 20.064C178.444 19.3613 179.022 18.8117 179.759 18.415C180.507 18.0183 181.357 17.82 182.309 17.82C183.204 17.82 183.986 18.0013 184.655 18.364C185.335 18.7267 185.845 19.248 186.185 19.928L184.553 20.88C184.292 20.4607 183.963 20.149 183.567 19.945C183.181 19.7297 182.756 19.622 182.292 19.622C181.498 19.622 180.841 19.8827 180.32 20.404C179.798 20.914 179.538 21.5997 179.538 22.461C179.538 23.3223 179.793 24.0137 180.303 24.535C180.824 25.045 181.487 25.3 182.292 25.3C182.756 25.3 183.181 25.198 183.567 24.994C183.963 24.7787 184.292 24.4613 184.553 24.042L186.185 24.994C185.833 25.674 185.318 26.201 184.638 26.575C183.969 26.9377 183.193 27.119 182.309 27.119ZM191.421 23.362H189.772V27H187.647V17.922H189.772V21.594H191.472L194.158 17.922H196.436L193.138 22.291L196.657 27H194.158L191.421 23.362ZM201.495 27.119C200.577 27.119 199.75 26.9207 199.013 26.524C198.277 26.1273 197.699 25.5777 197.279 24.875C196.871 24.161 196.667 23.3563 196.667 22.461C196.667 21.5657 196.871 20.7667 197.279 20.064C197.699 19.3613 198.277 18.8117 199.013 18.415C199.75 18.0183 200.577 17.82 201.495 17.82C202.425 17.82 203.258 18.0183 203.994 18.415C204.731 18.8117 205.303 19.3613 205.711 20.064C206.131 20.7667 206.34 21.5657 206.34 22.461C206.34 23.3563 206.131 24.161 205.711 24.875C205.303 25.5777 204.731 26.1273 203.994 26.524C203.258 26.9207 202.425 27.119 201.495 27.119ZM201.495 25.3C202.277 25.3 202.923 25.0393 203.433 24.518C203.943 23.9967 204.198 23.311 204.198 22.461C204.198 21.611 203.943 20.9253 203.433 20.404C202.923 19.8827 202.277 19.622 201.495 19.622C200.713 19.622 200.067 19.8827 199.557 20.404C199.059 20.9253 198.809 21.611 198.809 22.461C198.809 23.311 199.059 23.9967 199.557 24.518C200.067 25.0393 200.713 25.3 201.495 25.3ZM215.002 19.724H210.157V27H208.032V17.922H215.002V19.724ZM219.788 27.119C218.87 27.119 218.043 26.9207 217.306 26.524C216.569 26.1273 215.991 25.5777 215.572 24.875C215.164 24.161 214.96 23.3563 214.96 22.461C214.96 21.5657 215.164 20.7667 215.572 20.064C215.991 19.3613 216.569 18.8117 217.306 18.415C218.043 18.0183 218.87 17.82 219.788 17.82C220.717 17.82 221.55 18.0183 222.287 18.415C223.024 18.8117 223.596 19.3613 224.004 20.064C224.423 20.7667 224.633 21.5657 224.633 22.461C224.633 23.3563 224.423 24.161 224.004 24.875C223.596 25.5777 223.024 26.1273 222.287 26.524C221.55 26.9207 220.717 27.119 219.788 27.119ZM219.788 25.3C220.57 25.3 221.216 25.0393 221.726 24.518C222.236 23.9967 222.491 23.311 222.491 22.461C222.491 21.611 222.236 20.9253 221.726 20.404C221.216 19.8827 220.57 19.622 219.788 19.622C219.006 19.622 218.36 19.8827 217.85 20.404C217.351 20.9253 217.102 21.611 217.102 22.461C217.102 23.311 217.351 23.9967 217.85 24.518C218.36 25.0393 219.006 25.3 219.788 25.3Z" fill="white"/>
</g>
<defs>
<filter id="filter0_b_103_2659" x="-12" y="-12" width="260" height="66" filterUnits="userSpaceOnUse" color-interpolation-filters="sRGB">
<feFlood flood-opacity="0" result="BackgroundImageFix"/>
<feGaussianBlur in="BackgroundImageFix" stdDeviation="6"/>
<feComposite in2="SourceAlpha" operator="in" result="effect1_backgroundBlur_103_2659"/>
<feBlend mode="normal" in="SourceGraphic" in2="effect1_backgroundBlur_103_2659" result="shape"/>
</filter>
</defs>
</svg>
