<svg width="125" height="42" viewBox="0 0 125 42" fill="none" xmlns="http://www.w3.org/2000/svg">
<rect width="164" height="42" rx="15" fill="url(#paint0_linear_103_2663)"/>
<path d="M22.529 27L22.512 19.112L18.602 25.64H17.616L13.706 19.214V27H11.598V15.1H13.417L18.143 22.988L22.784 15.1H24.603L24.62 27H22.529ZM27.2223 17.922H29.3473V27H27.2223V17.922ZM28.2933 16.426C27.908 16.426 27.585 16.307 27.3243 16.069C27.0637 15.8197 26.9333 15.5137 26.9333 15.151C26.9333 14.7883 27.0637 14.488 27.3243 14.25C27.585 14.0007 27.908 13.876 28.2933 13.876C28.6787 13.876 29.0017 13.995 29.2623 14.233C29.523 14.4597 29.6533 14.7487 29.6533 15.1C29.6533 15.474 29.523 15.7913 29.2623 16.052C29.013 16.3013 28.69 16.426 28.2933 16.426ZM35.8934 27.119C34.9527 27.119 34.1084 26.9207 33.3604 26.524C32.6124 26.1273 32.0287 25.5777 31.6094 24.875C31.1901 24.161 30.9804 23.3563 30.9804 22.461C30.9804 21.5657 31.1901 20.7667 31.6094 20.064C32.0287 19.3613 32.6067 18.8117 33.3434 18.415C34.0914 18.0183 34.9414 17.82 35.8934 17.82C36.7887 17.82 37.5707 18.0013 38.2394 18.364C38.9194 18.7267 39.4294 19.248 39.7694 19.928L38.1374 20.88C37.8767 20.4607 37.5481 20.149 37.1514 19.945C36.7661 19.7297 36.3411 19.622 35.8764 19.622C35.0831 19.622 34.4257 19.8827 33.9044 20.404C33.3831 20.914 33.1224 21.5997 33.1224 22.461C33.1224 23.3223 33.3774 24.0137 33.8874 24.535C34.4087 25.045 35.0717 25.3 35.8764 25.3C36.3411 25.3 36.7661 25.198 37.1514 24.994C37.5481 24.7787 37.8767 24.4613 38.1374 24.042L39.7694 24.994C39.4181 25.674 38.9024 26.201 38.2224 26.575C37.5537 26.9377 36.7774 27.119 35.8934 27.119ZM43.2213 19.248C43.8333 18.296 44.91 17.82 46.4513 17.82V19.843C46.27 19.809 46.1057 19.792 45.9583 19.792C45.131 19.792 44.485 20.0357 44.0203 20.523C43.5557 20.999 43.3233 21.6903 43.3233 22.597V27H41.1983V17.922H43.2213V19.248ZM51.843 27.119C50.925 27.119 50.0976 26.9207 49.361 26.524C48.6243 26.1273 48.0463 25.5777 47.627 24.875C47.219 24.161 47.015 23.3563 47.015 22.461C47.015 21.5657 47.219 20.7667 47.627 20.064C48.0463 19.3613 48.6243 18.8117 49.361 18.415C50.0976 18.0183 50.925 17.82 51.843 17.82C52.7723 17.82 53.6053 18.0183 54.342 18.415C55.0786 18.8117 55.651 19.3613 56.059 20.064C56.4783 20.7667 56.688 21.5657 56.688 22.461C56.688 23.3563 56.4783 24.161 56.059 24.875C55.651 25.5777 55.0786 26.1273 54.342 26.524C53.6053 26.9207 52.7723 27.119 51.843 27.119ZM51.843 25.3C52.625 25.3 53.271 25.0393 53.781 24.518C54.291 23.9967 54.546 23.311 54.546 22.461C54.546 21.611 54.291 20.9253 53.781 20.404C53.271 19.8827 52.625 19.622 51.843 19.622C51.061 19.622 50.415 19.8827 49.905 20.404C49.4063 20.9253 49.157 21.611 49.157 22.461C49.157 23.311 49.4063 23.9967 49.905 24.518C50.415 25.0393 51.061 25.3 51.843 25.3ZM61.117 27.119C60.3803 27.119 59.6607 27.0227 58.958 26.83C58.2553 26.6373 57.6943 26.3937 57.275 26.099L58.091 24.484C58.499 24.756 58.9863 24.977 59.553 25.147C60.131 25.3057 60.6977 25.385 61.253 25.385C62.5223 25.385 63.157 25.0507 63.157 24.382C63.157 24.0647 62.9927 23.8437 62.664 23.719C62.3467 23.5943 61.831 23.4753 61.117 23.362C60.369 23.2487 59.757 23.1183 59.281 22.971C58.8163 22.8237 58.4083 22.5687 58.057 22.206C57.717 21.832 57.547 21.3163 57.547 20.659C57.547 19.7977 57.904 19.112 58.618 18.602C59.3433 18.0807 60.318 17.82 61.542 17.82C62.1653 17.82 62.7887 17.8937 63.412 18.041C64.0353 18.177 64.5453 18.364 64.942 18.602L64.126 20.217C63.3553 19.7637 62.4883 19.537 61.525 19.537C60.9017 19.537 60.4257 19.6333 60.097 19.826C59.7797 20.0073 59.621 20.251 59.621 20.557C59.621 20.897 59.791 21.1407 60.131 21.288C60.4823 21.424 61.0207 21.5543 61.746 21.679C62.4713 21.7923 63.0663 21.9227 63.531 22.07C63.9957 22.2173 64.3923 22.4667 64.721 22.818C65.061 23.1693 65.231 23.668 65.231 24.314C65.231 25.164 64.8627 25.844 64.126 26.354C63.3893 26.864 62.3863 27.119 61.117 27.119ZM70.733 27.119C69.815 27.119 68.9877 26.9207 68.251 26.524C67.5144 26.1273 66.9364 25.5777 66.517 24.875C66.109 24.161 65.905 23.3563 65.905 22.461C65.905 21.5657 66.109 20.7667 66.517 20.064C66.9364 19.3613 67.5144 18.8117 68.251 18.415C68.9877 18.0183 69.815 17.82 70.733 17.82C71.6624 17.82 72.4954 18.0183 73.232 18.415C73.9687 18.8117 74.541 19.3613 74.949 20.064C75.3684 20.7667 75.578 21.5657 75.578 22.461C75.578 23.3563 75.3684 24.161 74.949 24.875C74.541 25.5777 73.9687 26.1273 73.232 26.524C72.4954 26.9207 71.6624 27.119 70.733 27.119ZM70.733 25.3C71.515 25.3 72.161 25.0393 72.671 24.518C73.181 23.9967 73.436 23.311 73.436 22.461C73.436 21.611 73.181 20.9253 72.671 20.404C72.161 19.8827 71.515 19.622 70.733 19.622C69.951 19.622 69.305 19.8827 68.795 20.404C68.2964 20.9253 68.047 21.611 68.047 22.461C68.047 23.311 68.2964 23.9967 68.795 24.518C69.305 25.0393 69.951 25.3 70.733 25.3ZM80.8911 15.984C79.9957 15.984 79.5481 16.4713 79.5481 17.446V17.99H82.0471V19.69H79.6161V27H77.4911V19.69H75.9951V17.99H77.4911V17.412C77.4911 16.4373 77.7744 15.6723 78.3411 15.117C78.9077 14.5503 79.7067 14.267 80.7381 14.267C81.5541 14.267 82.1944 14.4313 82.6591 14.76L82.0641 16.358C81.7014 16.1087 81.3104 15.984 80.8911 15.984ZM88.5265 26.507C88.2771 26.711 87.9711 26.864 87.6085 26.966C87.2571 27.068 86.8831 27.119 86.4865 27.119C85.4891 27.119 84.7185 26.8583 84.1745 26.337C83.6305 25.8157 83.3585 25.0563 83.3585 24.059V19.69H81.8625V17.99H83.3585V15.916H85.4835V17.99H87.9145V19.69H85.4835V24.008C85.4835 24.45 85.5911 24.79 85.8065 25.028C86.0218 25.2547 86.3335 25.368 86.7415 25.368C87.2175 25.368 87.6141 25.2433 87.9315 24.994L88.5265 26.507ZM99.2568 15.1C100.288 15.1 101.183 15.27 101.943 15.61C102.713 15.95 103.303 16.4373 103.711 17.072C104.119 17.7067 104.323 18.4603 104.323 19.333C104.323 20.1943 104.119 20.948 103.711 21.594C103.303 22.2287 102.713 22.716 101.943 23.056C101.183 23.396 100.288 23.566 99.2568 23.566H96.5708V27H94.3608V15.1H99.2568ZM99.1548 21.696C100.118 21.696 100.849 21.492 101.348 21.084C101.846 20.676 102.096 20.0923 102.096 19.333C102.096 18.5737 101.846 17.99 101.348 17.582C100.849 17.174 100.118 16.97 99.1548 16.97H96.5708V21.696H99.1548ZM107.858 19.248C108.47 18.296 109.546 17.82 111.088 17.82V19.843C110.906 19.809 110.742 19.792 110.595 19.792C109.767 19.792 109.121 20.0357 108.657 20.523C108.192 20.999 107.96 21.6903 107.96 22.597V27H105.835V17.922H107.858V19.248ZM116.479 27.119C115.561 27.119 114.734 26.9207 113.997 26.524C113.261 26.1273 112.683 25.5777 112.263 24.875C111.855 24.161 111.651 23.3563 111.651 22.461C111.651 21.5657 111.855 20.7667 112.263 20.064C112.683 19.3613 113.261 18.8117 113.997 18.415C114.734 18.0183 115.561 17.82 116.479 17.82C117.409 17.82 118.242 18.0183 118.978 18.415C119.715 18.8117 120.287 19.3613 120.695 20.064C121.115 20.7667 121.324 21.5657 121.324 22.461C121.324 23.3563 121.115 24.161 120.695 24.875C120.287 25.5777 119.715 26.1273 118.978 26.524C118.242 26.9207 117.409 27.119 116.479 27.119ZM116.479 25.3C117.261 25.3 117.907 25.0393 118.417 24.518C118.927 23.9967 119.182 23.311 119.182 22.461C119.182 21.611 118.927 20.9253 118.417 20.404C117.907 19.8827 117.261 19.622 116.479 19.622C115.697 19.622 115.051 19.8827 114.541 20.404C114.043 20.9253 113.793 21.611 113.793 22.461C113.793 23.311 114.043 23.9967 114.541 24.518C115.051 25.0393 115.697 25.3 116.479 25.3ZM122.013 30.417C121.118 30.417 120.438 30.2413 119.973 29.89L120.585 28.309C120.903 28.547 121.316 28.666 121.826 28.666C122.223 28.666 122.523 28.5413 122.727 28.292C122.943 28.054 123.05 27.697 123.05 27.221V17.922H125.175V27.17C125.175 28.1787 124.898 28.972 124.342 29.55C123.787 30.128 123.011 30.417 122.013 30.417ZM124.104 16.426C123.719 16.426 123.396 16.307 123.135 16.069C122.875 15.8197 122.744 15.5137 122.744 15.151C122.744 14.7883 122.875 14.488 123.135 14.25C123.396 14.0007 123.719 13.876 124.104 13.876C124.49 13.876 124.813 13.995 125.073 14.233C125.334 14.4597 125.464 14.7487 125.464 15.1C125.464 15.474 125.334 15.7913 125.073 16.052C124.824 16.3013 124.501 16.426 124.104 16.426ZM136.088 22.512C136.088 22.6593 136.077 22.869 136.054 23.141H128.931C129.056 23.8097 129.379 24.3423 129.9 24.739C130.433 25.1243 131.09 25.317 131.872 25.317C132.869 25.317 133.691 24.9883 134.337 24.331L135.476 25.64C135.068 26.1273 134.552 26.4957 133.929 26.745C133.306 26.9943 132.603 27.119 131.821 27.119C130.824 27.119 129.945 26.9207 129.186 26.524C128.427 26.1273 127.837 25.5777 127.418 24.875C127.01 24.161 126.806 23.3563 126.806 22.461C126.806 21.577 127.004 20.7837 127.401 20.081C127.809 19.367 128.37 18.8117 129.084 18.415C129.798 18.0183 130.603 17.82 131.498 17.82C132.382 17.82 133.17 18.0183 133.861 18.415C134.564 18.8003 135.108 19.35 135.493 20.064C135.89 20.7667 136.088 21.5827 136.088 22.512ZM131.498 19.52C130.818 19.52 130.24 19.724 129.764 20.132C129.299 20.5287 129.016 21.0613 128.914 21.73H134.065C133.974 21.0727 133.697 20.54 133.232 20.132C132.767 19.724 132.189 19.52 131.498 19.52ZM141.886 27.119C140.946 27.119 140.101 26.9207 139.353 26.524C138.605 26.1273 138.022 25.5777 137.602 24.875C137.183 24.161 136.973 23.3563 136.973 22.461C136.973 21.5657 137.183 20.7667 137.602 20.064C138.022 19.3613 138.6 18.8117 139.336 18.415C140.084 18.0183 140.934 17.82 141.886 17.82C142.782 17.82 143.564 18.0013 144.232 18.364C144.912 18.7267 145.422 19.248 145.762 19.928L144.13 20.88C143.87 20.4607 143.541 20.149 143.144 19.945C142.759 19.7297 142.334 19.622 141.869 19.622C141.076 19.622 140.419 19.8827 139.897 20.404C139.376 20.914 139.115 21.5997 139.115 22.461C139.115 23.3223 139.37 24.0137 139.88 24.535C140.402 25.045 141.065 25.3 141.869 25.3C142.334 25.3 142.759 25.198 143.144 24.994C143.541 24.7787 143.87 24.4613 144.13 24.042L145.762 24.994C145.411 25.674 144.895 26.201 144.215 26.575C143.547 26.9377 142.77 27.119 141.886 27.119ZM152.764 26.507C152.515 26.711 152.209 26.864 151.846 26.966C151.495 27.068 151.121 27.119 150.724 27.119C149.727 27.119 148.956 26.8583 148.412 26.337C147.868 25.8157 147.596 25.0563 147.596 24.059V19.69H146.1V17.99H147.596V15.916H149.721V17.99H152.152V19.69H149.721V24.008C149.721 24.45 149.829 24.79 150.044 25.028C150.26 25.2547 150.571 25.368 150.979 25.368C151.455 25.368 151.852 25.2433 152.169 24.994L152.764 26.507Z" fill="white"/>
<defs>
<linearGradient id="paint0_linear_103_2663" x1="-10.7895" y1="-9.04916e-07" x2="267.421" y2="37.341" gradientUnits="userSpaceOnUse">
<stop stop-color="#FF4E50"/>
<stop offset="1" stop-color="#F9D423"/>
</linearGradient>
</defs>
</svg>
