<svg width="228" height="42" viewBox="0 0 228 42" fill="none" xmlns="http://www.w3.org/2000/svg">
<rect width="228" height="42" rx="15" fill="url(#paint0_linear_12_286)"/>
<path d="M12.277 12.9H15.221V24.331L23.869 12.9H26.652V29H23.708V17.592L15.06 29H12.277V12.9ZM37.2441 16.58C38.4401 16.58 39.5058 16.8407 40.4411 17.362C41.3918 17.8833 42.1354 18.6193 42.6721 19.57C43.2088 20.5207 43.4771 21.617 43.4771 22.859C43.4771 24.101 43.2088 25.205 42.6721 26.171C42.1354 27.1217 41.3918 27.8577 40.4411 28.379C39.5058 28.9003 38.4401 29.161 37.2441 29.161C35.5881 29.161 34.2771 28.609 33.3111 27.505V33.462H30.4361V16.718H33.1731V18.328C33.6484 17.7453 34.2311 17.3083 34.9211 17.017C35.6264 16.7257 36.4008 16.58 37.2441 16.58ZM36.9221 26.7C37.9801 26.7 38.8464 26.3473 39.5211 25.642C40.2111 24.9367 40.5561 24.009 40.5561 22.859C40.5561 21.709 40.2111 20.7813 39.5211 20.076C38.8464 19.3707 37.9801 19.018 36.9221 19.018C36.2321 19.018 35.6111 19.179 35.0591 19.501C34.5071 19.8077 34.0701 20.2523 33.7481 20.835C33.4261 21.4177 33.2651 22.0923 33.2651 22.859C33.2651 23.6257 33.4261 24.3003 33.7481 24.883C34.0701 25.4657 34.5071 25.918 35.0591 26.24C35.6111 26.5467 36.2321 26.7 36.9221 26.7ZM45.9305 16.718H48.8055V24.814L55.5905 16.718H58.2125V29H55.3375V20.904L48.5755 29H45.9305V16.718ZM61.6719 16.718H64.5469V21.709H70.7339V16.718H73.6089V29H70.7339V24.147H64.5469V29H61.6719V16.718ZM81.6309 16.58C83.4402 16.58 84.8202 17.017 85.7709 17.891C86.7369 18.7497 87.2199 20.053 87.2199 21.801V29H84.5059V27.505C84.1532 28.0417 83.6472 28.4557 82.9879 28.747C82.3439 29.023 81.5619 29.161 80.6419 29.161C79.7219 29.161 78.9169 29.0077 78.2269 28.701C77.5369 28.379 77.0002 27.942 76.6169 27.39C76.2489 26.8227 76.0649 26.1863 76.0649 25.481C76.0649 24.377 76.4712 23.4953 77.2839 22.836C78.1119 22.1613 79.4076 21.824 81.1709 21.824H84.3449V21.64C84.3449 20.7813 84.0842 20.122 83.5629 19.662C83.0569 19.202 82.2979 18.972 81.2859 18.972C80.5959 18.972 79.9136 19.0793 79.2389 19.294C78.5796 19.5087 78.0199 19.8077 77.5599 20.191L76.4329 18.098C77.0769 17.6073 77.8512 17.2317 78.7559 16.971C79.6606 16.7103 80.6189 16.58 81.6309 16.58ZM81.2399 27.068C81.9606 27.068 82.5969 26.907 83.1489 26.585C83.7162 26.2477 84.1149 25.7723 84.3449 25.159V23.733H81.3779C79.7219 23.733 78.8939 24.2773 78.8939 25.366C78.8939 25.8873 79.1009 26.3013 79.5149 26.608C79.9289 26.9147 80.5039 27.068 81.2399 27.068ZM104.046 29.23C102.421 29.23 100.949 28.8773 99.63 28.172C98.3267 27.4513 97.2993 26.4623 96.548 25.205C95.812 23.9477 95.444 22.5293 95.444 20.95C95.444 19.3707 95.8197 17.9523 96.571 16.695C97.3223 15.4377 98.3497 14.4563 99.653 13.751C100.972 13.0303 102.444 12.67 104.069 12.67C105.388 12.67 106.591 12.9 107.68 13.36C108.769 13.82 109.689 14.487 110.44 15.361L108.508 17.178C107.343 15.9207 105.909 15.292 104.207 15.292C103.103 15.292 102.114 15.5373 101.24 16.028C100.366 16.5033 99.6837 17.1703 99.193 18.029C98.7023 18.8877 98.457 19.8613 98.457 20.95C98.457 22.0387 98.7023 23.0123 99.193 23.871C99.6837 24.7297 100.366 25.4043 101.24 25.895C102.114 26.3703 103.103 26.608 104.207 26.608C105.909 26.608 107.343 25.9717 108.508 24.699L110.44 26.539C109.689 27.413 108.761 28.08 107.657 28.54C106.568 29 105.365 29.23 104.046 29.23ZM124.561 29V20.858L120.421 27.712H119.179L115.108 20.835V29H112.486V16.718H115.499L119.869 24.4L124.446 16.718H127.137L127.16 29H124.561ZM130.608 16.718H133.483V24.814L140.268 16.718H142.89V29H140.015V20.904L133.253 29H130.608V16.718ZM153.158 16.58C154.354 16.58 155.42 16.8407 156.355 17.362C157.306 17.8833 158.049 18.6193 158.586 19.57C159.123 20.5207 159.391 21.617 159.391 22.859C159.391 24.101 159.123 25.205 158.586 26.171C158.049 27.1217 157.306 27.8577 156.355 28.379C155.42 28.9003 154.354 29.161 153.158 29.161C151.502 29.161 150.191 28.609 149.225 27.505V33.462H146.35V16.718H149.087V18.328C149.562 17.7453 150.145 17.3083 150.835 17.017C151.54 16.7257 152.315 16.58 153.158 16.58ZM152.836 26.7C153.894 26.7 154.76 26.3473 155.435 25.642C156.125 24.9367 156.47 24.009 156.47 22.859C156.47 21.709 156.125 20.7813 155.435 20.076C154.76 19.3707 153.894 19.018 152.836 19.018C152.146 19.018 151.525 19.179 150.973 19.501C150.421 19.8077 149.984 20.2523 149.662 20.835C149.34 21.4177 149.179 22.0923 149.179 22.859C149.179 23.6257 149.34 24.3003 149.662 24.883C149.984 25.4657 150.421 25.918 150.973 26.24C151.525 26.5467 152.146 26.7 152.836 26.7ZM161.844 16.718H164.719V21.709H170.906V16.718H173.781V29H170.906V24.147H164.719V29H161.844V16.718ZM182.7 29.161C181.458 29.161 180.339 28.8927 179.342 28.356C178.346 27.8193 177.564 27.0757 176.996 26.125C176.444 25.159 176.168 24.0703 176.168 22.859C176.168 21.6477 176.444 20.5667 176.996 19.616C177.564 18.6653 178.346 17.9217 179.342 17.385C180.339 16.8483 181.458 16.58 182.7 16.58C183.958 16.58 185.085 16.8483 186.081 17.385C187.078 17.9217 187.852 18.6653 188.404 19.616C188.972 20.5667 189.255 21.6477 189.255 22.859C189.255 24.0703 188.972 25.159 188.404 26.125C187.852 27.0757 187.078 27.8193 186.081 28.356C185.085 28.8927 183.958 29.161 182.7 29.161ZM182.7 26.7C183.758 26.7 184.632 26.3473 185.322 25.642C186.012 24.9367 186.357 24.009 186.357 22.859C186.357 21.709 186.012 20.7813 185.322 20.076C184.632 19.3707 183.758 19.018 182.7 19.018C181.642 19.018 180.768 19.3707 180.078 20.076C179.404 20.7813 179.066 21.709 179.066 22.859C179.066 24.009 179.404 24.9367 180.078 25.642C180.768 26.3473 181.642 26.7 182.7 26.7ZM200.588 22.606C202.106 23.066 202.865 24.0473 202.865 25.55C202.865 26.654 202.451 27.505 201.623 28.103C200.795 28.701 199.569 29 197.943 29H191.687V16.718H197.69C199.193 16.718 200.366 16.994 201.209 17.546C202.053 18.098 202.474 18.88 202.474 19.892C202.474 20.5207 202.306 21.065 201.968 21.525C201.646 21.985 201.186 22.3453 200.588 22.606ZM194.424 21.847H197.437C198.925 21.847 199.668 21.3333 199.668 20.306C199.668 19.3093 198.925 18.811 197.437 18.811H194.424V21.847ZM197.713 26.907C199.293 26.907 200.082 26.3933 200.082 25.366C200.082 24.8293 199.898 24.4307 199.53 24.17C199.162 23.894 198.587 23.756 197.805 23.756H194.424V26.907H197.713ZM210.097 16.58C211.906 16.58 213.286 17.017 214.237 17.891C215.203 18.7497 215.686 20.053 215.686 21.801V29H212.972V27.505C212.619 28.0417 212.113 28.4557 211.454 28.747C210.81 29.023 210.028 29.161 209.108 29.161C208.188 29.161 207.383 29.0077 206.693 28.701C206.003 28.379 205.466 27.942 205.083 27.39C204.715 26.8227 204.531 26.1863 204.531 25.481C204.531 24.377 204.937 23.4953 205.75 22.836C206.578 22.1613 207.873 21.824 209.637 21.824H212.811V21.64C212.811 20.7813 212.55 20.122 212.029 19.662C211.523 19.202 210.764 18.972 209.752 18.972C209.062 18.972 208.379 19.0793 207.705 19.294C207.045 19.5087 206.486 19.8077 206.026 20.191L204.899 18.098C205.543 17.6073 206.317 17.2317 207.222 16.971C208.126 16.7103 209.085 16.58 210.097 16.58ZM209.706 27.068C210.426 27.068 211.063 26.907 211.615 26.585C212.182 26.2477 212.581 25.7723 212.811 25.159V23.733H209.844C208.188 23.733 207.36 24.2773 207.36 25.366C207.36 25.8873 207.567 26.3013 207.981 26.608C208.395 26.9147 208.97 27.068 209.706 27.068Z" fill="white"/>
<defs>
<linearGradient id="paint0_linear_12_286" x1="-15" y1="-9.04916e-07" x2="365.5" y2="71" gradientUnits="userSpaceOnUse">
<stop stop-color="#FF4E50"/>
<stop offset="1" stop-color="#F9D423"/>
</linearGradient>
</defs>
</svg>
