<svg width="330" height="86" viewBox="0 0 330 86" fill="none" xmlns="http://www.w3.org/2000/svg">
<g filter="url(#filter0_b_12_297)">
<rect width="330" height="86" rx="15" fill="white" fill-opacity="0.3"/>
<path d="M11.683 15.1H20.948V16.919H13.859V19.843H17.378C18.806 19.843 19.8883 20.1433 20.625 20.744C21.373 21.3333 21.747 22.189 21.747 23.311C21.747 24.4897 21.339 25.402 20.523 26.048C19.707 26.6827 18.5453 27 17.038 27H11.683V15.1ZM16.919 25.3C17.769 25.3 18.415 25.1357 18.857 24.807C19.299 24.4783 19.52 24.0023 19.52 23.379C19.52 22.155 18.653 21.543 16.919 21.543H13.859V25.3H16.919ZM31.5332 17.922V27H29.4082V19.724H26.0082L25.9232 21.526C25.8665 22.7273 25.7532 23.736 25.5832 24.552C25.4245 25.3567 25.1468 25.997 24.7502 26.473C24.3648 26.9377 23.8322 27.17 23.1522 27.17C22.8348 27.17 22.4438 27.1077 21.9792 26.983L22.0812 25.198C22.2398 25.232 22.3758 25.249 22.4892 25.249C22.9198 25.249 23.2428 25.079 23.4582 24.739C23.6735 24.3877 23.8095 23.974 23.8662 23.498C23.9342 23.0107 23.9908 22.3193 24.0362 21.424L24.1892 17.922H31.5332ZM38.033 27.119C37.115 27.119 36.2877 26.9207 35.551 26.524C34.8143 26.1273 34.2363 25.5777 33.817 24.875C33.409 24.161 33.205 23.3563 33.205 22.461C33.205 21.5657 33.409 20.7667 33.817 20.064C34.2363 19.3613 34.8143 18.8117 35.551 18.415C36.2877 18.0183 37.115 17.82 38.033 17.82C38.9623 17.82 39.7953 18.0183 40.532 18.415C41.2687 18.8117 41.841 19.3613 42.249 20.064C42.6683 20.7667 42.878 21.5657 42.878 22.461C42.878 23.3563 42.6683 24.161 42.249 24.875C41.841 25.5777 41.2687 26.1273 40.532 26.524C39.7953 26.9207 38.9623 27.119 38.033 27.119ZM38.033 25.3C38.815 25.3 39.461 25.0393 39.971 24.518C40.481 23.9967 40.736 23.311 40.736 22.461C40.736 21.611 40.481 20.9253 39.971 20.404C39.461 19.8827 38.815 19.622 38.033 19.622C37.251 19.622 36.605 19.8827 36.095 20.404C35.5963 20.9253 35.347 21.611 35.347 22.461C35.347 23.311 35.5963 23.9967 36.095 24.518C36.605 25.0393 37.251 25.3 38.033 25.3ZM48.3432 23.362H46.6942V27H44.5692V17.922H46.6942V21.594H48.3942L51.0802 17.922H53.3582L50.0602 22.291L53.5792 27H51.0802L48.3432 23.362ZM58.2463 22.461L60.6603 19.163H62.5813L60.2183 22.461L62.5813 25.742H60.6603L58.2463 22.461ZM61.7823 22.461L64.1963 19.163H66.1173L63.7543 22.461L66.1173 25.742H64.1963L61.7823 22.461ZM79.6859 25.13V29.533H77.6459V27H68.5169V29.533H66.4599L66.4769 25.13H66.9869C67.7349 25.096 68.2563 24.5463 68.5509 23.481C68.8569 22.4043 69.0439 20.8687 69.1119 18.874L69.2479 15.1H77.9689V25.13H79.6859ZM71.0499 19.078C70.9933 20.6193 70.8686 21.9057 70.6759 22.937C70.4833 23.957 70.1773 24.688 69.7579 25.13H75.7929V16.97H71.1349L71.0499 19.078ZM85.0008 27.119C84.0828 27.119 83.2555 26.9207 82.5188 26.524C81.7821 26.1273 81.2041 25.5777 80.7848 24.875C80.3768 24.161 80.1728 23.3563 80.1728 22.461C80.1728 21.5657 80.3768 20.7667 80.7848 20.064C81.2041 19.3613 81.7821 18.8117 82.5188 18.415C83.2555 18.0183 84.0828 17.82 85.0008 17.82C85.9301 17.82 86.7631 18.0183 87.4998 18.415C88.2365 18.8117 88.8088 19.3613 89.2168 20.064C89.6361 20.7667 89.8458 21.5657 89.8458 22.461C89.8458 23.3563 89.6361 24.161 89.2168 24.875C88.8088 25.5777 88.2365 26.1273 87.4998 26.524C86.7631 26.9207 85.9301 27.119 85.0008 27.119ZM85.0008 25.3C85.7828 25.3 86.4288 25.0393 86.9388 24.518C87.4488 23.9967 87.7038 23.311 87.7038 22.461C87.7038 21.611 87.4488 20.9253 86.9388 20.404C86.4288 19.8827 85.7828 19.622 85.0008 19.622C84.2188 19.622 83.5728 19.8827 83.0628 20.404C82.5641 20.9253 82.3148 21.611 82.3148 22.461C82.3148 23.311 82.5641 23.9967 83.0628 24.518C83.5728 25.0393 84.2188 25.3 85.0008 25.3ZM95.668 27.119C94.7274 27.119 93.883 26.9207 93.135 26.524C92.387 26.1273 91.8034 25.5777 91.384 24.875C90.9647 24.161 90.755 23.3563 90.755 22.461C90.755 21.5657 90.9647 20.7667 91.384 20.064C91.8034 19.3613 92.3814 18.8117 93.118 18.415C93.866 18.0183 94.716 17.82 95.668 17.82C96.5634 17.82 97.3454 18.0013 98.014 18.364C98.694 18.7267 99.204 19.248 99.544 19.928L97.912 20.88C97.6514 20.4607 97.3227 20.149 96.926 19.945C96.5407 19.7297 96.1157 19.622 95.651 19.622C94.8577 19.622 94.2004 19.8827 93.679 20.404C93.1577 20.914 92.897 21.5997 92.897 22.461C92.897 23.3223 93.152 24.0137 93.662 24.535C94.1834 25.045 94.8464 25.3 95.651 25.3C96.1157 25.3 96.5407 25.198 96.926 24.994C97.3227 24.7787 97.6514 24.4613 97.912 24.042L99.544 24.994C99.1927 25.674 98.677 26.201 97.997 26.575C97.3284 26.9377 96.552 27.119 95.668 27.119ZM108.115 19.724H104.936V27H102.811V19.724H99.615V17.922H108.115V19.724ZM109.248 17.922H111.373V23.906L116.388 17.922H118.326V27H116.201V21.016L111.203 27H109.248V17.922ZM129.396 23.362H127.866V27H125.758V23.362H124.228L122.018 27H119.502L122.477 22.308L119.723 17.922H121.984L124.194 21.594H125.758V17.922H127.866V21.594H129.413L131.64 17.922H133.901L131.147 22.308L134.139 27H131.606L129.396 23.362ZM143.511 22.512C143.511 22.6593 143.5 22.869 143.477 23.141H136.354C136.479 23.8097 136.802 24.3423 137.323 24.739C137.856 25.1243 138.513 25.317 139.295 25.317C140.293 25.317 141.114 24.9883 141.76 24.331L142.899 25.64C142.491 26.1273 141.976 26.4957 141.352 26.745C140.729 26.9943 140.026 27.119 139.244 27.119C138.247 27.119 137.369 26.9207 136.609 26.524C135.85 26.1273 135.261 25.5777 134.841 24.875C134.433 24.161 134.229 23.3563 134.229 22.461C134.229 21.577 134.428 20.7837 134.824 20.081C135.232 19.367 135.793 18.8117 136.507 18.415C137.221 18.0183 138.026 17.82 138.921 17.82C139.805 17.82 140.593 18.0183 141.284 18.415C141.987 18.8003 142.531 19.35 142.916 20.064C143.313 20.7667 143.511 21.5827 143.511 22.512ZM138.921 19.52C138.241 19.52 137.663 19.724 137.187 20.132C136.723 20.5287 136.439 21.0613 136.337 21.73H141.488C141.398 21.0727 141.12 20.54 140.655 20.132C140.191 19.724 139.613 19.52 138.921 19.52ZM145.428 17.922H147.553V21.611H152.126V17.922H154.251V27H152.126V23.413H147.553V27H145.428V17.922ZM156.691 17.922H158.816V23.906L163.831 17.922H165.769V27H163.644V21.016L158.646 27H156.691V17.922ZM175.886 17.922V27H173.982V24.263H171.585L169.732 27H167.454L169.596 23.974C168.939 23.7473 168.434 23.4017 168.083 22.937C167.743 22.461 167.573 21.8773 167.573 21.186C167.573 20.1433 167.941 19.3387 168.678 18.772C169.415 18.2053 170.429 17.922 171.721 17.922H175.886ZM171.789 19.707C170.418 19.707 169.732 20.2227 169.732 21.254C169.732 22.274 170.395 22.784 171.721 22.784H173.982V19.707H171.789ZM177.419 25.742L179.782 22.461L177.419 19.163H179.34L181.754 22.461L179.34 25.742H177.419ZM180.955 25.742L183.318 22.461L180.955 19.163H182.876L185.29 22.461L182.876 25.742H180.955ZM187.672 20.642C187.287 20.642 186.958 20.5117 186.686 20.251C186.414 19.979 186.278 19.639 186.278 19.231C186.278 18.8117 186.409 18.4717 186.669 18.211C186.941 17.9503 187.276 17.82 187.672 17.82C188.069 17.82 188.398 17.9503 188.658 18.211C188.93 18.4717 189.066 18.8117 189.066 19.231C189.066 19.639 188.93 19.979 188.658 20.251C188.386 20.5117 188.058 20.642 187.672 20.642ZM187.672 27.119C187.287 27.119 186.958 26.9887 186.686 26.728C186.414 26.456 186.278 26.116 186.278 25.708C186.278 25.2887 186.409 24.9487 186.669 24.688C186.941 24.4273 187.276 24.297 187.672 24.297C188.069 24.297 188.398 24.4273 188.658 24.688C188.93 24.9487 189.066 25.2887 189.066 25.708C189.066 26.116 188.93 26.456 188.658 26.728C188.386 26.9887 188.058 27.119 187.672 27.119ZM21.883 37.1L16.715 46.705C16.2617 47.555 15.7177 48.1953 15.083 48.626C14.4597 49.0453 13.7797 49.255 13.043 49.255C12.4537 49.255 11.87 49.1303 11.292 48.881L11.836 47.147C12.3007 47.2943 12.686 47.368 12.992 47.368C13.706 47.368 14.2953 46.9997 14.76 46.263L14.947 45.974L10.204 37.1H12.567L16.086 44.087L19.707 37.1H21.883ZM30.1761 39.922V49H28.0511V45.481C27.1784 45.9003 26.2661 46.11 25.3141 46.11C24.1467 46.11 23.2514 45.8437 22.6281 45.311C22.0047 44.767 21.6931 43.9397 21.6931 42.829V39.922H23.8181V42.693C23.8181 43.271 23.9881 43.7017 24.3281 43.985C24.6681 44.2683 25.1497 44.41 25.7731 44.41C26.5664 44.41 27.3257 44.24 28.0511 43.9V39.922H30.1761ZM36.0087 39.82C37.346 39.82 38.366 40.143 39.0687 40.789C39.7827 41.4237 40.1397 42.387 40.1397 43.679V49H38.1337V47.895C37.873 48.2917 37.499 48.5977 37.0117 48.813C36.5357 49.017 35.9577 49.119 35.2777 49.119C34.5977 49.119 34.0027 49.0057 33.4927 48.779C32.9827 48.541 32.586 48.218 32.3027 47.81C32.0307 47.3907 31.8947 46.9203 31.8947 46.399C31.8947 45.583 32.195 44.9313 32.7957 44.444C33.4077 43.9453 34.3653 43.696 35.6687 43.696H38.0147V43.56C38.0147 42.9253 37.822 42.438 37.4367 42.098C37.0627 41.758 36.5017 41.588 35.7537 41.588C35.2437 41.588 34.7393 41.6673 34.2407 41.826C33.7533 41.9847 33.3397 42.2057 32.9997 42.489L32.1667 40.942C32.6427 40.5793 33.215 40.3017 33.8837 40.109C34.5523 39.9163 35.2607 39.82 36.0087 39.82ZM35.7197 47.572C36.2523 47.572 36.7227 47.453 37.1307 47.215C37.55 46.9657 37.8447 46.6143 38.0147 46.161V45.107H35.8217C34.5977 45.107 33.9857 45.5093 33.9857 46.314C33.9857 46.6993 34.1387 47.0053 34.4447 47.232C34.7507 47.4587 35.1757 47.572 35.7197 47.572ZM46.4922 49.119C45.5516 49.119 44.7072 48.9207 43.9592 48.524C43.2112 48.1273 42.6276 47.5777 42.2082 46.875C41.7889 46.161 41.5792 45.3563 41.5792 44.461C41.5792 43.5657 41.7889 42.7667 42.2082 42.064C42.6276 41.3613 43.2056 40.8117 43.9422 40.415C44.6902 40.0183 45.5402 39.82 46.4922 39.82C47.3876 39.82 48.1696 40.0013 48.8382 40.364C49.5182 40.7267 50.0282 41.248 50.3682 41.928L48.7362 42.88C48.4756 42.4607 48.1469 42.149 47.7502 41.945C47.3649 41.7297 46.9399 41.622 46.4752 41.622C45.6819 41.622 45.0246 41.8827 44.5032 42.404C43.9819 42.914 43.7212 43.5997 43.7212 44.461C43.7212 45.3223 43.9762 46.0137 44.4862 46.535C45.0076 47.045 45.6706 47.3 46.4752 47.3C46.9399 47.3 47.3649 47.198 47.7502 46.994C48.1469 46.7787 48.4756 46.4613 48.7362 46.042L50.3682 46.994C50.0169 47.674 49.5012 48.201 48.8212 48.575C48.1526 48.9377 47.3762 49.119 46.4922 49.119ZM58.9391 41.724H55.7601V49H53.6351V41.724H50.4391V39.922H58.9391V41.724ZM60.0726 39.922H62.1976V45.906L67.2126 39.922H69.1506V49H67.0256V43.016L62.0276 49H60.0726V39.922ZM80.1011 44.512C80.1011 44.6593 80.0898 44.869 80.0671 45.141H72.9441C73.0688 45.8097 73.3918 46.3423 73.9131 46.739C74.4458 47.1243 75.1031 47.317 75.8851 47.317C76.8824 47.317 77.7041 46.9883 78.3501 46.331L79.4891 47.64C79.0811 48.1273 78.5654 48.4957 77.9421 48.745C77.3188 48.9943 76.6161 49.119 75.8341 49.119C74.8368 49.119 73.9584 48.9207 73.1991 48.524C72.4398 48.1273 71.8504 47.5777 71.4311 46.875C71.0231 46.161 70.8191 45.3563 70.8191 44.461C70.8191 43.577 71.0174 42.7837 71.4141 42.081C71.8221 41.367 72.3831 40.8117 73.0971 40.415C73.8111 40.0183 74.6158 39.82 75.5111 39.82C76.3951 39.82 77.1828 40.0183 77.8741 40.415C78.5768 40.8003 79.1208 41.35 79.5061 42.064C79.9028 42.7667 80.1011 43.5827 80.1011 44.512ZM75.5111 41.52C74.8311 41.52 74.2531 41.724 73.7771 42.132C73.3124 42.5287 73.0291 43.0613 72.9271 43.73H78.0781C77.9874 43.0727 77.7098 42.54 77.2451 42.132C76.7804 41.724 76.2024 41.52 75.5111 41.52ZM92.8866 44.274C94.0086 44.614 94.5696 45.3393 94.5696 46.45C94.5696 47.266 94.2636 47.895 93.6516 48.337C93.0396 48.779 92.1329 49 90.9316 49H86.3076V39.922H90.7446C91.8552 39.922 92.7222 40.126 93.3456 40.534C93.9689 40.942 94.2806 41.52 94.2806 42.268C94.2806 42.7327 94.1559 43.135 93.9066 43.475C93.6686 43.815 93.3286 44.0813 92.8866 44.274ZM88.3306 43.713H90.5576C91.6569 43.713 92.2066 43.3333 92.2066 42.574C92.2066 41.8373 91.6569 41.469 90.5576 41.469H88.3306V43.713ZM90.7616 47.453C91.9289 47.453 92.5126 47.0733 92.5126 46.314C92.5126 45.9173 92.3766 45.6227 92.1046 45.43C91.8326 45.226 91.4076 45.124 90.8296 45.124H88.3306V47.453H90.7616ZM109.64 49V42.982L106.58 48.048H105.662L102.653 42.965V49H100.715V39.922H102.942L106.172 45.6L109.555 39.922H111.544L111.561 49H109.64ZM122.503 44.512C122.503 44.6593 122.492 44.869 122.469 45.141H115.346C115.471 45.8097 115.794 46.3423 116.315 46.739C116.848 47.1243 117.505 47.317 118.287 47.317C119.285 47.317 120.106 46.9883 120.752 46.331L121.891 47.64C121.483 48.1273 120.968 48.4957 120.344 48.745C119.721 48.9943 119.018 49.119 118.236 49.119C117.239 49.119 116.361 48.9207 115.601 48.524C114.842 48.1273 114.253 47.5777 113.833 46.875C113.425 46.161 113.221 45.3563 113.221 44.461C113.221 43.577 113.42 42.7837 113.816 42.081C114.224 41.367 114.785 40.8117 115.499 40.415C116.213 40.0183 117.018 39.82 117.913 39.82C118.797 39.82 119.585 40.0183 120.276 40.415C120.979 40.8003 121.523 41.35 121.908 42.064C122.305 42.7667 122.503 43.5827 122.503 44.512ZM117.913 41.52C117.233 41.52 116.655 41.724 116.179 42.132C115.715 42.5287 115.431 43.0613 115.329 43.73H120.48C120.39 43.0727 120.112 42.54 119.647 42.132C119.183 41.724 118.605 41.52 117.913 41.52ZM129.452 39.82C130.336 39.82 131.123 40.0127 131.815 40.398C132.517 40.7833 133.067 41.3273 133.464 42.03C133.86 42.7327 134.059 43.543 134.059 44.461C134.059 45.379 133.86 46.195 133.464 46.909C133.067 47.6117 132.517 48.1557 131.815 48.541C131.123 48.9263 130.336 49.119 129.452 49.119C128.228 49.119 127.259 48.711 126.545 47.895V52.298H124.42V39.922H126.443V41.112C126.794 40.6813 127.225 40.3583 127.735 40.143C128.256 39.9277 128.828 39.82 129.452 39.82ZM129.214 47.3C129.996 47.3 130.636 47.0393 131.135 46.518C131.645 45.9967 131.9 45.311 131.9 44.461C131.9 43.611 131.645 42.9253 131.135 42.404C130.636 41.8827 129.996 41.622 129.214 41.622C128.704 41.622 128.245 41.741 127.837 41.979C127.429 42.2057 127.106 42.5343 126.868 42.965C126.63 43.3957 126.511 43.8943 126.511 44.461C126.511 45.0277 126.63 45.5263 126.868 45.957C127.106 46.3877 127.429 46.722 127.837 46.96C128.245 47.1867 128.704 47.3 129.214 47.3ZM139.812 49.119C138.894 49.119 138.066 48.9207 137.33 48.524C136.593 48.1273 136.015 47.5777 135.596 46.875C135.188 46.161 134.984 45.3563 134.984 44.461C134.984 43.5657 135.188 42.7667 135.596 42.064C136.015 41.3613 136.593 40.8117 137.33 40.415C138.066 40.0183 138.894 39.82 139.812 39.82C140.741 39.82 141.574 40.0183 142.311 40.415C143.047 40.8117 143.62 41.3613 144.028 42.064C144.447 42.7667 144.657 43.5657 144.657 44.461C144.657 45.3563 144.447 46.161 144.028 46.875C143.62 47.5777 143.047 48.1273 142.311 48.524C141.574 48.9207 140.741 49.119 139.812 49.119ZM139.812 47.3C140.594 47.3 141.24 47.0393 141.75 46.518C142.26 45.9967 142.515 45.311 142.515 44.461C142.515 43.611 142.26 42.9253 141.75 42.404C141.24 41.8827 140.594 41.622 139.812 41.622C139.03 41.622 138.384 41.8827 137.874 42.404C137.375 42.9253 137.126 43.611 137.126 44.461C137.126 45.311 137.375 45.9967 137.874 46.518C138.384 47.0393 139.03 47.3 139.812 47.3ZM155.052 39.922V49H152.944V41.724H148.473V49H146.348V39.922H155.052ZM162.543 39.82C163.427 39.82 164.215 40.0127 164.906 40.398C165.609 40.7833 166.158 41.3273 166.555 42.03C166.952 42.7327 167.15 43.543 167.15 44.461C167.15 45.379 166.952 46.195 166.555 46.909C166.158 47.6117 165.609 48.1557 164.906 48.541C164.215 48.9263 163.427 49.119 162.543 49.119C161.319 49.119 160.35 48.711 159.636 47.895V52.298H157.511V39.922H159.534V41.112C159.885 40.6813 160.316 40.3583 160.826 40.143C161.347 39.9277 161.92 39.82 162.543 39.82ZM162.305 47.3C163.087 47.3 163.727 47.0393 164.226 46.518C164.736 45.9967 164.991 45.311 164.991 44.461C164.991 43.611 164.736 42.9253 164.226 42.404C163.727 41.8827 163.087 41.622 162.305 41.622C161.795 41.622 161.336 41.741 160.928 41.979C160.52 42.2057 160.197 42.5343 159.959 42.965C159.721 43.3957 159.602 43.8943 159.602 44.461C159.602 45.0277 159.721 45.5263 159.959 45.957C160.197 46.3877 160.52 46.722 160.928 46.96C161.336 47.1867 161.795 47.3 162.305 47.3ZM168.857 39.922H170.982V45.906L175.997 39.922H177.935V49H175.81V43.016L170.812 49H168.857V39.922ZM188.053 39.922V49H186.149V46.263H183.752L181.899 49H179.621L181.763 45.974C181.105 45.7473 180.601 45.4017 180.25 44.937C179.91 44.461 179.74 43.8773 179.74 43.186C179.74 42.1433 180.108 41.3387 180.845 40.772C181.581 40.2053 182.596 39.922 183.888 39.922H188.053ZM183.956 41.707C182.584 41.707 181.899 42.2227 181.899 43.254C181.899 44.274 182.562 44.784 183.888 44.784H186.149V41.707H183.956ZM197.694 41.724H194.515V49H192.39V41.724H189.194V39.922H197.694V41.724ZM198.827 39.922H200.952V45.906L205.967 39.922H207.905V49H205.78V43.016L200.782 49H198.827V39.922ZM218.023 39.922V49H216.119V46.263H213.722L211.869 49H209.591L211.733 45.974C211.076 45.7473 210.571 45.4017 210.22 44.937C209.88 44.461 209.71 43.8773 209.71 43.186C209.71 42.1433 210.078 41.3387 210.815 40.772C211.552 40.2053 212.566 39.922 213.858 39.922H218.023ZM213.926 41.707C212.555 41.707 211.869 42.2227 211.869 43.254C211.869 44.274 212.532 44.784 213.858 44.784H216.119V41.707H213.926ZM226.151 49L223.822 45.855L221.476 49H219.13L222.666 44.393L219.283 39.922H221.646L223.873 42.897L226.1 39.922H228.395L224.995 44.359L228.548 49H226.151ZM22.206 59.1V71H20.03V60.97H13.859V71H11.683V59.1H22.206ZM28.9615 71.119C28.0435 71.119 27.2162 70.9207 26.4795 70.524C25.7428 70.1273 25.1648 69.5777 24.7455 68.875C24.3375 68.161 24.1335 67.3563 24.1335 66.461C24.1335 65.5657 24.3375 64.7667 24.7455 64.064C25.1648 63.3613 25.7428 62.8117 26.4795 62.415C27.2162 62.0183 28.0435 61.82 28.9615 61.82C29.8908 61.82 30.7238 62.0183 31.4605 62.415C32.1972 62.8117 32.7695 63.3613 33.1775 64.064C33.5968 64.7667 33.8065 65.5657 33.8065 66.461C33.8065 67.3563 33.5968 68.161 33.1775 68.875C32.7695 69.5777 32.1972 70.1273 31.4605 70.524C30.7238 70.9207 29.8908 71.119 28.9615 71.119ZM28.9615 69.3C29.7435 69.3 30.3895 69.0393 30.8995 68.518C31.4095 67.9967 31.6645 67.311 31.6645 66.461C31.6645 65.611 31.4095 64.9253 30.8995 64.404C30.3895 63.8827 29.7435 63.622 28.9615 63.622C28.1795 63.622 27.5335 63.8827 27.0235 64.404C26.5248 64.9253 26.2755 65.611 26.2755 66.461C26.2755 67.311 26.5248 67.9967 27.0235 68.518C27.5335 69.0393 28.1795 69.3 28.9615 69.3ZM40.4107 62.364C41.2721 62.364 42.0314 62.551 42.6887 62.925C43.3461 63.2877 43.8561 63.7977 44.2187 64.455C44.5927 65.1123 44.7797 65.866 44.7797 66.716C44.7797 67.5887 44.5757 68.365 44.1677 69.045C43.7597 69.7137 43.1874 70.235 42.4507 70.609C41.7141 70.983 40.8754 71.17 39.9347 71.17C38.3594 71.17 37.1411 70.6487 36.2797 69.606C35.4184 68.5633 34.9877 67.0617 34.9877 65.101C34.9877 63.2763 35.3787 61.8313 36.1607 60.766C36.9427 59.7007 38.1384 58.998 39.7477 58.658L43.9637 57.757L44.2697 59.661L40.4447 60.443C39.3454 60.6697 38.5237 61.055 37.9797 61.599C37.4357 62.143 37.1184 62.908 37.0277 63.894C37.4357 63.4067 37.9287 63.0327 38.5067 62.772C39.0847 62.5 39.7194 62.364 40.4107 62.364ZM39.9857 69.453C40.7677 69.453 41.3967 69.2037 41.8727 68.705C42.3601 68.195 42.6037 67.549 42.6037 66.767C42.6037 65.985 42.3601 65.356 41.8727 64.88C41.3967 64.404 40.7677 64.166 39.9857 64.166C39.1924 64.166 38.5521 64.404 38.0647 64.88C37.5774 65.356 37.3337 65.985 37.3337 66.767C37.3337 67.5603 37.5774 68.2063 38.0647 68.705C38.5634 69.2037 39.2037 69.453 39.9857 69.453ZM54.9286 66.512C54.9286 66.6593 54.9173 66.869 54.8946 67.141H47.7716C47.8963 67.8097 48.2193 68.3423 48.7406 68.739C49.2733 69.1243 49.9306 69.317 50.7126 69.317C51.7099 69.317 52.5316 68.9883 53.1776 68.331L54.3166 69.64C53.9086 70.1273 53.3929 70.4957 52.7696 70.745C52.1463 70.9943 51.4436 71.119 50.6616 71.119C49.6643 71.119 48.7859 70.9207 48.0266 70.524C47.2673 70.1273 46.6779 69.5777 46.2586 68.875C45.8506 68.161 45.6466 67.3563 45.6466 66.461C45.6466 65.577 45.8449 64.7837 46.2416 64.081C46.6496 63.367 47.2106 62.8117 47.9246 62.415C48.6386 62.0183 49.4433 61.82 50.3386 61.82C51.2226 61.82 52.0103 62.0183 52.7016 62.415C53.4043 62.8003 53.9483 63.35 54.3336 64.064C54.7303 64.7667 54.9286 65.5827 54.9286 66.512ZM50.3386 63.52C49.6586 63.52 49.0806 63.724 48.6046 64.132C48.1399 64.5287 47.8566 65.0613 47.7546 65.73H52.9056C52.8149 65.0727 52.5373 64.54 52.0726 64.132C51.6079 63.724 51.0299 63.52 50.3386 63.52ZM66.4186 69.198V73.023H64.4296V71H57.4256V73.023H55.4536V69.198H55.8786C56.4566 69.1753 56.8476 68.807 57.0516 68.093C57.267 67.3677 57.4086 66.3477 57.4766 65.033L57.5956 61.922H65.0756V69.198H66.4186ZM59.4146 65.186C59.3693 66.2287 59.2843 67.0787 59.1596 67.736C59.035 68.3933 58.8083 68.8807 58.4796 69.198H62.9506V63.724H59.4656L59.4146 65.186ZM72.3285 64.914C73.4845 64.914 74.3685 65.1747 74.9805 65.696C75.5925 66.2173 75.8985 66.954 75.8985 67.906C75.8985 68.9033 75.5585 69.674 74.8785 70.218C74.2098 70.762 73.2578 71.0283 72.0225 71.017L67.9085 71V61.922H70.0335V64.897L72.3285 64.914ZM77.0715 61.922H79.1965V71H77.0715V61.922ZM71.8355 69.453C72.4588 69.4643 72.9348 69.334 73.2635 69.062C73.5922 68.79 73.7565 68.3933 73.7565 67.872C73.7565 67.362 73.5978 66.988 73.2805 66.75C72.9632 66.512 72.4815 66.3873 71.8355 66.376L70.0335 66.359V69.436L71.8355 69.453ZM92.5143 66.274C93.6363 66.614 94.1973 67.3393 94.1973 68.45C94.1973 69.266 93.8913 69.895 93.2793 70.337C92.6673 70.779 91.7606 71 90.5593 71H85.9353V61.922H90.3723C91.4829 61.922 92.3499 62.126 92.9733 62.534C93.5966 62.942 93.9083 63.52 93.9083 64.268C93.9083 64.7327 93.7836 65.135 93.5343 65.475C93.2963 65.815 92.9563 66.0813 92.5143 66.274ZM87.9583 65.713H90.1853C91.2846 65.713 91.8343 65.3333 91.8343 64.574C91.8343 63.8373 91.2846 63.469 90.1853 63.469H87.9583V65.713ZM90.3893 69.453C91.5566 69.453 92.1403 69.0733 92.1403 68.314C92.1403 67.9173 92.0043 67.6227 91.7323 67.43C91.4603 67.226 91.0353 67.124 90.4573 67.124H87.9583V69.453H90.3893ZM109.268 71V64.982L106.208 70.048H105.29L102.281 64.965V71H100.343V61.922H102.57L105.8 67.6L109.183 61.922H111.172L111.189 71H109.268ZM122.131 66.512C122.131 66.6593 122.12 66.869 122.097 67.141H114.974C115.099 67.8097 115.422 68.3423 115.943 68.739C116.476 69.1243 117.133 69.317 117.915 69.317C118.913 69.317 119.734 68.9883 120.38 68.331L121.519 69.64C121.111 70.1273 120.596 70.4957 119.972 70.745C119.349 70.9943 118.646 71.119 117.864 71.119C116.867 71.119 115.989 70.9207 115.229 70.524C114.47 70.1273 113.881 69.5777 113.461 68.875C113.053 68.161 112.849 67.3563 112.849 66.461C112.849 65.577 113.048 64.7837 113.444 64.081C113.852 63.367 114.413 62.8117 115.127 62.415C115.841 62.0183 116.646 61.82 117.541 61.82C118.425 61.82 119.213 62.0183 119.904 62.415C120.607 62.8003 121.151 63.35 121.536 64.064C121.933 64.7667 122.131 65.5827 122.131 66.512ZM117.541 63.52C116.861 63.52 116.283 63.724 115.807 64.132C115.343 64.5287 115.059 65.0613 114.957 65.73H120.108C120.018 65.0727 119.74 64.54 119.275 64.132C118.811 63.724 118.233 63.52 117.541 63.52ZM129.079 61.82C129.963 61.82 130.751 62.0127 131.442 62.398C132.145 62.7833 132.695 63.3273 133.091 64.03C133.488 64.7327 133.686 65.543 133.686 66.461C133.686 67.379 133.488 68.195 133.091 68.909C132.695 69.6117 132.145 70.1557 131.442 70.541C130.751 70.9263 129.963 71.119 129.079 71.119C127.855 71.119 126.886 70.711 126.172 69.895V74.298H124.047V61.922H126.07V63.112C126.422 62.6813 126.852 62.3583 127.362 62.143C127.884 61.9277 128.456 61.82 129.079 61.82ZM128.841 69.3C129.623 69.3 130.264 69.0393 130.762 68.518C131.272 67.9967 131.527 67.311 131.527 66.461C131.527 65.611 131.272 64.9253 130.762 64.404C130.264 63.8827 129.623 63.622 128.841 63.622C128.331 63.622 127.872 63.741 127.464 63.979C127.056 64.2057 126.733 64.5343 126.495 64.965C126.257 65.3957 126.138 65.8943 126.138 66.461C126.138 67.0277 126.257 67.5263 126.495 67.957C126.733 68.3877 127.056 68.722 127.464 68.96C127.872 69.1867 128.331 69.3 128.841 69.3ZM139.439 71.119C138.521 71.119 137.694 70.9207 136.957 70.524C136.221 70.1273 135.643 69.5777 135.223 68.875C134.815 68.161 134.611 67.3563 134.611 66.461C134.611 65.5657 134.815 64.7667 135.223 64.064C135.643 63.3613 136.221 62.8117 136.957 62.415C137.694 62.0183 138.521 61.82 139.439 61.82C140.369 61.82 141.202 62.0183 141.938 62.415C142.675 62.8117 143.247 63.3613 143.655 64.064C144.075 64.7667 144.284 65.5657 144.284 66.461C144.284 67.3563 144.075 68.161 143.655 68.875C143.247 69.5777 142.675 70.1273 141.938 70.524C141.202 70.9207 140.369 71.119 139.439 71.119ZM139.439 69.3C140.221 69.3 140.867 69.0393 141.377 68.518C141.887 67.9967 142.142 67.311 142.142 66.461C142.142 65.611 141.887 64.9253 141.377 64.404C140.867 63.8827 140.221 63.622 139.439 63.622C138.657 63.622 138.011 63.8827 137.501 64.404C137.003 64.9253 136.753 65.611 136.753 66.461C136.753 67.311 137.003 67.9967 137.501 68.518C138.011 69.0393 138.657 69.3 139.439 69.3ZM154.68 61.922V71H152.572V63.724H148.101V71H145.976V61.922H154.68ZM162.171 61.82C163.055 61.82 163.843 62.0127 164.534 62.398C165.237 62.7833 165.786 63.3273 166.183 64.03C166.58 64.7327 166.778 65.543 166.778 66.461C166.778 67.379 166.58 68.195 166.183 68.909C165.786 69.6117 165.237 70.1557 164.534 70.541C163.843 70.9263 163.055 71.119 162.171 71.119C160.947 71.119 159.978 70.711 159.264 69.895V74.298H157.139V61.922H159.162V63.112C159.513 62.6813 159.944 62.3583 160.454 62.143C160.975 61.9277 161.548 61.82 162.171 61.82ZM161.933 69.3C162.715 69.3 163.355 69.0393 163.854 68.518C164.364 67.9967 164.619 67.311 164.619 66.461C164.619 65.611 164.364 64.9253 163.854 64.404C163.355 63.8827 162.715 63.622 161.933 63.622C161.423 63.622 160.964 63.741 160.556 63.979C160.148 64.2057 159.825 64.5343 159.587 64.965C159.349 65.3957 159.23 65.8943 159.23 66.461C159.23 67.0277 159.349 67.5263 159.587 67.957C159.825 68.3877 160.148 68.722 160.556 68.96C160.964 69.1867 161.423 69.3 161.933 69.3ZM168.485 61.922H170.61V67.906L175.625 61.922H177.563V71H175.438V65.016L170.44 71H168.485V61.922ZM187.68 61.922V71H185.776V68.263H183.379L181.526 71H179.248L181.39 67.974C180.733 67.7473 180.229 67.4017 179.877 66.937C179.537 66.461 179.367 65.8773 179.367 65.186C179.367 64.1433 179.736 63.3387 180.472 62.772C181.209 62.2053 182.223 61.922 183.515 61.922H187.68ZM183.583 63.707C182.212 63.707 181.526 64.2227 181.526 65.254C181.526 66.274 182.189 66.784 183.515 66.784H185.776V63.707H183.583ZM197.322 63.724H194.143V71H192.018V63.724H188.822V61.922H197.322V63.724ZM198.455 61.922H200.58V67.906L205.595 61.922H207.533V71H205.408V65.016L200.41 71H198.455V61.922ZM217.651 61.922V71H215.747V68.263H213.35L211.497 71H209.219L211.361 67.974C210.703 67.7473 210.199 67.4017 209.848 66.937C209.508 66.461 209.338 65.8773 209.338 65.186C209.338 64.1433 209.706 63.3387 210.443 62.772C211.179 62.2053 212.194 61.922 213.486 61.922H217.651ZM213.554 63.707C212.182 63.707 211.497 64.2227 211.497 65.254C211.497 66.274 212.16 66.784 213.486 66.784H215.747V63.707H213.554ZM225.779 71L223.45 67.855L221.104 71H218.758L222.294 66.393L218.911 61.922H221.274L223.501 64.897L225.728 61.922H228.023L224.623 66.359L228.176 71H225.779Z" fill="white"/>
<circle cx="165" cy="81" r="2" fill="#D9D9D9"/>
<circle cx="173" cy="81" r="2" fill="#D9D9D9"/>
<circle cx="157" cy="81" r="2" fill="white"/>
<path d="M283.473 77.642H282.444V79H282.094V77.642H279.301V77.383L281.961 74.1H282.36L279.749 77.327H282.101V76.13H282.444V77.327H283.473V77.642ZM285.517 76.102C285.839 76.102 286.124 76.1627 286.371 76.284C286.623 76.4007 286.817 76.571 286.952 76.795C287.087 77.0143 287.155 77.2687 287.155 77.558C287.155 77.852 287.085 78.111 286.945 78.335C286.805 78.559 286.611 78.7317 286.364 78.853C286.117 78.9743 285.837 79.035 285.524 79.035C284.889 79.035 284.402 78.8203 284.061 78.391C283.725 77.957 283.557 77.3527 283.557 76.578C283.557 76.0367 283.646 75.5793 283.823 75.206C284.005 74.828 284.259 74.5433 284.586 74.352C284.913 74.1607 285.295 74.065 285.734 74.065C286.196 74.065 286.567 74.149 286.847 74.317L286.7 74.604C286.467 74.4547 286.145 74.38 285.734 74.38C285.169 74.38 284.724 74.5643 284.397 74.933C284.075 75.297 283.914 75.8267 283.914 76.522C283.914 76.7367 283.928 76.9327 283.956 77.11C284.054 76.7927 284.243 76.5453 284.523 76.368C284.808 76.1907 285.139 76.102 285.517 76.102ZM285.51 78.727C285.893 78.727 286.203 78.622 286.441 78.412C286.679 78.1973 286.798 77.915 286.798 77.565C286.798 77.215 286.679 76.935 286.441 76.725C286.203 76.515 285.879 76.41 285.468 76.41C285.207 76.41 284.971 76.4613 284.761 76.564C284.556 76.6667 284.395 76.8067 284.278 76.984C284.166 77.1613 284.11 77.3597 284.11 77.579C284.11 77.775 284.164 77.9617 284.271 78.139C284.383 78.3163 284.544 78.4587 284.754 78.566C284.964 78.6733 285.216 78.727 285.51 78.727ZM289.192 73.106H289.514L287.204 79.7H286.882L289.192 73.106ZM292.532 78.678V79H289.165V78.748L291.237 76.69C291.507 76.4193 291.689 76.1883 291.783 75.997C291.881 75.801 291.93 75.6003 291.93 75.395C291.93 75.0823 291.822 74.8373 291.608 74.66C291.398 74.4827 291.092 74.394 290.691 74.394C290.383 74.394 290.112 74.4407 289.879 74.534C289.65 74.6273 289.452 74.7697 289.284 74.961L289.032 74.737C289.218 74.5223 289.454 74.3567 289.739 74.24C290.028 74.1233 290.355 74.065 290.719 74.065C291.199 74.065 291.582 74.1817 291.867 74.415C292.151 74.6483 292.294 74.9633 292.294 75.36C292.294 75.612 292.238 75.8523 292.126 76.081C292.014 76.3097 291.804 76.5757 291.496 76.879L289.69 78.678H292.532ZM294.69 79.035C294.316 79.035 293.983 78.9347 293.689 78.734C293.399 78.5287 293.173 78.2393 293.01 77.866C292.851 77.4927 292.772 77.054 292.772 76.55C292.772 76.046 292.851 75.6073 293.01 75.234C293.173 74.8607 293.399 74.5737 293.689 74.373C293.983 74.1677 294.316 74.065 294.69 74.065C295.063 74.065 295.394 74.1677 295.684 74.373C295.978 74.5737 296.204 74.8607 296.363 75.234C296.526 75.6073 296.608 76.046 296.608 76.55C296.608 77.054 296.526 77.4927 296.363 77.866C296.204 78.2393 295.978 78.5287 295.684 78.734C295.394 78.9347 295.063 79.035 294.69 79.035ZM294.69 78.706C294.998 78.706 295.268 78.622 295.502 78.454C295.74 78.2813 295.924 78.034 296.055 77.712C296.185 77.3853 296.251 76.998 296.251 76.55C296.251 76.102 296.185 75.717 296.055 75.395C295.924 75.0683 295.74 74.821 295.502 74.653C295.268 74.4803 294.998 74.394 294.69 74.394C294.382 74.394 294.109 74.4803 293.871 74.653C293.637 74.821 293.455 75.0683 293.325 75.395C293.194 75.717 293.129 76.102 293.129 76.55C293.129 76.998 293.194 77.3853 293.325 77.712C293.455 78.034 293.637 78.2813 293.871 78.454C294.109 78.622 294.382 78.706 294.69 78.706ZM298.889 79.035C298.516 79.035 298.182 78.9347 297.888 78.734C297.599 78.5287 297.372 78.2393 297.209 77.866C297.05 77.4927 296.971 77.054 296.971 76.55C296.971 76.046 297.05 75.6073 297.209 75.234C297.372 74.8607 297.599 74.5737 297.888 74.373C298.182 74.1677 298.516 74.065 298.889 74.065C299.262 74.065 299.594 74.1677 299.883 74.373C300.177 74.5737 300.403 74.8607 300.562 75.234C300.725 75.6073 300.807 76.046 300.807 76.55C300.807 77.054 300.725 77.4927 300.562 77.866C300.403 78.2393 300.177 78.5287 299.883 78.734C299.594 78.9347 299.262 79.035 298.889 79.035ZM298.889 78.706C299.197 78.706 299.468 78.622 299.701 78.454C299.939 78.2813 300.123 78.034 300.254 77.712C300.385 77.3853 300.45 76.998 300.45 76.55C300.45 76.102 300.385 75.717 300.254 75.395C300.123 75.0683 299.939 74.821 299.701 74.653C299.468 74.4803 299.197 74.394 298.889 74.394C298.581 74.394 298.308 74.4803 298.07 74.653C297.837 74.821 297.655 75.0683 297.524 75.395C297.393 75.717 297.328 76.102 297.328 76.55C297.328 76.998 297.393 77.3853 297.524 77.712C297.655 78.034 297.837 78.2813 298.07 78.454C298.308 78.622 298.581 78.706 298.889 78.706Z" fill="white"/>
</g>
<defs>
<filter id="filter0_b_12_297" x="-12" y="-12" width="354" height="110" filterUnits="userSpaceOnUse" color-interpolation-filters="sRGB">
<feFlood flood-opacity="0" result="BackgroundImageFix"/>
<feGaussianBlur in="BackgroundImageFix" stdDeviation="6"/>
<feComposite in2="SourceAlpha" operator="in" result="effect1_backgroundBlur_12_297"/>
<feBlend mode="normal" in="SourceGraphic" in2="effect1_backgroundBlur_12_297" result="shape"/>
</filter>
</defs>
</svg>
