<svg width="155" height="50" viewBox="0 0 155 50" fill="none" xmlns="http://www.w3.org/2000/svg">
<g filter="url(#filter0_b_12_303)">
<rect width="155" height="50" rx="15" fill="white" fill-opacity="0.3"/>
<g clip-path="url(#clip0_12_303)">
<path d="M20.8612 10.0052L21.7725 10.0015H26.2275L27.14 10.0052L28.2825 10.0177L28.8237 10.0265L29.3463 10.0402L29.85 10.0577L30.335 10.0777L30.8025 10.104L31.2525 10.1352L31.6838 10.1727L32.1 10.214C34.275 10.459 35.7663 10.984 36.8913 12.109C38.0162 13.234 38.5413 14.724 38.7863 16.9002L38.8288 17.3165L38.865 17.749L38.8962 18.199L38.9212 18.6652L38.9525 19.4002L38.9675 19.9127L38.9837 20.7177L38.995 21.8615L39 23.0865L38.9988 27.2277L38.995 28.1402L38.9825 29.2827L38.9738 29.824L38.96 30.3465L38.9425 30.8502L38.9225 31.3352L38.8962 31.8027L38.865 32.2527L38.8275 32.684L38.7863 33.1002C38.5413 35.2752 38.0162 36.7665 36.8913 37.8915C35.7663 39.0165 34.2762 39.5415 32.1 39.7865L31.6838 39.829L31.2513 39.8652L30.8013 39.8965L30.335 39.9215L29.6 39.9527L29.0875 39.9677L28.2825 39.984L27.1388 39.9952L25.9137 40.0002L21.7725 39.999L20.86 39.9952L19.7175 39.9827L19.1762 39.974L18.6538 39.9602L18.15 39.9427L17.665 39.9227L17.1975 39.8965L16.7475 39.8652L16.3163 39.8277L15.9 39.7865C13.725 39.5415 12.2338 39.0165 11.1088 37.8915C9.98375 36.7665 9.45875 35.2765 9.21375 33.1002L9.17125 32.684L9.135 32.2515L9.10375 31.8015L9.07875 31.3352L9.0475 30.6002L9.0325 30.0877L9.01625 29.2827L9.005 28.139L9 26.914L9.00125 22.7727L9.005 21.8602L9.0175 20.7177L9.02625 20.1765L9.04 19.654L9.0575 19.1502L9.0775 18.6652L9.10375 18.1977L9.135 17.7477L9.1725 17.3165L9.21375 16.9002C9.45875 14.7252 9.98375 13.234 11.1088 12.109C12.2338 10.984 13.7238 10.459 15.9 10.214L16.3163 10.1715L16.7487 10.1352L17.1987 10.104L17.665 10.079L18.4 10.0477L18.9125 10.0327L19.7175 10.0165L20.8612 10.0052ZM17.4875 19.1252H14.0625C14.225 26.9252 18.125 31.6127 24.9625 31.6127H25.35V27.1502C27.8625 27.4002 29.7625 29.2377 30.525 31.6127H34.075C33.1 28.0627 30.5375 26.1002 28.9375 25.3502C30.5375 24.4252 32.7875 22.1752 33.325 19.1252H30.1C29.4 21.6002 27.325 23.8502 25.35 24.0627V19.1252H22.125V27.7752C20.125 27.2752 17.6 24.8502 17.4875 19.1252Z" fill="#699BF7"/>
</g>
<g clip-path="url(#clip1_12_303)">
<path d="M70.375 10C71.9245 10 73.2493 10.5501 74.3496 11.6504C75.4499 12.7507 76 14.0755 76 15.625V34.375C76 35.9245 75.4499 37.2493 74.3496 38.3496C73.2493 39.4499 71.9245 40 70.375 40H51.625C50.0755 40 48.7507 39.4499 47.6504 38.3496C46.5501 37.2493 46 35.9245 46 34.375V15.625C46 14.0755 46.5501 12.7507 47.6504 11.6504C48.7507 10.5501 50.0755 10 51.625 10H70.375ZM55.7461 17.168H48.5V32.5391H55.9609C57.4844 32.5391 58.7669 32.1647 59.8086 31.416C60.8503 30.6673 61.3711 29.5573 61.3711 28.0859C61.3711 26.0286 60.4401 24.7266 58.5781 24.1797C59.9714 23.5026 60.668 22.4349 60.668 20.9766C60.668 20.2344 60.541 19.6061 60.2871 19.0918C60.0332 18.5775 59.6654 18.1836 59.1836 17.9102C58.7018 17.6367 58.1875 17.4447 57.6406 17.334C57.0938 17.2233 56.4622 17.168 55.7461 17.168ZM55.3164 23.3789H51.8789V19.7852H55.0625C56.612 19.7852 57.3867 20.3711 57.3867 21.543C57.3867 22.7669 56.6966 23.3789 55.3164 23.3789ZM55.4922 29.9219H51.8789V25.6836H55.5703C57.1849 25.6836 57.9922 26.4193 57.9922 27.8906C57.9922 29.2448 57.1589 29.9219 55.4922 29.9219ZM68.1875 30.5469C67.3021 30.5469 66.625 30.2995 66.1562 29.8047C65.6875 29.3099 65.4531 28.6133 65.4531 27.7148H73.4805C73.4935 27.5846 73.5 27.3893 73.5 27.1289C73.5 25.4102 73.015 23.9746 72.0449 22.8223C71.0749 21.6699 69.75 21.0938 68.0703 21.0938C66.4036 21.0938 65.0365 21.6536 63.9688 22.7734C62.901 23.8932 62.3672 25.2995 62.3672 26.9922C62.3672 28.75 62.8815 30.1628 63.9102 31.2305C64.9388 32.2982 66.3255 32.832 68.0703 32.832C70.7396 32.832 72.4779 31.5885 73.2852 29.1016H70.5898C70.4466 29.5443 70.1374 29.8958 69.6621 30.1562C69.1868 30.4167 68.6953 30.5469 68.1875 30.5469ZM67.9922 23.3984C69.4635 23.3984 70.2708 24.1927 70.4141 25.7812H65.4531C65.5052 25.0521 65.7591 24.4727 66.2148 24.043C66.6706 23.6133 67.263 23.3984 67.9922 23.3984ZM64.8281 18.2031H71.0586V19.707H64.8281V18.2031Z" fill="#699BF7"/>
</g>
<path d="M98 12.5C91.1 12.5 85.5 18.1 85.5 25C85.5 31.9 91.1 37.5 98 37.5C104.9 37.5 110.5 31.9 110.5 25C110.5 18.1 104.9 12.5 98 12.5ZM103.8 21C103.612 22.975 102.8 27.775 102.388 29.9875C102.212 30.925 101.862 31.2375 101.538 31.275C100.812 31.3375 100.262 30.8 99.5625 30.3375C98.4625 29.6125 97.8375 29.1625 96.775 28.4625C95.5375 27.65 96.3375 27.2 97.05 26.475C97.2375 26.2875 100.438 23.375 100.5 23.1125C100.509 23.0727 100.508 23.0315 100.497 22.9923C100.486 22.953 100.465 22.9171 100.438 22.8875C100.363 22.825 100.262 22.85 100.175 22.8625C100.062 22.8875 98.3125 24.05 94.9 26.35C94.4 26.6875 93.95 26.8625 93.55 26.85C93.1 26.8375 92.25 26.6 91.6125 26.3875C90.825 26.1375 90.2125 26 90.2625 25.5625C90.2875 25.3375 90.6 25.1125 91.1875 24.875C94.8375 23.2875 97.2625 22.2375 98.475 21.7375C101.95 20.2875 102.663 20.0375 103.138 20.0375C103.238 20.0375 103.475 20.0625 103.625 20.1875C103.75 20.2875 103.787 20.425 103.8 20.525C103.787 20.6 103.812 20.825 103.8 21Z" fill="#699BF7"/>
<path d="M140.903 27.5752C140.584 27.4111 138.993 26.6318 138.697 26.5264C138.401 26.415 138.185 26.3623 137.971 26.6904C137.754 27.0156 137.139 27.7393 136.945 27.959C136.758 28.1758 136.567 28.2021 136.248 28.041C134.35 27.0918 133.104 26.3477 131.854 24.2002C131.522 23.6289 132.185 23.6699 132.803 22.4365C132.908 22.2197 132.855 22.0352 132.773 21.8711C132.691 21.707 132.047 20.1191 131.777 19.4717C131.517 18.8418 131.247 18.9297 131.051 18.918C130.863 18.9062 130.649 18.9062 130.433 18.9062C130.216 18.9062 129.867 18.9883 129.571 19.3076C129.275 19.6328 128.44 20.415 128.44 22.0029C128.44 23.5908 129.598 25.1289 129.756 25.3457C129.92 25.5625 132.032 28.8203 135.275 30.2236C137.326 31.1084 138.129 31.1846 139.154 31.0322C139.778 30.9385 141.064 30.2529 141.331 29.4941C141.598 28.7383 141.598 28.0908 141.519 27.9561C141.439 27.8125 141.223 27.7305 140.903 27.5752Z" fill="#4ECB71"/>
<path d="M147.105 19.9141C146.443 18.3408 145.494 16.9287 144.284 15.7158C143.074 14.5059 141.662 13.5537 140.086 12.8945C138.475 12.2178 136.764 11.875 135 11.875H134.941C133.166 11.8838 131.446 12.2354 129.829 12.9268C128.267 13.5947 126.867 14.5439 125.669 15.7539C124.471 16.9639 123.53 18.3701 122.88 19.9375C122.206 21.5605 121.866 23.2861 121.875 25.0615C121.884 27.0947 122.37 29.1133 123.281 30.918V35.3711C123.281 36.1152 123.885 36.7188 124.629 36.7188H129.085C130.89 37.6299 132.908 38.1162 134.941 38.125H135.003C136.758 38.125 138.46 37.7852 140.062 37.1201C141.63 36.4668 143.039 35.5293 144.246 34.3311C145.456 33.1328 146.408 31.7324 147.073 30.1709C147.765 28.5537 148.116 26.834 148.125 25.0586C148.134 23.2744 147.788 21.543 147.105 19.9141ZM142.679 32.7461C140.625 34.7793 137.9 35.8984 135 35.8984H134.95C133.184 35.8896 131.429 35.4502 129.879 34.624L129.633 34.4922H125.508V30.3672L125.376 30.1211C124.55 28.5713 124.11 26.8164 124.101 25.0498C124.09 22.1289 125.206 19.3867 127.254 17.3213C129.299 15.2559 132.032 14.1133 134.953 14.1016H135.003C136.468 14.1016 137.889 14.3857 139.227 14.9482C140.534 15.4961 141.706 16.2842 142.714 17.292C143.719 18.2969 144.51 19.4717 145.058 20.7783C145.626 22.1318 145.91 23.5674 145.904 25.0498C145.887 27.9678 144.741 30.7012 142.679 32.7461Z" fill="#4ECB71"/>
</g>
<defs>
<filter id="filter0_b_12_303" x="-12" y="-12" width="179" height="74" filterUnits="userSpaceOnUse" color-interpolation-filters="sRGB">
<feFlood flood-opacity="0" result="BackgroundImageFix"/>
<feGaussianBlur in="BackgroundImageFix" stdDeviation="6"/>
<feComposite in2="SourceAlpha" operator="in" result="effect1_backgroundBlur_12_303"/>
<feBlend mode="normal" in="SourceGraphic" in2="effect1_backgroundBlur_12_303" result="shape"/>
</filter>
<clipPath id="clip0_12_303">
<rect width="30" height="30" fill="white" transform="translate(9 10)"/>
</clipPath>
<clipPath id="clip1_12_303">
<rect width="30" height="30" fill="white" transform="translate(46 10)"/>
</clipPath>
</defs>
</svg>
