<svg width="330" height="108" viewBox="0 0 330 108" fill="none" xmlns="http://www.w3.org/2000/svg">
<g filter="url(#filter0_b_12_292)">
<rect width="330" height="108" rx="15" fill="white" fill-opacity="0.3"/>
<path d="M11.683 15.1H20.948V16.919H13.859V19.843H17.378C18.806 19.843 19.8883 20.1433 20.625 20.744C21.373 21.3333 21.747 22.189 21.747 23.311C21.747 24.4897 21.339 25.402 20.523 26.048C19.707 26.6827 18.5453 27 17.038 27H11.683V15.1ZM16.919 25.3C17.769 25.3 18.415 25.1357 18.857 24.807C19.299 24.4783 19.52 24.0023 19.52 23.379C19.52 22.155 18.653 21.543 16.919 21.543H13.859V25.3H16.919ZM31.5332 17.922V27H29.4082V19.724H26.0082L25.9232 21.526C25.8665 22.7273 25.7532 23.736 25.5832 24.552C25.4245 25.3567 25.1468 25.997 24.7502 26.473C24.3648 26.9377 23.8322 27.17 23.1522 27.17C22.8348 27.17 22.4438 27.1077 21.9792 26.983L22.0812 25.198C22.2398 25.232 22.3758 25.249 22.4892 25.249C22.9198 25.249 23.2428 25.079 23.4582 24.739C23.6735 24.3877 23.8095 23.974 23.8662 23.498C23.9342 23.0107 23.9908 22.3193 24.0362 21.424L24.1892 17.922H31.5332ZM38.033 27.119C37.115 27.119 36.2877 26.9207 35.551 26.524C34.8143 26.1273 34.2363 25.5777 33.817 24.875C33.409 24.161 33.205 23.3563 33.205 22.461C33.205 21.5657 33.409 20.7667 33.817 20.064C34.2363 19.3613 34.8143 18.8117 35.551 18.415C36.2877 18.0183 37.115 17.82 38.033 17.82C38.9623 17.82 39.7953 18.0183 40.532 18.415C41.2687 18.8117 41.841 19.3613 42.249 20.064C42.6683 20.7667 42.878 21.5657 42.878 22.461C42.878 23.3563 42.6683 24.161 42.249 24.875C41.841 25.5777 41.2687 26.1273 40.532 26.524C39.7953 26.9207 38.9623 27.119 38.033 27.119ZM38.033 25.3C38.815 25.3 39.461 25.0393 39.971 24.518C40.481 23.9967 40.736 23.311 40.736 22.461C40.736 21.611 40.481 20.9253 39.971 20.404C39.461 19.8827 38.815 19.622 38.033 19.622C37.251 19.622 36.605 19.8827 36.095 20.404C35.5963 20.9253 35.347 21.611 35.347 22.461C35.347 23.311 35.5963 23.9967 36.095 24.518C36.605 25.0393 37.251 25.3 38.033 25.3ZM48.3432 23.362H46.6942V27H44.5692V17.922H46.6942V21.594H48.3942L51.0802 17.922H53.3582L50.0602 22.291L53.5792 27H51.0802L48.3432 23.362ZM58.2463 22.461L60.6603 19.163H62.5813L60.2183 22.461L62.5813 25.742H60.6603L58.2463 22.461ZM61.7823 22.461L64.1963 19.163H66.1173L63.7543 22.461L66.1173 25.742H64.1963L61.7823 22.461ZM73.3959 27.17C72.1833 27.17 71.0896 26.9093 70.1149 26.388C69.1403 25.8553 68.3753 25.1243 67.8199 24.195C67.2646 23.2543 66.9869 22.206 66.9869 21.05C66.9869 19.894 67.2646 18.8513 67.8199 17.922C68.3753 16.9813 69.1403 16.2503 70.1149 15.729C71.0896 15.1963 72.1833 14.93 73.3959 14.93C74.6086 14.93 75.7023 15.1963 76.6769 15.729C77.6516 16.2503 78.4166 16.9757 78.9719 17.905C79.5273 18.8343 79.8049 19.8827 79.8049 21.05C79.8049 22.2173 79.5273 23.2657 78.9719 24.195C78.4166 25.1243 77.6516 25.8553 76.6769 26.388C75.7023 26.9093 74.6086 27.17 73.3959 27.17ZM73.3959 25.232C74.1893 25.232 74.9033 25.0563 75.5379 24.705C76.1726 24.3423 76.6713 23.8437 77.0339 23.209C77.3966 22.563 77.5779 21.8433 77.5779 21.05C77.5779 20.2567 77.3966 19.5427 77.0339 18.908C76.6713 18.262 76.1726 17.7633 75.5379 17.412C74.9033 17.0493 74.1893 16.868 73.3959 16.868C72.6026 16.868 71.8886 17.0493 71.2539 17.412C70.6193 17.7633 70.1206 18.262 69.7579 18.908C69.3953 19.5427 69.2139 20.2567 69.2139 21.05C69.2139 21.8433 69.3953 22.563 69.7579 23.209C70.1206 23.8437 70.6193 24.3423 71.2539 24.705C71.8886 25.0563 72.6026 25.232 73.3959 25.232ZM90.0235 27.119C89.0828 27.119 88.2385 26.9207 87.4905 26.524C86.7425 26.1273 86.1588 25.5777 85.7395 24.875C85.3202 24.161 85.1105 23.3563 85.1105 22.461C85.1105 21.5657 85.3202 20.7667 85.7395 20.064C86.1588 19.3613 86.7368 18.8117 87.4735 18.415C88.2215 18.0183 89.0715 17.82 90.0235 17.82C90.9188 17.82 91.7008 18.0013 92.3695 18.364C93.0495 18.7267 93.5595 19.248 93.8995 19.928L92.2675 20.88C92.0068 20.4607 91.6782 20.149 91.2815 19.945C90.8962 19.7297 90.4712 19.622 90.0065 19.622C89.2132 19.622 88.5558 19.8827 88.0345 20.404C87.5132 20.914 87.2525 21.5997 87.2525 22.461C87.2525 23.3223 87.5075 24.0137 88.0175 24.535C88.5388 25.045 89.2018 25.3 90.0065 25.3C90.4712 25.3 90.8962 25.198 91.2815 24.994C91.6782 24.7787 92.0068 24.4613 92.2675 24.042L93.8995 24.994C93.5482 25.674 93.0325 26.201 92.3525 26.575C91.6838 26.9377 90.9075 27.119 90.0235 27.119ZM103.73 22.512C103.73 22.6593 103.718 22.869 103.696 23.141H96.5726C96.6973 23.8097 97.0203 24.3423 97.5416 24.739C98.0743 25.1243 98.7316 25.317 99.5136 25.317C100.511 25.317 101.333 24.9883 101.979 24.331L103.118 25.64C102.71 26.1273 102.194 26.4957 101.571 26.745C100.947 26.9943 100.245 27.119 99.4626 27.119C98.4653 27.119 97.587 26.9207 96.8276 26.524C96.0683 26.1273 95.479 25.5777 95.0596 24.875C94.6516 24.161 94.4476 23.3563 94.4476 22.461C94.4476 21.577 94.646 20.7837 95.0426 20.081C95.4506 19.367 96.0116 18.8117 96.7256 18.415C97.4396 18.0183 98.2443 17.82 99.1396 17.82C100.024 17.82 100.811 18.0183 101.503 18.415C102.205 18.8003 102.749 19.35 103.135 20.064C103.531 20.7667 103.73 21.5827 103.73 22.512ZM99.1396 19.52C98.4596 19.52 97.8816 19.724 97.4056 20.132C96.941 20.5287 96.6576 21.0613 96.5556 21.73H101.707C101.616 21.0727 101.338 20.54 100.874 20.132C100.409 19.724 99.831 19.52 99.1396 19.52ZM110.559 18.364C111.42 18.364 112.18 18.551 112.837 18.925C113.494 19.2877 114.004 19.7977 114.367 20.455C114.741 21.1123 114.928 21.866 114.928 22.716C114.928 23.5887 114.724 24.365 114.316 25.045C113.908 25.7137 113.336 26.235 112.599 26.609C111.862 26.983 111.024 27.17 110.083 27.17C108.508 27.17 107.289 26.6487 106.428 25.606C105.567 24.5633 105.136 23.0617 105.136 21.101C105.136 19.2763 105.527 17.8313 106.309 16.766C107.091 15.7007 108.287 14.998 109.896 14.658L114.112 13.757L114.418 15.661L110.593 16.443C109.494 16.6697 108.672 17.055 108.128 17.599C107.584 18.143 107.267 18.908 107.176 19.894C107.584 19.4067 108.077 19.0327 108.655 18.772C109.233 18.5 109.868 18.364 110.559 18.364ZM110.134 25.453C110.916 25.453 111.545 25.2037 112.021 24.705C112.508 24.195 112.752 23.549 112.752 22.767C112.752 21.985 112.508 21.356 112.021 20.88C111.545 20.404 110.916 20.166 110.134 20.166C109.341 20.166 108.7 20.404 108.213 20.88C107.726 21.356 107.482 21.985 107.482 22.767C107.482 23.5603 107.726 24.2063 108.213 24.705C108.712 25.2037 109.352 25.453 110.134 25.453ZM125.077 22.512C125.077 22.6593 125.065 22.869 125.043 23.141H117.92C118.044 23.8097 118.367 24.3423 118.889 24.739C119.421 25.1243 120.079 25.317 120.861 25.317C121.858 25.317 122.68 24.9883 123.326 24.331L124.465 25.64C124.057 26.1273 123.541 26.4957 122.918 26.745C122.294 26.9943 121.592 27.119 120.81 27.119C119.812 27.119 118.934 26.9207 118.175 26.524C117.415 26.1273 116.826 25.5777 116.407 24.875C115.999 24.161 115.795 23.3563 115.795 22.461C115.795 21.577 115.993 20.7837 116.39 20.081C116.798 19.367 117.359 18.8117 118.073 18.415C118.787 18.0183 119.591 17.82 120.487 17.82C121.371 17.82 122.158 18.0183 122.85 18.415C123.552 18.8003 124.096 19.35 124.482 20.064C124.878 20.7667 125.077 21.5827 125.077 22.512ZM120.487 19.52C119.807 19.52 119.229 19.724 118.753 20.132C118.288 20.5287 118.005 21.0613 117.903 21.73H123.054C122.963 21.0727 122.685 20.54 122.221 20.132C121.756 19.724 121.178 19.52 120.487 19.52ZM126.075 25.742L128.438 22.461L126.075 19.163H127.996L130.41 22.461L127.996 25.742H126.075ZM129.611 25.742L131.974 22.461L129.611 19.163H131.532L133.946 22.461L131.532 25.742H129.611ZM136.329 20.642C135.943 20.642 135.615 20.5117 135.343 20.251C135.071 19.979 134.935 19.639 134.935 19.231C134.935 18.8117 135.065 18.4717 135.326 18.211C135.598 17.9503 135.932 17.82 136.329 17.82C136.725 17.82 137.054 17.9503 137.315 18.211C137.587 18.4717 137.723 18.8117 137.723 19.231C137.723 19.639 137.587 19.979 137.315 20.251C137.043 20.5117 136.714 20.642 136.329 20.642ZM136.329 27.119C135.943 27.119 135.615 26.9887 135.343 26.728C135.071 26.456 134.935 26.116 134.935 25.708C134.935 25.2887 135.065 24.9487 135.326 24.688C135.598 24.4273 135.932 24.297 136.329 24.297C136.725 24.297 137.054 24.4273 137.315 24.688C137.587 24.9487 137.723 25.2887 137.723 25.708C137.723 26.116 137.587 26.456 137.315 26.728C137.043 26.9887 136.714 27.119 136.329 27.119ZM17.174 49.17C15.9613 49.17 14.8677 48.9093 13.893 48.388C12.9183 47.8553 12.1533 47.1243 11.598 46.195C11.0427 45.2543 10.765 44.206 10.765 43.05C10.765 41.894 11.0427 40.8513 11.598 39.922C12.1533 38.9813 12.9183 38.2503 13.893 37.729C14.8677 37.1963 15.9613 36.93 17.174 36.93C18.3867 36.93 19.4803 37.1963 20.455 37.729C21.4297 38.2503 22.1947 38.9757 22.75 39.905C23.3053 40.8343 23.583 41.8827 23.583 43.05C23.583 44.2173 23.3053 45.2657 22.75 46.195C22.1947 47.1243 21.4297 47.8553 20.455 48.388C19.4803 48.9093 18.3867 49.17 17.174 49.17ZM17.174 47.232C17.9673 47.232 18.6813 47.0563 19.316 46.705C19.9507 46.3423 20.4493 45.8437 20.812 45.209C21.1747 44.563 21.356 43.8433 21.356 43.05C21.356 42.2567 21.1747 41.5427 20.812 40.908C20.4493 40.262 19.9507 39.7633 19.316 39.412C18.6813 39.0493 17.9673 38.868 17.174 38.868C16.3807 38.868 15.6667 39.0493 15.032 39.412C14.3973 39.7633 13.8987 40.262 13.536 40.908C13.1733 41.5427 12.992 42.2567 12.992 43.05C12.992 43.8433 13.1733 44.563 13.536 45.209C13.8987 45.8437 14.3973 46.3423 15.032 46.705C15.6667 47.0563 16.3807 47.232 17.174 47.232ZM34.0844 39.922V49H31.9764V41.724H27.5054V49H25.3804V39.922H34.0844ZM40.9636 42.914C42.1196 42.914 43.0036 43.1747 43.6156 43.696C44.2276 44.2173 44.5336 44.954 44.5336 45.906C44.5336 46.9033 44.1936 47.674 43.5136 48.218C42.845 48.762 41.893 49.0283 40.6576 49.017L36.5436 49V39.922H38.6686V42.897L40.9636 42.914ZM45.7066 39.922H47.8316V49H45.7066V39.922ZM40.4706 47.453C41.094 47.4643 41.57 47.334 41.8986 47.062C42.2273 46.79 42.3916 46.3933 42.3916 45.872C42.3916 45.362 42.233 44.988 41.9156 44.75C41.5983 44.512 41.1166 44.3873 40.4706 44.376L38.6686 44.359V47.436L40.4706 47.453ZM57.4712 41.724H54.2922V49H52.1672V41.724H48.9712V39.922H57.4712V41.724ZM67.9268 39.82C68.8108 39.82 69.5985 40.0127 70.2898 40.398C70.9925 40.7833 71.5422 41.3273 71.9388 42.03C72.3355 42.7327 72.5338 43.543 72.5338 44.461C72.5338 45.379 72.3355 46.195 71.9388 46.909C71.5422 47.6117 70.9925 48.1557 70.2898 48.541C69.5985 48.9263 68.8108 49.119 67.9268 49.119C66.7028 49.119 65.7338 48.711 65.0198 47.895V52.298H62.8948V39.922H64.9178V41.112C65.2692 40.6813 65.6998 40.3583 66.2098 40.143C66.7312 39.9277 67.3035 39.82 67.9268 39.82ZM67.6888 47.3C68.4708 47.3 69.1112 47.0393 69.6098 46.518C70.1198 45.9967 70.3748 45.311 70.3748 44.461C70.3748 43.611 70.1198 42.9253 69.6098 42.404C69.1112 41.8827 68.4708 41.622 67.6888 41.622C67.1788 41.622 66.7198 41.741 66.3118 41.979C65.9038 42.2057 65.5808 42.5343 65.3428 42.965C65.1048 43.3957 64.9858 43.8943 64.9858 44.461C64.9858 45.0277 65.1048 45.5263 65.3428 45.957C65.5808 46.3877 65.9038 46.722 66.3118 46.96C66.7198 47.1867 67.1788 47.3 67.6888 47.3ZM77.5075 39.82C78.8449 39.82 79.8649 40.143 80.5675 40.789C81.2815 41.4237 81.6385 42.387 81.6385 43.679V49H79.6325V47.895C79.3719 48.2917 78.9979 48.5977 78.5105 48.813C78.0345 49.017 77.4565 49.119 76.7765 49.119C76.0965 49.119 75.5015 49.0057 74.9915 48.779C74.4815 48.541 74.0849 48.218 73.8015 47.81C73.5295 47.3907 73.3935 46.9203 73.3935 46.399C73.3935 45.583 73.6939 44.9313 74.2945 44.444C74.9065 43.9453 75.8642 43.696 77.1675 43.696H79.5135V43.56C79.5135 42.9253 79.3209 42.438 78.9355 42.098C78.5615 41.758 78.0005 41.588 77.2525 41.588C76.7425 41.588 76.2382 41.6673 75.7395 41.826C75.2522 41.9847 74.8385 42.2057 74.4985 42.489L73.6655 40.942C74.1415 40.5793 74.7139 40.3017 75.3825 40.109C76.0512 39.9163 76.7595 39.82 77.5075 39.82ZM77.2185 47.572C77.7512 47.572 78.2215 47.453 78.6295 47.215C79.0489 46.9657 79.3435 46.6143 79.5135 46.161V45.107H77.3205C76.0965 45.107 75.4845 45.5093 75.4845 46.314C75.4845 46.6993 75.6375 47.0053 75.9435 47.232C76.2495 47.4587 76.6745 47.572 77.2185 47.572ZM88.7731 40.364C89.6344 40.364 90.3938 40.551 91.0511 40.925C91.7084 41.2877 92.2184 41.7977 92.5811 42.455C92.9551 43.1123 93.1421 43.866 93.1421 44.716C93.1421 45.5887 92.9381 46.365 92.5301 47.045C92.1221 47.7137 91.5498 48.235 90.8131 48.609C90.0764 48.983 89.2378 49.17 88.2971 49.17C86.7218 49.17 85.5034 48.6487 84.6421 47.606C83.7807 46.5633 83.3501 45.0617 83.3501 43.101C83.3501 41.2763 83.7411 39.8313 84.5231 38.766C85.3051 37.7007 86.5007 36.998 88.1101 36.658L92.3261 35.757L92.6321 37.661L88.8071 38.443C87.7078 38.6697 86.8861 39.055 86.3421 39.599C85.7981 40.143 85.4807 40.908 85.3901 41.894C85.7981 41.4067 86.2911 41.0327 86.8691 40.772C87.4471 40.5 88.0818 40.364 88.7731 40.364ZM88.3481 47.453C89.1301 47.453 89.7591 47.2037 90.2351 46.705C90.7224 46.195 90.9661 45.549 90.9661 44.767C90.9661 43.985 90.7224 43.356 90.2351 42.88C89.7591 42.404 89.1301 42.166 88.3481 42.166C87.5548 42.166 86.9144 42.404 86.4271 42.88C85.9397 43.356 85.6961 43.985 85.6961 44.767C85.6961 45.5603 85.9397 46.2063 86.4271 46.705C86.9258 47.2037 87.5661 47.453 88.3481 47.453ZM98.837 49.119C97.919 49.119 97.0916 48.9207 96.355 48.524C95.6183 48.1273 95.0403 47.5777 94.621 46.875C94.213 46.161 94.009 45.3563 94.009 44.461C94.009 43.5657 94.213 42.7667 94.621 42.064C95.0403 41.3613 95.6183 40.8117 96.355 40.415C97.0916 40.0183 97.919 39.82 98.837 39.82C99.7663 39.82 100.599 40.0183 101.336 40.415C102.073 40.8117 102.645 41.3613 103.053 42.064C103.472 42.7667 103.682 43.5657 103.682 44.461C103.682 45.3563 103.472 46.161 103.053 46.875C102.645 47.5777 102.073 48.1273 101.336 48.524C100.599 48.9207 99.7663 49.119 98.837 49.119ZM98.837 47.3C99.619 47.3 100.265 47.0393 100.775 46.518C101.285 45.9967 101.54 45.311 101.54 44.461C101.54 43.611 101.285 42.9253 100.775 42.404C100.265 41.8827 99.619 41.622 98.837 41.622C98.055 41.622 97.409 41.8827 96.899 42.404C96.4003 42.9253 96.151 43.611 96.151 44.461C96.151 45.311 96.4003 45.9967 96.899 46.518C97.409 47.0393 98.055 47.3 98.837 47.3ZM112.232 41.724H109.053V49H106.928V41.724H103.732V39.922H112.232V41.724ZM117.786 42.914C118.942 42.914 119.826 43.1747 120.438 43.696C121.05 44.2173 121.356 44.954 121.356 45.906C121.356 46.9033 121.016 47.674 120.336 48.218C119.667 48.762 118.715 49.0283 117.48 49.017L113.366 49V39.922H115.491V42.897L117.786 42.914ZM122.529 39.922H124.654V49H122.529V39.922ZM117.293 47.453C117.916 47.4643 118.392 47.334 118.721 47.062C119.049 46.79 119.214 46.3933 119.214 45.872C119.214 45.362 119.055 44.988 118.738 44.75C118.42 44.512 117.939 44.3873 117.293 44.376L115.491 44.359V47.436L117.293 47.453ZM11.683 59.1H13.859V67.549L20.251 59.1H22.308V71H20.132V62.568L13.74 71H11.683V59.1ZM24.9985 61.922H27.1235V65.611H31.6965V61.922H33.8215V71H31.6965V67.413H27.1235V71H24.9985V61.922ZM43.4524 63.724H40.2734V71H38.1484V63.724H34.9524V61.922H43.4524V63.724ZM52.6874 66.512C52.6874 66.6593 52.6761 66.869 52.6534 67.141H45.5304C45.6551 67.8097 45.9781 68.3423 46.4994 68.739C47.0321 69.1243 47.6894 69.317 48.4714 69.317C49.4687 69.317 50.2904 68.9883 50.9364 68.331L52.0754 69.64C51.6674 70.1273 51.1517 70.4957 50.5284 70.745C49.9051 70.9943 49.2024 71.119 48.4204 71.119C47.4231 71.119 46.5447 70.9207 45.7854 70.524C45.0261 70.1273 44.4367 69.5777 44.0174 68.875C43.6094 68.161 43.4054 67.3563 43.4054 66.461C43.4054 65.577 43.6037 64.7837 44.0004 64.081C44.4084 63.367 44.9694 62.8117 45.6834 62.415C46.3974 62.0183 47.2021 61.82 48.0974 61.82C48.9814 61.82 49.7691 62.0183 50.4604 62.415C51.1631 62.8003 51.7071 63.35 52.0924 64.064C52.4891 64.7667 52.6874 65.5827 52.6874 66.512ZM48.0974 63.52C47.4174 63.52 46.8394 63.724 46.3634 64.132C45.8987 64.5287 45.6154 65.0613 45.5134 65.73H50.6644C50.5737 65.0727 50.2961 64.54 49.8314 64.132C49.3667 63.724 48.7887 63.52 48.0974 63.52ZM59.6356 61.82C60.5196 61.82 61.3073 62.0127 61.9986 62.398C62.7013 62.7833 63.251 63.3273 63.6476 64.03C64.0443 64.7327 64.2426 65.543 64.2426 66.461C64.2426 67.379 64.0443 68.195 63.6476 68.909C63.251 69.6117 62.7013 70.1557 61.9986 70.541C61.3073 70.9263 60.5196 71.119 59.6356 71.119C58.4116 71.119 57.4426 70.711 56.7286 69.895V74.298H54.6036V61.922H56.6266V63.112C56.978 62.6813 57.4086 62.3583 57.9186 62.143C58.44 61.9277 59.0123 61.82 59.6356 61.82ZM59.3976 69.3C60.1796 69.3 60.82 69.0393 61.3186 68.518C61.8286 67.9967 62.0836 67.311 62.0836 66.461C62.0836 65.611 61.8286 64.9253 61.3186 64.404C60.82 63.8827 60.1796 63.622 59.3976 63.622C58.8876 63.622 58.4286 63.741 58.0206 63.979C57.6126 64.2057 57.2896 64.5343 57.0516 64.965C56.8136 65.3957 56.6946 65.8943 56.6946 66.461C56.6946 67.0277 56.8136 67.5263 57.0516 67.957C57.2896 68.3877 57.6126 68.722 58.0206 68.96C58.4286 69.1867 58.8876 69.3 59.3976 69.3ZM74.4495 66.512C74.4495 66.6593 74.4382 66.869 74.4155 67.141H67.2925C67.4172 67.8097 67.7402 68.3423 68.2615 68.739C68.7942 69.1243 69.4515 69.317 70.2335 69.317C71.2309 69.317 72.0525 68.9883 72.6985 68.331L73.8375 69.64C73.4295 70.1273 72.9139 70.4957 72.2905 70.745C71.6672 70.9943 70.9645 71.119 70.1825 71.119C69.1852 71.119 68.3069 70.9207 67.5475 70.524C66.7882 70.1273 66.1989 69.5777 65.7795 68.875C65.3715 68.161 65.1675 67.3563 65.1675 66.461C65.1675 65.577 65.3659 64.7837 65.7625 64.081C66.1705 63.367 66.7315 62.8117 67.4455 62.415C68.1595 62.0183 68.9642 61.82 69.8595 61.82C70.7435 61.82 71.5312 62.0183 72.2225 62.415C72.9252 62.8003 73.4692 63.35 73.8545 64.064C74.2512 64.7667 74.4495 65.5827 74.4495 66.512ZM69.8595 63.52C69.1795 63.52 68.6015 63.724 68.1255 64.132C67.6609 64.5287 67.3775 65.0613 67.2755 65.73H72.4265C72.3359 65.0727 72.0582 64.54 71.5935 64.132C71.1289 63.724 70.5509 63.52 69.8595 63.52ZM80.4967 71.119C79.5561 71.119 78.7117 70.9207 77.9637 70.524C77.2157 70.1273 76.6321 69.5777 76.2127 68.875C75.7934 68.161 75.5837 67.3563 75.5837 66.461C75.5837 65.5657 75.7934 64.7667 76.2127 64.064C76.6321 63.3613 77.2101 62.8117 77.9467 62.415C78.6947 62.0183 79.5447 61.82 80.4967 61.82C81.3921 61.82 82.1741 62.0013 82.8427 62.364C83.5227 62.7267 84.0327 63.248 84.3727 63.928L82.7407 64.88C82.4801 64.4607 82.1514 64.149 81.7547 63.945C81.3694 63.7297 80.9444 63.622 80.4797 63.622C79.6864 63.622 79.0291 63.8827 78.5077 64.404C77.9864 64.914 77.7257 65.5997 77.7257 66.461C77.7257 67.3223 77.9807 68.0137 78.4907 68.535C79.0121 69.045 79.6751 69.3 80.4797 69.3C80.9444 69.3 81.3694 69.198 81.7547 68.994C82.1514 68.7787 82.4801 68.4613 82.7407 68.042L84.3727 68.994C84.0214 69.674 83.5057 70.201 82.8257 70.575C82.1571 70.9377 81.3807 71.119 80.4967 71.119ZM90.2557 64.914C91.4117 64.914 92.2957 65.1747 92.9077 65.696C93.5197 66.2173 93.8257 66.954 93.8257 67.906C93.8257 68.9033 93.4857 69.674 92.8057 70.218C92.137 70.762 91.185 71.0283 89.9497 71.017L85.8357 71V61.922H87.9607V64.897L90.2557 64.914ZM94.9987 61.922H97.1237V71H94.9987V61.922ZM89.7627 69.453C90.386 69.4643 90.862 69.334 91.1907 69.062C91.5193 68.79 91.6837 68.3933 91.6837 67.872C91.6837 67.362 91.525 66.988 91.2077 66.75C90.8903 66.512 90.4087 66.3873 89.7627 66.376L87.9607 66.359V69.436L89.7627 69.453ZM21.883 81.1L16.715 90.705C16.2617 91.555 15.7177 92.1953 15.083 92.626C14.4597 93.0453 13.7797 93.255 13.043 93.255C12.4537 93.255 11.87 93.1303 11.292 92.881L11.836 91.147C12.3007 91.2943 12.686 91.368 12.992 91.368C13.706 91.368 14.2953 90.9997 14.76 90.263L14.947 89.974L10.204 81.1H12.567L16.086 88.087L19.707 81.1H21.883ZM30.1761 83.922V93H28.0511V89.481C27.1784 89.9003 26.2661 90.11 25.3141 90.11C24.1467 90.11 23.2514 89.8437 22.6281 89.311C22.0047 88.767 21.6931 87.9397 21.6931 86.829V83.922H23.8181V86.693C23.8181 87.271 23.9881 87.7017 24.3281 87.985C24.6681 88.2683 25.1497 88.41 25.7731 88.41C26.5664 88.41 27.3257 88.24 28.0511 87.9V83.922H30.1761ZM36.0087 83.82C37.346 83.82 38.366 84.143 39.0687 84.789C39.7827 85.4237 40.1397 86.387 40.1397 87.679V93H38.1337V91.895C37.873 92.2917 37.499 92.5977 37.0117 92.813C36.5357 93.017 35.9577 93.119 35.2777 93.119C34.5977 93.119 34.0027 93.0057 33.4927 92.779C32.9827 92.541 32.586 92.218 32.3027 91.81C32.0307 91.3907 31.8947 90.9203 31.8947 90.399C31.8947 89.583 32.195 88.9313 32.7957 88.444C33.4077 87.9453 34.3653 87.696 35.6687 87.696H38.0147V87.56C38.0147 86.9253 37.822 86.438 37.4367 86.098C37.0627 85.758 36.5017 85.588 35.7537 85.588C35.2437 85.588 34.7393 85.6673 34.2407 85.826C33.7533 85.9847 33.3397 86.2057 32.9997 86.489L32.1667 84.942C32.6427 84.5793 33.215 84.3017 33.8837 84.109C34.5523 83.9163 35.2607 83.82 36.0087 83.82ZM35.7197 91.572C36.2523 91.572 36.7227 91.453 37.1307 91.215C37.55 90.9657 37.8447 90.6143 38.0147 90.161V89.107H35.8217C34.5977 89.107 33.9857 89.5093 33.9857 90.314C33.9857 90.6993 34.1387 91.0053 34.4447 91.232C34.7507 91.4587 35.1757 91.572 35.7197 91.572ZM46.4922 93.119C45.5516 93.119 44.7072 92.9207 43.9592 92.524C43.2112 92.1273 42.6276 91.5777 42.2082 90.875C41.7889 90.161 41.5792 89.3563 41.5792 88.461C41.5792 87.5657 41.7889 86.7667 42.2082 86.064C42.6276 85.3613 43.2056 84.8117 43.9422 84.415C44.6902 84.0183 45.5402 83.82 46.4922 83.82C47.3876 83.82 48.1696 84.0013 48.8382 84.364C49.5182 84.7267 50.0282 85.248 50.3682 85.928L48.7362 86.88C48.4756 86.4607 48.1469 86.149 47.7502 85.945C47.3649 85.7297 46.9399 85.622 46.4752 85.622C45.6819 85.622 45.0246 85.8827 44.5032 86.404C43.9819 86.914 43.7212 87.5997 43.7212 88.461C43.7212 89.3223 43.9762 90.0137 44.4862 90.535C45.0076 91.045 45.6706 91.3 46.4752 91.3C46.9399 91.3 47.3649 91.198 47.7502 90.994C48.1469 90.7787 48.4756 90.4613 48.7362 90.042L50.3682 90.994C50.0169 91.674 49.5012 92.201 48.8212 92.575C48.1526 92.9377 47.3762 93.119 46.4922 93.119ZM58.9391 85.724H55.7601V93H53.6351V85.724H50.4391V83.922H58.9391V85.724ZM60.0726 83.922H62.1976V89.906L67.2126 83.922H69.1506V93H67.0256V87.016L62.0276 93H60.0726V83.922ZM80.1011 88.512C80.1011 88.6593 80.0898 88.869 80.0671 89.141H72.9441C73.0688 89.8097 73.3918 90.3423 73.9131 90.739C74.4458 91.1243 75.1031 91.317 75.8851 91.317C76.8824 91.317 77.7041 90.9883 78.3501 90.331L79.4891 91.64C79.0811 92.1273 78.5654 92.4957 77.9421 92.745C77.3188 92.9943 76.6161 93.119 75.8341 93.119C74.8368 93.119 73.9584 92.9207 73.1991 92.524C72.4398 92.1273 71.8504 91.5777 71.4311 90.875C71.0231 90.161 70.8191 89.3563 70.8191 88.461C70.8191 87.577 71.0174 86.7837 71.4141 86.081C71.8221 85.367 72.3831 84.8117 73.0971 84.415C73.8111 84.0183 74.6158 83.82 75.5111 83.82C76.3951 83.82 77.1828 84.0183 77.8741 84.415C78.5768 84.8003 79.1208 85.35 79.5061 86.064C79.9028 86.7667 80.1011 87.5827 80.1011 88.512ZM75.5111 85.52C74.8311 85.52 74.2531 85.724 73.7771 86.132C73.3124 86.5287 73.0291 87.0613 72.9271 87.73H78.0781C77.9874 87.0727 77.7098 86.54 77.2451 86.132C76.7804 85.724 76.2024 85.52 75.5111 85.52ZM92.8866 88.274C94.0086 88.614 94.5696 89.3393 94.5696 90.45C94.5696 91.266 94.2636 91.895 93.6516 92.337C93.0396 92.779 92.1329 93 90.9316 93H86.3076V83.922H90.7446C91.8552 83.922 92.7222 84.126 93.3456 84.534C93.9689 84.942 94.2806 85.52 94.2806 86.268C94.2806 86.7327 94.1559 87.135 93.9066 87.475C93.6686 87.815 93.3286 88.0813 92.8866 88.274ZM88.3306 87.713H90.5576C91.6569 87.713 92.2066 87.3333 92.2066 86.574C92.2066 85.8373 91.6569 85.469 90.5576 85.469H88.3306V87.713ZM90.7616 91.453C91.9289 91.453 92.5126 91.0733 92.5126 90.314C92.5126 89.9173 92.3766 89.6227 92.1046 89.43C91.8326 89.226 91.4076 89.124 90.8296 89.124H88.3306V91.453H90.7616ZM109.419 83.922V93H107.311V85.724H102.84V93H100.715V83.922H109.419ZM116.91 83.82C117.794 83.82 118.582 84.0127 119.273 84.398C119.976 84.7833 120.526 85.3273 120.922 86.03C121.319 86.7327 121.517 87.543 121.517 88.461C121.517 89.379 121.319 90.195 120.922 90.909C120.526 91.6117 119.976 92.1557 119.273 92.541C118.582 92.9263 117.794 93.119 116.91 93.119C115.686 93.119 114.717 92.711 114.003 91.895V96.298H111.878V83.922H113.901V85.112C114.253 84.6813 114.683 84.3583 115.193 84.143C115.715 83.9277 116.287 83.82 116.91 83.82ZM116.672 91.3C117.454 91.3 118.095 91.0393 118.593 90.518C119.103 89.9967 119.358 89.311 119.358 88.461C119.358 87.611 119.103 86.9253 118.593 86.404C118.095 85.8827 117.454 85.622 116.672 85.622C116.162 85.622 115.703 85.741 115.295 85.979C114.887 86.2057 114.564 86.5343 114.326 86.965C114.088 87.3957 113.969 87.8943 113.969 88.461C113.969 89.0277 114.088 89.5263 114.326 89.957C114.564 90.3877 114.887 90.722 115.295 90.96C115.703 91.1867 116.162 91.3 116.672 91.3ZM127.27 93.119C126.352 93.119 125.525 92.9207 124.788 92.524C124.052 92.1273 123.474 91.5777 123.054 90.875C122.646 90.161 122.442 89.3563 122.442 88.461C122.442 87.5657 122.646 86.7667 123.054 86.064C123.474 85.3613 124.052 84.8117 124.788 84.415C125.525 84.0183 126.352 83.82 127.27 83.82C128.2 83.82 129.033 84.0183 129.769 84.415C130.506 84.8117 131.078 85.3613 131.486 86.064C131.906 86.7667 132.115 87.5657 132.115 88.461C132.115 89.3563 131.906 90.161 131.486 90.875C131.078 91.5777 130.506 92.1273 129.769 92.524C129.033 92.9207 128.2 93.119 127.27 93.119ZM127.27 91.3C128.052 91.3 128.698 91.0393 129.208 90.518C129.718 89.9967 129.973 89.311 129.973 88.461C129.973 87.611 129.718 86.9253 129.208 86.404C128.698 85.8827 128.052 85.622 127.27 85.622C126.488 85.622 125.842 85.8827 125.332 86.404C124.834 86.9253 124.584 87.611 124.584 88.461C124.584 89.311 124.834 89.9967 125.332 90.518C125.842 91.0393 126.488 91.3 127.27 91.3ZM142.307 88.512C142.307 88.6593 142.295 88.869 142.273 89.141H135.15C135.274 89.8097 135.597 90.3423 136.119 90.739C136.651 91.1243 137.309 91.317 138.091 91.317C139.088 91.317 139.91 90.9883 140.556 90.331L141.695 91.64C141.287 92.1273 140.771 92.4957 140.148 92.745C139.524 92.9943 138.822 93.119 138.04 93.119C137.042 93.119 136.164 92.9207 135.405 92.524C134.645 92.1273 134.056 91.5777 133.637 90.875C133.229 90.161 133.025 89.3563 133.025 88.461C133.025 87.577 133.223 86.7837 133.62 86.081C134.028 85.367 134.589 84.8117 135.303 84.415C136.017 84.0183 136.821 83.82 137.717 83.82C138.601 83.82 139.388 84.0183 140.08 84.415C140.782 84.8003 141.326 85.35 141.712 86.064C142.108 86.7667 142.307 87.5827 142.307 88.512ZM137.717 85.52C137.037 85.52 136.459 85.724 135.983 86.132C135.518 86.5287 135.235 87.0613 135.133 87.73H140.284C140.193 87.0727 139.915 86.54 139.451 86.132C138.986 85.724 138.408 85.52 137.717 85.52ZM147.997 89.362H146.348V93H144.223V83.922H146.348V87.594H148.048L150.734 83.922H153.012L149.714 88.291L153.233 93H150.734L147.997 89.362ZM161.398 85.724H158.219V93H156.094V85.724H152.898V83.922H161.398V85.724ZM165.915 83.82C167.252 83.82 168.272 84.143 168.975 84.789C169.689 85.4237 170.046 86.387 170.046 87.679V93H168.04V91.895C167.779 92.2917 167.405 92.5977 166.918 92.813C166.442 93.017 165.864 93.119 165.184 93.119C164.504 93.119 163.909 93.0057 163.399 92.779C162.889 92.541 162.492 92.218 162.209 91.81C161.937 91.3907 161.801 90.9203 161.801 90.399C161.801 89.583 162.101 88.9313 162.702 88.444C163.314 87.9453 164.272 87.696 165.575 87.696H167.921V87.56C167.921 86.9253 167.728 86.438 167.343 86.098C166.969 85.758 166.408 85.588 165.66 85.588C165.15 85.588 164.646 85.6673 164.147 85.826C163.66 85.9847 163.246 86.2057 162.906 86.489L162.073 84.942C162.549 84.5793 163.121 84.3017 163.79 84.109C164.459 83.9163 165.167 83.82 165.915 83.82ZM165.626 91.572C166.159 91.572 166.629 91.453 167.037 91.215C167.456 90.9657 167.751 90.6143 167.921 90.161V89.107H165.728C164.504 89.107 163.892 89.5093 163.892 90.314C163.892 90.6993 164.045 91.0053 164.351 91.232C164.657 91.4587 165.082 91.572 165.626 91.572ZM177.945 93L175.616 89.855L173.27 93H170.924L174.46 88.393L171.077 83.922H173.44L175.667 86.897L177.894 83.922H180.189L176.789 88.359L180.342 93H177.945Z" fill="white"/>
<path d="M283.473 99.642H282.444V101H282.094V99.642H279.301V99.383L281.961 96.1H282.36L279.749 99.327H282.101V98.13H282.444V99.327H283.473V99.642ZM285.517 98.102C285.839 98.102 286.124 98.1627 286.371 98.284C286.623 98.4007 286.817 98.571 286.952 98.795C287.087 99.0143 287.155 99.2687 287.155 99.558C287.155 99.852 287.085 100.111 286.945 100.335C286.805 100.559 286.611 100.732 286.364 100.853C286.117 100.974 285.837 101.035 285.524 101.035C284.889 101.035 284.402 100.82 284.061 100.391C283.725 99.957 283.557 99.3527 283.557 98.578C283.557 98.0367 283.646 97.5793 283.823 97.206C284.005 96.828 284.259 96.5433 284.586 96.352C284.913 96.1607 285.295 96.065 285.734 96.065C286.196 96.065 286.567 96.149 286.847 96.317L286.7 96.604C286.467 96.4547 286.145 96.38 285.734 96.38C285.169 96.38 284.724 96.5643 284.397 96.933C284.075 97.297 283.914 97.8267 283.914 98.522C283.914 98.7367 283.928 98.9327 283.956 99.11C284.054 98.7927 284.243 98.5453 284.523 98.368C284.808 98.1907 285.139 98.102 285.517 98.102ZM285.51 100.727C285.893 100.727 286.203 100.622 286.441 100.412C286.679 100.197 286.798 99.915 286.798 99.565C286.798 99.215 286.679 98.935 286.441 98.725C286.203 98.515 285.879 98.41 285.468 98.41C285.207 98.41 284.971 98.4613 284.761 98.564C284.556 98.6667 284.395 98.8067 284.278 98.984C284.166 99.1613 284.11 99.3597 284.11 99.579C284.11 99.775 284.164 99.9617 284.271 100.139C284.383 100.316 284.544 100.459 284.754 100.566C284.964 100.673 285.216 100.727 285.51 100.727ZM289.192 95.106H289.514L287.204 101.7H286.882L289.192 95.106ZM292.532 100.678V101H289.165V100.748L291.237 98.69C291.507 98.4193 291.689 98.1883 291.783 97.997C291.881 97.801 291.93 97.6003 291.93 97.395C291.93 97.0823 291.822 96.8373 291.608 96.66C291.398 96.4827 291.092 96.394 290.691 96.394C290.383 96.394 290.112 96.4407 289.879 96.534C289.65 96.6273 289.452 96.7697 289.284 96.961L289.032 96.737C289.218 96.5223 289.454 96.3567 289.739 96.24C290.028 96.1233 290.355 96.065 290.719 96.065C291.199 96.065 291.582 96.1817 291.867 96.415C292.151 96.6483 292.294 96.9633 292.294 97.36C292.294 97.612 292.238 97.8523 292.126 98.081C292.014 98.3097 291.804 98.5757 291.496 98.879L289.69 100.678H292.532ZM294.69 101.035C294.316 101.035 293.983 100.935 293.689 100.734C293.399 100.529 293.173 100.239 293.01 99.866C292.851 99.4927 292.772 99.054 292.772 98.55C292.772 98.046 292.851 97.6073 293.01 97.234C293.173 96.8607 293.399 96.5737 293.689 96.373C293.983 96.1677 294.316 96.065 294.69 96.065C295.063 96.065 295.394 96.1677 295.684 96.373C295.978 96.5737 296.204 96.8607 296.363 97.234C296.526 97.6073 296.608 98.046 296.608 98.55C296.608 99.054 296.526 99.4927 296.363 99.866C296.204 100.239 295.978 100.529 295.684 100.734C295.394 100.935 295.063 101.035 294.69 101.035ZM294.69 100.706C294.998 100.706 295.268 100.622 295.502 100.454C295.74 100.281 295.924 100.034 296.055 99.712C296.185 99.3853 296.251 98.998 296.251 98.55C296.251 98.102 296.185 97.717 296.055 97.395C295.924 97.0683 295.74 96.821 295.502 96.653C295.268 96.4803 294.998 96.394 294.69 96.394C294.382 96.394 294.109 96.4803 293.871 96.653C293.637 96.821 293.455 97.0683 293.325 97.395C293.194 97.717 293.129 98.102 293.129 98.55C293.129 98.998 293.194 99.3853 293.325 99.712C293.455 100.034 293.637 100.281 293.871 100.454C294.109 100.622 294.382 100.706 294.69 100.706ZM298.889 101.035C298.516 101.035 298.182 100.935 297.888 100.734C297.599 100.529 297.372 100.239 297.209 99.866C297.05 99.4927 296.971 99.054 296.971 98.55C296.971 98.046 297.05 97.6073 297.209 97.234C297.372 96.8607 297.599 96.5737 297.888 96.373C298.182 96.1677 298.516 96.065 298.889 96.065C299.262 96.065 299.594 96.1677 299.883 96.373C300.177 96.5737 300.403 96.8607 300.562 97.234C300.725 97.6073 300.807 98.046 300.807 98.55C300.807 99.054 300.725 99.4927 300.562 99.866C300.403 100.239 300.177 100.529 299.883 100.734C299.594 100.935 299.262 101.035 298.889 101.035ZM298.889 100.706C299.197 100.706 299.468 100.622 299.701 100.454C299.939 100.281 300.123 100.034 300.254 99.712C300.385 99.3853 300.45 98.998 300.45 98.55C300.45 98.102 300.385 97.717 300.254 97.395C300.123 97.0683 299.939 96.821 299.701 96.653C299.468 96.4803 299.197 96.394 298.889 96.394C298.581 96.394 298.308 96.4803 298.07 96.653C297.837 96.821 297.655 97.0683 297.524 97.395C297.393 97.717 297.328 98.102 297.328 98.55C297.328 98.998 297.393 99.3853 297.524 99.712C297.655 100.034 297.837 100.281 298.07 100.454C298.308 100.622 298.581 100.706 298.889 100.706Z" fill="white"/>
</g>
<defs>
<filter id="filter0_b_12_292" x="-12" y="-12" width="354" height="132" filterUnits="userSpaceOnUse" color-interpolation-filters="sRGB">
<feFlood flood-opacity="0" result="BackgroundImageFix"/>
<feGaussianBlur in="BackgroundImageFix" stdDeviation="6"/>
<feComposite in2="SourceAlpha" operator="in" result="effect1_backgroundBlur_12_292"/>
<feBlend mode="normal" in="SourceGraphic" in2="effect1_backgroundBlur_12_292" result="shape"/>
</filter>
</defs>
</svg>
