<svg width="113" height="13" viewBox="0 0 113 13" fill="none" xmlns="http://www.w3.org/2000/svg">
<path d="M0.287 0.899999H1.951V7.361L6.839 0.899999H8.412V10H6.748V3.552L1.86 10H0.287V0.899999ZM14.2215 2.98C14.8975 2.98 15.4998 3.12733 16.0285 3.422C16.5658 3.71667 16.9861 4.13267 17.2895 4.67C17.5928 5.20733 17.7445 5.827 17.7445 6.529C17.7445 7.231 17.5928 7.855 17.2895 8.401C16.9861 8.93833 16.5658 9.35433 16.0285 9.649C15.4998 9.94367 14.8975 10.091 14.2215 10.091C13.2855 10.091 12.5445 9.779 11.9985 9.155V12.522H10.3735V3.058H11.9205V3.968C12.1891 3.63867 12.5185 3.39167 12.9085 3.227C13.3071 3.06233 13.7448 2.98 14.2215 2.98ZM14.0395 8.7C14.6375 8.7 15.1271 8.50067 15.5085 8.102C15.8985 7.70333 16.0935 7.179 16.0935 6.529C16.0935 5.879 15.8985 5.35467 15.5085 4.956C15.1271 4.55733 14.6375 4.358 14.0395 4.358C13.6495 4.358 13.2985 4.449 12.9865 4.631C12.6745 4.80433 12.4275 5.05567 12.2455 5.385C12.0635 5.71433 11.9725 6.09567 11.9725 6.529C11.9725 6.96233 12.0635 7.34367 12.2455 7.673C12.4275 8.00233 12.6745 8.258 12.9865 8.44C13.2985 8.61333 13.6495 8.7 14.0395 8.7ZM18.9537 3.058H20.5787V7.634L24.4137 3.058H25.8957V10H24.2707V5.424L20.4487 10H18.9537V3.058ZM27.6737 3.058H29.2987V5.879H32.7957V3.058H34.4207V10H32.7957V7.257H29.2987V10H27.6737V3.058ZM38.7775 2.98C39.8001 2.98 40.5801 3.227 41.1175 3.721C41.6635 4.20633 41.9365 4.943 41.9365 5.931V10H40.4025V9.155C40.2031 9.45833 39.9171 9.69233 39.5445 9.857C39.1805 10.013 38.7385 10.091 38.2185 10.091C37.6985 10.091 37.2435 10.0043 36.8535 9.831C36.4635 9.649 36.1601 9.402 35.9435 9.09C35.7355 8.76933 35.6315 8.40967 35.6315 8.011C35.6315 7.387 35.8611 6.88867 36.3205 6.516C36.7885 6.13467 37.5208 5.944 38.5175 5.944H40.3115V5.84C40.3115 5.35467 40.1641 4.982 39.8695 4.722C39.5835 4.462 39.1545 4.332 38.5825 4.332C38.1925 4.332 37.8068 4.39267 37.4255 4.514C37.0528 4.63533 36.7365 4.80433 36.4765 5.021L35.8395 3.838C36.2035 3.56067 36.6411 3.34833 37.1525 3.201C37.6638 3.05367 38.2055 2.98 38.7775 2.98ZM38.5565 8.908C38.9638 8.908 39.3235 8.817 39.6355 8.635C39.9561 8.44433 40.1815 8.17567 40.3115 7.829V7.023H38.6345C37.6985 7.023 37.2305 7.33067 37.2305 7.946C37.2305 8.24067 37.3475 8.47467 37.5815 8.648C37.8155 8.82133 38.1405 8.908 38.5565 8.908ZM51.0921 10.13C50.1734 10.13 49.3414 9.93067 48.5961 9.532C47.8594 9.12467 47.2787 8.56567 46.8541 7.855C46.4381 7.14433 46.2301 6.34267 46.2301 5.45C46.2301 4.55733 46.4424 3.75567 46.8671 3.045C47.2917 2.33433 47.8724 1.77967 48.6091 1.381C49.3544 0.973666 50.1864 0.77 51.1051 0.77C51.8504 0.77 52.5307 0.9 53.1461 1.16C53.7614 1.42 54.2814 1.797 54.7061 2.291L53.6141 3.318C52.9554 2.60733 52.1451 2.252 51.1831 2.252C50.5591 2.252 50.0001 2.39067 49.5061 2.668C49.0121 2.93667 48.6264 3.31367 48.3491 3.799C48.0717 4.28433 47.9331 4.83467 47.9331 5.45C47.9331 6.06533 48.0717 6.61567 48.3491 7.101C48.6264 7.58633 49.0121 7.96767 49.5061 8.245C50.0001 8.51367 50.5591 8.648 51.1831 8.648C52.1451 8.648 52.9554 8.28833 53.6141 7.569L54.7061 8.609C54.2814 9.103 53.7571 9.48 53.1331 9.74C52.5177 10 51.8374 10.13 51.0921 10.13ZM62.5102 10V5.398L60.1702 9.272H59.4682L57.1672 5.385V10H55.6852V3.058H57.3882L59.8582 7.4L62.4452 3.058H63.9662L63.9792 10H62.5102ZM65.7509 3.058H67.3759V7.634L71.2109 3.058H72.6929V10H71.0679V5.424L67.2459 10H65.7509V3.058ZM78.3188 2.98C78.9948 2.98 79.5971 3.12733 80.1258 3.422C80.6631 3.71667 81.0835 4.13267 81.3868 4.67C81.6901 5.20733 81.8418 5.827 81.8418 6.529C81.8418 7.231 81.6901 7.855 81.3868 8.401C81.0835 8.93833 80.6631 9.35433 80.1258 9.649C79.5971 9.94367 78.9948 10.091 78.3188 10.091C77.3828 10.091 76.6418 9.779 76.0958 9.155V12.522H74.4708V3.058H76.0178V3.968C76.2865 3.63867 76.6158 3.39167 77.0058 3.227C77.4045 3.06233 77.8421 2.98 78.3188 2.98ZM78.1368 8.7C78.7348 8.7 79.2245 8.50067 79.6058 8.102C79.9958 7.70333 80.1908 7.179 80.1908 6.529C80.1908 5.879 79.9958 5.35467 79.6058 4.956C79.2245 4.55733 78.7348 4.358 78.1368 4.358C77.7468 4.358 77.3958 4.449 77.0838 4.631C76.7718 4.80433 76.5248 5.05567 76.3428 5.385C76.1608 5.71433 76.0698 6.09567 76.0698 6.529C76.0698 6.96233 76.1608 7.34367 76.3428 7.673C76.5248 8.00233 76.7718 8.258 77.0838 8.44C77.3958 8.61333 77.7468 8.7 78.1368 8.7ZM83.0511 3.058H84.6761V5.879H88.1731V3.058H89.7981V10H88.1731V7.257H84.6761V10H83.0511V3.058ZM94.6619 10.091C93.9599 10.091 93.3272 9.93933 92.7639 9.636C92.2005 9.33267 91.7585 8.91233 91.4379 8.375C91.1259 7.829 90.9699 7.21367 90.9699 6.529C90.9699 5.84433 91.1259 5.23333 91.4379 4.696C91.7585 4.15867 92.2005 3.73833 92.7639 3.435C93.3272 3.13167 93.9599 2.98 94.6619 2.98C95.3725 2.98 96.0095 3.13167 96.5729 3.435C97.1362 3.73833 97.5739 4.15867 97.8859 4.696C98.2065 5.23333 98.3669 5.84433 98.3669 6.529C98.3669 7.21367 98.2065 7.829 97.8859 8.375C97.5739 8.91233 97.1362 9.33267 96.5729 9.636C96.0095 9.93933 95.3725 10.091 94.6619 10.091ZM94.6619 8.7C95.2599 8.7 95.7539 8.50067 96.1439 8.102C96.5339 7.70333 96.7289 7.179 96.7289 6.529C96.7289 5.879 96.5339 5.35467 96.1439 4.956C95.7539 4.55733 95.2599 4.358 94.6619 4.358C94.0639 4.358 93.5699 4.55733 93.1799 4.956C92.7985 5.35467 92.6079 5.879 92.6079 6.529C92.6079 7.179 92.7985 7.70333 93.1799 8.102C93.5699 8.50067 94.0639 8.7 94.6619 8.7ZM104.595 6.386C105.453 6.646 105.882 7.20067 105.882 8.05C105.882 8.674 105.648 9.155 105.18 9.493C104.712 9.831 104.019 10 103.1 10H99.5642V3.058H102.957C103.807 3.058 104.47 3.214 104.946 3.526C105.423 3.838 105.661 4.28 105.661 4.852C105.661 5.20733 105.566 5.515 105.375 5.775C105.193 6.035 104.933 6.23867 104.595 6.386ZM101.111 5.957H102.814C103.655 5.957 104.075 5.66667 104.075 5.086C104.075 4.52267 103.655 4.241 102.814 4.241H101.111V5.957ZM102.97 8.817C103.863 8.817 104.309 8.52667 104.309 7.946C104.309 7.64267 104.205 7.41733 103.997 7.27C103.789 7.114 103.464 7.036 103.022 7.036H101.111V8.817H102.97ZM109.792 2.98C110.815 2.98 111.595 3.227 112.132 3.721C112.678 4.20633 112.951 4.943 112.951 5.931V10H111.417V9.155C111.218 9.45833 110.932 9.69233 110.559 9.857C110.195 10.013 109.753 10.091 109.233 10.091C108.713 10.091 108.258 10.0043 107.868 9.831C107.478 9.649 107.175 9.402 106.958 9.09C106.75 8.76933 106.646 8.40967 106.646 8.011C106.646 7.387 106.876 6.88867 107.335 6.516C107.803 6.13467 108.535 5.944 109.532 5.944H111.326V5.84C111.326 5.35467 111.179 4.982 110.884 4.722C110.598 4.462 110.169 4.332 109.597 4.332C109.207 4.332 108.821 4.39267 108.44 4.514C108.067 4.63533 107.751 4.80433 107.491 5.021L106.854 3.838C107.218 3.56067 107.656 3.34833 108.167 3.201C108.678 3.05367 109.22 2.98 109.792 2.98ZM109.571 8.908C109.978 8.908 110.338 8.817 110.65 8.635C110.971 8.44433 111.196 8.17567 111.326 7.829V7.023H109.649C108.713 7.023 108.245 7.33067 108.245 7.946C108.245 8.24067 108.362 8.47467 108.596 8.648C108.83 8.82133 109.155 8.908 109.571 8.908Z" fill="white"/>
</svg>
