<svg width="55" height="14" viewBox="0 0 55 14" fill="none" xmlns="http://www.w3.org/2000/svg">
<path d="M5.052 7.985H2.842V13H0.666V1.1H2.842V6.081H5.12L8.537 1.1H10.883L6.82 6.863L11.036 13H8.537L5.052 7.985ZM20.2739 8.512C20.2739 8.65933 20.2626 8.869 20.2399 9.141H13.1169C13.2416 9.80967 13.5646 10.3423 14.0859 10.739C14.6186 11.1243 15.2759 11.317 16.0579 11.317C17.0552 11.317 17.8769 10.9883 18.5229 10.331L19.6619 11.64C19.2539 12.1273 18.7382 12.4957 18.1149 12.745C17.4916 12.9943 16.7889 13.119 16.0069 13.119C15.0096 13.119 14.1312 12.9207 13.3719 12.524C12.6126 12.1273 12.0232 11.5777 11.6039 10.875C11.1959 10.161 10.9919 9.35633 10.9919 8.461C10.9919 7.577 11.1902 6.78367 11.5869 6.081C11.9949 5.367 12.5559 4.81167 13.2699 4.415C13.9839 4.01833 14.7886 3.82 15.6839 3.82C16.5679 3.82 17.3556 4.01833 18.0469 4.415C18.7496 4.80033 19.2936 5.35 19.6789 6.064C20.0756 6.76667 20.2739 7.58267 20.2739 8.512ZM15.6839 5.52C15.0039 5.52 14.4259 5.724 13.9499 6.132C13.4852 6.52867 13.2019 7.06133 13.0999 7.73H18.2509C18.1602 7.07267 17.8826 6.54 17.4179 6.132C16.9532 5.724 16.3752 5.52 15.6839 5.52ZM22.1901 3.922H24.3151V9.906L29.3301 3.922H31.2681V13H29.1431V7.016L24.1451 13H22.1901V3.922ZM26.5931 2.851C25.6751 2.851 24.9725 2.64133 24.4851 2.222C24.0091 1.79133 23.7655 1.168 23.7541 0.352H25.1651C25.1765 0.76 25.3011 1.083 25.5391 1.321C25.7885 1.559 26.1341 1.678 26.5761 1.678C27.0068 1.678 27.3468 1.559 27.5961 1.321C27.8568 1.083 27.9928 0.76 28.0041 0.352H29.4491C29.4378 1.168 29.1885 1.79133 28.7011 2.222C28.2138 2.64133 27.5111 2.851 26.5931 2.851ZM37.8496 13.119C36.909 13.119 36.0646 12.9207 35.3166 12.524C34.5686 12.1273 33.985 11.5777 33.5656 10.875C33.1463 10.161 32.9366 9.35633 32.9366 8.461C32.9366 7.56567 33.1463 6.76667 33.5656 6.064C33.985 5.36133 34.563 4.81167 35.2996 4.415C36.0476 4.01833 36.8976 3.82 37.8496 3.82C38.745 3.82 39.527 4.00133 40.1956 4.364C40.8757 4.72667 41.3856 5.248 41.7256 5.928L40.0936 6.88C39.833 6.46067 39.5043 6.149 39.1076 5.945C38.7223 5.72967 38.2973 5.622 37.8326 5.622C37.0393 5.622 36.382 5.88267 35.8606 6.404C35.3393 6.914 35.0786 7.59967 35.0786 8.461C35.0786 9.32233 35.3336 10.0137 35.8436 10.535C36.365 11.045 37.028 11.3 37.8326 11.3C38.2973 11.3 38.7223 11.198 39.1076 10.994C39.5043 10.7787 39.833 10.4613 40.0936 10.042L41.7256 10.994C41.3743 11.674 40.8587 12.201 40.1786 12.575C39.51 12.9377 38.7336 13.119 37.8496 13.119ZM47.6086 6.914C48.7646 6.914 49.6486 7.17467 50.2606 7.696C50.8726 8.21733 51.1786 8.954 51.1786 9.906C51.1786 10.9033 50.8386 11.674 50.1586 12.218C49.4899 12.762 48.5379 13.0283 47.3026 13.017L43.1886 13V3.922H45.3136V6.897L47.6086 6.914ZM52.3516 3.922H54.4766V13H52.3516V3.922ZM47.1156 11.453C47.7389 11.4643 48.2149 11.334 48.5436 11.062C48.8722 10.79 49.0366 10.3933 49.0366 9.872C49.0366 9.362 48.8779 8.988 48.5606 8.75C48.2432 8.512 47.7616 8.38733 47.1156 8.376L45.3136 8.359V11.436L47.1156 11.453Z" fill="white"/>
</svg>
