<svg width="155" height="50" viewBox="0 0 155 50" fill="none" xmlns="http://www.w3.org/2000/svg">
<g filter="url(#filter0_b_12_338)">
<rect width="155" height="50" rx="15" fill="white" fill-opacity="0.3"/>
<g clip-path="url(#clip0_12_338)">
<path d="M20.8612 10.0052L21.7725 10.0015H26.2275L27.14 10.0052L28.2825 10.0177L28.8237 10.0265L29.3463 10.0402L29.85 10.0577L30.335 10.0777L30.8025 10.104L31.2525 10.1352L31.6838 10.1727L32.1 10.214C34.275 10.459 35.7663 10.984 36.8913 12.109C38.0162 13.234 38.5413 14.724 38.7863 16.9002L38.8288 17.3165L38.865 17.749L38.8962 18.199L38.9212 18.6652L38.9525 19.4002L38.9675 19.9127L38.9837 20.7177L38.995 21.8615L39 23.0865L38.9988 27.2277L38.995 28.1402L38.9825 29.2827L38.9738 29.824L38.96 30.3465L38.9425 30.8502L38.9225 31.3352L38.8962 31.8027L38.865 32.2527L38.8275 32.684L38.7863 33.1002C38.5413 35.2752 38.0162 36.7665 36.8913 37.8915C35.7663 39.0165 34.2762 39.5415 32.1 39.7865L31.6838 39.829L31.2513 39.8652L30.8013 39.8965L30.335 39.9215L29.6 39.9527L29.0875 39.9677L28.2825 39.984L27.1388 39.9952L25.9137 40.0002L21.7725 39.999L20.86 39.9952L19.7175 39.9827L19.1762 39.974L18.6538 39.9602L18.15 39.9427L17.665 39.9227L17.1975 39.8965L16.7475 39.8652L16.3163 39.8277L15.9 39.7865C13.725 39.5415 12.2338 39.0165 11.1088 37.8915C9.98375 36.7665 9.45875 35.2765 9.21375 33.1002L9.17125 32.684L9.135 32.2515L9.10375 31.8015L9.07875 31.3352L9.0475 30.6002L9.0325 30.0877L9.01625 29.2827L9.005 28.139L9 26.914L9.00125 22.7727L9.005 21.8602L9.0175 20.7177L9.02625 20.1765L9.04 19.654L9.0575 19.1502L9.0775 18.6652L9.10375 18.1977L9.135 17.7477L9.1725 17.3165L9.21375 16.9002C9.45875 14.7252 9.98375 13.234 11.1088 12.109C12.2338 10.984 13.7238 10.459 15.9 10.214L16.3163 10.1715L16.7487 10.1352L17.1987 10.104L17.665 10.079L18.4 10.0477L18.9125 10.0327L19.7175 10.0165L20.8612 10.0052ZM17.4875 19.1252H14.0625C14.225 26.9252 18.125 31.6127 24.9625 31.6127H25.35V27.1502C27.8625 27.4002 29.7625 29.2377 30.525 31.6127H34.075C33.1 28.0627 30.5375 26.1002 28.9375 25.3502C30.5375 24.4252 32.7875 22.1752 33.325 19.1252H30.1C29.4 21.6002 27.325 23.8502 25.35 24.0627V19.1252H22.125V27.7752C20.125 27.2752 17.6 24.8502 17.4875 19.1252Z" fill="#699BF7"/>
</g>
<path d="M61 12.5C54.1 12.5 48.5 18.1 48.5 25C48.5 31.9 54.1 37.5 61 37.5C67.9 37.5 73.5 31.9 73.5 25C73.5 18.1 67.9 12.5 61 12.5ZM66.8 21C66.6125 22.975 65.8 27.775 65.3875 29.9875C65.2125 30.925 64.8625 31.2375 64.5375 31.275C63.8125 31.3375 63.2625 30.8 62.5625 30.3375C61.4625 29.6125 60.8375 29.1625 59.775 28.4625C58.5375 27.65 59.3375 27.2 60.05 26.475C60.2375 26.2875 63.4375 23.375 63.5 23.1125C63.5087 23.0727 63.5075 23.0315 63.4966 22.9923C63.4857 22.953 63.4654 22.9171 63.4375 22.8875C63.3625 22.825 63.2625 22.85 63.175 22.8625C63.0625 22.8875 61.3125 24.05 57.9 26.35C57.4 26.6875 56.95 26.8625 56.55 26.85C56.1 26.8375 55.25 26.6 54.6125 26.3875C53.825 26.1375 53.2125 26 53.2625 25.5625C53.2875 25.3375 53.6 25.1125 54.1875 24.875C57.8375 23.2875 60.2625 22.2375 61.475 21.7375C64.95 20.2875 65.6625 20.0375 66.1375 20.0375C66.2375 20.0375 66.475 20.0625 66.625 20.1875C66.75 20.2875 66.7875 20.425 66.8 20.525C66.7875 20.6 66.8125 20.825 66.8 21Z" fill="#699BF7"/>
<path d="M92.9561 17.7525C92.7237 17.7187 92.4869 17.7654 92.2848 17.885H92.2673C91.7986 18.16 91.3761 18.5063 91.0161 18.9138C90.7161 19.26 90.5536 19.61 90.5111 19.9475C90.4861 20.1475 90.5036 20.35 90.5623 20.5412L90.5848 20.5538C90.9223 21.545 91.3623 22.4988 91.8998 23.3962C92.5929 24.6569 93.4458 25.8227 94.4373 26.865L94.4673 26.9075L94.5148 26.9425L94.5436 26.9763L94.5786 27.0062C95.6245 28.0008 96.7931 28.8577 98.0561 29.5563C99.4998 30.3425 100.376 30.7137 100.902 30.8687V30.8763C101.056 30.9237 101.196 30.945 101.337 30.945C101.785 30.9119 102.21 30.7297 102.542 30.4275C102.949 30.0675 103.292 29.6438 103.56 29.1725V29.1638C103.811 28.6888 103.726 28.2413 103.364 27.9375C102.635 27.3013 101.848 26.7362 101.012 26.25C100.452 25.9462 99.8836 26.13 99.6536 26.4375L99.1623 27.0575C98.9098 27.365 98.4523 27.3225 98.4523 27.3225L98.4398 27.33C95.0261 26.4588 94.1148 23.0025 94.1148 23.0025C94.1148 23.0025 94.0723 22.5325 94.3886 22.2925L95.0036 21.7975C95.2986 21.5575 95.5036 20.99 95.1873 20.43C94.7043 19.5935 94.1404 18.8063 93.5036 18.08C93.3647 17.9091 93.1699 17.7926 92.9536 17.7513L92.9561 17.7525ZM98.7248 16.25C98.5591 16.25 98.4001 16.3158 98.2829 16.4331C98.1657 16.5503 98.0998 16.7092 98.0998 16.875C98.0998 17.0408 98.1657 17.1997 98.2829 17.3169C98.4001 17.4342 98.5591 17.5 98.7248 17.5C100.305 17.5 101.617 18.0162 102.656 19.0062C103.19 19.5475 103.606 20.1888 103.879 20.8913C104.152 21.595 104.277 22.3463 104.245 23.0988C104.238 23.2645 104.297 23.4262 104.409 23.5484C104.522 23.6705 104.678 23.743 104.844 23.75C105.009 23.757 105.171 23.6978 105.293 23.5855C105.415 23.4732 105.488 23.317 105.495 23.1512C105.534 22.2256 105.38 21.302 105.044 20.4387C104.706 19.5714 104.193 18.7826 103.539 18.1213L103.526 18.1087C102.237 16.8775 100.607 16.25 98.7248 16.25Z" fill="#9747FF"/>
<path d="M98.6812 18.305C98.5154 18.305 98.3564 18.3708 98.2392 18.488C98.122 18.6052 98.0562 18.7642 98.0562 18.93C98.0562 19.0957 98.122 19.2547 98.2392 19.3719C98.3564 19.4891 98.5154 19.555 98.6812 19.555H98.7024C99.8424 19.6362 100.672 20.0162 101.254 20.64C101.85 21.2825 102.159 22.0812 102.135 23.0687C102.131 23.2345 102.193 23.395 102.308 23.5149C102.422 23.6348 102.58 23.7043 102.746 23.7081C102.911 23.7119 103.072 23.6497 103.192 23.5352C103.312 23.4207 103.381 23.2632 103.385 23.0975C103.415 21.8012 102.997 20.6825 102.17 19.79V19.7875C101.324 18.88 100.162 18.4 98.7649 18.3062L98.7437 18.3037L98.6812 18.305Z" fill="#9747FF"/>
<path d="M98.6575 20.3988C98.5738 20.3914 98.4896 20.4009 98.4097 20.4269C98.3298 20.4528 98.256 20.4945 98.1926 20.5496C98.1292 20.6047 98.0776 20.6719 98.0408 20.7474C98.004 20.8229 97.9828 20.905 97.9784 20.9888C97.974 21.0727 97.9866 21.1566 98.0154 21.2355C98.0441 21.3143 98.0885 21.3866 98.1458 21.448C98.2031 21.5094 98.2722 21.5585 98.3489 21.5926C98.4257 21.6267 98.5085 21.6449 98.5925 21.6463C99.115 21.6738 99.4487 21.8313 99.6587 22.0425C99.87 22.255 100.027 22.5963 100.056 23.13C100.058 23.2139 100.076 23.2966 100.11 23.3732C100.145 23.4498 100.194 23.5187 100.255 23.5759C100.317 23.6331 100.389 23.6773 100.468 23.7059C100.547 23.7345 100.63 23.747 100.714 23.7425C100.798 23.7381 100.88 23.7168 100.955 23.68C101.031 23.6432 101.098 23.5916 101.153 23.5282C101.208 23.4649 101.25 23.3911 101.276 23.3113C101.301 23.2315 101.311 23.1473 101.304 23.0638C101.264 22.3138 101.029 21.6513 100.547 21.1638C100.064 20.6763 99.405 20.4388 98.6575 20.3988Z" fill="#9747FF"/>
<path fill-rule="evenodd" clip-rule="evenodd" d="M91.8335 12.98C95.8111 12.0908 99.9359 12.0908 103.914 12.98L104.337 13.0737C105.5 13.3336 106.568 13.9109 107.422 14.7412C108.277 15.5716 108.884 16.6226 109.177 17.7775C110.187 21.7561 110.187 25.9238 109.177 29.9025C108.884 31.0573 108.277 32.1083 107.422 32.9387C106.568 33.769 105.5 34.3463 104.337 34.6062L103.912 34.6999C101.421 35.2571 98.8647 35.467 96.316 35.3237L92.9998 38.2912C92.8747 38.4031 92.722 38.4795 92.5574 38.5122C92.3928 38.545 92.2224 38.5329 92.0641 38.4774C91.9057 38.4218 91.7652 38.3248 91.6571 38.1964C91.5491 38.068 91.4775 37.913 91.4498 37.7474L90.901 34.4699C89.8487 34.1425 88.898 33.5507 88.1397 32.7511C87.3814 31.9514 86.8409 30.9706 86.5698 29.9025C85.5601 25.9238 85.5601 21.7561 86.5698 17.7775C86.8628 16.6226 87.4703 15.5716 88.3247 14.7412C89.1791 13.9109 90.247 13.3336 91.4098 13.0737L91.8335 12.98ZM103.505 14.8087C99.7964 13.9797 95.9507 13.9797 92.2423 14.8087L91.8173 14.9037C90.9932 15.0883 90.2363 15.4976 89.6309 16.0864C89.0254 16.6751 88.5949 17.4201 88.3873 18.2387C87.4544 21.9146 87.4544 25.7653 88.3873 29.4412C88.595 30.26 89.0257 31.0051 89.6314 31.5938C90.2371 32.1826 90.9942 32.5918 91.8185 32.7762L91.931 32.8012C92.113 32.8419 92.2787 32.936 92.407 33.0713C92.5352 33.2067 92.6202 33.3773 92.651 33.5612L93.0185 35.7587L95.3585 33.6649C95.452 33.5811 95.5613 33.5169 95.68 33.4761C95.7988 33.4353 95.9245 33.4187 96.0498 33.4275C98.5486 33.6047 101.06 33.4173 103.505 32.8712L103.929 32.7762C104.753 32.5918 105.51 32.1826 106.116 31.5938C106.721 31.0051 107.152 30.26 107.36 29.4412C108.292 25.7662 108.292 21.915 107.36 18.2387C107.152 17.4199 106.721 16.6748 106.116 16.0861C105.51 15.4973 104.753 15.0881 103.929 14.9037L103.505 14.8087Z" fill="#9747FF"/>
<path d="M140.903 27.5752C140.584 27.4111 138.993 26.6318 138.697 26.5264C138.401 26.415 138.185 26.3623 137.971 26.6904C137.754 27.0156 137.139 27.7393 136.945 27.959C136.758 28.1758 136.567 28.2021 136.248 28.041C134.35 27.0918 133.104 26.3477 131.854 24.2002C131.522 23.6289 132.185 23.6699 132.803 22.4365C132.908 22.2197 132.855 22.0352 132.773 21.8711C132.691 21.707 132.047 20.1191 131.777 19.4717C131.517 18.8418 131.247 18.9297 131.051 18.918C130.863 18.9062 130.649 18.9062 130.433 18.9062C130.216 18.9062 129.867 18.9883 129.571 19.3076C129.275 19.6328 128.44 20.415 128.44 22.0029C128.44 23.5908 129.598 25.1289 129.756 25.3457C129.92 25.5625 132.032 28.8203 135.275 30.2236C137.326 31.1084 138.129 31.1846 139.154 31.0322C139.778 30.9385 141.064 30.2529 141.331 29.4941C141.598 28.7383 141.598 28.0908 141.519 27.9561C141.439 27.8125 141.223 27.7305 140.903 27.5752Z" fill="#4ECB71"/>
<path d="M147.106 19.9141C146.444 18.3408 145.494 16.9287 144.284 15.7158C143.074 14.5059 141.662 13.5537 140.086 12.8945C138.475 12.2178 136.764 11.875 135 11.875H134.942C133.166 11.8838 131.446 12.2354 129.829 12.9268C128.268 13.5947 126.867 14.5439 125.669 15.7539C124.471 16.9639 123.53 18.3701 122.88 19.9375C122.206 21.5605 121.866 23.2861 121.875 25.0615C121.884 27.0947 122.37 29.1133 123.281 30.918V35.3711C123.281 36.1152 123.885 36.7188 124.629 36.7188H129.085C130.89 37.6299 132.908 38.1162 134.942 38.125H135.003C136.758 38.125 138.46 37.7852 140.063 37.1201C141.63 36.4668 143.039 35.5293 144.246 34.3311C145.456 33.1328 146.408 31.7324 147.073 30.1709C147.765 28.5537 148.116 26.834 148.125 25.0586C148.134 23.2744 147.788 21.543 147.106 19.9141ZM142.679 32.7461C140.625 34.7793 137.901 35.8984 135 35.8984H134.95C133.184 35.8896 131.429 35.4502 129.879 34.624L129.633 34.4922H125.508V30.3672L125.376 30.1211C124.55 28.5713 124.111 26.8164 124.102 25.0498C124.09 22.1289 125.206 19.3867 127.254 17.3213C129.299 15.2559 132.032 14.1133 134.953 14.1016H135.003C136.468 14.1016 137.889 14.3857 139.228 14.9482C140.534 15.4961 141.706 16.2842 142.714 17.292C143.719 18.2969 144.51 19.4717 145.058 20.7783C145.626 22.1318 145.91 23.5674 145.904 25.0498C145.887 27.9678 144.741 30.7012 142.679 32.7461Z" fill="#4ECB71"/>
</g>
<defs>
<filter id="filter0_b_12_338" x="-12" y="-12" width="179" height="74" filterUnits="userSpaceOnUse" color-interpolation-filters="sRGB">
<feFlood flood-opacity="0" result="BackgroundImageFix"/>
<feGaussianBlur in="BackgroundImageFix" stdDeviation="6"/>
<feComposite in2="SourceAlpha" operator="in" result="effect1_backgroundBlur_12_338"/>
<feBlend mode="normal" in="SourceGraphic" in2="effect1_backgroundBlur_12_338" result="shape"/>
</filter>
<clipPath id="clip0_12_338">
<rect width="30" height="30" fill="white" transform="translate(9 10)"/>
</clipPath>
</defs>
</svg>
