<svg width="29" height="36" viewBox="0 0 29 36" fill="none" xmlns="http://www.w3.org/2000/svg">
<path d="M14.4 18C15.39 18 16.2378 17.6472 16.9434 16.9416C17.649 16.236 18.0012 15.3888 18 14.4C18 13.41 17.6472 12.5622 16.9416 11.8566C16.236 11.151 15.3888 10.7988 14.4 10.8C13.41 10.8 12.5622 11.1528 11.8566 11.8584C11.151 12.564 10.7988 13.4112 10.8 14.4C10.8 15.39 11.1528 16.2378 11.8584 16.9434C12.564 17.649 13.4112 18.0012 14.4 18ZM14.4 36C9.57 31.89 5.9628 28.0728 3.5784 24.5484C1.194 21.024 0.0012 17.7612 0 14.76C0 10.26 1.4478 6.675 4.3434 4.005C7.239 1.335 10.5912 0 14.4 0C18.21 0 21.5628 1.335 24.4584 4.005C27.354 6.675 28.8012 10.26 28.8 14.76C28.8 17.76 27.6072 21.0228 25.2216 24.5484C22.836 28.074 19.2288 31.8912 14.4 36Z" fill="url(#paint0_linear_36_2548)"/>
<defs>
<linearGradient id="paint0_linear_36_2548" x1="-1.89474" y1="-7.75643e-07" x2="47.8043" y2="1.36665" gradientUnits="userSpaceOnUse">
<stop stop-color="#FF4E50"/>
<stop offset="1" stop-color="#F9D423"/>
</linearGradient>
</defs>
</svg>
