<svg width="116" height="13" viewBox="0 0 116 13" fill="none" xmlns="http://www.w3.org/2000/svg">
<path d="M7.306 7.894H2.756L1.859 10H0.117L4.212 0.899999H5.876L9.984 10H8.216L7.306 7.894ZM6.747 6.568L5.031 2.59L3.328 6.568H6.747ZM10.7895 3.058H12.4145V5.879H15.9115V3.058H17.5365V10H15.9115V7.257H12.4145V10H10.7895V3.058ZM21.8933 2.98C22.9159 2.98 23.6959 3.227 24.2333 3.721C24.7793 4.20633 25.0523 4.943 25.0523 5.931V10H23.5183V9.155C23.3189 9.45833 23.0329 9.69233 22.6603 9.857C22.2963 10.013 21.8543 10.091 21.3343 10.091C20.8143 10.091 20.3593 10.0043 19.9693 9.831C19.5793 9.649 19.2759 9.402 19.0593 9.09C18.8513 8.76933 18.7473 8.40967 18.7473 8.011C18.7473 7.387 18.9769 6.88867 19.4363 6.516C19.9043 6.13467 20.6366 5.944 21.6333 5.944H23.4273V5.84C23.4273 5.35467 23.2799 4.982 22.9853 4.722C22.6993 4.462 22.2703 4.332 21.6983 4.332C21.3083 4.332 20.9226 4.39267 20.5413 4.514C20.1686 4.63533 19.8523 4.80433 19.5923 5.021L18.9553 3.838C19.3193 3.56067 19.7569 3.34833 20.2683 3.201C20.7796 3.05367 21.3213 2.98 21.8933 2.98ZM21.6723 8.908C22.0796 8.908 22.4393 8.817 22.7513 8.635C23.0719 8.44433 23.2973 8.17567 23.4273 7.829V7.023H21.7503C20.8143 7.023 20.3463 7.33067 20.3463 7.946C20.3463 8.24067 20.4633 8.47467 20.6973 8.648C20.9313 8.82133 21.2563 8.908 21.6723 8.908ZM29.8141 10.091C29.0948 10.091 28.4491 9.93933 27.8771 9.636C27.3051 9.33267 26.8588 8.91233 26.5381 8.375C26.2174 7.829 26.0571 7.21367 26.0571 6.529C26.0571 5.84433 26.2174 5.23333 26.5381 4.696C26.8588 4.15867 27.3008 3.73833 27.8641 3.435C28.4361 3.13167 29.0861 2.98 29.8141 2.98C30.4988 2.98 31.0968 3.11867 31.6081 3.396C32.1281 3.67333 32.5181 4.072 32.7781 4.592L31.5301 5.32C31.3308 4.99933 31.0794 4.761 30.7761 4.605C30.4814 4.44033 30.1564 4.358 29.8011 4.358C29.1944 4.358 28.6918 4.55733 28.2931 4.956C27.8944 5.346 27.6951 5.87033 27.6951 6.529C27.6951 7.18767 27.8901 7.71633 28.2801 8.115C28.6788 8.505 29.1858 8.7 29.8011 8.7C30.1564 8.7 30.4814 8.622 30.7761 8.466C31.0794 8.30133 31.3308 8.05867 31.5301 7.738L32.7781 8.466C32.5094 8.986 32.1151 9.389 31.5951 9.675C31.0838 9.95233 30.4901 10.091 29.8141 10.091ZM39.2363 4.436H36.8053V10H35.1803V4.436H32.7363V3.058H39.2363V4.436ZM42.5941 2.98C43.6167 2.98 44.3967 3.227 44.9341 3.721C45.4801 4.20633 45.7531 4.943 45.7531 5.931V10H44.2191V9.155C44.0197 9.45833 43.7337 9.69233 43.3611 9.857C42.9971 10.013 42.5551 10.091 42.0351 10.091C41.5151 10.091 41.0601 10.0043 40.6701 9.831C40.2801 9.649 39.9767 9.402 39.7601 9.09C39.5521 8.76933 39.4481 8.40967 39.4481 8.011C39.4481 7.387 39.6777 6.88867 40.1371 6.516C40.6051 6.13467 41.3374 5.944 42.3341 5.944H44.1281V5.84C44.1281 5.35467 43.9807 4.982 43.6861 4.722C43.4001 4.462 42.9711 4.332 42.3991 4.332C42.0091 4.332 41.6234 4.39267 41.2421 4.514C40.8694 4.63533 40.5531 4.80433 40.2931 5.021L39.6561 3.838C40.0201 3.56067 40.4577 3.34833 40.9691 3.201C41.4804 3.05367 42.0221 2.98 42.5941 2.98ZM42.3731 8.908C42.7804 8.908 43.1401 8.817 43.4521 8.635C43.7727 8.44433 43.9981 8.17567 44.1281 7.829V7.023H42.4511C41.5151 7.023 41.0471 7.33067 41.0471 7.946C41.0471 8.24067 41.1641 8.47467 41.3981 8.648C41.6321 8.82133 41.9571 8.908 42.3731 8.908ZM50.5149 10.091C49.7956 10.091 49.1499 9.93933 48.5779 9.636C48.0059 9.33267 47.5596 8.91233 47.2389 8.375C46.9182 7.829 46.7579 7.21367 46.7579 6.529C46.7579 5.84433 46.9182 5.23333 47.2389 4.696C47.5596 4.15867 48.0016 3.73833 48.5649 3.435C49.1369 3.13167 49.7869 2.98 50.5149 2.98C51.1996 2.98 51.7976 3.11867 52.3089 3.396C52.8289 3.67333 53.2189 4.072 53.4789 4.592L52.2309 5.32C52.0316 4.99933 51.7802 4.761 51.4769 4.605C51.1822 4.44033 50.8572 4.358 50.5019 4.358C49.8952 4.358 49.3926 4.55733 48.9939 4.956C48.5952 5.346 48.3959 5.87033 48.3959 6.529C48.3959 7.18767 48.5909 7.71633 48.9809 8.115C49.3796 8.505 49.8866 8.7 50.5019 8.7C50.8572 8.7 51.1822 8.622 51.4769 8.466C51.7802 8.30133 52.0316 8.05867 52.2309 7.738L53.4789 8.466C53.2102 8.986 52.8159 9.389 52.2959 9.675C51.7846 9.95233 51.1909 10.091 50.5149 10.091ZM54.5016 3.058H56.1266V7.634L59.9616 3.058H61.4436V10H59.8186V5.424L55.9966 10H54.5016V3.058ZM69.0846 3.058V10H67.6286V7.907H65.7956L64.3786 10H62.6366L64.2746 7.686C63.7719 7.51267 63.3862 7.24833 63.1176 6.893C62.8576 6.529 62.7276 6.08267 62.7276 5.554C62.7276 4.75667 63.0092 4.14133 63.5726 3.708C64.1359 3.27467 64.9116 3.058 65.8996 3.058H69.0846ZM65.9516 4.423C64.9029 4.423 64.3786 4.81733 64.3786 5.606C64.3786 6.386 64.8856 6.776 65.8996 6.776H67.6286V4.423H65.9516ZM80.4042 2.33H75.8932L75.9062 10H74.2422V0.899999H80.4172L80.4042 2.33ZM86.78 3.058L83.53 10.559C83.2267 11.313 82.8584 11.8417 82.425 12.145C81.9917 12.457 81.4674 12.613 80.852 12.613C80.5054 12.613 80.163 12.5567 79.825 12.444C79.487 12.3313 79.2097 12.1753 78.993 11.976L79.643 10.78C79.799 10.9273 79.981 11.0443 80.189 11.131C80.4057 11.2177 80.6224 11.261 80.839 11.261C81.125 11.261 81.359 11.1873 81.541 11.04C81.7317 10.8927 81.905 10.6457 82.061 10.299L82.178 10.026L79.149 3.058H80.839L83.023 8.193L85.22 3.058H86.78ZM90.4693 10.091C89.7499 10.091 89.1043 9.93933 88.5323 9.636C87.9603 9.33267 87.5139 8.91233 87.1933 8.375C86.8726 7.829 86.7123 7.21367 86.7123 6.529C86.7123 5.84433 86.8726 5.23333 87.1933 4.696C87.5139 4.15867 87.9559 3.73833 88.5193 3.435C89.0913 3.13167 89.7413 2.98 90.4693 2.98C91.1539 2.98 91.7519 3.11867 92.2633 3.396C92.7833 3.67333 93.1733 4.072 93.4333 4.592L92.1853 5.32C91.9859 4.99933 91.7346 4.761 91.4313 4.605C91.1366 4.44033 90.8116 4.358 90.4563 4.358C89.8496 4.358 89.3469 4.55733 88.9483 4.956C88.5496 5.346 88.3503 5.87033 88.3503 6.529C88.3503 7.18767 88.5453 7.71633 88.9353 8.115C89.3339 8.505 89.8409 8.7 90.4563 8.7C90.8116 8.7 91.1366 8.622 91.4313 8.466C91.7346 8.30133 91.9859 8.05867 92.1853 7.738L93.4333 8.466C93.1646 8.986 92.7703 9.389 92.2503 9.675C91.7389 9.95233 91.1453 10.091 90.4693 10.091ZM100.854 6.568C100.854 6.68067 100.846 6.841 100.828 7.049H95.3814C95.4767 7.56033 95.7237 7.96767 96.1224 8.271C96.5297 8.56567 97.0324 8.713 97.6304 8.713C98.3931 8.713 99.0214 8.46167 99.5154 7.959L100.386 8.96C100.074 9.33267 99.6801 9.61433 99.2034 9.805C98.7267 9.99567 98.1894 10.091 97.5914 10.091C96.8287 10.091 96.1571 9.93933 95.5764 9.636C94.9957 9.33267 94.5451 8.91233 94.2244 8.375C93.9124 7.829 93.7564 7.21367 93.7564 6.529C93.7564 5.853 93.9081 5.24633 94.2114 4.709C94.5234 4.163 94.9524 3.73833 95.4984 3.435C96.0444 3.13167 96.6597 2.98 97.3444 2.98C98.0204 2.98 98.6227 3.13167 99.1514 3.435C99.6887 3.72967 100.105 4.15 100.399 4.696C100.703 5.23333 100.854 5.85733 100.854 6.568ZM97.3444 4.28C96.8244 4.28 96.3824 4.436 96.0184 4.748C95.6631 5.05133 95.4464 5.45867 95.3684 5.97H99.3074C99.2381 5.46733 99.0257 5.06 98.6704 4.748C98.3151 4.436 97.8731 4.28 97.3444 4.28ZM107.255 6.386C108.113 6.646 108.542 7.20067 108.542 8.05C108.542 8.674 108.308 9.155 107.84 9.493C107.372 9.831 106.678 10 105.76 10H102.224V3.058H105.617C106.466 3.058 107.129 3.214 107.606 3.526C108.082 3.838 108.321 4.28 108.321 4.852C108.321 5.20733 108.225 5.515 108.035 5.775C107.853 6.035 107.593 6.23867 107.255 6.386ZM103.771 5.957H105.474C106.314 5.957 106.735 5.66667 106.735 5.086C106.735 4.52267 106.314 4.241 105.474 4.241H103.771V5.957ZM105.63 8.817C106.522 8.817 106.969 8.52667 106.969 7.946C106.969 7.64267 106.865 7.41733 106.657 7.27C106.449 7.114 106.124 7.036 105.682 7.036H103.771V8.817H105.63ZM112.452 2.98C113.474 2.98 114.254 3.227 114.792 3.721C115.338 4.20633 115.611 4.943 115.611 5.931V10H114.077V9.155C113.877 9.45833 113.591 9.69233 113.219 9.857C112.855 10.013 112.413 10.091 111.893 10.091C111.373 10.091 110.918 10.0043 110.528 9.831C110.138 9.649 109.834 9.402 109.618 9.09C109.41 8.76933 109.306 8.40967 109.306 8.011C109.306 7.387 109.535 6.88867 109.995 6.516C110.463 6.13467 111.195 5.944 112.192 5.944H113.986V5.84C113.986 5.35467 113.838 4.982 113.544 4.722C113.258 4.462 112.829 4.332 112.257 4.332C111.867 4.332 111.481 4.39267 111.1 4.514C110.727 4.63533 110.411 4.80433 110.151 5.021L109.514 3.838C109.878 3.56067 110.315 3.34833 110.827 3.201C111.338 3.05367 111.88 2.98 112.452 2.98ZM112.231 8.908C112.638 8.908 112.998 8.817 113.31 8.635C113.63 8.44433 113.856 8.17567 113.986 7.829V7.023H112.309C111.373 7.023 110.905 7.33067 110.905 7.946C110.905 8.24067 111.022 8.47467 111.256 8.648C111.49 8.82133 111.815 8.908 112.231 8.908Z" fill="white"/>
</svg>
