<svg width="231" height="42" viewBox="0 0 231 42" fill="none" xmlns="http://www.w3.org/2000/svg">
<rect width="231" height="42" rx="15" fill="url(#paint0_linear_12_321)"/>
<path d="M22.926 25.274H14.876L13.289 29H10.207L17.452 12.9H20.396L27.664 29H24.536L22.926 25.274ZM21.937 22.928L18.901 15.89L15.888 22.928H21.937ZM29.4029 16.718H32.2779V21.709H38.4649V16.718H41.3399V29H38.4649V24.147H32.2779V29H29.4029V16.718ZM49.3619 16.58C51.1713 16.58 52.5513 17.017 53.5019 17.891C54.4679 18.7497 54.9509 20.053 54.9509 21.801V29H52.2369V27.505C51.8843 28.0417 51.3783 28.4557 50.7189 28.747C50.0749 29.023 49.2929 29.161 48.3729 29.161C47.4529 29.161 46.6479 29.0077 45.9579 28.701C45.2679 28.379 44.7313 27.942 44.3479 27.39C43.9799 26.8227 43.7959 26.1863 43.7959 25.481C43.7959 24.377 44.2023 23.4953 45.0149 22.836C45.8429 22.1613 47.1386 21.824 48.9019 21.824H52.0759V21.64C52.0759 20.7813 51.8153 20.122 51.2939 19.662C50.7879 19.202 50.0289 18.972 49.0169 18.972C48.3269 18.972 47.6446 19.0793 46.9699 19.294C46.3106 19.5087 45.7509 19.8077 45.2909 20.191L44.1639 18.098C44.8079 17.6073 45.5823 17.2317 46.4869 16.971C47.3916 16.7103 48.3499 16.58 49.3619 16.58ZM48.9709 27.068C49.6916 27.068 50.3279 26.907 50.8799 26.585C51.4473 26.2477 51.8459 25.7723 52.0759 25.159V23.733H49.1089C47.4529 23.733 46.6249 24.2773 46.6249 25.366C46.6249 25.8873 46.8319 26.3013 47.2459 26.608C47.6599 26.9147 48.2349 27.068 48.9709 27.068ZM63.6896 29.161C62.4169 29.161 61.2746 28.8927 60.2626 28.356C59.2506 27.8193 58.4609 27.0757 57.8936 26.125C57.3262 25.159 57.0426 24.0703 57.0426 22.859C57.0426 21.6477 57.3262 20.5667 57.8936 19.616C58.4609 18.6653 59.2429 17.9217 60.2396 17.385C61.2516 16.8483 62.4016 16.58 63.6896 16.58C64.9009 16.58 65.9589 16.8253 66.8636 17.316C67.7836 17.8067 68.4736 18.512 68.9336 19.432L66.7256 20.72C66.3729 20.1527 65.9282 19.731 65.3916 19.455C64.8702 19.1637 64.2952 19.018 63.6666 19.018C62.5932 19.018 61.7039 19.3707 60.9986 20.076C60.2932 20.766 59.9406 21.6937 59.9406 22.859C59.9406 24.0243 60.2856 24.9597 60.9756 25.665C61.6809 26.355 62.5779 26.7 63.6666 26.7C64.2952 26.7 64.8702 26.562 65.3916 26.286C65.9282 25.9947 66.3729 25.5653 66.7256 24.998L68.9336 26.286C68.4582 27.206 67.7606 27.919 66.8406 28.425C65.9359 28.9157 64.8856 29.161 63.6896 29.161ZM80.6735 19.156H76.3725V29H73.4975V19.156H69.1735V16.718H80.6735V19.156ZM86.928 16.58C88.7373 16.58 90.1173 17.017 91.068 17.891C92.034 18.7497 92.517 20.053 92.517 21.801V29H89.803V27.505C89.4503 28.0417 88.9443 28.4557 88.285 28.747C87.641 29.023 86.859 29.161 85.939 29.161C85.019 29.161 84.214 29.0077 83.524 28.701C82.834 28.379 82.2973 27.942 81.914 27.39C81.546 26.8227 81.362 26.1863 81.362 25.481C81.362 24.377 81.7683 23.4953 82.581 22.836C83.409 22.1613 84.7047 21.824 86.468 21.824H89.642V21.64C89.642 20.7813 89.3813 20.122 88.86 19.662C88.354 19.202 87.595 18.972 86.583 18.972C85.893 18.972 85.2107 19.0793 84.536 19.294C83.8767 19.5087 83.317 19.8077 82.857 20.191L81.73 18.098C82.374 17.6073 83.1483 17.2317 84.053 16.971C84.9577 16.7103 85.916 16.58 86.928 16.58ZM86.537 27.068C87.2577 27.068 87.894 26.907 88.446 26.585C89.0133 26.2477 89.412 25.7723 89.642 25.159V23.733H86.675C85.019 23.733 84.191 24.2773 84.191 25.366C84.191 25.8873 84.398 26.3013 84.812 26.608C85.226 26.9147 85.801 27.068 86.537 27.068ZM101.256 29.161C99.983 29.161 98.8406 28.8927 97.8286 28.356C96.8166 27.8193 96.027 27.0757 95.4596 26.125C94.8923 25.159 94.6086 24.0703 94.6086 22.859C94.6086 21.6477 94.8923 20.5667 95.4596 19.616C96.027 18.6653 96.809 17.9217 97.8056 17.385C98.8176 16.8483 99.9676 16.58 101.256 16.58C102.467 16.58 103.525 16.8253 104.43 17.316C105.35 17.8067 106.04 18.512 106.5 19.432L104.292 20.72C103.939 20.1527 103.494 19.731 102.958 19.455C102.436 19.1637 101.861 19.018 101.233 19.018C100.159 19.018 99.27 19.3707 98.5646 20.076C97.8593 20.766 97.5066 21.6937 97.5066 22.859C97.5066 24.0243 97.8516 24.9597 98.5416 25.665C99.247 26.355 100.144 26.7 101.233 26.7C101.861 26.7 102.436 26.562 102.958 26.286C103.494 25.9947 103.939 25.5653 104.292 24.998L106.5 26.286C106.024 27.206 105.327 27.919 104.407 28.425C103.502 28.9157 102.452 29.161 101.256 29.161ZM108.623 16.718H111.498V24.814L118.283 16.718H120.905V29H118.03V20.904L111.268 29H108.623V16.718ZM134.737 16.718V29H132.161V25.297H128.918L126.411 29H123.329L126.227 24.906C125.338 24.5993 124.656 24.1317 124.18 23.503C123.72 22.859 123.49 22.0693 123.49 21.134C123.49 19.7233 123.989 18.6347 124.985 17.868C125.982 17.1013 127.354 16.718 129.102 16.718H134.737ZM129.194 19.133C127.339 19.133 126.411 19.8307 126.411 21.226C126.411 22.606 127.308 23.296 129.102 23.296H132.161V19.133H129.194ZM155.392 15.43H147.411L147.434 29H144.49V12.9H155.415L155.392 15.43ZM166.986 16.718L161.236 29.989C160.7 31.323 160.048 32.2583 159.281 32.795C158.515 33.347 157.587 33.623 156.498 33.623C155.885 33.623 155.279 33.5233 154.681 33.324C154.083 33.1247 153.593 32.8487 153.209 32.496L154.359 30.38C154.635 30.6407 154.957 30.8477 155.325 31.001C155.709 31.1543 156.092 31.231 156.475 31.231C156.981 31.231 157.395 31.1007 157.717 30.84C158.055 30.5793 158.361 30.1423 158.637 29.529L158.844 29.046L153.485 16.718H156.475L160.339 25.803L164.226 16.718H166.986ZM173.827 29.161C172.554 29.161 171.412 28.8927 170.4 28.356C169.388 27.8193 168.598 27.0757 168.031 26.125C167.464 25.159 167.18 24.0703 167.18 22.859C167.18 21.6477 167.464 20.5667 168.031 19.616C168.598 18.6653 169.38 17.9217 170.377 17.385C171.389 16.8483 172.539 16.58 173.827 16.58C175.038 16.58 176.096 16.8253 177.001 17.316C177.921 17.8067 178.611 18.512 179.071 19.432L176.863 20.72C176.51 20.1527 176.066 19.731 175.529 19.455C175.008 19.1637 174.433 19.018 173.804 19.018C172.731 19.018 171.841 19.3707 171.136 20.076C170.431 20.766 170.078 21.6937 170.078 22.859C170.078 24.0243 170.423 24.9597 171.113 25.665C171.818 26.355 172.715 26.7 173.804 26.7C174.433 26.7 175.008 26.562 175.529 26.286C176.066 25.9947 176.51 25.5653 176.863 24.998L179.071 26.286C178.596 27.206 177.898 27.919 176.978 28.425C176.073 28.9157 175.023 29.161 173.827 29.161ZM192.515 22.928C192.515 23.1273 192.499 23.411 192.469 23.779H182.832C183 24.6837 183.437 25.4043 184.143 25.941C184.863 26.4623 185.753 26.723 186.811 26.723C188.16 26.723 189.272 26.2783 190.146 25.389L191.687 27.16C191.135 27.8193 190.437 28.3177 189.594 28.655C188.75 28.9923 187.8 29.161 186.742 29.161C185.392 29.161 184.204 28.8927 183.177 28.356C182.149 27.8193 181.352 27.0757 180.785 26.125C180.233 25.159 179.957 24.0703 179.957 22.859C179.957 21.663 180.225 20.5897 180.762 19.639C181.314 18.673 182.073 17.9217 183.039 17.385C184.005 16.8483 185.093 16.58 186.305 16.58C187.501 16.58 188.566 16.8483 189.502 17.385C190.452 17.9063 191.188 18.65 191.71 19.616C192.246 20.5667 192.515 21.6707 192.515 22.928ZM186.305 18.88C185.385 18.88 184.603 19.156 183.959 19.708C183.33 20.2447 182.947 20.9653 182.809 21.87H189.778C189.655 20.9807 189.279 20.26 188.651 19.708C188.022 19.156 187.24 18.88 186.305 18.88ZM204.152 22.606C205.67 23.066 206.429 24.0473 206.429 25.55C206.429 26.654 206.015 27.505 205.187 28.103C204.359 28.701 203.133 29 201.507 29H195.251V16.718H201.254C202.757 16.718 203.93 16.994 204.773 17.546C205.617 18.098 206.038 18.88 206.038 19.892C206.038 20.5207 205.87 21.065 205.532 21.525C205.21 21.985 204.75 22.3453 204.152 22.606ZM197.988 21.847H201.001C202.489 21.847 203.232 21.3333 203.232 20.306C203.232 19.3093 202.489 18.811 201.001 18.811H197.988V21.847ZM201.277 26.907C202.857 26.907 203.646 26.3933 203.646 25.366C203.646 24.8293 203.462 24.4307 203.094 24.17C202.726 23.894 202.151 23.756 201.369 23.756H197.988V26.907H201.277ZM213.66 16.58C215.47 16.58 216.85 17.017 217.8 17.891C218.766 18.7497 219.249 20.053 219.249 21.801V29H216.535V27.505C216.183 28.0417 215.677 28.4557 215.017 28.747C214.373 29.023 213.591 29.161 212.671 29.161C211.751 29.161 210.946 29.0077 210.256 28.701C209.566 28.379 209.03 27.942 208.646 27.39C208.278 26.8227 208.094 26.1863 208.094 25.481C208.094 24.377 208.501 23.4953 209.313 22.836C210.141 22.1613 211.437 21.824 213.2 21.824H216.374V21.64C216.374 20.7813 216.114 20.122 215.592 19.662C215.086 19.202 214.327 18.972 213.315 18.972C212.625 18.972 211.943 19.0793 211.268 19.294C210.609 19.5087 210.049 19.8077 209.589 20.191L208.462 18.098C209.106 17.6073 209.881 17.2317 210.785 16.971C211.69 16.7103 212.648 16.58 213.66 16.58ZM213.269 27.068C213.99 27.068 214.626 26.907 215.178 26.585C215.746 26.2477 216.144 25.7723 216.374 25.159V23.733H213.407C211.751 23.733 210.923 24.2773 210.923 25.366C210.923 25.8873 211.13 26.3013 211.544 26.608C211.958 26.9147 212.533 27.068 213.269 27.068Z" fill="white"/>
<defs>
<linearGradient id="paint0_linear_12_321" x1="-44.0724" y1="-8.50001" x2="369.91" y2="73.0272" gradientUnits="userSpaceOnUse">
<stop stop-color="#3F3F3F"/>
<stop offset="1" stop-color="#F9D423"/>
</linearGradient>
</defs>
</svg>
