<svg width="88" height="20" viewBox="0 0 88 20" fill="none" xmlns="http://www.w3.org/2000/svg">
<path d="M6.23176 1V8H4.95176V2.1H1.32176V8H0.0417579V1H6.23176ZM11.0256 2.6C11.5456 2.6 12.0089 2.71333 12.4156 2.94C12.8289 3.16667 13.1523 3.48667 13.3856 3.9C13.6189 4.31333 13.7356 4.79 13.7356 5.33C13.7356 5.87 13.6189 6.35 13.3856 6.77C13.1523 7.18333 12.8289 7.50333 12.4156 7.73C12.0089 7.95667 11.5456 8.07 11.0256 8.07C10.3056 8.07 9.73559 7.83 9.31559 7.35V9.94H8.06559V2.66H9.25559V3.36C9.46225 3.10667 9.71559 2.91667 10.0156 2.79C10.3223 2.66333 10.6589 2.6 11.0256 2.6ZM10.8856 7C11.3456 7 11.7223 6.84667 12.0156 6.54C12.3156 6.23333 12.4656 5.83 12.4656 5.33C12.4656 4.83 12.3156 4.42667 12.0156 4.12C11.7223 3.81333 11.3456 3.66 10.8856 3.66C10.5856 3.66 10.3156 3.73 10.0756 3.87C9.83559 4.00333 9.64559 4.19667 9.50559 4.45C9.36559 4.70333 9.29559 4.99667 9.29559 5.33C9.29559 5.66333 9.36559 5.95667 9.50559 6.21C9.64559 6.46333 9.83559 6.66 10.0756 6.8C10.3156 6.93333 10.5856 7 10.8856 7ZM17.3596 8.07C16.8196 8.07 16.333 7.95333 15.8996 7.72C15.4663 7.48667 15.1263 7.16333 14.8796 6.75C14.6396 6.33 14.5196 5.85667 14.5196 5.33C14.5196 4.80333 14.6396 4.33333 14.8796 3.92C15.1263 3.50667 15.4663 3.18333 15.8996 2.95C16.333 2.71667 16.8196 2.6 17.3596 2.6C17.9063 2.6 18.3963 2.71667 18.8296 2.95C19.263 3.18333 19.5996 3.50667 19.8396 3.92C20.0863 4.33333 20.2096 4.80333 20.2096 5.33C20.2096 5.85667 20.0863 6.33 19.8396 6.75C19.5996 7.16333 19.263 7.48667 18.8296 7.72C18.3963 7.95333 17.9063 8.07 17.3596 8.07ZM17.3596 7C17.8196 7 18.1996 6.84667 18.4996 6.54C18.7996 6.23333 18.9496 5.83 18.9496 5.33C18.9496 4.83 18.7996 4.42667 18.4996 4.12C18.1996 3.81333 17.8196 3.66 17.3596 3.66C16.8996 3.66 16.5196 3.81333 16.2196 4.12C15.9263 4.42667 15.7796 4.83 15.7796 5.33C15.7796 5.83 15.9263 6.23333 16.2196 6.54C16.5196 6.84667 16.8996 7 17.3596 7ZM28.5045 5.32C28.5045 6.14667 28.2278 6.79667 27.6745 7.27C27.1278 7.74333 26.3445 8.01333 25.3245 8.08V9.94H24.1445V8.09C23.1245 8.02333 22.3412 7.75333 21.7945 7.28C21.2478 6.80667 20.9745 6.15333 20.9745 5.32C20.9745 4.49333 21.2478 3.85 21.7945 3.39C22.3412 2.92333 23.1245 2.65667 24.1445 2.59V0.58H25.3245V2.59C26.3445 2.65667 27.1278 2.92333 27.6745 3.39C28.2278 3.85667 28.5045 4.5 28.5045 5.32ZM22.2045 5.32C22.2045 5.83333 22.3612 6.23333 22.6745 6.52C22.9945 6.80667 23.4845 6.98 24.1445 7.04V3.65C23.4845 3.70333 22.9945 3.87 22.6745 4.15C22.3612 4.43 22.2045 4.82 22.2045 5.32ZM25.3245 7.04C26.6312 6.92 27.2845 6.34667 27.2845 5.32C27.2845 4.81333 27.1212 4.42333 26.7945 4.15C26.4745 3.87 25.9845 3.70333 25.3245 3.65V7.04ZM34.716 5.36C34.716 5.44667 34.7093 5.57 34.696 5.73H30.506C30.5793 6.12333 30.7693 6.43667 31.076 6.67C31.3893 6.89667 31.776 7.01 32.236 7.01C32.8226 7.01 33.306 6.81667 33.686 6.43L34.356 7.2C34.116 7.48667 33.8126 7.70333 33.446 7.85C33.0793 7.99667 32.666 8.07 32.206 8.07C31.6193 8.07 31.1026 7.95333 30.656 7.72C30.2093 7.48667 29.8626 7.16333 29.616 6.75C29.376 6.33 29.256 5.85667 29.256 5.33C29.256 4.81 29.3726 4.34333 29.606 3.93C29.846 3.51 30.176 3.18333 30.596 2.95C31.016 2.71667 31.4893 2.6 32.016 2.6C32.536 2.6 32.9993 2.71667 33.406 2.95C33.8193 3.17667 34.1393 3.5 34.366 3.92C34.5993 4.33333 34.716 4.81333 34.716 5.36ZM32.016 3.6C31.616 3.6 31.276 3.72 30.996 3.96C30.7226 4.19333 30.556 4.50667 30.496 4.9H33.526C33.4726 4.51333 33.3093 4.2 33.036 3.96C32.7626 3.72 32.4226 3.6 32.016 3.6ZM38.5132 8.07C37.9598 8.07 37.4632 7.95333 37.0232 7.72C36.5832 7.48667 36.2398 7.16333 35.9932 6.75C35.7465 6.33 35.6232 5.85667 35.6232 5.33C35.6232 4.80333 35.7465 4.33333 35.9932 3.92C36.2398 3.50667 36.5798 3.18333 37.0132 2.95C37.4532 2.71667 37.9532 2.6 38.5132 2.6C39.0398 2.6 39.4998 2.70667 39.8932 2.92C40.2932 3.13333 40.5932 3.44 40.7932 3.84L39.8332 4.4C39.6798 4.15333 39.4865 3.97 39.2532 3.85C39.0265 3.72333 38.7765 3.66 38.5032 3.66C38.0365 3.66 37.6498 3.81333 37.3432 4.12C37.0365 4.42 36.8832 4.82333 36.8832 5.33C36.8832 5.83667 37.0332 6.24333 37.3332 6.55C37.6398 6.85 38.0298 7 38.5032 7C38.7765 7 39.0265 6.94 39.2532 6.82C39.4865 6.69333 39.6798 6.50667 39.8332 6.26L40.7932 6.82C40.5865 7.22 40.2832 7.53 39.8832 7.75C39.4898 7.96333 39.0332 8.07 38.5132 8.07ZM44.2456 8.07C43.6923 8.07 43.1956 7.95333 42.7556 7.72C42.3156 7.48667 41.9723 7.16333 41.7256 6.75C41.4789 6.33 41.3556 5.85667 41.3556 5.33C41.3556 4.80333 41.4789 4.33333 41.7256 3.92C41.9723 3.50667 42.3123 3.18333 42.7456 2.95C43.1856 2.71667 43.6856 2.6 44.2456 2.6C44.7723 2.6 45.2323 2.70667 45.6256 2.92C46.0256 3.13333 46.3256 3.44 46.5256 3.84L45.5656 4.4C45.4123 4.15333 45.2189 3.97 44.9856 3.85C44.7589 3.72333 44.5089 3.66 44.2356 3.66C43.7689 3.66 43.3823 3.81333 43.0756 4.12C42.7689 4.42 42.6156 4.82333 42.6156 5.33C42.6156 5.83667 42.7656 6.24333 43.0656 6.55C43.3723 6.85 43.7623 7 44.2356 7C44.5089 7 44.7589 6.94 44.9856 6.82C45.2189 6.69333 45.4123 6.50667 45.5656 6.26L46.5256 6.82C46.3189 7.22 46.0156 7.53 45.6156 7.75C45.2223 7.96333 44.7656 8.07 44.2456 8.07ZM47.6261 2.66H48.8761V6.18L51.8261 2.66H52.9661V8H51.7161V4.48L48.7761 8H47.6261V2.66ZM57.0276 8.07C56.4876 8.07 56.001 7.95333 55.5676 7.72C55.1343 7.48667 54.7943 7.16333 54.5476 6.75C54.3076 6.33 54.1876 5.85667 54.1876 5.33C54.1876 4.80333 54.3076 4.33333 54.5476 3.92C54.7943 3.50667 55.1343 3.18333 55.5676 2.95C56.001 2.71667 56.4876 2.6 57.0276 2.6C57.5743 2.6 58.0643 2.71667 58.4976 2.95C58.931 3.18333 59.2676 3.50667 59.5076 3.92C59.7543 4.33333 59.8776 4.80333 59.8776 5.33C59.8776 5.85667 59.7543 6.33 59.5076 6.75C59.2676 7.16333 58.931 7.48667 58.4976 7.72C58.0643 7.95333 57.5743 8.07 57.0276 8.07ZM57.0276 7C57.4876 7 57.8676 6.84667 58.1676 6.54C58.4676 6.23333 58.6176 5.83 58.6176 5.33C58.6176 4.83 58.4676 4.42667 58.1676 4.12C57.8676 3.81333 57.4876 3.66 57.0276 3.66C56.5676 3.66 56.1876 3.81333 55.8876 4.12C55.5943 4.42667 55.4476 4.83 55.4476 5.33C55.4476 5.83 55.5943 6.23333 55.8876 6.54C56.1876 6.84667 56.5676 7 57.0276 7ZM61.1125 2.66H62.3625V4.83H65.0525V2.66H66.3025V8H65.0525V5.89H62.3625V8H61.1125V2.66ZM69.9677 2.6C70.7544 2.6 71.3544 2.79 71.7677 3.17C72.1877 3.54333 72.3977 4.11 72.3977 4.87V8H71.2177V7.35C71.0644 7.58333 70.8444 7.76333 70.5577 7.89C70.2777 8.01 69.9377 8.07 69.5377 8.07C69.1377 8.07 68.7877 8.00333 68.4877 7.87C68.1877 7.73 67.9544 7.54 67.7877 7.3C67.6277 7.05333 67.5477 6.77667 67.5477 6.47C67.5477 5.99 67.7244 5.60667 68.0777 5.32C68.4377 5.02667 69.001 4.88 69.7677 4.88H71.1477V4.8C71.1477 4.42667 71.0344 4.14 70.8077 3.94C70.5877 3.74 70.2577 3.64 69.8177 3.64C69.5177 3.64 69.221 3.68667 68.9277 3.78C68.641 3.87333 68.3977 4.00333 68.1977 4.17L67.7077 3.26C67.9877 3.04667 68.3244 2.88333 68.7177 2.77C69.111 2.65667 69.5277 2.6 69.9677 2.6ZM69.7977 7.16C70.111 7.16 70.3877 7.09 70.6277 6.95C70.8744 6.80333 71.0477 6.59667 71.1477 6.33V5.71H69.8577C69.1377 5.71 68.7777 5.94667 68.7777 6.42C68.7777 6.64667 68.8677 6.82667 69.0477 6.96C69.2277 7.09333 69.4777 7.16 69.7977 7.16ZM78.7845 2.66V8H77.5345V3.72H75.5345L75.4845 4.78C75.4512 5.48667 75.3845 6.08 75.2845 6.56C75.1912 7.03333 75.0278 7.41 74.7945 7.69C74.5678 7.96333 74.2545 8.1 73.8545 8.1C73.6678 8.1 73.4378 8.06333 73.1645 7.99L73.2245 6.94C73.3178 6.96 73.3978 6.97 73.4645 6.97C73.7178 6.97 73.9078 6.87 74.0345 6.67C74.1612 6.46333 74.2412 6.22 74.2745 5.94C74.3145 5.65333 74.3478 5.24667 74.3745 4.72L74.4645 2.66H78.7845ZM83.0679 4.42C83.7479 4.42 84.2679 4.57333 84.6279 4.88C84.9879 5.18667 85.1679 5.62 85.1679 6.18C85.1679 6.76667 84.9679 7.22 84.5679 7.54C84.1746 7.86 83.6146 8.01667 82.8879 8.01L80.4679 8V2.66H81.7179V4.41L83.0679 4.42ZM85.8579 2.66H87.1079V8H85.8579V2.66ZM82.7779 7.09C83.1446 7.09667 83.4246 7.02 83.6179 6.86C83.8113 6.7 83.9079 6.46667 83.9079 6.16C83.9079 5.86 83.8146 5.64 83.6279 5.5C83.4413 5.36 83.1579 5.28667 82.7779 5.28L81.7179 5.27V7.08L82.7779 7.09ZM30.1662 12.6C30.6862 12.6 31.1495 12.7133 31.5562 12.94C31.9695 13.1667 32.2929 13.4867 32.5262 13.9C32.7595 14.3133 32.8762 14.79 32.8762 15.33C32.8762 15.87 32.7595 16.35 32.5262 16.77C32.2929 17.1833 31.9695 17.5033 31.5562 17.73C31.1495 17.9567 30.6862 18.07 30.1662 18.07C29.4462 18.07 28.8762 17.83 28.4562 17.35V19.94H27.2062V12.66H28.3962V13.36C28.6029 13.1067 28.8562 12.9167 29.1562 12.79C29.4629 12.6633 29.7995 12.6 30.1662 12.6ZM30.0262 17C30.4862 17 30.8629 16.8467 31.1562 16.54C31.4562 16.2333 31.6062 15.83 31.6062 15.33C31.6062 14.83 31.4562 14.4267 31.1562 14.12C30.8629 13.8133 30.4862 13.66 30.0262 13.66C29.7262 13.66 29.4562 13.73 29.2162 13.87C28.9762 14.0033 28.7862 14.1967 28.6462 14.45C28.5062 14.7033 28.4362 14.9967 28.4362 15.33C28.4362 15.6633 28.5062 15.9567 28.6462 16.21C28.7862 16.4633 28.9762 16.66 29.2162 16.8C29.4562 16.9333 29.7262 17 30.0262 17ZM38.4545 12.66V18H37.3345V16.39H35.9245L34.8345 18H33.4945L34.7545 16.22C34.3678 16.0867 34.0712 15.8833 33.8645 15.61C33.6645 15.33 33.5645 14.9867 33.5645 14.58C33.5645 13.9667 33.7812 13.4933 34.2145 13.16C34.6478 12.8267 35.2445 12.66 36.0045 12.66H38.4545ZM36.0445 13.71C35.2378 13.71 34.8345 14.0133 34.8345 14.62C34.8345 15.22 35.2245 15.52 36.0045 15.52H37.3345V13.71H36.0445ZM45.8359 16.94V19.19H44.6659V18H40.5459V19.19H39.3859V16.94H39.6359C39.9759 16.9267 40.2059 16.71 40.3259 16.29C40.4526 15.8633 40.5359 15.2633 40.5759 14.49L40.6459 12.66H45.0459V16.94H45.8359ZM41.7159 14.58C41.6892 15.1933 41.6392 15.6933 41.5659 16.08C41.4926 16.4667 41.3592 16.7533 41.1659 16.94H43.7959V13.72H41.7459L41.7159 14.58ZM49.3323 18.07C48.7923 18.07 48.3056 17.9533 47.8723 17.72C47.439 17.4867 47.099 17.1633 46.8523 16.75C46.6123 16.33 46.4923 15.8567 46.4923 15.33C46.4923 14.8033 46.6123 14.3333 46.8523 13.92C47.099 13.5067 47.439 13.1833 47.8723 12.95C48.3056 12.7167 48.7923 12.6 49.3323 12.6C49.879 12.6 50.369 12.7167 50.8023 12.95C51.2356 13.1833 51.5723 13.5067 51.8123 13.92C52.059 14.3333 52.1823 14.8033 52.1823 15.33C52.1823 15.8567 52.059 16.33 51.8123 16.75C51.5723 17.1633 51.2356 17.4867 50.8023 17.72C50.369 17.9533 49.879 18.07 49.3323 18.07ZM49.3323 17C49.7923 17 50.1723 16.8467 50.4723 16.54C50.7723 16.2333 50.9223 15.83 50.9223 15.33C50.9223 14.83 50.7723 14.4267 50.4723 14.12C50.1723 13.8133 49.7923 13.66 49.3323 13.66C48.8723 13.66 48.4923 13.8133 48.1923 14.12C47.899 14.4267 47.7523 14.83 47.7523 15.33C47.7523 15.83 47.899 16.2333 48.1923 16.54C48.4923 16.8467 48.8723 17 49.3323 17ZM58.6671 18V14.46L56.8671 17.44H56.3271L54.5571 14.45V18H53.4171V12.66H54.7271L56.6271 16L58.6171 12.66H59.7871L59.7971 18H58.6671Z" fill="white"/>
</svg>
