<svg width="155" height="50" viewBox="0 0 155 50" fill="none" xmlns="http://www.w3.org/2000/svg">
<g filter="url(#filter0_b_12_387)">
<rect width="155" height="50" rx="15" fill="white" fill-opacity="0.3"/>
<path d="M32.36 18V32H29.8V20.2H22.54V32H19.98V18H32.36ZM40.3797 32.14C39.2997 32.14 38.3263 31.9067 37.4597 31.44C36.593 30.9733 35.913 30.3267 35.4197 29.5C34.9397 28.66 34.6997 27.7133 34.6997 26.66C34.6997 25.6067 34.9397 24.6667 35.4197 23.84C35.913 23.0133 36.593 22.3667 37.4597 21.9C38.3263 21.4333 39.2997 21.2 40.3797 21.2C41.473 21.2 42.453 21.4333 43.3197 21.9C44.1863 22.3667 44.8597 23.0133 45.3397 23.84C45.833 24.6667 46.0797 25.6067 46.0797 26.66C46.0797 27.7133 45.833 28.66 45.3397 29.5C44.8597 30.3267 44.1863 30.9733 43.3197 31.44C42.453 31.9067 41.473 32.14 40.3797 32.14ZM40.3797 30C41.2997 30 42.0597 29.6933 42.6597 29.08C43.2597 28.4667 43.5597 27.66 43.5597 26.66C43.5597 25.66 43.2597 24.8533 42.6597 24.24C42.0597 23.6267 41.2997 23.32 40.3797 23.32C39.4597 23.32 38.6997 23.6267 38.0997 24.24C37.513 24.8533 37.2197 25.66 37.2197 26.66C37.2197 27.66 37.513 28.4667 38.0997 29.08C38.6997 29.6933 39.4597 30 40.3797 30ZM54.0613 21.2C55.1013 21.2 56.028 21.4267 56.8413 21.88C57.668 22.3333 58.3147 22.9733 58.7813 23.8C59.248 24.6267 59.4813 25.58 59.4813 26.66C59.4813 27.74 59.248 28.7 58.7813 29.54C58.3147 30.3667 57.668 31.0067 56.8413 31.46C56.028 31.9133 55.1013 32.14 54.0613 32.14C52.6213 32.14 51.4813 31.66 50.6413 30.7V35.88H48.1413V21.32H50.5213V22.72C50.9347 22.2133 51.4413 21.8333 52.0413 21.58C52.6547 21.3267 53.328 21.2 54.0613 21.2ZM53.7813 30C54.7013 30 55.4547 29.6933 56.0413 29.08C56.6413 28.4667 56.9413 27.66 56.9413 26.66C56.9413 25.66 56.6413 24.8533 56.0413 24.24C55.4547 23.6267 54.7013 23.32 53.7813 23.32C53.1813 23.32 52.6413 23.46 52.1613 23.74C51.6813 24.0067 51.3013 24.3933 51.0213 24.9C50.7413 25.4067 50.6013 25.9933 50.6013 26.66C50.6013 27.3267 50.7413 27.9133 51.0213 28.42C51.3013 28.9267 51.6813 29.32 52.1613 29.6C52.6413 29.8667 53.1813 30 53.7813 30ZM69.6308 23.44H65.8908V32H63.3908V23.44H59.6308V21.32H69.6308V23.44ZM84.6875 26.64C84.6875 28.2933 84.1342 29.5933 83.0275 30.54C81.9342 31.4867 80.3675 32.0267 78.3275 32.16V35.88H75.9675V32.18C73.9275 32.0467 72.3609 31.5067 71.2675 30.56C70.1742 29.6133 69.6275 28.3067 69.6275 26.64C69.6275 24.9867 70.1742 23.7 71.2675 22.78C72.3609 21.8467 73.9275 21.3133 75.9675 21.18V17.16H78.3275V21.18C80.3675 21.3133 81.9342 21.8467 83.0275 22.78C84.1342 23.7133 84.6875 25 84.6875 26.64ZM72.0875 26.64C72.0875 27.6667 72.4009 28.4667 73.0275 29.04C73.6675 29.6133 74.6475 29.96 75.9675 30.08V23.3C74.6475 23.4067 73.6675 23.74 73.0275 24.3C72.4009 24.86 72.0875 25.64 72.0875 26.64ZM78.3275 30.08C80.9409 29.84 82.2475 28.6933 82.2475 26.64C82.2475 25.6267 81.9209 24.8467 81.2675 24.3C80.6275 23.74 79.6475 23.4067 78.3275 23.3V30.08ZM91.4625 32.14C90.3825 32.14 89.4092 31.9067 88.5425 31.44C87.6758 30.9733 86.9958 30.3267 86.5025 29.5C86.0225 28.66 85.7825 27.7133 85.7825 26.66C85.7825 25.6067 86.0225 24.6667 86.5025 23.84C86.9958 23.0133 87.6758 22.3667 88.5425 21.9C89.4092 21.4333 90.3825 21.2 91.4625 21.2C92.5558 21.2 93.5358 21.4333 94.4025 21.9C95.2692 22.3667 95.9425 23.0133 96.4225 23.84C96.9158 24.6667 97.1625 25.6067 97.1625 26.66C97.1625 27.7133 96.9158 28.66 96.4225 29.5C95.9425 30.3267 95.2692 30.9733 94.4025 31.44C93.5358 31.9067 92.5558 32.14 91.4625 32.14ZM91.4625 30C92.3825 30 93.1425 29.6933 93.7425 29.08C94.3425 28.4667 94.6425 27.66 94.6425 26.66C94.6425 25.66 94.3425 24.8533 93.7425 24.24C93.1425 23.6267 92.3825 23.32 91.4625 23.32C90.5425 23.32 89.7825 23.6267 89.1825 24.24C88.5958 24.8533 88.3025 25.66 88.3025 26.66C88.3025 27.66 88.5958 28.4667 89.1825 29.08C89.7825 29.6933 90.5425 30 91.4625 30ZM108.787 21.32V32H106.287V23.44H102.287L102.187 25.56C102.12 26.9733 101.987 28.16 101.787 29.12C101.6 30.0667 101.274 30.82 100.807 31.38C100.354 31.9267 99.727 32.2 98.927 32.2C98.5537 32.2 98.0937 32.1267 97.547 31.98L97.667 29.88C97.8537 29.92 98.0137 29.94 98.147 29.94C98.6537 29.94 99.0337 29.74 99.287 29.34C99.5403 28.9267 99.7003 28.44 99.767 27.88C99.847 27.3067 99.9137 26.4933 99.967 25.44L100.147 21.32H108.787ZM111.746 21.32H114.246V28.36L120.146 21.32H122.426V32H119.926V24.96L114.046 32H111.746V21.32ZM130.141 32.14C129.061 32.14 128.088 31.9067 127.221 31.44C126.354 30.9733 125.674 30.3267 125.181 29.5C124.701 28.66 124.461 27.7133 124.461 26.66C124.461 25.6067 124.701 24.6667 125.181 23.84C125.674 23.0133 126.354 22.3667 127.221 21.9C128.088 21.4333 129.061 21.2 130.141 21.2C131.234 21.2 132.214 21.4333 133.081 21.9C133.948 22.3667 134.621 23.0133 135.101 23.84C135.594 24.6667 135.841 25.6067 135.841 26.66C135.841 27.7133 135.594 28.66 135.101 29.5C134.621 30.3267 133.948 30.9733 133.081 31.44C132.214 31.9067 131.234 32.14 130.141 32.14ZM130.141 30C131.061 30 131.821 29.6933 132.421 29.08C133.021 28.4667 133.321 27.66 133.321 26.66C133.321 25.66 133.021 24.8533 132.421 24.24C131.821 23.6267 131.061 23.32 130.141 23.32C129.221 23.32 128.461 23.6267 127.861 24.24C127.274 24.8533 126.981 25.66 126.981 26.66C126.981 27.66 127.274 28.4667 127.861 29.08C128.461 29.6933 129.221 30 130.141 30Z" fill="url(#paint0_linear_12_387)"/>
</g>
<defs>
<filter id="filter0_b_12_387" x="-12" y="-12" width="179" height="74" filterUnits="userSpaceOnUse" color-interpolation-filters="sRGB">
<feFlood flood-opacity="0" result="BackgroundImageFix"/>
<feGaussianBlur in="BackgroundImageFix" stdDeviation="6"/>
<feComposite in2="SourceAlpha" operator="in" result="effect1_backgroundBlur_12_387"/>
<feBlend mode="normal" in="SourceGraphic" in2="effect1_backgroundBlur_12_387" result="shape"/>
</filter>
<linearGradient id="paint0_linear_12_387" x1="-94.5" y1="-32.5" x2="95.2003" y2="44.7811" gradientUnits="userSpaceOnUse">
<stop stop-color="#3F3F3F"/>
<stop offset="1" stop-color="#3B7EFF"/>
</linearGradient>
</defs>
</svg>
