<svg width="53" height="9" viewBox="0 0 53 9" fill="none" xmlns="http://www.w3.org/2000/svg">
<path d="M7.18 -4.76837e-07V7H5.9V1.1H2.27V7H0.99V-4.76837e-07H7.18ZM11.5658 1.6C12.0858 1.6 12.5492 1.71333 12.9558 1.94C13.3692 2.16667 13.6925 2.48667 13.9258 2.9C14.1592 3.31333 14.2758 3.79 14.2758 4.33C14.2758 4.87 14.1592 5.35 13.9258 5.77C13.6925 6.18333 13.3692 6.50333 12.9558 6.73C12.5492 6.95667 12.0858 7.07 11.5658 7.07C10.8458 7.07 10.2758 6.83 9.85583 6.35V8.94H8.60583V1.66H9.79583V2.36C10.0025 2.10667 10.2558 1.91667 10.5558 1.79C10.8625 1.66333 11.1992 1.6 11.5658 1.6ZM11.4258 6C11.8858 6 12.2625 5.84667 12.5558 5.54C12.8558 5.23333 13.0058 4.83 13.0058 4.33C13.0058 3.83 12.8558 3.42667 12.5558 3.12C12.2625 2.81333 11.8858 2.66 11.4258 2.66C11.1258 2.66 10.8558 2.73 10.6158 2.87C10.3758 3.00333 10.1858 3.19667 10.0458 3.45C9.90583 3.70333 9.83583 3.99667 9.83583 4.33C9.83583 4.66333 9.90583 4.95667 10.0458 5.21C10.1858 5.46333 10.3758 5.66 10.6158 5.8C10.8558 5.93333 11.1258 6 11.4258 6ZM17.4919 7.07C16.9519 7.07 16.4652 6.95333 16.0319 6.72C15.5986 6.48667 15.2586 6.16333 15.0119 5.75C14.7719 5.33 14.6519 4.85667 14.6519 4.33C14.6519 3.80333 14.7719 3.33333 15.0119 2.92C15.2586 2.50667 15.5986 2.18333 16.0319 1.95C16.4652 1.71667 16.9519 1.6 17.4919 1.6C18.0386 1.6 18.5286 1.71667 18.9619 1.95C19.3952 2.18333 19.7319 2.50667 19.9719 2.92C20.2186 3.33333 20.3419 3.80333 20.3419 4.33C20.3419 4.85667 20.2186 5.33 19.9719 5.75C19.7319 6.16333 19.3952 6.48667 18.9619 6.72C18.5286 6.95333 18.0386 7.07 17.4919 7.07ZM17.4919 6C17.9519 6 18.3319 5.84667 18.6319 5.54C18.9319 5.23333 19.0819 4.83 19.0819 4.33C19.0819 3.83 18.9319 3.42667 18.6319 3.12C18.3319 2.81333 17.9519 2.66 17.4919 2.66C17.0319 2.66 16.6519 2.81333 16.3519 3.12C16.0586 3.42667 15.9119 3.83 15.9119 4.33C15.9119 4.83 16.0586 5.23333 16.3519 5.54C16.6519 5.84667 17.0319 6 17.4919 6ZM26.8101 5.94V8.19H25.6401V7H21.5201V8.19H20.3601V5.94H20.6101C20.9501 5.92667 21.1801 5.71 21.3001 5.29C21.4268 4.86333 21.5101 4.26333 21.5501 3.49L21.6201 1.66H26.0201V5.94H26.8101ZM22.6901 3.58C22.6635 4.19333 22.6135 4.69333 22.5401 5.08C22.4668 5.46667 22.3335 5.75333 22.1401 5.94H24.7701V2.72H22.7201L22.6901 3.58ZM32.3985 1.6C32.9319 1.6 33.4085 1.71667 33.8285 1.95C34.2485 2.17667 34.5785 2.5 34.8185 2.92C35.0585 3.33333 35.1785 3.80333 35.1785 4.33C35.1785 4.85667 35.0585 5.33 34.8185 5.75C34.5785 6.16333 34.2485 6.48667 33.8285 6.72C33.4085 6.95333 32.9319 7.07 32.3985 7.07C31.9319 7.07 31.5052 6.98 31.1185 6.8C30.7319 6.61333 30.4119 6.35333 30.1585 6.02C29.9052 5.68 29.7419 5.29333 29.6685 4.86H28.7685V7H27.5185V1.66H28.7685V3.73H29.6885C29.7685 3.31 29.9352 2.94 30.1885 2.62C30.4419 2.29333 30.7585 2.04333 31.1385 1.87C31.5185 1.69 31.9385 1.6 32.3985 1.6ZM32.3985 6.01C32.6919 6.01 32.9552 5.94333 33.1885 5.81C33.4219 5.67 33.6052 5.47333 33.7385 5.22C33.8719 4.96 33.9385 4.66333 33.9385 4.33C33.9385 3.82333 33.7919 3.42 33.4985 3.12C33.2119 2.81333 32.8452 2.66 32.3985 2.66C31.9519 2.66 31.5852 2.81333 31.2985 3.12C31.0119 3.42 30.8685 3.82333 30.8685 4.33C30.8685 4.83667 31.0119 5.24333 31.2985 5.55C31.5919 5.85667 31.9585 6.01 32.3985 6.01ZM38.4273 7.07C37.8739 7.07 37.3773 6.95333 36.9373 6.72C36.4973 6.48667 36.1539 6.16333 35.9073 5.75C35.6606 5.33 35.5373 4.85667 35.5373 4.33C35.5373 3.80333 35.6606 3.33333 35.9073 2.92C36.1539 2.50667 36.4939 2.18333 36.9273 1.95C37.3673 1.71667 37.8673 1.6 38.4273 1.6C38.9539 1.6 39.4139 1.70667 39.8073 1.92C40.2073 2.13333 40.5073 2.44 40.7073 2.84L39.7473 3.4C39.5939 3.15333 39.4006 2.97 39.1673 2.85C38.9406 2.72333 38.6906 2.66 38.4173 2.66C37.9506 2.66 37.5639 2.81333 37.2573 3.12C36.9506 3.42 36.7973 3.82333 36.7973 4.33C36.7973 4.83667 36.9473 5.24333 37.2473 5.55C37.5539 5.85 37.9439 6 38.4173 6C38.6906 6 38.9406 5.94 39.1673 5.82C39.4006 5.69333 39.5939 5.50667 39.7473 5.26L40.7073 5.82C40.5006 6.22 40.1973 6.53 39.7973 6.75C39.4039 6.96333 38.9473 7.07 38.4273 7.07ZM46.3217 4.36C46.3217 4.44667 46.315 4.57 46.3017 4.73H42.1117C42.185 5.12333 42.375 5.43667 42.6817 5.67C42.995 5.89667 43.3817 6.01 43.8417 6.01C44.4284 6.01 44.9117 5.81667 45.2917 5.43L45.9617 6.2C45.7217 6.48667 45.4184 6.70333 45.0517 6.85C44.685 6.99667 44.2717 7.07 43.8117 7.07C43.225 7.07 42.7084 6.95333 42.2617 6.72C41.815 6.48667 41.4684 6.16333 41.2217 5.75C40.9817 5.33 40.8617 4.85667 40.8617 4.33C40.8617 3.81 40.9784 3.34333 41.2117 2.93C41.4517 2.51 41.7817 2.18333 42.2017 1.95C42.6217 1.71667 43.095 1.6 43.6217 1.6C44.1417 1.6 44.605 1.71667 45.0117 1.95C45.425 2.17667 45.745 2.5 45.9717 2.92C46.205 3.33333 46.3217 3.81333 46.3217 4.36ZM43.6217 2.6C43.2217 2.6 42.8817 2.72 42.6017 2.96C42.3284 3.19333 42.1617 3.50667 42.1017 3.9H45.1317C45.0784 3.51333 44.915 3.2 44.6417 2.96C44.3684 2.72 44.0284 2.6 43.6217 2.6ZM50.2409 1.6C50.7609 1.6 51.2242 1.71333 51.6309 1.94C52.0442 2.16667 52.3675 2.48667 52.6009 2.9C52.8342 3.31333 52.9509 3.79 52.9509 4.33C52.9509 4.87 52.8342 5.35 52.6009 5.77C52.3675 6.18333 52.0442 6.50333 51.6309 6.73C51.2242 6.95667 50.7609 7.07 50.2409 7.07C49.5209 7.07 48.9509 6.83 48.5309 6.35V8.94H47.2809V1.66H48.4709V2.36C48.6775 2.10667 48.9309 1.91667 49.2309 1.79C49.5375 1.66333 49.8742 1.6 50.2409 1.6ZM50.1009 6C50.5609 6 50.9375 5.84667 51.2309 5.54C51.5309 5.23333 51.6809 4.83 51.6809 4.33C51.6809 3.83 51.5309 3.42667 51.2309 3.12C50.9375 2.81333 50.5609 2.66 50.1009 2.66C49.8009 2.66 49.5309 2.73 49.2909 2.87C49.0509 3.00333 48.8609 3.19667 48.7209 3.45C48.5809 3.70333 48.5109 3.99667 48.5109 4.33C48.5109 4.66333 48.5809 4.95667 48.7209 5.21C48.8609 5.46333 49.0509 5.66 49.2909 5.8C49.5309 5.93333 49.8009 6 50.1009 6Z" fill="white"/>
</svg>
