<svg width="26" height="30" viewBox="0 0 26 30" fill="none" xmlns="http://www.w3.org/2000/svg">
<path d="M14 30L13.625 25.5H13.25C9.7 25.5 6.6875 24.2625 4.2125 21.7875C1.7375 19.3125 0.5 16.3 0.5 12.75C0.5 9.2 1.7375 6.1875 4.2125 3.7125C6.6875 1.2375 9.7 0 13.25 0C15.025 0 16.6815 0.331 18.2195 0.993C19.7575 1.655 21.1075 2.5675 22.2695 3.7305C23.4315 4.8935 24.3435 6.2435 25.0055 7.7805C25.6675 9.3175 25.999 10.974 26 12.75C26 14.625 25.6935 16.425 25.0805 18.15C24.4675 19.875 23.63 21.475 22.568 22.95C21.506 24.425 20.2435 25.7625 18.7805 26.9625C17.3175 28.1625 15.724 29.175 14 30ZM13.2125 20.9625C13.6375 20.9625 14 20.8125 14.3 20.5125C14.6 20.2125 14.75 19.85 14.75 19.425C14.75 19 14.6 18.6375 14.3 18.3375C14 18.0375 13.6375 17.8875 13.2125 17.8875C12.7875 17.8875 12.425 18.0375 12.125 18.3375C11.825 18.6375 11.675 19 11.675 19.425C11.675 19.85 11.825 20.2125 12.125 20.5125C12.425 20.8125 12.7875 20.9625 13.2125 20.9625ZM12.125 16.2H14.375C14.375 15.45 14.45 14.925 14.6 14.625C14.75 14.325 15.225 13.775 16.025 12.975C16.475 12.525 16.85 12.0375 17.15 11.5125C17.45 10.9875 17.6 10.425 17.6 9.825C17.6 8.55 17.1685 7.5935 16.3055 6.9555C15.4425 6.3175 14.424 5.999 13.25 6C12.15 6 11.225 6.3065 10.475 6.9195C9.725 7.5325 9.2 8.276 8.9 9.15L11 9.975C11.125 9.55 11.3625 9.131 11.7125 8.718C12.0625 8.305 12.575 8.099 13.25 8.1C13.925 8.1 14.431 8.2875 14.768 8.6625C15.105 9.0375 15.274 9.45 15.275 9.9C15.275 10.325 15.15 10.7065 14.9 11.0445C14.65 11.3825 14.35 11.726 14 12.075C13.125 12.825 12.5935 13.419 12.4055 13.857C12.2175 14.295 12.124 15.076 12.125 16.2Z" fill="url(#paint0_linear_36_837)"/>
<defs>
<linearGradient id="paint0_linear_36_837" x1="-1.17763" y1="-6.46369e-07" x2="42.8225" y2="1.28555" gradientUnits="userSpaceOnUse">
<stop stop-color="#FF4E50"/>
<stop offset="1" stop-color="#F9D423"/>
</linearGradient>
</defs>
</svg>
