<svg width="81" height="20" viewBox="0 0 81 20" fill="none" xmlns="http://www.w3.org/2000/svg">
<path d="M3.86684 -4.76837e-07C4.4735 -4.76837e-07 5.00017 0.0999996 5.44684 0.3C5.90017 0.5 6.24684 0.786666 6.48684 1.16C6.72684 1.53333 6.84684 1.97667 6.84684 2.49C6.84684 2.99667 6.72684 3.44 6.48684 3.82C6.24684 4.19333 5.90017 4.48 5.44684 4.68C5.00017 4.88 4.4735 4.98 3.86684 4.98H2.28684V7H0.986836V-4.76837e-07H3.86684ZM3.80684 3.88C4.3735 3.88 4.8035 3.76 5.09684 3.52C5.39017 3.28 5.53684 2.93667 5.53684 2.49C5.53684 2.04333 5.39017 1.7 5.09684 1.46C4.8035 1.22 4.3735 1.1 3.80684 1.1H2.28684V3.88H3.80684ZM12.9171 4.36C12.9171 4.44667 12.9105 4.57 12.8971 4.73H8.70715C8.78048 5.12333 8.97048 5.43667 9.27715 5.67C9.59048 5.89667 9.97715 6.01 10.4371 6.01C11.0238 6.01 11.5071 5.81667 11.8871 5.43L12.5571 6.2C12.3171 6.48667 12.0138 6.70333 11.6471 6.85C11.2805 6.99667 10.8671 7.07 10.4071 7.07C9.82048 7.07 9.30382 6.95333 8.85715 6.72C8.41048 6.48667 8.06382 6.16333 7.81715 5.75C7.57715 5.33 7.45715 4.85667 7.45715 4.33C7.45715 3.81 7.57382 3.34333 7.80715 2.93C8.04715 2.51 8.37715 2.18333 8.79715 1.95C9.21715 1.71667 9.69048 1.6 10.2171 1.6C10.7371 1.6 11.2005 1.71667 11.6071 1.95C12.0205 2.17667 12.3405 2.5 12.5671 2.92C12.8005 3.33333 12.9171 3.81333 12.9171 4.36ZM10.2171 2.6C9.81715 2.6 9.47715 2.72 9.19715 2.96C8.92382 3.19333 8.75715 3.50667 8.69715 3.9H11.7271C11.6738 3.51333 11.5105 3.2 11.2371 2.96C10.9638 2.72 10.6238 2.6 10.2171 2.6ZM19.916 5.94V8.19H18.746V7H14.626V8.19H13.466V5.94H13.716C14.056 5.92667 14.286 5.71 14.406 5.29C14.5326 4.86333 14.616 4.26333 14.656 3.49L14.726 1.66H19.126V5.94H19.916ZM15.796 3.58C15.7693 4.19333 15.7193 4.69333 15.646 5.08C15.5726 5.46667 15.4393 5.75333 15.246 5.94H17.876V2.72H15.826L15.796 3.58ZM23.0224 1.6C23.809 1.6 24.409 1.79 24.8224 2.17C25.2424 2.54333 25.4524 3.11 25.4524 3.87V7H24.2724V6.35C24.119 6.58333 23.899 6.76333 23.6124 6.89C23.3324 7.01 22.9924 7.07 22.5924 7.07C22.1924 7.07 21.8424 7.00333 21.5424 6.87C21.2424 6.73 21.009 6.54 20.8424 6.3C20.6824 6.05333 20.6024 5.77667 20.6024 5.47C20.6024 4.99 20.779 4.60667 21.1324 4.32C21.4924 4.02667 22.0557 3.88 22.8224 3.88H24.2024V3.8C24.2024 3.42667 24.089 3.14 23.8624 2.94C23.6424 2.74 23.3124 2.64 22.8724 2.64C22.5724 2.64 22.2757 2.68667 21.9824 2.78C21.6957 2.87333 21.4524 3.00333 21.2524 3.17L20.7624 2.26C21.0424 2.04667 21.379 1.88333 21.7724 1.77C22.1657 1.65667 22.5824 1.6 23.0224 1.6ZM22.8524 6.16C23.1657 6.16 23.4424 6.09 23.6824 5.95C23.929 5.80333 24.1024 5.59667 24.2024 5.33V4.71H22.9124C22.1924 4.71 21.8324 4.94667 21.8324 5.42C21.8324 5.64667 21.9224 5.82667 22.1024 5.96C22.2824 6.09333 22.5324 6.16 22.8524 6.16ZM29.2192 4.86H28.2492V7H26.9992V1.66H28.2492V3.82H29.2492L30.8292 1.66H32.1692L30.2292 4.23L32.2992 7H30.8292L29.2192 4.86ZM37.3425 2.72H35.4725V7H34.2225V2.72H32.3425V1.66H37.3425V2.72ZM38.2492 1.66H39.4992V5.18L42.4492 1.66H43.5892V7H42.3392V3.48L39.3992 7H38.2492V1.66ZM48.2307 1.6C48.7507 1.6 49.214 1.71333 49.6207 1.94C50.034 2.16667 50.3573 2.48667 50.5907 2.9C50.824 3.31333 50.9407 3.79 50.9407 4.33C50.9407 4.87 50.824 5.35 50.5907 5.77C50.3573 6.18333 50.034 6.50333 49.6207 6.73C49.214 6.95667 48.7507 7.07 48.2307 7.07C47.5107 7.07 46.9407 6.83 46.5207 6.35V8.94H45.2707V1.66H46.4607V2.36C46.6673 2.10667 46.9207 1.91667 47.2207 1.79C47.5273 1.66333 47.864 1.6 48.2307 1.6ZM48.0907 6C48.5507 6 48.9273 5.84667 49.2207 5.54C49.5207 5.23333 49.6707 4.83 49.6707 4.33C49.6707 3.83 49.5207 3.42667 49.2207 3.12C48.9273 2.81333 48.5507 2.66 48.0907 2.66C47.7907 2.66 47.5207 2.73 47.2807 2.87C47.0407 3.00333 46.8507 3.19667 46.7107 3.45C46.5707 3.70333 46.5007 3.99667 46.5007 4.33C46.5007 4.66333 46.5707 4.95667 46.7107 5.21C46.8507 5.46333 47.0407 5.66 47.2807 5.8C47.5207 5.93333 47.7907 6 48.0907 6ZM54.5647 7.07C54.0247 7.07 53.5381 6.95333 53.1047 6.72C52.6714 6.48667 52.3314 6.16333 52.0847 5.75C51.8447 5.33 51.7247 4.85667 51.7247 4.33C51.7247 3.80333 51.8447 3.33333 52.0847 2.92C52.3314 2.50667 52.6714 2.18333 53.1047 1.95C53.5381 1.71667 54.0247 1.6 54.5647 1.6C55.1114 1.6 55.6014 1.71667 56.0347 1.95C56.4681 2.18333 56.8047 2.50667 57.0447 2.92C57.2914 3.33333 57.4147 3.80333 57.4147 4.33C57.4147 4.85667 57.2914 5.33 57.0447 5.75C56.8047 6.16333 56.4681 6.48667 56.0347 6.72C55.6014 6.95333 55.1114 7.07 54.5647 7.07ZM54.5647 6C55.0247 6 55.4047 5.84667 55.7047 5.54C56.0047 5.23333 56.1547 4.83 56.1547 4.33C56.1547 3.83 56.0047 3.42667 55.7047 3.12C55.4047 2.81333 55.0247 2.66 54.5647 2.66C54.1047 2.66 53.7247 2.81333 53.4247 3.12C53.1314 3.42667 52.9847 3.83 52.9847 4.33C52.9847 4.83 53.1314 5.23333 53.4247 5.54C53.7247 5.84667 54.1047 6 54.5647 6ZM62.5196 4.22C63.1796 4.42 63.5096 4.84667 63.5096 5.5C63.5096 5.98 63.3296 6.35 62.9696 6.61C62.6096 6.87 62.0762 7 61.3696 7H58.6496V1.66H61.2596C61.9129 1.66 62.4229 1.78 62.7896 2.02C63.1562 2.26 63.3396 2.6 63.3396 3.04C63.3396 3.31333 63.2662 3.55 63.1196 3.75C62.9796 3.95 62.7796 4.10667 62.5196 4.22ZM59.8396 3.89H61.1496C61.7962 3.89 62.1196 3.66667 62.1196 3.22C62.1196 2.78667 61.7962 2.57 61.1496 2.57H59.8396V3.89ZM61.2696 6.09C61.9562 6.09 62.2996 5.86667 62.2996 5.42C62.2996 5.18667 62.2196 5.01333 62.0596 4.9C61.8996 4.78 61.6496 4.72 61.3096 4.72H59.8396V6.09H61.2696ZM66.831 1.6C67.6176 1.6 68.2176 1.79 68.631 2.17C69.051 2.54333 69.261 3.11 69.261 3.87V7H68.081V6.35C67.9276 6.58333 67.7076 6.76333 67.421 6.89C67.141 7.01 66.801 7.07 66.401 7.07C66.001 7.07 65.651 7.00333 65.351 6.87C65.051 6.73 64.8176 6.54 64.651 6.3C64.491 6.05333 64.411 5.77667 64.411 5.47C64.411 4.99 64.5876 4.60667 64.941 4.32C65.301 4.02667 65.8643 3.88 66.631 3.88H68.011V3.8C68.011 3.42667 67.8976 3.14 67.671 2.94C67.451 2.74 67.121 2.64 66.681 2.64C66.381 2.64 66.0843 2.68667 65.791 2.78C65.5043 2.87333 65.261 3.00333 65.061 3.17L64.571 2.26C64.851 2.04667 65.1876 1.88333 65.581 1.77C65.9743 1.65667 66.391 1.6 66.831 1.6ZM66.661 6.16C66.9743 6.16 67.251 6.09 67.491 5.95C67.7376 5.80333 67.911 5.59667 68.011 5.33V4.71H66.721C66.001 4.71 65.641 4.94667 65.641 5.42C65.641 5.64667 65.731 5.82667 65.911 5.96C66.091 6.09333 66.341 6.16 66.661 6.16ZM75.0378 2.72H73.1678V7H71.9178V2.72H70.0378V1.66H75.0378V2.72ZM78.6245 3.42C79.3045 3.42 79.8245 3.57333 80.1845 3.88C80.5512 4.18667 80.7345 4.62 80.7345 5.18C80.7345 5.76667 80.5345 6.22 80.1345 6.54C79.7345 6.86 79.1712 7.01667 78.4445 7.01L75.9445 7V1.66H77.1945V3.41L78.6245 3.42ZM78.3345 6.09C78.7012 6.09667 78.9812 6.02 79.1745 5.86C79.3678 5.7 79.4645 5.46667 79.4645 5.16C79.4645 4.86 79.3712 4.64 79.1845 4.5C78.9978 4.36 78.7145 4.28667 78.3345 4.28L77.1945 4.27V6.08L78.3345 6.09ZM23.8965 14.22C24.5565 14.42 24.8865 14.8467 24.8865 15.5C24.8865 15.98 24.7065 16.35 24.3465 16.61C23.9865 16.87 23.4532 17 22.7465 17H20.0265V11.66H22.6365C23.2899 11.66 23.7999 11.78 24.1665 12.02C24.5332 12.26 24.7165 12.6 24.7165 13.04C24.7165 13.3133 24.6432 13.55 24.4965 13.75C24.3565 13.95 24.1565 14.1067 23.8965 14.22ZM21.2165 13.89H22.5265C23.1732 13.89 23.4965 13.6667 23.4965 13.22C23.4965 12.7867 23.1732 12.57 22.5265 12.57H21.2165V13.89ZM22.6465 16.09C23.3332 16.09 23.6765 15.8667 23.6765 15.42C23.6765 15.1867 23.5965 15.0133 23.4365 14.9C23.2765 14.78 23.0265 14.72 22.6865 14.72H21.2165V16.09H22.6465ZM26.2179 11.66H27.4679V15.18L30.4179 11.66H31.5579V17H30.3079V13.48L27.3679 17H26.2179V11.66ZM36.3611 14.22C36.6944 14.3133 36.9511 14.4667 37.1311 14.68C37.3177 14.8867 37.4111 15.1367 37.4111 15.43C37.4111 15.7567 37.3011 16.0467 37.0811 16.3C36.8611 16.5467 36.5577 16.74 36.1711 16.88C35.7844 17.02 35.3444 17.09 34.8511 17.09C34.4377 17.09 34.0344 17.0433 33.6411 16.95C33.2477 16.85 32.8911 16.71 32.5711 16.53L32.9311 15.6C33.1911 15.7467 33.4844 15.86 33.8111 15.94C34.1377 16.02 34.4644 16.06 34.7911 16.06C35.2111 16.06 35.5377 15.9967 35.7711 15.87C36.0111 15.7367 36.1311 15.5567 36.1311 15.33C36.1311 15.1233 36.0377 14.9633 35.8511 14.85C35.6711 14.7367 35.4144 14.68 35.0811 14.68H34.0411V13.84H34.9811C35.2944 13.84 35.5377 13.7867 35.7111 13.68C35.8911 13.5733 35.9811 13.4233 35.9811 13.23C35.9811 13.0367 35.8744 12.8833 35.6611 12.77C35.4477 12.6567 35.1544 12.6 34.7811 12.6C34.2477 12.6 33.6844 12.73 33.0911 12.99L32.7711 12.07C33.4711 11.7433 34.1777 11.58 34.8911 11.58C35.3444 11.58 35.7511 11.6433 36.1111 11.77C36.4711 11.89 36.7511 12.0633 36.9511 12.29C37.1577 12.51 37.2611 12.7633 37.2611 13.05C37.2611 13.31 37.1811 13.5433 37.0211 13.75C36.8611 13.95 36.6411 14.1067 36.3611 14.22ZM38.7082 11.66H39.9582V15.18L42.9082 11.66H44.0482V17H42.7982V13.48L39.8582 17H38.7082V11.66ZM49.9596 12.72H48.0896V17H46.8396V12.72H44.9596V11.66H49.9596V12.72ZM53.0864 14.86H52.1164V17H50.8664V11.66H52.1164V13.82H53.1164L54.6964 11.66H56.0364L54.0964 14.23L56.1664 17H54.6964L53.0864 14.86ZM61.7853 11.66L59.2853 17.43C59.0519 18.01 58.7686 18.4167 58.4353 18.65C58.1019 18.89 57.6986 19.01 57.2253 19.01C56.9586 19.01 56.6953 18.9667 56.4353 18.88C56.1753 18.7933 55.9619 18.6733 55.7953 18.52L56.2953 17.6C56.4153 17.7133 56.5553 17.8033 56.7153 17.87C56.8819 17.9367 57.0486 17.97 57.2153 17.97C57.4353 17.97 57.6153 17.9133 57.7553 17.8C57.9019 17.6867 58.0353 17.4967 58.1553 17.23L58.2453 17.02L55.9153 11.66H57.2153L58.8953 15.61L60.5853 11.66H61.7853Z" fill="white"/>
</svg>
