<svg width="71" height="10" viewBox="0 0 71 10" fill="none" xmlns="http://www.w3.org/2000/svg">
<path d="M3.86 -4.76837e-07C4.46667 -4.76837e-07 4.99333 0.0999996 5.44 0.3C5.89333 0.5 6.24 0.786666 6.48 1.16C6.72 1.53333 6.84 1.97667 6.84 2.49C6.84 2.99667 6.72 3.44 6.48 3.82C6.24 4.19333 5.89333 4.48 5.44 4.68C4.99333 4.88 4.46667 4.98 3.86 4.98H2.28V7H0.98V-4.76837e-07H3.86ZM3.8 3.88C4.36667 3.88 4.79667 3.76 5.09 3.52C5.38333 3.28 5.53 2.93667 5.53 2.49C5.53 2.04333 5.38333 1.7 5.09 1.46C4.79667 1.22 4.36667 1.1 3.8 1.1H2.28V3.88H3.8ZM12.6107 1.66L10.1107 7.43C9.87734 8.01 9.59401 8.41667 9.26067 8.65C8.92734 8.89 8.52401 9.01 8.05067 9.01C7.78401 9.01 7.52067 8.96667 7.26067 8.88C7.00067 8.79333 6.78734 8.67333 6.62067 8.52L7.12067 7.6C7.24067 7.71333 7.38067 7.80333 7.54067 7.87C7.70734 7.93667 7.87401 7.97 8.04067 7.97C8.26067 7.97 8.44067 7.91333 8.58067 7.8C8.72734 7.68667 8.86067 7.49667 8.98067 7.23L9.07067 7.02L6.74067 1.66H8.04067L9.72067 5.61L11.4107 1.66H12.6107ZM15.2909 4.86H14.3209V7H13.0709V1.66H14.3209V3.82H15.3209L16.9009 1.66H18.2409L16.3009 4.23L18.3709 7H16.9009L15.2909 4.86ZM21.0487 7.07C20.5087 7.07 20.0221 6.95333 19.5887 6.72C19.1554 6.48667 18.8154 6.16333 18.5687 5.75C18.3287 5.33 18.2087 4.85667 18.2087 4.33C18.2087 3.80333 18.3287 3.33333 18.5687 2.92C18.8154 2.50667 19.1554 2.18333 19.5887 1.95C20.0221 1.71667 20.5087 1.6 21.0487 1.6C21.5954 1.6 22.0854 1.71667 22.5187 1.95C22.9521 2.18333 23.2887 2.50667 23.5287 2.92C23.7754 3.33333 23.8987 3.80333 23.8987 4.33C23.8987 4.85667 23.7754 5.33 23.5287 5.75C23.2887 6.16333 22.9521 6.48667 22.5187 6.72C22.0854 6.95333 21.5954 7.07 21.0487 7.07ZM21.0487 6C21.5087 6 21.8887 5.84667 22.1887 5.54C22.4887 5.23333 22.6387 4.83 22.6387 4.33C22.6387 3.83 22.4887 3.42667 22.1887 3.12C21.8887 2.81333 21.5087 2.66 21.0487 2.66C20.5887 2.66 20.2087 2.81333 19.9087 3.12C19.6154 3.42667 19.4687 3.83 19.4687 4.33C19.4687 4.83 19.6154 5.23333 19.9087 5.54C20.2087 5.84667 20.5887 6 21.0487 6ZM28.5956 4.22C29.2556 4.42 29.5856 4.84667 29.5856 5.5C29.5856 5.98 29.4056 6.35 29.0456 6.61C28.6856 6.87 28.1522 7 27.4456 7H24.7256V1.66H27.3356C27.9889 1.66 28.4989 1.78 28.8656 2.02C29.2322 2.26 29.4156 2.6 29.4156 3.04C29.4156 3.31333 29.3422 3.55 29.1956 3.75C29.0556 3.95 28.8556 4.10667 28.5956 4.22ZM25.9156 3.89H27.2256C27.8722 3.89 28.1956 3.66667 28.1956 3.22C28.1956 2.78667 27.8722 2.57 27.2256 2.57H25.9156V3.89ZM27.3456 6.09C28.0322 6.09 28.3756 5.86667 28.3756 5.42C28.3756 5.18667 28.2956 5.01333 28.1356 4.9C27.9756 4.78 27.7256 4.72 27.3856 4.72H25.9156V6.09H27.3456ZM32.889 7.07C32.349 7.07 31.8623 6.95333 31.429 6.72C30.9957 6.48667 30.6557 6.16333 30.409 5.75C30.169 5.33 30.049 4.85667 30.049 4.33C30.049 3.80333 30.169 3.33333 30.409 2.92C30.6557 2.50667 30.9957 2.18333 31.429 1.95C31.8623 1.71667 32.349 1.6 32.889 1.6C33.4357 1.6 33.9257 1.71667 34.359 1.95C34.7923 2.18333 35.129 2.50667 35.369 2.92C35.6157 3.33333 35.739 3.80333 35.739 4.33C35.739 4.85667 35.6157 5.33 35.369 5.75C35.129 6.16333 34.7923 6.48667 34.359 6.72C33.9257 6.95333 33.4357 7.07 32.889 7.07ZM32.889 6C33.349 6 33.729 5.84667 34.029 5.54C34.329 5.23333 34.479 4.83 34.479 4.33C34.479 3.83 34.329 3.42667 34.029 3.12C33.729 2.81333 33.349 2.66 32.889 2.66C32.429 2.66 32.049 2.81333 31.749 3.12C31.4557 3.42667 31.309 3.83 31.309 4.33C31.309 4.83 31.4557 5.23333 31.749 5.54C32.049 5.84667 32.429 6 32.889 6ZM42.2072 5.94V8.19H41.0372V7H36.9172V8.19H35.7572V5.94H36.0072C36.3472 5.92667 36.5772 5.71 36.6972 5.29C36.8239 4.86333 36.9072 4.26333 36.9472 3.49L37.0172 1.66H41.4172V5.94H42.2072ZM38.0872 3.58C38.0606 4.19333 38.0106 4.69333 37.9372 5.08C37.8639 5.46667 37.7306 5.75333 37.5372 5.94H40.1672V2.72H38.1172L38.0872 3.58ZM42.9156 1.66H44.1656V5.18L47.1156 1.66H48.2556V7H47.0056V3.48L44.0656 7H42.9156V1.66ZM53.7591 2.72H51.8891V7H50.6391V2.72H48.7591V1.66H53.7591V2.72ZM59.0235 4.36C59.0235 4.44667 59.0168 4.57 59.0035 4.73H54.8135C54.8868 5.12333 55.0768 5.43667 55.3835 5.67C55.6968 5.89667 56.0835 6.01 56.5435 6.01C57.1301 6.01 57.6135 5.81667 57.9935 5.43L58.6635 6.2C58.4235 6.48667 58.1201 6.70333 57.7535 6.85C57.3868 6.99667 56.9735 7.07 56.5135 7.07C55.9268 7.07 55.4101 6.95333 54.9635 6.72C54.5168 6.48667 54.1701 6.16333 53.9235 5.75C53.6835 5.33 53.5635 4.85667 53.5635 4.33C53.5635 3.81 53.6801 3.34333 53.9135 2.93C54.1535 2.51 54.4835 2.18333 54.9035 1.95C55.3235 1.71667 55.7968 1.6 56.3235 1.6C56.8435 1.6 57.3068 1.71667 57.7135 1.95C58.1268 2.17667 58.4468 2.5 58.6735 2.92C58.9068 3.33333 59.0235 3.81333 59.0235 4.36ZM56.3235 2.6C55.9235 2.6 55.5835 2.72 55.3035 2.96C55.0301 3.19333 54.8635 3.50667 54.8035 3.9H57.8335C57.7801 3.51333 57.6168 3.2 57.3435 2.96C57.0701 2.72 56.7301 2.6 56.3235 2.6ZM64.7543 1.66V7H63.5043V2.72H61.5043L61.4543 3.78C61.421 4.48667 61.3543 5.08 61.2543 5.56C61.161 6.03333 60.9976 6.41 60.7643 6.69C60.5376 6.96333 60.2243 7.1 59.8243 7.1C59.6376 7.1 59.4076 7.06333 59.1343 6.99L59.1943 5.94C59.2876 5.96 59.3676 5.97 59.4343 5.97C59.6876 5.97 59.8776 5.87 60.0043 5.67C60.131 5.46333 60.211 5.22 60.2443 4.94C60.2843 4.65333 60.3176 4.24667 60.3443 3.72L60.4343 1.66H64.7543ZM68.7097 3.42C69.3897 3.42 69.9097 3.57333 70.2697 3.88C70.6364 4.18667 70.8197 4.62 70.8197 5.18C70.8197 5.76667 70.6197 6.22 70.2197 6.54C69.8197 6.86 69.2564 7.01667 68.5297 7.01L66.0297 7V1.66H67.2797V3.41L68.7097 3.42ZM68.4197 6.09C68.7864 6.09667 69.0664 6.02 69.2597 5.86C69.4531 5.7 69.5497 5.46667 69.5497 5.16C69.5497 4.86 69.4564 4.64 69.2697 4.5C69.0831 4.36 68.7997 4.28667 68.4197 4.28L67.2797 4.27V6.08L68.4197 6.09Z" fill="white"/>
</svg>
