<svg width="70" height="20" viewBox="0 0 70 20" fill="none" xmlns="http://www.w3.org/2000/svg">
<path d="M4.34648 8.1C3.63982 8.1 2.99982 7.94667 2.42648 7.64C1.85982 7.32667 1.41315 6.89667 1.08648 6.35C0.766484 5.80333 0.606484 5.18667 0.606484 4.5C0.606484 3.81333 0.769818 3.19667 1.09648 2.65C1.42315 2.10333 1.86982 1.67667 2.43648 1.37C3.00982 1.05667 3.64982 0.9 4.35648 0.9C4.92982 0.9 5.45315 1 5.92648 1.2C6.39982 1.4 6.79982 1.69 7.12648 2.07L6.28648 2.86C5.77982 2.31333 5.15648 2.04 4.41648 2.04C3.93648 2.04 3.50648 2.14667 3.12648 2.36C2.74648 2.56667 2.44982 2.85667 2.23648 3.23C2.02315 3.60333 1.91648 4.02667 1.91648 4.5C1.91648 4.97333 2.02315 5.39667 2.23648 5.77C2.44982 6.14333 2.74648 6.43667 3.12648 6.65C3.50648 6.85667 3.93648 6.96 4.41648 6.96C5.15648 6.96 5.77982 6.68333 6.28648 6.13L7.12648 6.93C6.79982 7.31 6.39648 7.6 5.91648 7.8C5.44315 8 4.91982 8.1 4.34648 8.1ZM10.4135 5.86H9.44352V8H8.19352V2.66H9.44352V4.82H10.4435L12.0235 2.66H13.3635L11.4235 5.23L13.4935 8H12.0235L10.4135 5.86ZM16.2675 2.6C17.0542 2.6 17.6542 2.79 18.0675 3.17C18.4875 3.54333 18.6975 4.11 18.6975 4.87V8H17.5175V7.35C17.3642 7.58333 17.1442 7.76333 16.8575 7.89C16.5775 8.01 16.2375 8.07 15.8375 8.07C15.4375 8.07 15.0875 8.00333 14.7875 7.87C14.4875 7.73 14.2542 7.54 14.0875 7.3C13.9275 7.05333 13.8475 6.77667 13.8475 6.47C13.8475 5.99 14.0242 5.60667 14.3775 5.32C14.7375 5.02667 15.3008 4.88 16.0675 4.88H17.4475V4.8C17.4475 4.42667 17.3342 4.14 17.1075 3.94C16.8875 3.74 16.5575 3.64 16.1175 3.64C15.8175 3.64 15.5208 3.68667 15.2275 3.78C14.9408 3.87333 14.6975 4.00333 14.4975 4.17L14.0075 3.26C14.2875 3.04667 14.6242 2.88333 15.0175 2.77C15.4108 2.65667 15.8275 2.6 16.2675 2.6ZM16.0975 7.16C16.4108 7.16 16.6875 7.09 16.9275 6.95C17.1742 6.80333 17.3475 6.59667 17.4475 6.33V5.71H16.1575C15.4375 5.71 15.0775 5.94667 15.0775 6.42C15.0775 6.64667 15.1675 6.82667 15.3475 6.96C15.5275 7.09333 15.7775 7.16 16.0975 7.16ZM20.2443 2.66H21.4943V4.83H24.1843V2.66H25.4343V8H24.1843V5.89H21.4943V8H20.2443V2.66ZM27.1095 2.66H28.3595V6.18L31.3095 2.66H32.4495V8H31.1995V4.48L28.2595 8H27.1095V2.66ZM37.091 2.6C37.611 2.6 38.0743 2.71333 38.481 2.94C38.8943 3.16667 39.2177 3.48667 39.451 3.9C39.6843 4.31333 39.801 4.79 39.801 5.33C39.801 5.87 39.6843 6.35 39.451 6.77C39.2177 7.18333 38.8943 7.50333 38.481 7.73C38.0743 7.95667 37.611 8.07 37.091 8.07C36.371 8.07 35.801 7.83 35.381 7.35V9.94H34.131V2.66H35.321V3.36C35.5277 3.10667 35.781 2.91667 36.081 2.79C36.3877 2.66333 36.7243 2.6 37.091 2.6ZM36.951 7C37.411 7 37.7877 6.84667 38.081 6.54C38.381 6.23333 38.531 5.83 38.531 5.33C38.531 4.83 38.381 4.42667 38.081 4.12C37.7877 3.81333 37.411 3.66 36.951 3.66C36.651 3.66 36.381 3.73 36.141 3.87C35.901 4.00333 35.711 4.19667 35.571 4.45C35.431 4.70333 35.361 4.99667 35.361 5.33C35.361 5.66333 35.431 5.95667 35.571 6.21C35.711 6.46333 35.901 6.66 36.141 6.8C36.381 6.93333 36.651 7 36.951 7ZM43.4251 8.07C42.8851 8.07 42.3984 7.95333 41.9651 7.72C41.5317 7.48667 41.1917 7.16333 40.9451 6.75C40.7051 6.33 40.5851 5.85667 40.5851 5.33C40.5851 4.80333 40.7051 4.33333 40.9451 3.92C41.1917 3.50667 41.5317 3.18333 41.9651 2.95C42.3984 2.71667 42.8851 2.6 43.4251 2.6C43.9717 2.6 44.4617 2.71667 44.8951 2.95C45.3284 3.18333 45.6651 3.50667 45.9051 3.92C46.1517 4.33333 46.2751 4.80333 46.2751 5.33C46.2751 5.85667 46.1517 6.33 45.9051 6.75C45.6651 7.16333 45.3284 7.48667 44.8951 7.72C44.4617 7.95333 43.9717 8.07 43.4251 8.07ZM43.4251 7C43.8851 7 44.2651 6.84667 44.5651 6.54C44.8651 6.23333 45.0151 5.83 45.0151 5.33C45.0151 4.83 44.8651 4.42667 44.5651 4.12C44.2651 3.81333 43.8851 3.66 43.4251 3.66C42.9651 3.66 42.5851 3.81333 42.2851 4.12C41.9917 4.42667 41.8451 4.83 41.8451 5.33C41.8451 5.83 41.9917 6.23333 42.2851 6.54C42.5851 6.84667 42.9651 7 43.4251 7ZM51.3799 5.22C52.0399 5.42 52.3699 5.84667 52.3699 6.5C52.3699 6.98 52.1899 7.35 51.8299 7.61C51.4699 7.87 50.9366 8 50.2299 8H47.5099V2.66H50.1199C50.7733 2.66 51.2833 2.78 51.6499 3.02C52.0166 3.26 52.1999 3.6 52.1999 4.04C52.1999 4.31333 52.1266 4.55 51.9799 4.75C51.8399 4.95 51.6399 5.10667 51.3799 5.22ZM48.6999 4.89H50.0099C50.6566 4.89 50.9799 4.66667 50.9799 4.22C50.9799 3.78667 50.6566 3.57 50.0099 3.57H48.6999V4.89ZM50.1299 7.09C50.8166 7.09 51.1599 6.86667 51.1599 6.42C51.1599 6.18667 51.0799 6.01333 50.9199 5.9C50.7599 5.78 50.5099 5.72 50.1699 5.72H48.6999V7.09H50.1299ZM55.6913 2.6C56.478 2.6 57.078 2.79 57.4913 3.17C57.9113 3.54333 58.1213 4.11 58.1213 4.87V8H56.9413V7.35C56.788 7.58333 56.568 7.76333 56.2813 7.89C56.0013 8.01 55.6613 8.07 55.2613 8.07C54.8613 8.07 54.5113 8.00333 54.2113 7.87C53.9113 7.73 53.678 7.54 53.5113 7.3C53.3513 7.05333 53.2713 6.77667 53.2713 6.47C53.2713 5.99 53.448 5.60667 53.8013 5.32C54.1613 5.02667 54.7247 4.88 55.4913 4.88H56.8713V4.8C56.8713 4.42667 56.758 4.14 56.5313 3.94C56.3113 3.74 55.9813 3.64 55.5413 3.64C55.2413 3.64 54.9447 3.68667 54.6513 3.78C54.3647 3.87333 54.1213 4.00333 53.9213 4.17L53.4313 3.26C53.7113 3.04667 54.048 2.88333 54.4413 2.77C54.8347 2.65667 55.2513 2.6 55.6913 2.6ZM55.5213 7.16C55.8347 7.16 56.1113 7.09 56.3513 6.95C56.598 6.80333 56.7713 6.59667 56.8713 6.33V5.71H55.5813C54.8613 5.71 54.5013 5.94667 54.5013 6.42C54.5013 6.64667 54.5913 6.82667 54.7713 6.96C54.9513 7.09333 55.2013 7.16 55.5213 7.16ZM63.8981 3.72H62.0281V8H60.7781V3.72H58.8981V2.66H63.8981V3.72ZM67.4848 4.42C68.1648 4.42 68.6848 4.57333 69.0448 4.88C69.4115 5.18667 69.5948 5.62 69.5948 6.18C69.5948 6.76667 69.3948 7.22 68.9948 7.54C68.5948 7.86 68.0315 8.01667 67.3048 8.01L64.8048 8V2.66H66.0548V4.41L67.4848 4.42ZM67.1948 7.09C67.5615 7.09667 67.8415 7.02 68.0348 6.86C68.2282 6.7 68.3248 6.46667 68.3248 6.16C68.3248 5.86 68.2315 5.64 68.0448 5.5C67.8582 5.36 67.5748 5.28667 67.1948 5.28L66.0548 5.27V7.08L67.1948 7.09ZM21.162 18.7C20.9287 18.9733 20.6554 19.18 20.342 19.32C20.0354 19.46 19.6987 19.53 19.332 19.53C18.852 19.53 18.412 19.42 18.012 19.2C17.612 18.9867 17.1554 18.6133 16.642 18.08C15.9954 18.0267 15.4154 17.84 14.902 17.52C14.3887 17.1933 13.9887 16.77 13.702 16.25C13.4154 15.7233 13.272 15.14 13.272 14.5C13.272 13.82 13.4354 13.2067 13.762 12.66C14.0887 12.1067 14.5387 11.6767 15.112 11.37C15.6854 11.0567 16.3287 10.9 17.042 10.9C17.7554 10.9 18.3987 11.0567 18.972 11.37C19.5454 11.6767 19.9954 12.1033 20.322 12.65C20.6487 13.1967 20.812 13.8133 20.812 14.5C20.812 15.0533 20.702 15.5667 20.482 16.04C20.262 16.5067 19.9554 16.9067 19.562 17.24C19.1687 17.5667 18.712 17.8033 18.192 17.95C18.3854 18.1567 18.5754 18.3067 18.762 18.4C18.9487 18.4933 19.1487 18.54 19.362 18.54C19.822 18.54 20.222 18.3533 20.562 17.98L21.162 18.7ZM14.582 14.5C14.582 14.9667 14.6887 15.39 14.902 15.77C15.1154 16.1433 15.4087 16.4367 15.782 16.65C16.1554 16.8567 16.5754 16.96 17.042 16.96C17.5087 16.96 17.9287 16.8567 18.302 16.65C18.6754 16.4367 18.9687 16.1433 19.182 15.77C19.3954 15.39 19.502 14.9667 19.502 14.5C19.502 14.0333 19.3954 13.6133 19.182 13.24C18.9687 12.86 18.6754 12.5667 18.302 12.36C17.9287 12.1467 17.5087 12.04 17.042 12.04C16.5754 12.04 16.1554 12.1467 15.782 12.36C15.4087 12.5667 15.1154 12.86 14.902 13.24C14.6887 13.6133 14.582 14.0333 14.582 14.5ZM26.77 18L25.34 15.95C25.28 15.9567 25.19 15.96 25.07 15.96H23.49V18H22.19V11H25.07C25.6767 11 26.2033 11.1 26.65 11.3C27.1033 11.5 27.45 11.7867 27.69 12.16C27.93 12.5333 28.05 12.9767 28.05 13.49C28.05 14.0167 27.92 14.47 27.66 14.85C27.4067 15.23 27.04 15.5133 26.56 15.7L28.17 18H26.77ZM26.74 13.49C26.74 13.0433 26.5933 12.7 26.3 12.46C26.0067 12.22 25.5767 12.1 25.01 12.1H23.49V14.89H25.01C25.5767 14.89 26.0067 14.77 26.3 14.53C26.5933 14.2833 26.74 13.9367 26.74 13.49ZM31.8781 14.7H34.6281V15.74H31.8781V14.7ZM40.9995 15.86H40.0295V18H38.7795V12.66H40.0295V14.82H41.0295L42.6095 12.66H43.9495L42.0095 15.23L44.0795 18H42.6095L40.9995 15.86ZM47.1653 18.07C46.6253 18.07 46.1386 17.9533 45.7053 17.72C45.272 17.4867 44.932 17.1633 44.6853 16.75C44.4453 16.33 44.3253 15.8567 44.3253 15.33C44.3253 14.8033 44.4453 14.3333 44.6853 13.92C44.932 13.5067 45.272 13.1833 45.7053 12.95C46.1386 12.7167 46.6253 12.6 47.1653 12.6C47.712 12.6 48.202 12.7167 48.6353 12.95C49.0686 13.1833 49.4053 13.5067 49.6453 13.92C49.892 14.3333 50.0153 14.8033 50.0153 15.33C50.0153 15.8567 49.892 16.33 49.6453 16.75C49.4053 17.1633 49.0686 17.4867 48.6353 17.72C48.202 17.9533 47.712 18.07 47.1653 18.07ZM47.1653 17C47.6253 17 48.0053 16.8467 48.3053 16.54C48.6053 16.2333 48.7553 15.83 48.7553 15.33C48.7553 14.83 48.6053 14.4267 48.3053 14.12C48.0053 13.8133 47.6253 13.66 47.1653 13.66C46.7053 13.66 46.3253 13.8133 46.0253 14.12C45.732 14.4267 45.5853 14.83 45.5853 15.33C45.5853 15.83 45.732 16.2333 46.0253 16.54C46.3253 16.8467 46.7053 17 47.1653 17ZM56.8916 16.94V19.19H55.7216V18H51.6016V19.19H50.4416V16.94H50.6916C51.0316 16.9267 51.2616 16.71 51.3816 16.29C51.5082 15.8633 51.5916 15.2633 51.6316 14.49L51.7016 12.66H56.1016V16.94H56.8916ZM52.7716 14.58C52.7449 15.1933 52.6949 15.6933 52.6216 16.08C52.5482 16.4667 52.4149 16.7533 52.2216 16.94H54.8516V13.72H52.8016L52.7716 14.58Z" fill="white"/>
</svg>
