<svg width="64" height="18" viewBox="0 0 64 18" fill="none" xmlns="http://www.w3.org/2000/svg">
<path d="M6.66828 -4.76837e-07V7H5.38828V1.1H1.75828V7H0.478281V-4.76837e-07H6.66828ZM10.8821 7.07C10.3421 7.07 9.85544 6.95333 9.42211 6.72C8.98878 6.48667 8.64878 6.16333 8.40211 5.75C8.16211 5.33 8.04211 4.85667 8.04211 4.33C8.04211 3.80333 8.16211 3.33333 8.40211 2.92C8.64878 2.50667 8.98878 2.18333 9.42211 1.95C9.85544 1.71667 10.3421 1.6 10.8821 1.6C11.4288 1.6 11.9188 1.71667 12.3521 1.95C12.7854 2.18333 13.1221 2.50667 13.3621 2.92C13.6088 3.33333 13.7321 3.80333 13.7321 4.33C13.7321 4.85667 13.6088 5.33 13.3621 5.75C13.1221 6.16333 12.7854 6.48667 12.3521 6.72C11.9188 6.95333 11.4288 7.07 10.8821 7.07ZM10.8821 6C11.3421 6 11.7221 5.84667 12.0221 5.54C12.3221 5.23333 12.4721 4.83 12.4721 4.33C12.4721 3.83 12.3221 3.42667 12.0221 3.12C11.7221 2.81333 11.3421 2.66 10.8821 2.66C10.4221 2.66 10.0421 2.81333 9.74211 3.12C9.44878 3.42667 9.30211 3.83 9.30211 4.33C9.30211 4.83 9.44878 5.23333 9.74211 5.54C10.0421 5.84667 10.4221 6 10.8821 6ZM17.397 7.07C16.8436 7.07 16.347 6.95333 15.907 6.72C15.467 6.48667 15.1236 6.16333 14.877 5.75C14.6303 5.33 14.507 4.85667 14.507 4.33C14.507 3.80333 14.6303 3.33333 14.877 2.92C15.1236 2.50667 15.4636 2.18333 15.897 1.95C16.337 1.71667 16.837 1.6 17.397 1.6C17.9236 1.6 18.3836 1.70667 18.777 1.92C19.177 2.13333 19.477 2.44 19.677 2.84L18.717 3.4C18.5636 3.15333 18.3703 2.97 18.137 2.85C17.9103 2.72333 17.6603 2.66 17.387 2.66C16.9203 2.66 16.5336 2.81333 16.227 3.12C15.9203 3.42 15.767 3.82333 15.767 4.33C15.767 4.83667 15.917 5.24333 16.217 5.55C16.5236 5.85 16.9136 6 17.387 6C17.6603 6 17.9103 5.94 18.137 5.82C18.3703 5.69333 18.5636 5.50667 18.717 5.26L19.677 5.82C19.4703 6.22 19.167 6.53 18.767 6.75C18.3736 6.96333 17.917 7.07 17.397 7.07ZM26.0275 7V3.46L24.2275 6.44H23.6875L21.9175 3.45V7H20.7775V1.66H22.0875L23.9875 5L25.9775 1.66H27.1475L27.1575 7H26.0275ZM31.2141 7.07C30.6741 7.07 30.1875 6.95333 29.7541 6.72C29.3208 6.48667 28.9808 6.16333 28.7341 5.75C28.4941 5.33 28.3741 4.85667 28.3741 4.33C28.3741 3.80333 28.4941 3.33333 28.7341 2.92C28.9808 2.50667 29.3208 2.18333 29.7541 1.95C30.1875 1.71667 30.6741 1.6 31.2141 1.6C31.7608 1.6 32.2508 1.71667 32.6841 1.95C33.1175 2.18333 33.4541 2.50667 33.6941 2.92C33.9408 3.33333 34.0641 3.80333 34.0641 4.33C34.0641 4.85667 33.9408 5.33 33.6941 5.75C33.4541 6.16333 33.1175 6.48667 32.6841 6.72C32.2508 6.95333 31.7608 7.07 31.2141 7.07ZM31.2141 6C31.6741 6 32.0541 5.84667 32.3541 5.54C32.6541 5.23333 32.8041 4.83 32.8041 4.33C32.8041 3.83 32.6541 3.42667 32.3541 3.12C32.0541 2.81333 31.6741 2.66 31.2141 2.66C30.7541 2.66 30.3741 2.81333 30.0741 3.12C29.7808 3.42667 29.6341 3.83 29.6341 4.33C29.6341 4.83 29.7808 5.23333 30.0741 5.54C30.3741 5.84667 30.7541 6 31.2141 6ZM39.3337 2.72H37.4637V7H36.2137V2.72H34.3337V1.66H39.3337V2.72ZM43.2004 1.6C43.7204 1.6 44.1837 1.71333 44.5904 1.94C45.0037 2.16667 45.3271 2.48667 45.5604 2.9C45.7937 3.31333 45.9104 3.79 45.9104 4.33C45.9104 4.87 45.7937 5.35 45.5604 5.77C45.3271 6.18333 45.0037 6.50333 44.5904 6.73C44.1837 6.95667 43.7204 7.07 43.2004 7.07C42.4804 7.07 41.9104 6.83 41.4904 6.35V8.94H40.2404V1.66H41.4304V2.36C41.6371 2.10667 41.8904 1.91667 42.1904 1.79C42.4971 1.66333 42.8337 1.6 43.2004 1.6ZM43.0604 6C43.5204 6 43.8971 5.84667 44.1904 5.54C44.4904 5.23333 44.6404 4.83 44.6404 4.33C44.6404 3.83 44.4904 3.42667 44.1904 3.12C43.8971 2.81333 43.5204 2.66 43.0604 2.66C42.7604 2.66 42.4904 2.73 42.2504 2.87C42.0104 3.00333 41.8204 3.19667 41.6804 3.45C41.5404 3.70333 41.4704 3.99667 41.4704 4.33C41.4704 4.66333 41.5404 4.95667 41.6804 5.21C41.8204 5.46333 42.0104 5.66 42.2504 5.8C42.4904 5.93333 42.7604 6 43.0604 6ZM52.1545 4.36C52.1545 4.44667 52.1478 4.57 52.1345 4.73H47.9445C48.0178 5.12333 48.2078 5.43667 48.5145 5.67C48.8278 5.89667 49.2145 6.01 49.6745 6.01C50.2611 6.01 50.7445 5.81667 51.1245 5.43L51.7945 6.2C51.5545 6.48667 51.2511 6.70333 50.8845 6.85C50.5178 6.99667 50.1045 7.07 49.6445 7.07C49.0578 7.07 48.5411 6.95333 48.0945 6.72C47.6478 6.48667 47.3011 6.16333 47.0545 5.75C46.8145 5.33 46.6945 4.85667 46.6945 4.33C46.6945 3.81 46.8111 3.34333 47.0445 2.93C47.2845 2.51 47.6145 2.18333 48.0345 1.95C48.4545 1.71667 48.9278 1.6 49.4545 1.6C49.9745 1.6 50.4378 1.71667 50.8445 1.95C51.2578 2.17667 51.5778 2.5 51.8045 2.92C52.0378 3.33333 52.1545 3.81333 52.1545 4.36ZM49.4545 2.6C49.0545 2.6 48.7145 2.72 48.4345 2.96C48.1611 3.19333 47.9945 3.50667 47.9345 3.9H50.9645C50.9111 3.51333 50.7478 3.2 50.4745 2.96C50.2011 2.72 49.8611 2.6 49.4545 2.6ZM57.5563 2.72H55.6863V7H54.4363V2.72H52.5563V1.66H57.5563V2.72ZM61.143 3.42C61.823 3.42 62.343 3.57333 62.703 3.88C63.0697 4.18667 63.253 4.62 63.253 5.18C63.253 5.76667 63.053 6.22 62.653 6.54C62.253 6.86 61.6897 7.01667 60.963 7.01L58.463 7V1.66H59.713V3.41L61.143 3.42ZM60.853 6.09C61.2197 6.09667 61.4997 6.02 61.693 5.86C61.8864 5.7 61.983 5.46667 61.983 5.16C61.983 4.86 61.8897 4.64 61.703 4.5C61.5164 4.36 61.233 4.28667 60.853 4.28L59.713 4.27V6.08L60.853 6.09ZM14.1885 14.22C14.8485 14.42 15.1785 14.8467 15.1785 15.5C15.1785 15.98 14.9985 16.35 14.6385 16.61C14.2785 16.87 13.7452 17 13.0385 17H10.3185V11.66H12.9285C13.5818 11.66 14.0918 11.78 14.4585 12.02C14.8252 12.26 15.0085 12.6 15.0085 13.04C15.0085 13.3133 14.9352 13.55 14.7885 13.75C14.6485 13.95 14.4485 14.1067 14.1885 14.22ZM11.5085 13.89H12.8185C13.4652 13.89 13.7885 13.6667 13.7885 13.22C13.7885 12.7867 13.4652 12.57 12.8185 12.57H11.5085V13.89ZM12.9385 16.09C13.6252 16.09 13.9685 15.8667 13.9685 15.42C13.9685 15.1867 13.8885 15.0133 13.7285 14.9C13.5685 14.78 13.3185 14.72 12.9785 14.72H11.5085V16.09H12.9385ZM16.5099 11.66H17.7599V15.18L20.7099 11.66H21.8499V17H20.5999V13.48L17.6599 17H16.5099V11.66ZM26.653 14.22C26.9864 14.3133 27.243 14.4667 27.423 14.68C27.6097 14.8867 27.703 15.1367 27.703 15.43C27.703 15.7567 27.593 16.0467 27.373 16.3C27.153 16.5467 26.8497 16.74 26.463 16.88C26.0764 17.02 25.6364 17.09 25.143 17.09C24.7297 17.09 24.3264 17.0433 23.933 16.95C23.5397 16.85 23.183 16.71 22.863 16.53L23.223 15.6C23.483 15.7467 23.7764 15.86 24.103 15.94C24.4297 16.02 24.7564 16.06 25.083 16.06C25.503 16.06 25.8297 15.9967 26.063 15.87C26.303 15.7367 26.423 15.5567 26.423 15.33C26.423 15.1233 26.3297 14.9633 26.143 14.85C25.963 14.7367 25.7064 14.68 25.373 14.68H24.333V13.84H25.273C25.5864 13.84 25.8297 13.7867 26.003 13.68C26.183 13.5733 26.273 13.4233 26.273 13.23C26.273 13.0367 26.1664 12.8833 25.953 12.77C25.7397 12.6567 25.4464 12.6 25.073 12.6C24.5397 12.6 23.9764 12.73 23.383 12.99L23.063 12.07C23.763 11.7433 24.4697 11.58 25.183 11.58C25.6364 11.58 26.043 11.6433 26.403 11.77C26.763 11.89 27.043 12.0633 27.243 12.29C27.4497 12.51 27.553 12.7633 27.553 13.05C27.553 13.31 27.473 13.5433 27.313 13.75C27.153 13.95 26.933 14.1067 26.653 14.22ZM29.0002 11.66H30.2502V15.18L33.2002 11.66H34.3402V17H33.0902V13.48L30.1502 17H29.0002V11.66ZM40.2516 12.72H38.3816V17H37.1316V12.72H35.2516V11.66H40.2516V12.72ZM43.3784 14.86H42.4084V17H41.1584V11.66H42.4084V13.82H43.4084L44.9884 11.66H46.3284L44.3884 14.23L46.4584 17H44.9884L43.3784 14.86ZM47.34 11.66H48.59V15.18L51.54 11.66H52.68V17H51.43V13.48L48.49 17H47.34V11.66Z" fill="white"/>
</svg>
