<svg width="235" height="42" viewBox="0 0 235 42" fill="none" xmlns="http://www.w3.org/2000/svg">
<rect width="235" height="42" rx="15" fill="url(#paint0_linear_103_3435)"/>
<path d="M26.514 12.9V29H23.57V15.43H15.221V29H12.277V12.9H26.514ZM35.7978 29.161C34.5558 29.161 33.4365 28.8927 32.4398 28.356C31.4431 27.8193 30.6611 27.0757 30.0938 26.125C29.5418 25.159 29.2658 24.0703 29.2658 22.859C29.2658 21.6477 29.5418 20.5667 30.0938 19.616C30.6611 18.6653 31.4431 17.9217 32.4398 17.385C33.4365 16.8483 34.5558 16.58 35.7978 16.58C37.0551 16.58 38.1821 16.8483 39.1788 17.385C40.1755 17.9217 40.9498 18.6653 41.5018 19.616C42.0691 20.5667 42.3528 21.6477 42.3528 22.859C42.3528 24.0703 42.0691 25.159 41.5018 26.125C40.9498 27.0757 40.1755 27.8193 39.1788 28.356C38.1821 28.8927 37.0551 29.161 35.7978 29.161ZM35.7978 26.7C36.8558 26.7 37.7298 26.3473 38.4198 25.642C39.1098 24.9367 39.4548 24.009 39.4548 22.859C39.4548 21.709 39.1098 20.7813 38.4198 20.076C37.7298 19.3707 36.8558 19.018 35.7978 19.018C34.7398 19.018 33.8658 19.3707 33.1758 20.076C32.5011 20.7813 32.1638 21.709 32.1638 22.859C32.1638 24.009 32.5011 24.9367 33.1758 25.642C33.8658 26.3473 34.7398 26.7 35.7978 26.7ZM49.8909 24.078H47.6599V29H44.7849V16.718H47.6599V21.686H49.9599L53.5939 16.718H56.6759L52.2139 22.629L56.9749 29H53.5939L49.8909 24.078ZM62.9471 16.58C64.7564 16.58 66.1364 17.017 67.0871 17.891C68.0531 18.7497 68.5361 20.053 68.5361 21.801V29H65.8221V27.505C65.4694 28.0417 64.9634 28.4557 64.3041 28.747C63.6601 29.023 62.8781 29.161 61.9581 29.161C61.0381 29.161 60.2331 29.0077 59.5431 28.701C58.8531 28.379 58.3164 27.942 57.9331 27.39C57.5651 26.8227 57.3811 26.1863 57.3811 25.481C57.3811 24.377 57.7874 23.4953 58.6001 22.836C59.4281 22.1613 60.7238 21.824 62.4871 21.824H65.6611V21.64C65.6611 20.7813 65.4004 20.122 64.8791 19.662C64.3731 19.202 63.6141 18.972 62.6021 18.972C61.9121 18.972 61.2298 19.0793 60.5551 19.294C59.8958 19.5087 59.3361 19.8077 58.8761 20.191L57.7491 18.098C58.3931 17.6073 59.1674 17.2317 60.0721 16.971C60.9768 16.7103 61.9351 16.58 62.9471 16.58ZM62.5561 27.068C63.2768 27.068 63.9131 26.907 64.4651 26.585C65.0324 26.2477 65.4311 25.7723 65.6611 25.159V23.733H62.6941C61.0381 23.733 60.2101 24.2773 60.2101 25.366C60.2101 25.8873 60.4171 26.3013 60.8311 26.608C61.2451 26.9147 61.8201 27.068 62.5561 27.068ZM78.8655 22.606C79.6322 22.8207 80.2225 23.1733 80.6365 23.664C81.0658 24.1393 81.2805 24.7143 81.2805 25.389C81.2805 26.1403 81.0275 26.8073 80.5215 27.39C80.0155 27.9573 79.3178 28.402 78.4285 28.724C77.5392 29.046 76.5272 29.207 75.3925 29.207C74.4418 29.207 73.5142 29.0997 72.6095 28.885C71.7048 28.655 70.8845 28.333 70.1485 27.919L70.9765 25.78C71.5745 26.1173 72.2492 26.378 73.0005 26.562C73.7518 26.746 74.5032 26.838 75.2545 26.838C76.2205 26.838 76.9718 26.6923 77.5085 26.401C78.0605 26.0943 78.3365 25.6803 78.3365 25.159C78.3365 24.6837 78.1218 24.3157 77.6925 24.055C77.2785 23.7943 76.6882 23.664 75.9215 23.664H73.5295V21.732H75.6915C76.4122 21.732 76.9718 21.6093 77.3705 21.364C77.7845 21.1187 77.9915 20.7737 77.9915 20.329C77.9915 19.8843 77.7462 19.5317 77.2555 19.271C76.7648 19.0103 76.0902 18.88 75.2315 18.88C74.0048 18.88 72.7092 19.179 71.3445 19.777L70.6085 17.661C72.2185 16.9097 73.8438 16.534 75.4845 16.534C76.5272 16.534 77.4625 16.6797 78.2905 16.971C79.1185 17.247 79.7625 17.6457 80.2225 18.167C80.6978 18.673 80.9355 19.2557 80.9355 19.915C80.9355 20.513 80.7515 21.0497 80.3835 21.525C80.0155 21.985 79.5095 22.3453 78.8655 22.606ZM88.4329 16.58C90.2422 16.58 91.6222 17.017 92.5729 17.891C93.5389 18.7497 94.0219 20.053 94.0219 21.801V29H91.3079V27.505C90.9552 28.0417 90.4492 28.4557 89.7899 28.747C89.1459 29.023 88.3639 29.161 87.4439 29.161C86.5239 29.161 85.7189 29.0077 85.0289 28.701C84.3389 28.379 83.8022 27.942 83.4189 27.39C83.0509 26.8227 82.8669 26.1863 82.8669 25.481C82.8669 24.377 83.2732 23.4953 84.0859 22.836C84.9139 22.1613 86.2095 21.824 87.9729 21.824H91.1469V21.64C91.1469 20.7813 90.8862 20.122 90.3649 19.662C89.8589 19.202 89.0999 18.972 88.0879 18.972C87.3979 18.972 86.7155 19.0793 86.0409 19.294C85.3815 19.5087 84.8219 19.8077 84.3619 20.191L83.2349 18.098C83.8789 17.6073 84.6532 17.2317 85.5579 16.971C86.4625 16.7103 87.4209 16.58 88.4329 16.58ZM88.0419 27.068C88.7625 27.068 89.3989 26.907 89.9509 26.585C90.5182 26.2477 90.9169 25.7723 91.1469 25.159V23.733H88.1799C86.5239 23.733 85.6959 24.2773 85.6959 25.366C85.6959 25.8873 85.9029 26.3013 86.3169 26.608C86.7309 26.9147 87.3059 27.068 88.0419 27.068ZM106.901 19.156H102.6V29H99.7245V19.156H95.4005V16.718H106.901V19.156ZM114.742 20.766C116.306 20.766 117.502 21.1187 118.33 21.824C119.173 22.5293 119.595 23.526 119.595 24.814C119.595 26.1633 119.135 27.206 118.215 27.942C117.295 28.678 115.999 29.0383 114.328 29.023L108.578 29V16.718H111.453V20.743L114.742 20.766ZM114.075 26.907C114.918 26.9223 115.562 26.746 116.007 26.378C116.452 26.01 116.674 25.4733 116.674 24.768C116.674 24.078 116.459 23.572 116.03 23.25C115.601 22.928 114.949 22.7593 114.075 22.744L111.453 22.721V26.884L114.075 26.907ZM144.889 30.61C144.353 31.2387 143.724 31.714 143.003 32.036C142.298 32.358 141.524 32.519 140.68 32.519C139.576 32.519 138.564 32.266 137.644 31.76C136.724 31.2693 135.674 30.4107 134.493 29.184C133.006 29.0613 131.672 28.632 130.491 27.896C129.311 27.1447 128.391 26.171 127.731 24.975C127.072 23.7637 126.742 22.422 126.742 20.95C126.742 19.386 127.118 17.9753 127.869 16.718C128.621 15.4453 129.656 14.4563 130.974 13.751C132.293 13.0303 133.773 12.67 135.413 12.67C137.054 12.67 138.534 13.0303 139.852 13.751C141.171 14.4563 142.206 15.4377 142.957 16.695C143.709 17.9523 144.084 19.3707 144.084 20.95C144.084 22.2227 143.831 23.4033 143.325 24.492C142.819 25.5653 142.114 26.4853 141.209 27.252C140.305 28.0033 139.254 28.5477 138.058 28.885C138.503 29.3603 138.94 29.7053 139.369 29.92C139.799 30.1347 140.259 30.242 140.749 30.242C141.807 30.242 142.727 29.8127 143.509 28.954L144.889 30.61ZM129.755 20.95C129.755 22.0233 130.001 22.997 130.491 23.871C130.982 24.7297 131.657 25.4043 132.515 25.895C133.374 26.3703 134.34 26.608 135.413 26.608C136.487 26.608 137.453 26.3703 138.311 25.895C139.17 25.4043 139.845 24.7297 140.335 23.871C140.826 22.997 141.071 22.0233 141.071 20.95C141.071 19.8767 140.826 18.9107 140.335 18.052C139.845 17.178 139.17 16.5033 138.311 16.028C137.453 15.5373 136.487 15.292 135.413 15.292C134.34 15.292 133.374 15.5373 132.515 16.028C131.657 16.5033 130.982 17.178 130.491 18.052C130.001 18.9107 129.755 19.8767 129.755 20.95ZM157.38 29L154.091 24.285C153.953 24.3003 153.746 24.308 153.47 24.308H149.836V29H146.846V12.9H153.47C154.865 12.9 156.076 13.13 157.104 13.59C158.146 14.05 158.944 14.7093 159.496 15.568C160.048 16.4267 160.324 17.4463 160.324 18.627C160.324 19.8383 160.025 20.881 159.427 21.755C158.844 22.629 158.001 23.2807 156.897 23.71L160.6 29H157.38ZM157.311 18.627C157.311 17.5997 156.973 16.81 156.299 16.258C155.624 15.706 154.635 15.43 153.332 15.43H149.836V21.847H153.332C154.635 21.847 155.624 21.571 156.299 21.019C156.973 20.4517 157.311 19.6543 157.311 18.627ZM168.312 21.41H174.637V23.802H168.312V21.41ZM188.475 24.078H186.244V29H183.369V16.718H186.244V21.686H188.544L192.178 16.718H195.26L190.798 22.629L195.559 29H192.178L188.475 24.078ZM202.249 29.161C201.007 29.161 199.888 28.8927 198.891 28.356C197.894 27.8193 197.112 27.0757 196.545 26.125C195.993 25.159 195.717 24.0703 195.717 22.859C195.717 21.6477 195.993 20.5667 196.545 19.616C197.112 18.6653 197.894 17.9217 198.891 17.385C199.888 16.8483 201.007 16.58 202.249 16.58C203.506 16.58 204.633 16.8483 205.63 17.385C206.627 17.9217 207.401 18.6653 207.953 19.616C208.52 20.5667 208.804 21.6477 208.804 22.859C208.804 24.0703 208.52 25.159 207.953 26.125C207.401 27.0757 206.627 27.8193 205.63 28.356C204.633 28.8927 203.506 29.161 202.249 29.161ZM202.249 26.7C203.307 26.7 204.181 26.3473 204.871 25.642C205.561 24.9367 205.906 24.009 205.906 22.859C205.906 21.709 205.561 20.7813 204.871 20.076C204.181 19.3707 203.307 19.018 202.249 19.018C201.191 19.018 200.317 19.3707 199.627 20.076C198.952 20.7813 198.615 21.709 198.615 22.859C198.615 24.009 198.952 24.9367 199.627 25.642C200.317 26.3473 201.191 26.7 202.249 26.7ZM224.211 26.562V31.737H221.52V29H212.044V31.737H209.376V26.562H209.951C210.733 26.5313 211.262 26.033 211.538 25.067C211.83 24.0857 212.021 22.7057 212.113 20.927L212.274 16.718H222.394V26.562H224.211ZM214.735 21.134C214.674 22.5447 214.559 23.6947 214.39 24.584C214.222 25.4733 213.915 26.1327 213.47 26.562H219.519V19.156H214.804L214.735 21.134Z" fill="white"/>
<defs>
<linearGradient id="paint0_linear_103_3435" x1="-15.4605" y1="-9.04916e-07" x2="375.901" y2="75.2687" gradientUnits="userSpaceOnUse">
<stop stop-color="#FF4E50"/>
<stop offset="1" stop-color="#F9D423"/>
</linearGradient>
</defs>
</svg>
