<svg width="58" height="21" viewBox="0 0 58 21" fill="none" xmlns="http://www.w3.org/2000/svg">
<path d="M4.54813 8.1C3.83479 8.1 3.19146 7.94667 2.61813 7.64C2.04479 7.32667 1.59479 6.89667 1.26813 6.35C0.941458 5.79667 0.778125 5.18 0.778125 4.5C0.778125 3.82 0.941458 3.20667 1.26813 2.66C1.59479 2.10667 2.04479 1.67667 2.61813 1.37C3.19146 1.05667 3.83479 0.9 4.54813 0.9C5.26146 0.9 5.90479 1.05667 6.47813 1.37C7.05146 1.67667 7.50146 2.10333 7.82813 2.65C8.15479 3.19667 8.31813 3.81333 8.31813 4.5C8.31813 5.18667 8.15479 5.80333 7.82813 6.35C7.50146 6.89667 7.05146 7.32667 6.47813 7.64C5.90479 7.94667 5.26146 8.1 4.54813 8.1ZM4.54813 6.96C5.01479 6.96 5.43479 6.85667 5.80813 6.65C6.18146 6.43667 6.47479 6.14333 6.68813 5.77C6.90146 5.39 7.00813 4.96667 7.00813 4.5C7.00813 4.03333 6.90146 3.61333 6.68813 3.24C6.47479 2.86 6.18146 2.56667 5.80813 2.36C5.43479 2.14667 5.01479 2.04 4.54813 2.04C4.08146 2.04 3.66146 2.14667 3.28813 2.36C2.91479 2.56667 2.62146 2.86 2.40813 3.24C2.19479 3.61333 2.08813 4.03333 2.08813 4.5C2.08813 4.96667 2.19479 5.39 2.40813 5.77C2.62146 6.14333 2.91479 6.43667 3.28813 6.65C3.66146 6.85667 4.08146 6.96 4.54813 6.96ZM13.7477 3.72H11.8777V8H10.6277V3.72H8.74773V2.66H13.7477V3.72ZM19.7745 2.66V8H18.5345V3.72H15.9045V8H14.6545V2.66H19.7745ZM24.4211 2.6C24.9411 2.6 25.4044 2.71333 25.8111 2.94C26.2244 3.16667 26.5478 3.48667 26.7811 3.9C27.0144 4.31333 27.1311 4.79 27.1311 5.33C27.1311 5.87 27.0144 6.35 26.7811 6.77C26.5478 7.18333 26.2244 7.50333 25.8111 7.73C25.4044 7.95667 24.9411 8.07 24.4211 8.07C23.7011 8.07 23.1311 7.83 22.7111 7.35V9.94H21.4611V2.66H22.6511V3.36C22.8578 3.10667 23.1111 2.91667 23.4111 2.79C23.7178 2.66333 24.0544 2.6 24.4211 2.6ZM24.2811 7C24.7411 7 25.1178 6.84667 25.4111 6.54C25.7111 6.23333 25.8611 5.83 25.8611 5.33C25.8611 4.83 25.7111 4.42667 25.4111 4.12C25.1178 3.81333 24.7411 3.66 24.2811 3.66C23.9811 3.66 23.7111 3.73 23.4711 3.87C23.2311 4.00333 23.0411 4.19667 22.9011 4.45C22.7611 4.70333 22.6911 4.99667 22.6911 5.33C22.6911 5.66333 22.7611 5.95667 22.9011 6.21C23.0411 6.46333 23.2311 6.66 23.4711 6.8C23.7111 6.93333 23.9811 7 24.2811 7ZM30.2968 2.6C31.0835 2.6 31.6835 2.79 32.0968 3.17C32.5168 3.54333 32.7268 4.11 32.7268 4.87V8H31.5468V7.35C31.3935 7.58333 31.1735 7.76333 30.8868 7.89C30.6068 8.01 30.2668 8.07 29.8668 8.07C29.4668 8.07 29.1168 8.00333 28.8168 7.87C28.5168 7.73 28.2835 7.54 28.1168 7.3C27.9568 7.05333 27.8768 6.77667 27.8768 6.47C27.8768 5.99 28.0535 5.60667 28.4068 5.32C28.7668 5.02667 29.3301 4.88 30.0968 4.88H31.4768V4.8C31.4768 4.42667 31.3635 4.14 31.1368 3.94C30.9168 3.74 30.5868 3.64 30.1468 3.64C29.8468 3.64 29.5501 3.68667 29.2568 3.78C28.9701 3.87333 28.7268 4.00333 28.5268 4.17L28.0368 3.26C28.3168 3.04667 28.6535 2.88333 29.0468 2.77C29.4401 2.65667 29.8568 2.6 30.2968 2.6ZM30.1268 7.16C30.4401 7.16 30.7168 7.09 30.9568 6.95C31.2035 6.80333 31.3768 6.59667 31.4768 6.33V5.71H30.1868C29.4668 5.71 29.1068 5.94667 29.1068 6.42C29.1068 6.64667 29.1968 6.82667 29.3768 6.96C29.5568 7.09333 29.8068 7.16 30.1268 7.16ZM38.1436 5.22C38.8036 5.42 39.1336 5.84667 39.1336 6.5C39.1336 6.98 38.9536 7.35 38.5936 7.61C38.2336 7.87 37.7003 8 36.9936 8H34.2736V2.66H36.8836C37.5369 2.66 38.0469 2.78 38.4136 3.02C38.7803 3.26 38.9636 3.6 38.9636 4.04C38.9636 4.31333 38.8903 4.55 38.7436 4.75C38.6036 4.95 38.4036 5.10667 38.1436 5.22ZM35.4636 4.89H36.7736C37.4203 4.89 37.7436 4.66667 37.7436 4.22C37.7436 3.78667 37.4203 3.57 36.7736 3.57H35.4636V4.89ZM36.8936 7.09C37.5803 7.09 37.9236 6.86667 37.9236 6.42C37.9236 6.18667 37.8436 6.01333 37.6836 5.9C37.5236 5.78 37.2736 5.72 36.9336 5.72H35.4636V7.09H36.8936ZM40.465 2.66H41.715V6.18L44.665 2.66H45.805V8H44.555V4.48L41.615 8H40.465V2.66ZM51.7165 3.72H49.8465V8H48.5965V3.72H46.7165V2.66H51.7165V3.72ZM55.3032 4.42C55.9832 4.42 56.5032 4.57333 56.8632 4.88C57.2299 5.18667 57.4132 5.62 57.4132 6.18C57.4132 6.76667 57.2132 7.22 56.8132 7.54C56.4132 7.86 55.8499 8.01667 55.1232 8.01L52.6232 8V2.66H53.8732V4.41L55.3032 4.42ZM55.0132 7.09C55.3799 7.09667 55.6599 7.02 55.8532 6.86C56.0465 6.7 56.1432 6.46667 56.1432 6.16C56.1432 5.86 56.0499 5.64 55.8632 5.5C55.6765 5.36 55.3932 5.28667 55.0132 5.28L53.8732 5.27V7.08L55.0132 7.09ZM12.3965 15.22C13.0565 15.42 13.3865 15.8467 13.3865 16.5C13.3865 16.98 13.2065 17.35 12.8465 17.61C12.4865 17.87 11.9532 18 11.2465 18H8.52652V12.66H11.1365C11.7899 12.66 12.2999 12.78 12.6665 13.02C13.0332 13.26 13.2165 13.6 13.2165 14.04C13.2165 14.3133 13.1432 14.55 12.9965 14.75C12.8565 14.95 12.6565 15.1067 12.3965 15.22ZM9.71652 14.89H11.0265C11.6732 14.89 11.9965 14.6667 11.9965 14.22C11.9965 13.7867 11.6732 13.57 11.0265 13.57H9.71652V14.89ZM11.1465 17.09C11.8332 17.09 12.1765 16.8667 12.1765 16.42C12.1765 16.1867 12.0965 16.0133 11.9365 15.9C11.7765 15.78 11.5265 15.72 11.1865 15.72H9.71652V17.09H11.1465ZM14.7179 12.66H15.9679V16.18L18.9179 12.66H20.0579V18H18.8079V14.48L15.8679 18H14.7179V12.66ZM24.8611 15.22C25.1944 15.3133 25.4511 15.4667 25.6311 15.68C25.8177 15.8867 25.9111 16.1367 25.9111 16.43C25.9111 16.7567 25.8011 17.0467 25.5811 17.3C25.3611 17.5467 25.0577 17.74 24.6711 17.88C24.2844 18.02 23.8444 18.09 23.3511 18.09C22.9377 18.09 22.5344 18.0433 22.1411 17.95C21.7477 17.85 21.3911 17.71 21.0711 17.53L21.4311 16.6C21.6911 16.7467 21.9844 16.86 22.3111 16.94C22.6377 17.02 22.9644 17.06 23.2911 17.06C23.7111 17.06 24.0377 16.9967 24.2711 16.87C24.5111 16.7367 24.6311 16.5567 24.6311 16.33C24.6311 16.1233 24.5377 15.9633 24.3511 15.85C24.1711 15.7367 23.9144 15.68 23.5811 15.68H22.5411V14.84H23.4811C23.7944 14.84 24.0377 14.7867 24.2111 14.68C24.3911 14.5733 24.4811 14.4233 24.4811 14.23C24.4811 14.0367 24.3744 13.8833 24.1611 13.77C23.9477 13.6567 23.6544 13.6 23.2811 13.6C22.7477 13.6 22.1844 13.73 21.5911 13.99L21.2711 13.07C21.9711 12.7433 22.6777 12.58 23.3911 12.58C23.8444 12.58 24.2511 12.6433 24.6111 12.77C24.9711 12.89 25.2511 13.0633 25.4511 13.29C25.6577 13.51 25.7611 13.7633 25.7611 14.05C25.7611 14.31 25.6811 14.5433 25.5211 14.75C25.3611 14.95 25.1411 15.1067 24.8611 15.22ZM27.2082 12.66H28.4582V16.18L31.4082 12.66H32.5482V18H31.2982V14.48L28.3582 18H27.2082V12.66ZM38.4596 13.72H36.5896V18H35.3396V13.72H33.4596V12.66H38.4596V13.72ZM41.5864 15.86H40.6164V18H39.3664V12.66H40.6164V14.82H41.6164L43.1964 12.66H44.5364L42.5964 15.23L44.6664 18H43.1964L41.5864 15.86ZM50.2853 12.66L47.7853 18.43C47.5519 19.01 47.2686 19.4167 46.9353 19.65C46.6019 19.89 46.1986 20.01 45.7253 20.01C45.4586 20.01 45.1953 19.9667 44.9353 19.88C44.6753 19.7933 44.4619 19.6733 44.2953 19.52L44.7953 18.6C44.9153 18.7133 45.0553 18.8033 45.2153 18.87C45.3819 18.9367 45.5486 18.97 45.7153 18.97C45.9353 18.97 46.1153 18.9133 46.2553 18.8C46.4019 18.6867 46.5353 18.4967 46.6553 18.23L46.7453 18.02L44.4153 12.66H45.7153L47.3953 16.61L49.0853 12.66H50.2853Z" fill="white"/>
</svg>
