<svg width="81" height="15" viewBox="0 0 81 15" fill="none" xmlns="http://www.w3.org/2000/svg">
<path d="M5.287 14.17C4.369 14.17 3.47933 14.0397 2.618 13.779C1.768 13.5183 1.09367 13.1727 0.595 12.742L1.36 11.025C1.84733 11.4103 2.44233 11.7277 3.145 11.977C3.859 12.215 4.573 12.334 5.287 12.334C6.171 12.334 6.82833 12.1923 7.259 11.909C7.701 11.6257 7.922 11.2517 7.922 10.787C7.922 10.447 7.79733 10.1693 7.548 9.954C7.31 9.72733 7.004 9.55167 6.63 9.427C6.256 9.30233 5.746 9.16067 5.1 9.002C4.19333 8.78667 3.45667 8.57133 2.89 8.356C2.33467 8.14067 1.853 7.80633 1.445 7.353C1.04833 6.88833 0.85 6.265 0.85 5.483C0.85 4.82567 1.02567 4.23067 1.377 3.698C1.73967 3.154 2.278 2.72333 2.992 2.406C3.71733 2.08867 4.60133 1.93 5.644 1.93C6.36933 1.93 7.08333 2.02067 7.786 2.202C8.48867 2.38333 9.095 2.644 9.605 2.984L8.908 4.701C8.38667 4.395 7.84267 4.16267 7.276 4.004C6.70933 3.84533 6.15967 3.766 5.627 3.766C4.75433 3.766 4.10267 3.91333 3.672 4.208C3.25267 4.50267 3.043 4.89367 3.043 5.381C3.043 5.721 3.162 5.99867 3.4 6.214C3.64933 6.42933 3.961 6.59933 4.335 6.724C4.709 6.84867 5.219 6.99033 5.865 7.149C6.749 7.353 7.47433 7.56833 8.041 7.795C8.60767 8.01033 9.08933 8.34467 9.486 8.798C9.894 9.25133 10.098 9.86333 10.098 10.634C10.098 11.2913 9.91667 11.8863 9.554 12.419C9.20267 12.9517 8.66433 13.3767 7.939 13.694C7.21367 14.0113 6.32967 14.17 5.287 14.17ZM15.7574 14.119C14.8394 14.119 14.0121 13.9207 13.2754 13.524C12.5387 13.1273 11.9607 12.5777 11.5414 11.875C11.1334 11.161 10.9294 10.3563 10.9294 9.461C10.9294 8.56567 11.1334 7.76667 11.5414 7.064C11.9607 6.36133 12.5387 5.81167 13.2754 5.415C14.0121 5.01833 14.8394 4.82 15.7574 4.82C16.6867 4.82 17.5197 5.01833 18.2564 5.415C18.9931 5.81167 19.5654 6.36133 19.9734 7.064C20.3927 7.76667 20.6024 8.56567 20.6024 9.461C20.6024 10.3563 20.3927 11.161 19.9734 11.875C19.5654 12.5777 18.9931 13.1273 18.2564 13.524C17.5197 13.9207 16.6867 14.119 15.7574 14.119ZM15.7574 12.3C16.5394 12.3 17.1854 12.0393 17.6954 11.518C18.2054 10.9967 18.4604 10.311 18.4604 9.461C18.4604 8.611 18.2054 7.92533 17.6954 7.404C17.1854 6.88267 16.5394 6.622 15.7574 6.622C14.9754 6.622 14.3294 6.88267 13.8194 7.404C13.3207 7.92533 13.0714 8.611 13.0714 9.461C13.0714 10.311 13.3207 10.9967 13.8194 11.518C14.3294 12.0393 14.9754 12.3 15.7574 12.3ZM25.9154 2.984C25.0201 2.984 24.5724 3.47133 24.5724 4.446V4.99H27.0714V6.69H24.6404V14H22.5154V6.69H21.0194V4.99H22.5154V4.412C22.5154 3.43733 22.7988 2.67233 23.3654 2.117C23.9321 1.55033 24.7311 1.267 25.7624 1.267C26.5784 1.267 27.2188 1.43133 27.6834 1.76L27.0884 3.358C26.7258 3.10867 26.3348 2.984 25.9154 2.984ZM33.5508 13.507C33.3015 13.711 32.9955 13.864 32.6328 13.966C32.2815 14.068 31.9075 14.119 31.5108 14.119C30.5135 14.119 29.7428 13.8583 29.1988 13.337C28.6548 12.8157 28.3828 12.0563 28.3828 11.059V6.69H26.8868V4.99H28.3828V2.916H30.5078V4.99H32.9388V6.69H30.5078V11.008C30.5078 11.45 30.6155 11.79 30.8308 12.028C31.0462 12.2547 31.3578 12.368 31.7658 12.368C32.2418 12.368 32.6385 12.2433 32.9558 11.994L33.5508 13.507ZM43.0741 14.17C42.1561 14.17 41.2665 14.0397 40.4051 13.779C39.5551 13.5183 38.8808 13.1727 38.3821 12.742L39.1471 11.025C39.6345 11.4103 40.2295 11.7277 40.9321 11.977C41.6461 12.215 42.3601 12.334 43.0741 12.334C43.9581 12.334 44.6155 12.1923 45.0461 11.909C45.4881 11.6257 45.7091 11.2517 45.7091 10.787C45.7091 10.447 45.5845 10.1693 45.3351 9.954C45.0971 9.72733 44.7911 9.55167 44.4171 9.427C44.0431 9.30233 43.5331 9.16067 42.8871 9.002C41.9805 8.78667 41.2438 8.57133 40.6771 8.356C40.1218 8.14067 39.6401 7.80633 39.2321 7.353C38.8355 6.88833 38.6371 6.265 38.6371 5.483C38.6371 4.82567 38.8128 4.23067 39.1641 3.698C39.5268 3.154 40.0651 2.72333 40.7791 2.406C41.5045 2.08867 42.3885 1.93 43.4311 1.93C44.1565 1.93 44.8705 2.02067 45.5731 2.202C46.2758 2.38333 46.8821 2.644 47.3921 2.984L46.6951 4.701C46.1738 4.395 45.6298 4.16267 45.0631 4.004C44.4965 3.84533 43.9468 3.766 43.4141 3.766C42.5415 3.766 41.8898 3.91333 41.4591 4.208C41.0398 4.50267 40.8301 4.89367 40.8301 5.381C40.8301 5.721 40.9491 5.99867 41.1871 6.214C41.4365 6.42933 41.7481 6.59933 42.1221 6.724C42.4961 6.84867 43.0061 6.99033 43.6521 7.149C44.5361 7.353 45.2615 7.56833 45.8281 7.795C46.3948 8.01033 46.8765 8.34467 47.2731 8.798C47.6811 9.25133 47.8851 9.86333 47.8851 10.634C47.8851 11.2913 47.7038 11.8863 47.3411 12.419C46.9898 12.9517 46.4515 13.3767 45.7261 13.694C45.0008 14.0113 44.1168 14.17 43.0741 14.17ZM53.1706 10.107L51.5896 11.603V14H49.4646V1.386H51.5896V9.002L55.9926 4.922H58.5426L54.7516 8.73L58.8996 14H56.3156L53.1706 10.107ZM59.7812 4.922H61.9062V14H59.7812V4.922ZM60.8522 3.426C60.4668 3.426 60.1438 3.307 59.8832 3.069C59.6225 2.81967 59.4922 2.51367 59.4922 2.151C59.4922 1.78833 59.6225 1.488 59.8832 1.25C60.1438 1.00067 60.4668 0.876 60.8522 0.876C61.2375 0.876 61.5605 0.995 61.8212 1.233C62.0818 1.45967 62.2122 1.74867 62.2122 2.1C62.2122 2.474 62.0818 2.79133 61.8212 3.052C61.5718 3.30133 61.2488 3.426 60.8522 3.426ZM64.2872 1.386H66.4122V14H64.2872V1.386ZM68.7933 1.386H70.9183V14H68.7933V1.386ZM76.1043 14.119C75.3677 14.119 74.648 14.0227 73.9453 13.83C73.2427 13.6373 72.6817 13.3937 72.2623 13.099L73.0783 11.484C73.4863 11.756 73.9737 11.977 74.5403 12.147C75.1183 12.3057 75.685 12.385 76.2404 12.385C77.5097 12.385 78.1443 12.0507 78.1443 11.382C78.1443 11.0647 77.98 10.8437 77.6514 10.719C77.334 10.5943 76.8183 10.4753 76.1043 10.362C75.3563 10.2487 74.7443 10.1183 74.2683 9.971C73.8037 9.82367 73.3957 9.56867 73.0443 9.206C72.7043 8.832 72.5343 8.31633 72.5343 7.659C72.5343 6.79767 72.8913 6.112 73.6053 5.602C74.3307 5.08067 75.3053 4.82 76.5293 4.82C77.1527 4.82 77.776 4.89367 78.3994 5.041C79.0227 5.177 79.5327 5.364 79.9294 5.602L79.1134 7.217C78.3427 6.76367 77.4757 6.537 76.5124 6.537C75.889 6.537 75.413 6.63333 75.0843 6.826C74.767 7.00733 74.6083 7.251 74.6083 7.557C74.6083 7.897 74.7783 8.14067 75.1183 8.288C75.4697 8.424 76.008 8.55433 76.7333 8.679C77.4587 8.79233 78.0537 8.92267 78.5184 9.07C78.983 9.21733 79.3797 9.46667 79.7084 9.818C80.0484 10.1693 80.2184 10.668 80.2184 11.314C80.2184 12.164 79.85 12.844 79.1134 13.354C78.3767 13.864 77.3737 14.119 76.1043 14.119Z" fill="white"/>
</svg>
