<svg width="139" height="42" viewBox="0 0 139 42" fill="none" xmlns="http://www.w3.org/2000/svg">
<rect width="139" height="42" rx="15" fill="url(#paint0_linear_103_2666)"/>
<path d="M20.302 16.97H16.358V27H14.165V16.97H10.238V15.1H20.302V16.97ZM29.1323 22.512C29.1323 22.6593 29.121 22.869 29.0983 23.141H21.9753C22.1 23.8097 22.423 24.3423 22.9443 24.739C23.477 25.1243 24.1343 25.317 24.9163 25.317C25.9136 25.317 26.7353 24.9883 27.3813 24.331L28.5203 25.64C28.1123 26.1273 27.5966 26.4957 26.9733 26.745C26.35 26.9943 25.6473 27.119 24.8653 27.119C23.868 27.119 22.9896 26.9207 22.2303 26.524C21.471 26.1273 20.8816 25.5777 20.4623 24.875C20.0543 24.161 19.8503 23.3563 19.8503 22.461C19.8503 21.577 20.0486 20.7837 20.4453 20.081C20.8533 19.367 21.4143 18.8117 22.1283 18.415C22.8423 18.0183 23.647 17.82 24.5423 17.82C25.4263 17.82 26.214 18.0183 26.9053 18.415C27.608 18.8003 28.152 19.35 28.5373 20.064C28.934 20.7667 29.1323 21.5827 29.1323 22.512ZM24.5423 19.52C23.8623 19.52 23.2843 19.724 22.8083 20.132C22.3436 20.5287 22.0603 21.0613 21.9583 21.73H27.1093C27.0186 21.0727 26.741 20.54 26.2763 20.132C25.8116 19.724 25.2336 19.52 24.5423 19.52ZM35.1795 27.119C34.2389 27.119 33.3945 26.9207 32.6465 26.524C31.8985 26.1273 31.3149 25.5777 30.8955 24.875C30.4762 24.161 30.2665 23.3563 30.2665 22.461C30.2665 21.5657 30.4762 20.7667 30.8955 20.064C31.3149 19.3613 31.8929 18.8117 32.6295 18.415C33.3775 18.0183 34.2275 17.82 35.1795 17.82C36.0749 17.82 36.8569 18.0013 37.5255 18.364C38.2055 18.7267 38.7155 19.248 39.0555 19.928L37.4235 20.88C37.1629 20.4607 36.8342 20.149 36.4375 19.945C36.0522 19.7297 35.6272 19.622 35.1625 19.622C34.3692 19.622 33.7119 19.8827 33.1905 20.404C32.6692 20.914 32.4085 21.5997 32.4085 22.461C32.4085 23.3223 32.6635 24.0137 33.1735 24.535C33.6949 25.045 34.3579 25.3 35.1625 25.3C35.6272 25.3 36.0522 25.198 36.4375 24.994C36.8342 24.7787 37.1629 24.4613 37.4235 24.042L39.0555 24.994C38.7042 25.674 38.1885 26.201 37.5085 26.575C36.8399 26.9377 36.0635 27.119 35.1795 27.119ZM47.6264 19.724H44.4474V27H42.3224V19.724H39.1264V17.922H47.6264V19.724ZM53.3051 15.1H62.5701V16.919H55.4811V19.843H59.0001C60.4281 19.843 61.5104 20.1433 62.2471 20.744C62.9951 21.3333 63.3691 22.189 63.3691 23.311C63.3691 24.4897 62.9611 25.402 62.1451 26.048C61.3291 26.6827 60.1674 27 58.6601 27H53.3051V15.1ZM58.5411 25.3C59.3911 25.3 60.0371 25.1357 60.4791 24.807C60.9211 24.4783 61.1421 24.0023 61.1421 23.379C61.1421 22.155 60.2751 21.543 58.5411 21.543H55.4811V25.3H58.5411ZM73.6431 22.512C73.6431 22.6593 73.6318 22.869 73.6091 23.141H66.4861C66.6108 23.8097 66.9338 24.3423 67.4551 24.739C67.9878 25.1243 68.6451 25.317 69.4271 25.317C70.4244 25.317 71.2461 24.9883 71.8921 24.331L73.0311 25.64C72.6231 26.1273 72.1074 26.4957 71.4841 26.745C70.8608 26.9943 70.1581 27.119 69.3761 27.119C68.3788 27.119 67.5004 26.9207 66.7411 26.524C65.9818 26.1273 65.3924 25.5777 64.9731 24.875C64.5651 24.161 64.3611 23.3563 64.3611 22.461C64.3611 21.577 64.5594 20.7837 64.9561 20.081C65.3641 19.367 65.9251 18.8117 66.6391 18.415C67.3531 18.0183 68.1578 17.82 69.0531 17.82C69.9371 17.82 70.7248 18.0183 71.4161 18.415C72.1188 18.8003 72.6628 19.35 73.0481 20.064C73.4448 20.7667 73.6431 21.5827 73.6431 22.512ZM69.0531 19.52C68.3731 19.52 67.7951 19.724 67.3191 20.132C66.8544 20.5287 66.5711 21.0613 66.4691 21.73H71.6201C71.5294 21.0727 71.2518 20.54 70.7871 20.132C70.3224 19.724 69.7444 19.52 69.0531 19.52ZM83.6711 17.922V27H81.5461V19.724H78.1461L78.0611 21.526C78.0044 22.7273 77.8911 23.736 77.7211 24.552C77.5624 25.3567 77.2848 25.997 76.8881 26.473C76.5028 26.9377 75.9701 27.17 75.2901 27.17C74.9728 27.17 74.5818 27.1077 74.1171 26.983L74.2191 25.198C74.3778 25.232 74.5138 25.249 74.6271 25.249C75.0578 25.249 75.3808 25.079 75.5961 24.739C75.8114 24.3877 75.9474 23.974 76.0041 23.498C76.0721 23.0107 76.1288 22.3193 76.1741 21.424L76.3271 17.922H83.6711ZM91.0379 18.364C91.8993 18.364 92.6586 18.551 93.3159 18.925C93.9733 19.2877 94.4833 19.7977 94.8459 20.455C95.2199 21.1123 95.4069 21.866 95.4069 22.716C95.4069 23.5887 95.2029 24.365 94.7949 25.045C94.3869 25.7137 93.8146 26.235 93.0779 26.609C92.3413 26.983 91.5026 27.17 90.5619 27.17C88.9866 27.17 87.7683 26.6487 86.9069 25.606C86.0456 24.5633 85.6149 23.0617 85.6149 21.101C85.6149 19.2763 86.0059 17.8313 86.7879 16.766C87.5699 15.7007 88.7656 14.998 90.3749 14.658L94.5909 13.757L94.8969 15.661L91.0719 16.443C89.9726 16.6697 89.1509 17.055 88.6069 17.599C88.0629 18.143 87.7456 18.908 87.6549 19.894C88.0629 19.4067 88.5559 19.0327 89.1339 18.772C89.7119 18.5 90.3466 18.364 91.0379 18.364ZM90.6129 25.453C91.3949 25.453 92.0239 25.2037 92.4999 24.705C92.9873 24.195 93.2309 23.549 93.2309 22.767C93.2309 21.985 92.9873 21.356 92.4999 20.88C92.0239 20.404 91.3949 20.166 90.6129 20.166C89.8196 20.166 89.1793 20.404 88.6919 20.88C88.2046 21.356 87.9609 21.985 87.9609 22.767C87.9609 23.5603 88.2046 24.2063 88.6919 24.705C89.1906 25.2037 89.8309 25.453 90.6129 25.453ZM97.0558 17.922H99.1808V23.906L104.196 17.922H106.134V27H104.009V21.016L99.0108 27H97.0558V17.922ZM108.584 17.922H110.709V21.611H115.282V17.922H117.407V27H115.282V23.413H110.709V27H108.584V17.922ZM123.23 17.82C124.568 17.82 125.588 18.143 126.29 18.789C127.004 19.4237 127.361 20.387 127.361 21.679V27H125.355V25.895C125.095 26.2917 124.721 26.5977 124.233 26.813C123.757 27.017 123.179 27.119 122.499 27.119C121.819 27.119 121.224 27.0057 120.714 26.779C120.204 26.541 119.808 26.218 119.524 25.81C119.252 25.3907 119.116 24.9203 119.116 24.399C119.116 23.583 119.417 22.9313 120.017 22.444C120.629 21.9453 121.587 21.696 122.89 21.696H125.236V21.56C125.236 20.9253 125.044 20.438 124.658 20.098C124.284 19.758 123.723 19.588 122.975 19.588C122.465 19.588 121.961 19.6673 121.462 19.826C120.975 19.9847 120.561 20.2057 120.221 20.489L119.388 18.942C119.864 18.5793 120.437 18.3017 121.105 18.109C121.774 17.9163 122.482 17.82 123.23 17.82ZM122.941 25.572C123.474 25.572 123.944 25.453 124.352 25.215C124.772 24.9657 125.066 24.6143 125.236 24.161V23.107H123.043C121.819 23.107 121.207 23.5093 121.207 24.314C121.207 24.6993 121.36 25.0053 121.666 25.232C121.972 25.4587 122.397 25.572 122.941 25.572Z" fill="white"/>
<defs>
<linearGradient id="paint0_linear_103_2666" x1="-9.14474" y1="-9.04916e-07" x2="227.837" y2="26.9586" gradientUnits="userSpaceOnUse">
<stop stop-color="#FF4E50"/>
<stop offset="1" stop-color="#F9D423"/>
</linearGradient>
</defs>
</svg>
