<svg width="141" height="42" viewBox="0 0 141 42" fill="none" xmlns="http://www.w3.org/2000/svg">
<rect width="141" height="42" rx="15" fill="url(#paint0_linear_103_2668)"/>
<path d="M20.302 16.97H16.358V27H14.165V16.97H10.238V15.1H20.302V16.97ZM21.3462 17.922H23.4712V23.906L28.4862 17.922H30.4242V27H28.2992V21.016L23.3012 27H21.3462V17.922ZM41.5787 17.922V27H39.4707V19.724H34.9997V27H32.8747V17.922H41.5787ZM56.5562 17.922V27H54.4312V19.724H51.0312L50.9462 21.526C50.8896 22.7273 50.7762 23.736 50.6062 24.552C50.4476 25.3567 50.1699 25.997 49.7732 26.473C49.3879 26.9377 48.8552 27.17 48.1752 27.17C47.8579 27.17 47.4669 27.1077 47.0022 26.983L47.1042 25.198C47.2629 25.232 47.3989 25.249 47.5122 25.249C47.9429 25.249 48.2659 25.079 48.4812 24.739C48.6966 24.3877 48.8326 23.974 48.8892 23.498C48.9572 23.0107 49.0139 22.3193 49.0592 21.424L49.2122 17.922H56.5562ZM59.0101 17.922H61.1351V23.906L66.1501 17.922H68.0881V27H65.9631V21.016L60.9651 27H59.0101V17.922ZM78.2396 17.922V27H76.1146V23.481C75.2419 23.9003 74.3296 24.11 73.3776 24.11C72.2103 24.11 71.3149 23.8437 70.6916 23.311C70.0683 22.767 69.7566 21.9397 69.7566 20.829V17.922H71.8816V20.693C71.8816 21.271 72.0516 21.7017 72.3916 21.985C72.7316 22.2683 73.2133 22.41 73.8366 22.41C74.6299 22.41 75.3893 22.24 76.1146 21.9V17.922H78.2396ZM80.6892 17.922H82.8142V21.611H87.3872V17.922H89.5122V27H87.3872V23.413H82.8142V27H80.6892V17.922ZM95.9981 27.119C95.0801 27.119 94.2528 26.9207 93.5161 26.524C92.7794 26.1273 92.2014 25.5777 91.7821 24.875C91.3741 24.161 91.1701 23.3563 91.1701 22.461C91.1701 21.5657 91.3741 20.7667 91.7821 20.064C92.2014 19.3613 92.7794 18.8117 93.5161 18.415C94.2528 18.0183 95.0801 17.82 95.9981 17.82C96.9274 17.82 97.7604 18.0183 98.4971 18.415C99.2338 18.8117 99.8061 19.3613 100.214 20.064C100.633 20.7667 100.843 21.5657 100.843 22.461C100.843 23.3563 100.633 24.161 100.214 24.875C99.8061 25.5777 99.2338 26.1273 98.4971 26.524C97.7604 26.9207 96.9274 27.119 95.9981 27.119ZM95.9981 25.3C96.7801 25.3 97.4261 25.0393 97.9361 24.518C98.4461 23.9967 98.7011 23.311 98.7011 22.461C98.7011 21.611 98.4461 20.9253 97.9361 20.404C97.4261 19.8827 96.7801 19.622 95.9981 19.622C95.2161 19.622 94.5701 19.8827 94.0601 20.404C93.5614 20.9253 93.3121 21.611 93.3121 22.461C93.3121 23.311 93.5614 23.9967 94.0601 24.518C94.5701 25.0393 95.2161 25.3 95.9981 25.3ZM106.665 27.119C105.725 27.119 104.88 26.9207 104.132 26.524C103.384 26.1273 102.801 25.5777 102.381 24.875C101.962 24.161 101.752 23.3563 101.752 22.461C101.752 21.5657 101.962 20.7667 102.381 20.064C102.801 19.3613 103.379 18.8117 104.115 18.415C104.863 18.0183 105.713 17.82 106.665 17.82C107.561 17.82 108.343 18.0013 109.011 18.364C109.691 18.7267 110.201 19.248 110.541 19.928L108.909 20.88C108.649 20.4607 108.32 20.149 107.923 19.945C107.538 19.7297 107.113 19.622 106.648 19.622C105.855 19.622 105.198 19.8827 104.676 20.404C104.155 20.914 103.894 21.5997 103.894 22.461C103.894 23.3223 104.149 24.0137 104.659 24.535C105.181 25.045 105.844 25.3 106.648 25.3C107.113 25.3 107.538 25.198 107.923 24.994C108.32 24.7787 108.649 24.4613 108.909 24.042L110.541 24.994C110.19 25.674 109.674 26.201 108.994 26.575C108.326 26.9377 107.549 27.119 106.665 27.119ZM119.112 19.724H115.933V27H113.808V19.724H110.612V17.922H119.112V19.724ZM120.246 17.922H122.371V23.906L127.386 17.922H129.324V27H127.199V21.016L122.201 27H120.246V17.922Z" fill="white"/>
<defs>
<linearGradient id="paint0_linear_103_2668" x1="-9.27631" y1="-9.04916e-07" x2="231.026" y2="27.7297" gradientUnits="userSpaceOnUse">
<stop stop-color="#FF4E50"/>
<stop offset="1" stop-color="#F9D423"/>
</linearGradient>
</defs>
</svg>
