<svg width="155" height="50" viewBox="0 0 155 50" fill="none" xmlns="http://www.w3.org/2000/svg">
<g filter="url(#filter0_b_12_351)">
<rect width="155" height="50" rx="15" fill="white" fill-opacity="0.3"/>
<path d="M60.9 32.2C59.4867 32.2 58.2067 31.8933 57.06 31.28C55.9267 30.6533 55.0333 29.7933 54.38 28.7C53.74 27.6067 53.42 26.3733 53.42 25C53.42 23.6267 53.7467 22.3933 54.4 21.3C55.0533 20.2067 55.9467 19.3533 57.08 18.74C58.2267 18.1133 59.5067 17.8 60.92 17.8C62.0667 17.8 63.1133 18 64.06 18.4C65.0067 18.8 65.8067 19.38 66.46 20.14L64.78 21.72C63.7667 20.6267 62.52 20.08 61.04 20.08C60.08 20.08 59.22 20.2933 58.46 20.72C57.7 21.1333 57.1067 21.7133 56.68 22.46C56.2533 23.2067 56.04 24.0533 56.04 25C56.04 25.9467 56.2533 26.7933 56.68 27.54C57.1067 28.2867 57.7 28.8733 58.46 29.3C59.22 29.7133 60.08 29.92 61.04 29.92C62.52 29.92 63.7667 29.3667 64.78 28.26L66.46 29.86C65.8067 30.62 65 31.2 64.04 31.6C63.0933 32 62.0467 32.2 60.9 32.2ZM72.0684 21.2C73.6417 21.2 74.8417 21.58 75.6684 22.34C76.5084 23.0867 76.9284 24.22 76.9284 25.74V32H74.5684V30.7C74.2617 31.1667 73.8217 31.5267 73.2484 31.78C72.6884 32.02 72.0084 32.14 71.2084 32.14C70.4084 32.14 69.7084 32.0067 69.1084 31.74C68.5084 31.46 68.0417 31.08 67.7084 30.6C67.3884 30.1067 67.2284 29.5533 67.2284 28.94C67.2284 27.98 67.5817 27.2133 68.2884 26.64C69.0084 26.0533 70.1351 25.76 71.6684 25.76H74.4284V25.6C74.4284 24.8533 74.2017 24.28 73.7484 23.88C73.3084 23.48 72.6484 23.28 71.7684 23.28C71.1684 23.28 70.5751 23.3733 69.9884 23.56C69.4151 23.7467 68.9284 24.0067 68.5284 24.34L67.5484 22.52C68.1084 22.0933 68.7817 21.7667 69.5684 21.54C70.3551 21.3133 71.1884 21.2 72.0684 21.2ZM71.7284 30.32C72.3551 30.32 72.9084 30.18 73.3884 29.9C73.8817 29.6067 74.2284 29.1933 74.4284 28.66V27.42H71.8484C70.4084 27.42 69.6884 27.8933 69.6884 28.84C69.6884 29.2933 69.8684 29.6533 70.2284 29.92C70.5884 30.1867 71.0884 30.32 71.7284 30.32ZM79.614 21.32H82.114V28.36L88.014 21.32H90.294V32H87.794V24.96L81.914 32H79.614V21.32ZM84.794 20.06C83.714 20.06 82.8873 19.8133 82.314 19.32C81.754 18.8133 81.4673 18.08 81.454 17.12H83.114C83.1273 17.6 83.274 17.98 83.554 18.26C83.8473 18.54 84.254 18.68 84.774 18.68C85.2807 18.68 85.6807 18.54 85.974 18.26C86.2807 17.98 86.4407 17.6 86.454 17.12H88.154C88.1407 18.08 87.8473 18.8133 87.274 19.32C86.7007 19.8133 85.874 20.06 84.794 20.06ZM101.709 23.44H97.969V32H95.469V23.44H91.709V21.32H101.709V23.44Z" fill="url(#paint0_linear_12_351)"/>
</g>
<defs>
<filter id="filter0_b_12_351" x="-12" y="-12" width="179" height="74" filterUnits="userSpaceOnUse" color-interpolation-filters="sRGB">
<feFlood flood-opacity="0" result="BackgroundImageFix"/>
<feGaussianBlur in="BackgroundImageFix" stdDeviation="6"/>
<feComposite in2="SourceAlpha" operator="in" result="effect1_backgroundBlur_12_351"/>
<feBlend mode="normal" in="SourceGraphic" in2="effect1_backgroundBlur_12_351" result="shape"/>
</filter>
<linearGradient id="paint0_linear_12_351" x1="-15" y1="-25" x2="122.225" y2="-22.2903" gradientUnits="userSpaceOnUse">
<stop stop-color="#3F3F3F"/>
<stop offset="1" stop-color="#F9D423"/>
</linearGradient>
</defs>
</svg>
