<svg width="68" height="19" viewBox="0 0 68 19" fill="none" xmlns="http://www.w3.org/2000/svg">
<path d="M6.54145 1.1H4.22145V7H2.93145V1.1H0.621445V-4.76837e-07H6.54145V1.1ZM11.9757 4.36C11.9757 4.44667 11.9691 4.57 11.9557 4.73H7.76574C7.83908 5.12333 8.02908 5.43667 8.33574 5.67C8.64908 5.89667 9.03574 6.01 9.49574 6.01C10.0824 6.01 10.5657 5.81667 10.9457 5.43L11.6157 6.2C11.3757 6.48667 11.0724 6.70333 10.7057 6.85C10.3391 6.99667 9.92574 7.07 9.46574 7.07C8.87908 7.07 8.36241 6.95333 7.91574 6.72C7.46908 6.48667 7.12241 6.16333 6.87574 5.75C6.63574 5.33 6.51574 4.85667 6.51574 4.33C6.51574 3.81 6.63241 3.34333 6.86574 2.93C7.10574 2.51 7.43574 2.18333 7.85574 1.95C8.27574 1.71667 8.74908 1.6 9.27574 1.6C9.79574 1.6 10.2591 1.71667 10.6657 1.95C11.0791 2.17667 11.3991 2.5 11.6257 2.92C11.8591 3.33333 11.9757 3.81333 11.9757 4.36ZM9.27574 2.6C8.87574 2.6 8.53574 2.72 8.25574 2.96C7.98241 3.19333 7.81574 3.50667 7.75574 3.9H10.7857C10.7324 3.51333 10.5691 3.2 10.2957 2.96C10.0224 2.72 9.68241 2.6 9.27574 2.6ZM16.5364 7L15.1664 5.15L13.7864 7H12.4064L14.4864 4.29L12.4964 1.66H13.8864L15.1964 3.41L16.5064 1.66H17.8564L15.8564 4.27L17.9464 7H16.5364ZM18.841 1.66H20.091V3.83H22.781V1.66H24.031V7H22.781V4.89H20.091V7H18.841V1.66ZM25.7062 1.66H26.9562V5.18L29.9062 1.66H31.0462V7H29.7962V3.48L26.8562 7H25.7062V1.66ZM37.2577 1.66V7H36.0077V4.93C35.4944 5.17667 34.9577 5.3 34.3977 5.3C33.711 5.3 33.1844 5.14333 32.8177 4.83C32.451 4.51 32.2677 4.02333 32.2677 3.37V1.66H33.5177V3.29C33.5177 3.63 33.6177 3.88333 33.8177 4.05C34.0177 4.21667 34.301 4.3 34.6677 4.3C35.1344 4.3 35.581 4.2 36.0077 4V1.66H37.2577ZM43.9386 4.36C43.9386 4.44667 43.932 4.57 43.9186 4.73H39.7286C39.802 5.12333 39.992 5.43667 40.2986 5.67C40.612 5.89667 40.9986 6.01 41.4586 6.01C42.0453 6.01 42.5286 5.81667 42.9086 5.43L43.5786 6.2C43.3386 6.48667 43.0353 6.70333 42.6686 6.85C42.302 6.99667 41.8886 7.07 41.4286 7.07C40.842 7.07 40.3253 6.95333 39.8786 6.72C39.432 6.48667 39.0853 6.16333 38.8386 5.75C38.5986 5.33 38.4786 4.85667 38.4786 4.33C38.4786 3.81 38.5953 3.34333 38.8286 2.93C39.0686 2.51 39.3986 2.18333 39.8186 1.95C40.2386 1.71667 40.712 1.6 41.2386 1.6C41.7586 1.6 42.222 1.71667 42.6286 1.95C43.042 2.17667 43.362 2.5 43.5886 2.92C43.822 3.33333 43.9386 3.81333 43.9386 4.36ZM41.2386 2.6C40.8386 2.6 40.4986 2.72 40.2186 2.96C39.9453 3.19333 39.7786 3.50667 39.7186 3.9H42.7486C42.6953 3.51333 42.532 3.2 42.2586 2.96C41.9853 2.72 41.6453 2.6 41.2386 2.6ZM47.7358 7.07C47.1825 7.07 46.6858 6.95333 46.2458 6.72C45.8058 6.48667 45.4625 6.16333 45.2158 5.75C44.9692 5.33 44.8458 4.85667 44.8458 4.33C44.8458 3.80333 44.9692 3.33333 45.2158 2.92C45.4625 2.50667 45.8025 2.18333 46.2358 1.95C46.6758 1.71667 47.1758 1.6 47.7358 1.6C48.2625 1.6 48.7225 1.70667 49.1158 1.92C49.5158 2.13333 49.8158 2.44 50.0158 2.84L49.0558 3.4C48.9025 3.15333 48.7092 2.97 48.4758 2.85C48.2492 2.72333 47.9992 2.66 47.7258 2.66C47.2592 2.66 46.8725 2.81333 46.5658 3.12C46.2592 3.42 46.1058 3.82333 46.1058 4.33C46.1058 4.83667 46.2558 5.24333 46.5558 5.55C46.8625 5.85 47.2525 6 47.7258 6C47.9992 6 48.2492 5.94 48.4758 5.82C48.7092 5.69333 48.9025 5.50667 49.0558 5.26L50.0158 5.82C49.8092 6.22 49.5058 6.53 49.1058 6.75C48.7125 6.96333 48.2558 7.07 47.7358 7.07ZM53.3364 4.86H52.3664V7H51.1164V1.66H52.3664V3.82H53.3664L54.9464 1.66H56.2864L54.3464 4.23L56.4164 7H54.9464L53.3364 4.86ZM59.1904 1.6C59.977 1.6 60.577 1.79 60.9904 2.17C61.4104 2.54333 61.6204 3.11 61.6204 3.87V7H60.4404V6.35C60.287 6.58333 60.067 6.76333 59.7804 6.89C59.5004 7.01 59.1604 7.07 58.7604 7.07C58.3604 7.07 58.0104 7.00333 57.7104 6.87C57.4104 6.73 57.177 6.54 57.0104 6.3C56.8504 6.05333 56.7704 5.77667 56.7704 5.47C56.7704 4.99 56.947 4.60667 57.3004 4.32C57.6604 4.02667 58.2237 3.88 58.9904 3.88H60.3704V3.8C60.3704 3.42667 60.257 3.14 60.0304 2.94C59.8104 2.74 59.4804 2.64 59.0404 2.64C58.7404 2.64 58.4437 2.68667 58.1504 2.78C57.8637 2.87333 57.6204 3.00333 57.4204 3.17L56.9304 2.26C57.2104 2.04667 57.547 1.88333 57.9404 1.77C58.3337 1.65667 58.7504 1.6 59.1904 1.6ZM59.0204 6.16C59.3337 6.16 59.6104 6.09 59.8504 5.95C60.097 5.80333 60.2704 5.59667 60.3704 5.33V4.71H59.0804C58.3604 4.71 58.0004 4.94667 58.0004 5.42C58.0004 5.64667 58.0904 5.82667 58.2704 5.96C58.4504 6.09333 58.7004 6.16 59.0204 6.16ZM67.6771 1.66V7H66.5571V5.39H65.1471L64.0571 7H62.7171L63.9771 5.22C63.5905 5.08667 63.2938 4.88333 63.0871 4.61C62.8871 4.33 62.7871 3.98667 62.7871 3.58C62.7871 2.96667 63.0038 2.49333 63.4371 2.16C63.8705 1.82667 64.4671 1.66 65.2271 1.66H67.6771ZM65.2671 2.71C64.4605 2.71 64.0571 3.01333 64.0571 3.62C64.0571 4.22 64.4471 4.52 65.2271 4.52H66.5571V2.71H65.2671ZM10.0645 11.66V17H8.82449V12.72H6.19449V17H4.94449V11.66H10.0645ZM14.1311 17.07C13.5911 17.07 13.1045 16.9533 12.6711 16.72C12.2378 16.4867 11.8978 16.1633 11.6511 15.75C11.4111 15.33 11.2911 14.8567 11.2911 14.33C11.2911 13.8033 11.4111 13.3333 11.6511 12.92C11.8978 12.5067 12.2378 12.1833 12.6711 11.95C13.1045 11.7167 13.5911 11.6 14.1311 11.6C14.6778 11.6 15.1678 11.7167 15.6011 11.95C16.0345 12.1833 16.3711 12.5067 16.6111 12.92C16.8578 13.3333 16.9811 13.8033 16.9811 14.33C16.9811 14.8567 16.8578 15.33 16.6111 15.75C16.3711 16.1633 16.0345 16.4867 15.6011 16.72C15.1678 16.9533 14.6778 17.07 14.1311 17.07ZM14.1311 16C14.5911 16 14.9711 15.8467 15.2711 15.54C15.5711 15.2333 15.7211 14.83 15.7211 14.33C15.7211 13.83 15.5711 13.4267 15.2711 13.12C14.9711 12.8133 14.5911 12.66 14.1311 12.66C13.6711 12.66 13.2911 12.8133 12.9911 13.12C12.6978 13.4267 12.5511 13.83 12.5511 14.33C12.5511 14.83 12.6978 15.2333 12.9911 15.54C13.2911 15.8467 13.6711 16 14.1311 16ZM23.8574 15.94V18.19H22.6874V17H18.5674V18.19H17.4074V15.94H17.6574C17.9974 15.9267 18.2274 15.71 18.3474 15.29C18.474 14.8633 18.5574 14.2633 18.5974 13.49L18.6674 11.66H23.0674V15.94H23.8574ZM19.7374 13.58C19.7107 14.1933 19.6607 14.6933 19.5874 15.08C19.514 15.4667 19.3807 15.7533 19.1874 15.94H21.8174V12.72H19.7674L19.7374 13.58ZM30.6738 15.94V18.19H29.5038V17H25.3838V18.19H24.2238V15.94H24.4738C24.8138 15.9267 25.0438 15.71 25.1638 15.29C25.2905 14.8633 25.3738 14.2633 25.4138 13.49L25.4838 11.66H29.8838V15.94H30.6738ZM26.5538 13.58C26.5271 14.1933 26.4771 14.6933 26.4038 15.08C26.3305 15.4667 26.1971 15.7533 26.0038 15.94H28.6338V12.72H26.5838L26.5538 13.58ZM36.7902 14.36C36.7902 14.4467 36.7835 14.57 36.7702 14.73H32.5802C32.6535 15.1233 32.8435 15.4367 33.1502 15.67C33.4635 15.8967 33.8502 16.01 34.3102 16.01C34.8969 16.01 35.3802 15.8167 35.7602 15.43L36.4302 16.2C36.1902 16.4867 35.8869 16.7033 35.5202 16.85C35.1535 16.9967 34.7402 17.07 34.2802 17.07C33.6935 17.07 33.1769 16.9533 32.7302 16.72C32.2835 16.4867 31.9369 16.1633 31.6902 15.75C31.4502 15.33 31.3302 14.8567 31.3302 14.33C31.3302 13.81 31.4469 13.3433 31.6802 12.93C31.9202 12.51 32.2502 12.1833 32.6702 11.95C33.0902 11.7167 33.5635 11.6 34.0902 11.6C34.6102 11.6 35.0735 11.7167 35.4802 11.95C35.8935 12.1767 36.2135 12.5 36.4402 12.92C36.6735 13.3333 36.7902 13.8133 36.7902 14.36ZM34.0902 12.6C33.6902 12.6 33.3502 12.72 33.0702 12.96C32.7969 13.1933 32.6302 13.5067 32.5702 13.9H35.6002C35.5469 13.5133 35.3835 13.2 35.1102 12.96C34.8369 12.72 34.4969 12.6 34.0902 12.6ZM41.1174 11.6C41.6374 11.6 42.1007 11.7133 42.5074 11.94C42.9207 12.1667 43.244 12.4867 43.4774 12.9C43.7107 13.3133 43.8274 13.79 43.8274 14.33C43.8274 14.87 43.7107 15.35 43.4774 15.77C43.244 16.1833 42.9207 16.5033 42.5074 16.73C42.1007 16.9567 41.6374 17.07 41.1174 17.07C40.3974 17.07 39.8274 16.83 39.4074 16.35V18.94H38.1574V11.66H39.3474V12.36C39.554 12.1067 39.8074 11.9167 40.1074 11.79C40.414 11.6633 40.7507 11.6 41.1174 11.6ZM40.9774 16C41.4374 16 41.814 15.8467 42.1074 15.54C42.4074 15.2333 42.5574 14.83 42.5574 14.33C42.5574 13.83 42.4074 13.4267 42.1074 13.12C41.814 12.8133 41.4374 12.66 40.9774 12.66C40.6774 12.66 40.4074 12.73 40.1674 12.87C39.9274 13.0033 39.7374 13.1967 39.5974 13.45C39.4574 13.7033 39.3874 13.9967 39.3874 14.33C39.3874 14.6633 39.4574 14.9567 39.5974 15.21C39.7374 15.4633 39.9274 15.66 40.1674 15.8C40.4074 15.9333 40.6774 16 40.9774 16ZM49.9657 14.86H49.0657V17H47.8257V14.86H46.9257L45.6257 17H44.1457L45.8957 14.24L44.2757 11.66H45.6057L46.9057 13.82H47.8257V11.66H49.0657V13.82H49.9757L51.2857 11.66H52.6157L50.9957 14.24L52.7557 17H51.2657L49.9657 14.86ZM55.9047 14.86H54.9347V17H53.6847V11.66H54.9347V13.82H55.9347L57.5147 11.66H58.8547L56.9147 14.23L58.9847 17H57.5147L55.9047 14.86ZM61.7587 11.6C62.5454 11.6 63.1454 11.79 63.5587 12.17C63.9787 12.5433 64.1887 13.11 64.1887 13.87V17H63.0087V16.35C62.8554 16.5833 62.6354 16.7633 62.3487 16.89C62.0687 17.01 61.7287 17.07 61.3287 17.07C60.9287 17.07 60.5787 17.0033 60.2787 16.87C59.9787 16.73 59.7454 16.54 59.5787 16.3C59.4187 16.0533 59.3387 15.7767 59.3387 15.47C59.3387 14.99 59.5154 14.6067 59.8687 14.32C60.2287 14.0267 60.792 13.88 61.5587 13.88H62.9387V13.8C62.9387 13.4267 62.8254 13.14 62.5987 12.94C62.3787 12.74 62.0487 12.64 61.6087 12.64C61.3087 12.64 61.012 12.6867 60.7187 12.78C60.432 12.8733 60.1887 13.0033 59.9887 13.17L59.4987 12.26C59.7787 12.0467 60.1154 11.8833 60.5087 11.77C60.902 11.6567 61.3187 11.6 61.7587 11.6ZM61.5887 16.16C61.902 16.16 62.1787 16.09 62.4187 15.95C62.6654 15.8033 62.8387 15.5967 62.9387 15.33V14.71H61.6487C60.9287 14.71 60.5687 14.9467 60.5687 15.42C60.5687 15.6467 60.6587 15.8267 60.8387 15.96C61.0187 16.0933 61.2687 16.16 61.5887 16.16Z" fill="white"/>
</svg>
