<svg width="116" height="20" viewBox="0 0 116 20" fill="none" xmlns="http://www.w3.org/2000/svg">
<path d="M13.093 9.172C14.299 9.496 15.217 10.054 15.847 10.846C16.477 11.62 16.792 12.592 16.792 13.762C16.792 15.418 16.18 16.705 14.956 17.623C13.732 18.541 11.959 19 9.637 19H0.673V0.0999987H9.124C11.248 0.0999987 12.904 0.522999 14.092 1.369C15.28 2.215 15.874 3.412 15.874 4.96C15.874 5.95 15.631 6.805 15.145 7.525C14.677 8.245 13.993 8.794 13.093 9.172ZM4.129 8.173H8.827C9.961 8.173 10.825 7.948 11.419 7.498C12.013 7.048 12.31 6.382 12.31 5.5C12.31 4.618 12.013 3.952 11.419 3.502C10.825 3.034 9.961 2.8 8.827 2.8H4.129V8.173ZM9.529 16.3C12.013 16.3 13.255 15.364 13.255 13.492C13.255 11.656 12.013 10.738 9.529 10.738H4.129V16.3H9.529ZM20.0045 4.582H23.3795V14.086L31.3445 4.582H34.4225V19H31.0475V9.496L23.1095 19H20.0045V4.582ZM46.983 11.494C47.883 11.746 48.576 12.16 49.062 12.736C49.566 13.294 49.818 13.969 49.818 14.761C49.818 15.643 49.521 16.426 48.927 17.11C48.333 17.776 47.514 18.298 46.47 18.676C45.426 19.054 44.238 19.243 42.906 19.243C41.79 19.243 40.701 19.117 39.639 18.865C38.577 18.595 37.614 18.217 36.75 17.731L37.722 15.22C38.424 15.616 39.216 15.922 40.098 16.138C40.98 16.354 41.862 16.462 42.744 16.462C43.878 16.462 44.76 16.291 45.39 15.949C46.038 15.589 46.362 15.103 46.362 14.491C46.362 13.933 46.11 13.501 45.606 13.195C45.12 12.889 44.427 12.736 43.527 12.736H40.719V10.468H43.257C44.103 10.468 44.76 10.324 45.228 10.036C45.714 9.748 45.957 9.343 45.957 8.821C45.957 8.299 45.669 7.885 45.093 7.579C44.517 7.273 43.725 7.12 42.717 7.12C41.277 7.12 39.756 7.471 38.154 8.173L37.29 5.689C39.18 4.807 41.088 4.366 43.014 4.366C44.238 4.366 45.336 4.537 46.308 4.879C47.28 5.203 48.036 5.671 48.576 6.283C49.134 6.877 49.413 7.561 49.413 8.335C49.413 9.037 49.197 9.667 48.765 10.225C48.333 10.765 47.739 11.188 46.983 11.494ZM52.9122 4.582H56.2872V14.086L64.2522 4.582H67.3302V19H63.9552V9.496L56.0172 19H52.9122V4.582ZM82.8832 7.444H77.8342V19H74.4592V7.444H69.3832V4.582H82.8832V7.444ZM90.9173 13.222H88.2983V19H84.9233V4.582H88.2983V10.414H90.9983L95.2643 4.582H98.8823L93.6443 11.521L99.2333 19H95.2643L90.9173 13.222ZM101.206 4.582H104.581V14.086L112.546 4.582H115.624V19H112.249V9.496L104.311 19H101.206V4.582Z" fill="white"/>
</svg>
