<svg width="87" height="15" viewBox="0 0 87 15" fill="none" xmlns="http://www.w3.org/2000/svg">
<path d="M11.172 2.1V14H8.962V8.9H2.808V14H0.598V2.1H2.808V7.013H8.962V2.1H11.172ZM17.2167 4.82C18.554 4.82 19.574 5.143 20.2767 5.789C20.9907 6.42367 21.3477 7.387 21.3477 8.679V14H19.3417V12.895C19.081 13.2917 18.707 13.5977 18.2197 13.813C17.7437 14.017 17.1657 14.119 16.4857 14.119C15.8057 14.119 15.2107 14.0057 14.7007 13.779C14.1907 13.541 13.794 13.218 13.5107 12.81C13.2387 12.3907 13.1027 11.9203 13.1027 11.399C13.1027 10.583 13.403 9.93133 14.0037 9.444C14.6157 8.94533 15.5734 8.696 16.8767 8.696H19.2227V8.56C19.2227 7.92533 19.03 7.438 18.6447 7.098C18.2707 6.758 17.7097 6.588 16.9617 6.588C16.4517 6.588 15.9474 6.66733 15.4487 6.826C14.9614 6.98467 14.5477 7.20567 14.2077 7.489L13.3747 5.942C13.8507 5.57933 14.423 5.30167 15.0917 5.109C15.7604 4.91633 16.4687 4.82 17.2167 4.82ZM16.9277 12.572C17.4604 12.572 17.9307 12.453 18.3387 12.215C18.758 11.9657 19.0527 11.6143 19.2227 11.161V10.107H17.0297C15.8057 10.107 15.1937 10.5093 15.1937 11.314C15.1937 11.6993 15.3467 12.0053 15.6527 12.232C15.9587 12.4587 16.3837 12.572 16.9277 12.572ZM25.6899 6.248C26.3019 5.296 27.3785 4.82 28.9199 4.82V6.843C28.7385 6.809 28.5742 6.792 28.4269 6.792C27.5995 6.792 26.9535 7.03567 26.4889 7.523C26.0242 7.999 25.7919 8.69033 25.7919 9.597V14H23.6669V4.922H25.6899V6.248ZM39.1225 1.386V14H37.0825V12.827C36.7312 13.2577 36.2949 13.5807 35.7735 13.796C35.2635 14.0113 34.6969 14.119 34.0735 14.119C33.2009 14.119 32.4132 13.9263 31.7105 13.541C31.0192 13.1557 30.4752 12.6117 30.0785 11.909C29.6819 11.195 29.4835 10.379 29.4835 9.461C29.4835 8.543 29.6819 7.73267 30.0785 7.03C30.4752 6.32733 31.0192 5.78333 31.7105 5.398C32.4132 5.01267 33.2009 4.82 34.0735 4.82C34.6742 4.82 35.2239 4.922 35.7225 5.126C36.2212 5.33 36.6462 5.636 36.9975 6.044V1.386H39.1225ZM34.3285 12.3C34.8385 12.3 35.2975 12.1867 35.7055 11.96C36.1135 11.722 36.4365 11.3877 36.6745 10.957C36.9125 10.5263 37.0315 10.0277 37.0315 9.461C37.0315 8.89433 36.9125 8.39567 36.6745 7.965C36.4365 7.53433 36.1135 7.20567 35.7055 6.979C35.2975 6.741 34.8385 6.622 34.3285 6.622C33.8185 6.622 33.3595 6.741 32.9515 6.979C32.5435 7.20567 32.2205 7.53433 31.9825 7.965C31.7445 8.39567 31.6255 8.89433 31.6255 9.461C31.6255 10.0277 31.7445 10.5263 31.9825 10.957C32.2205 11.3877 32.5435 11.722 32.9515 11.96C33.3595 12.1867 33.8185 12.3 34.3285 12.3ZM49.6777 14.17C48.7597 14.17 47.87 14.0397 47.0087 13.779C46.1587 13.5183 45.4843 13.1727 44.9857 12.742L45.7507 11.025C46.238 11.4103 46.833 11.7277 47.5357 11.977C48.2497 12.215 48.9637 12.334 49.6777 12.334C50.5617 12.334 51.219 12.1923 51.6497 11.909C52.0917 11.6257 52.3127 11.2517 52.3127 10.787C52.3127 10.447 52.188 10.1693 51.9387 9.954C51.7007 9.72733 51.3947 9.55167 51.0207 9.427C50.6467 9.30233 50.1367 9.16067 49.4907 9.002C48.584 8.78667 47.8473 8.57133 47.2807 8.356C46.7253 8.14067 46.2437 7.80633 45.8357 7.353C45.439 6.88833 45.2407 6.265 45.2407 5.483C45.2407 4.82567 45.4163 4.23067 45.7677 3.698C46.1303 3.154 46.6687 2.72333 47.3827 2.406C48.108 2.08867 48.992 1.93 50.0347 1.93C50.76 1.93 51.474 2.02067 52.1767 2.202C52.8793 2.38333 53.4857 2.644 53.9957 2.984L53.2987 4.701C52.7773 4.395 52.2333 4.16267 51.6667 4.004C51.1 3.84533 50.5503 3.766 50.0177 3.766C49.145 3.766 48.4933 3.91333 48.0627 4.208C47.6433 4.50267 47.4337 4.89367 47.4337 5.381C47.4337 5.721 47.5527 5.99867 47.7907 6.214C48.04 6.42933 48.3517 6.59933 48.7257 6.724C49.0997 6.84867 49.6097 6.99033 50.2557 7.149C51.1397 7.353 51.865 7.56833 52.4317 7.795C52.9983 8.01033 53.48 8.34467 53.8767 8.798C54.2847 9.25133 54.4887 9.86333 54.4887 10.634C54.4887 11.2913 54.3073 11.8863 53.9447 12.419C53.5933 12.9517 53.055 13.3767 52.3297 13.694C51.6043 14.0113 50.7203 14.17 49.6777 14.17ZM59.7741 10.107L58.1931 11.603V14H56.0681V1.386H58.1931V9.002L62.5961 4.922H65.1461L61.3551 8.73L65.5031 14H62.9191L59.7741 10.107ZM66.3847 4.922H68.5097V14H66.3847V4.922ZM67.4557 3.426C67.0703 3.426 66.7473 3.307 66.4867 3.069C66.226 2.81967 66.0957 2.51367 66.0957 2.151C66.0957 1.78833 66.226 1.488 66.4867 1.25C66.7473 1.00067 67.0703 0.876 67.4557 0.876C67.841 0.876 68.164 0.995 68.4247 1.233C68.6853 1.45967 68.8157 1.74867 68.8157 2.1C68.8157 2.474 68.6853 2.79133 68.4247 3.052C68.1753 3.30133 67.8523 3.426 67.4557 3.426ZM70.8907 1.386H73.0157V14H70.8907V1.386ZM75.3968 1.386H77.5218V14H75.3968V1.386ZM82.7079 14.119C81.9712 14.119 81.2515 14.0227 80.5489 13.83C79.8462 13.6373 79.2852 13.3937 78.8659 13.099L79.6819 11.484C80.0899 11.756 80.5772 11.977 81.1439 12.147C81.7219 12.3057 82.2885 12.385 82.8439 12.385C84.1132 12.385 84.7479 12.0507 84.7479 11.382C84.7479 11.0647 84.5835 10.8437 84.2549 10.719C83.9375 10.5943 83.4219 10.4753 82.7079 10.362C81.9599 10.2487 81.3479 10.1183 80.8719 9.971C80.4072 9.82367 79.9992 9.56867 79.6479 9.206C79.3079 8.832 79.1379 8.31633 79.1379 7.659C79.1379 6.79767 79.4949 6.112 80.2089 5.602C80.9342 5.08067 81.9089 4.82 83.1329 4.82C83.7562 4.82 84.3795 4.89367 85.0029 5.041C85.6262 5.177 86.1362 5.364 86.5329 5.602L85.7169 7.217C84.9462 6.76367 84.0792 6.537 83.1159 6.537C82.4925 6.537 82.0165 6.63333 81.6879 6.826C81.3705 7.00733 81.2119 7.251 81.2119 7.557C81.2119 7.897 81.3819 8.14067 81.7219 8.288C82.0732 8.424 82.6115 8.55433 83.3369 8.679C84.0622 8.79233 84.6572 8.92267 85.1219 9.07C85.5865 9.21733 85.9832 9.46667 86.3119 9.818C86.6519 10.1693 86.8219 10.668 86.8219 11.314C86.8219 12.164 86.4535 12.844 85.7169 13.354C84.9802 13.864 83.9772 14.119 82.7079 14.119Z" fill="white"/>
</svg>
