<svg width="88" height="17" viewBox="0 0 88 17" fill="none" xmlns="http://www.w3.org/2000/svg">
<path d="M13.464 11.13V15.533H11.424V13H2.295V15.533H0.238L0.255 11.13H0.765C1.513 11.096 2.03433 10.5463 2.329 9.481C2.635 8.40433 2.822 6.86867 2.89 4.874L3.026 1.1H11.747V11.13H13.464ZM4.828 5.078C4.77133 6.61933 4.64667 7.90567 4.454 8.937C4.26133 9.957 3.95533 10.688 3.536 11.13H9.571V2.97H4.913L4.828 5.078ZM14.8989 3.922H17.0239V9.906L22.0389 3.922H23.9769V13H21.8519V7.016L16.8539 13H14.8989V3.922ZM31.7342 8.274C32.3009 8.43267 32.7372 8.69333 33.0432 9.056C33.3606 9.40733 33.5192 9.83233 33.5192 10.331C33.5192 10.8863 33.3322 11.3793 32.9582 11.81C32.5842 12.2293 32.0686 12.558 31.4112 12.796C30.7539 13.034 30.0059 13.153 29.1672 13.153C28.4646 13.153 27.7789 13.0737 27.1102 12.915C26.4416 12.745 25.8352 12.507 25.2912 12.201L25.9032 10.62C26.3452 10.8693 26.8439 11.062 27.3992 11.198C27.9546 11.334 28.5099 11.402 29.0652 11.402C29.7792 11.402 30.3346 11.2943 30.7312 11.079C31.1392 10.8523 31.3432 10.5463 31.3432 10.161C31.3432 9.80967 31.1846 9.53767 30.8672 9.345C30.5612 9.15233 30.1249 9.056 29.5582 9.056H27.7902V7.628H29.3882C29.9209 7.628 30.3346 7.53733 30.6292 7.356C30.9352 7.17467 31.0882 6.91967 31.0882 6.591C31.0882 6.26233 30.9069 6.00167 30.5442 5.809C30.1816 5.61633 29.6829 5.52 29.0482 5.52C28.1416 5.52 27.1839 5.741 26.1752 6.183L25.6312 4.619C26.8212 4.06367 28.0226 3.786 29.2352 3.786C30.0059 3.786 30.6972 3.89367 31.3092 4.109C31.9212 4.313 32.3972 4.60767 32.7372 4.993C33.0886 5.367 33.2642 5.79767 33.2642 6.285C33.2642 6.727 33.1282 7.12367 32.8562 7.475C32.5842 7.815 32.2102 8.08133 31.7342 8.274ZM38.6993 3.82C40.0366 3.82 41.0566 4.143 41.7593 4.789C42.4733 5.42367 42.8303 6.387 42.8303 7.679V13H40.8243V11.895C40.5636 12.2917 40.1896 12.5977 39.7023 12.813C39.2263 13.017 38.6483 13.119 37.9683 13.119C37.2883 13.119 36.6933 13.0057 36.1833 12.779C35.6733 12.541 35.2766 12.218 34.9933 11.81C34.7213 11.3907 34.5853 10.9203 34.5853 10.399C34.5853 9.583 34.8856 8.93133 35.4863 8.444C36.0983 7.94533 37.056 7.696 38.3593 7.696H40.7053V7.56C40.7053 6.92533 40.5126 6.438 40.1273 6.098C39.7533 5.758 39.1923 5.588 38.4443 5.588C37.9343 5.588 37.43 5.66733 36.9313 5.826C36.444 5.98467 36.0303 6.20567 35.6903 6.489L34.8573 4.942C35.3333 4.57933 35.9056 4.30167 36.5743 4.109C37.243 3.91633 37.9513 3.82 38.6993 3.82ZM38.4103 11.572C38.943 11.572 39.4133 11.453 39.8213 11.215C40.2406 10.9657 40.5353 10.6143 40.7053 10.161V9.107H38.5123C37.2883 9.107 36.6763 9.50933 36.6763 10.314C36.6763 10.6993 36.8293 11.0053 37.1353 11.232C37.4413 11.4587 37.8663 11.572 38.4103 11.572ZM45.0519 3.922H47.1769V9.906L52.1919 3.922H54.1299V13H52.0049V7.016L47.0069 13H45.0519V3.922ZM49.4549 2.851C48.5369 2.851 47.8342 2.64133 47.3469 2.222C46.8709 1.79133 46.6272 1.168 46.6159 0.352H48.0269C48.0382 0.76 48.1629 1.083 48.4009 1.321C48.6502 1.559 48.9959 1.678 49.4379 1.678C49.8685 1.678 50.2085 1.559 50.4579 1.321C50.7185 1.083 50.8545 0.76 50.8659 0.352H52.3109C52.2995 1.168 52.0502 1.79133 51.5629 2.222C51.0755 2.64133 50.3729 2.851 49.4549 2.851ZM56.5804 3.922H58.7054V7.611H63.2784V3.922H65.4034V13H63.2784V9.413H58.7054V13H56.5804V3.922ZM76.3433 8.512C76.3433 8.65933 76.332 8.869 76.3093 9.141H69.1863C69.3109 9.80967 69.634 10.3423 70.1553 10.739C70.688 11.1243 71.3453 11.317 72.1273 11.317C73.1246 11.317 73.9463 10.9883 74.5923 10.331L75.7313 11.64C75.3233 12.1273 74.8076 12.4957 74.1843 12.745C73.561 12.9943 72.8583 13.119 72.0763 13.119C71.0789 13.119 70.2006 12.9207 69.4413 12.524C68.6819 12.1273 68.0926 11.5777 67.6733 10.875C67.2653 10.161 67.0613 9.35633 67.0613 8.461C67.0613 7.577 67.2596 6.78367 67.6563 6.081C68.0643 5.367 68.6253 4.81167 69.3393 4.415C70.0533 4.01833 70.858 3.82 71.7533 3.82C72.6373 3.82 73.425 4.01833 74.1163 4.415C74.819 4.80033 75.363 5.35 75.7483 6.064C76.145 6.76667 76.3433 7.58267 76.3433 8.512ZM71.7533 5.52C71.0733 5.52 70.4953 5.724 70.0193 6.132C69.5546 6.52867 69.2713 7.06133 69.1693 7.73H74.3203C74.2296 7.07267 73.952 6.54 73.4873 6.132C73.0226 5.724 72.4446 5.52 71.7533 5.52ZM83.2915 3.82C84.1755 3.82 84.9632 4.01267 85.6545 4.398C86.3572 4.78333 86.9068 5.32733 87.3035 6.03C87.7002 6.73267 87.8985 7.543 87.8985 8.461C87.8985 9.379 87.7002 10.195 87.3035 10.909C86.9068 11.6117 86.3572 12.1557 85.6545 12.541C84.9632 12.9263 84.1755 13.119 83.2915 13.119C82.0675 13.119 81.0985 12.711 80.3845 11.895V16.298H78.2595V3.922H80.2825V5.112C80.6338 4.68133 81.0645 4.35833 81.5745 4.143C82.0958 3.92767 82.6682 3.82 83.2915 3.82ZM83.0535 11.3C83.8355 11.3 84.4758 11.0393 84.9745 10.518C85.4845 9.99667 85.7395 9.311 85.7395 8.461C85.7395 7.611 85.4845 6.92533 84.9745 6.404C84.4758 5.88267 83.8355 5.622 83.0535 5.622C82.5435 5.622 82.0845 5.741 81.6765 5.979C81.2685 6.20567 80.9455 6.53433 80.7075 6.965C80.4695 7.39567 80.3505 7.89433 80.3505 8.461C80.3505 9.02767 80.4695 9.52633 80.7075 9.957C80.9455 10.3877 81.2685 10.722 81.6765 10.96C82.0845 11.1867 82.5435 11.3 83.0535 11.3Z" fill="white"/>
</svg>
