<svg width="330" height="120" viewBox="0 0 330 120" fill="none" xmlns="http://www.w3.org/2000/svg">
<g filter="url(#filter0_b_12_292)">
<rect width="330" height="120" rx="15" fill="white" fill-opacity="0.3"/>
<path d="M16.052 20.985H13.842V26H11.666V14.1H13.842V19.081H16.12L19.537 14.1H21.883L17.82 19.863L22.036 26H19.537L16.052 20.985ZM26.3873 16.82C27.7247 16.82 28.7447 17.143 29.4473 17.789C30.1613 18.4237 30.5183 19.387 30.5183 20.679V26H28.5123V24.895C28.2517 25.2917 27.8777 25.5977 27.3903 25.813C26.9143 26.017 26.3363 26.119 25.6563 26.119C24.9763 26.119 24.3813 26.0057 23.8713 25.779C23.3613 25.541 22.9647 25.218 22.6813 24.81C22.4093 24.3907 22.2733 23.9203 22.2733 23.399C22.2733 22.583 22.5737 21.9313 23.1743 21.444C23.7863 20.9453 24.744 20.696 26.0473 20.696H28.3933V20.56C28.3933 19.9253 28.2007 19.438 27.8153 19.098C27.4413 18.758 26.8803 18.588 26.1323 18.588C25.6223 18.588 25.118 18.6673 24.6193 18.826C24.132 18.9847 23.7183 19.2057 23.3783 19.489L22.5453 17.942C23.0213 17.5793 23.5937 17.3017 24.2623 17.109C24.931 16.9163 25.6393 16.82 26.3873 16.82ZM26.0983 24.572C26.631 24.572 27.1013 24.453 27.5093 24.215C27.9287 23.9657 28.2233 23.6143 28.3933 23.161V22.107H26.2003C24.9763 22.107 24.3643 22.5093 24.3643 23.314C24.3643 23.6993 24.5173 24.0053 24.8233 24.232C25.1293 24.4587 25.5543 24.572 26.0983 24.572ZM36.5119 22.362H34.8629V26H32.7379V16.922H34.8629V20.594H36.5629L39.2489 16.922H41.5269L38.2289 21.291L41.7479 26H39.2489L36.5119 22.362ZM56.8149 24.198V28.023H54.8259V26H47.8219V28.023H45.8499V24.198H46.2749C46.8529 24.1753 47.2439 23.807 47.4479 23.093C47.6632 22.3677 47.8049 21.3477 47.8729 20.033L47.9919 16.922H55.4719V24.198H56.8149ZM49.8109 20.186C49.7656 21.2287 49.6806 22.0787 49.5559 22.736C49.4312 23.3933 49.2046 23.8807 48.8759 24.198H53.3469V18.724H49.8619L49.8109 20.186ZM58.3028 16.922H60.4278V22.906L65.4428 16.922H67.3808V26H65.2558V20.016L60.2578 26H58.3028V16.922ZM75.1361 21.274C75.7028 21.4327 76.1391 21.6933 76.4451 22.056C76.7625 22.4073 76.9211 22.8323 76.9211 23.331C76.9211 23.8863 76.7341 24.3793 76.3601 24.81C75.9861 25.2293 75.4705 25.558 74.8131 25.796C74.1558 26.034 73.4078 26.153 72.5691 26.153C71.8665 26.153 71.1808 26.0737 70.5121 25.915C69.8435 25.745 69.2371 25.507 68.6931 25.201L69.3051 23.62C69.7471 23.8693 70.2458 24.062 70.8011 24.198C71.3565 24.334 71.9118 24.402 72.4671 24.402C73.1811 24.402 73.7365 24.2943 74.1331 24.079C74.5411 23.8523 74.7451 23.5463 74.7451 23.161C74.7451 22.8097 74.5865 22.5377 74.2691 22.345C73.9631 22.1523 73.5268 22.056 72.9601 22.056H71.1921V20.628H72.7901C73.3228 20.628 73.7365 20.5373 74.0311 20.356C74.3371 20.1747 74.4901 19.9197 74.4901 19.591C74.4901 19.2623 74.3088 19.0017 73.9461 18.809C73.5835 18.6163 73.0848 18.52 72.4501 18.52C71.5435 18.52 70.5858 18.741 69.5771 19.183L69.0331 17.619C70.2231 17.0637 71.4245 16.786 72.6371 16.786C73.4078 16.786 74.0991 16.8937 74.7111 17.109C75.3231 17.313 75.7991 17.6077 76.1391 17.993C76.4905 18.367 76.6661 18.7977 76.6661 19.285C76.6661 19.727 76.5301 20.1237 76.2581 20.475C75.9861 20.815 75.6121 21.0813 75.1361 21.274ZM82.0992 16.82C83.4365 16.82 84.4565 17.143 85.1592 17.789C85.8732 18.4237 86.2302 19.387 86.2302 20.679V26H84.2242V24.895C83.9635 25.2917 83.5895 25.5977 83.1022 25.813C82.6262 26.017 82.0482 26.119 81.3682 26.119C80.6882 26.119 80.0932 26.0057 79.5832 25.779C79.0732 25.541 78.6765 25.218 78.3932 24.81C78.1212 24.3907 77.9852 23.9203 77.9852 23.399C77.9852 22.583 78.2855 21.9313 78.8862 21.444C79.4982 20.9453 80.4559 20.696 81.7592 20.696H84.1052V20.56C84.1052 19.9253 83.9125 19.438 83.5272 19.098C83.1532 18.758 82.5922 18.588 81.8442 18.588C81.3342 18.588 80.8299 18.6673 80.3312 18.826C79.8439 18.9847 79.4302 19.2057 79.0902 19.489L78.2572 17.942C78.7332 17.5793 79.3055 17.3017 79.9742 17.109C80.6429 16.9163 81.3512 16.82 82.0992 16.82ZM81.8102 24.572C82.3429 24.572 82.8132 24.453 83.2212 24.215C83.6405 23.9657 83.9352 23.6143 84.1052 23.161V22.107H81.9122C80.6882 22.107 80.0762 22.5093 80.0762 23.314C80.0762 23.6993 80.2292 24.0053 80.5352 24.232C80.8412 24.4587 81.2662 24.572 81.8102 24.572ZM88.4498 16.922H90.5748V22.906L95.5898 16.922H97.5278V26H95.4028V20.016L90.4048 26H88.4498V16.922ZM92.8528 15.851C91.9348 15.851 91.2321 15.6413 90.7448 15.222C90.2688 14.7913 90.0251 14.168 90.0138 13.352H91.4248C91.4361 13.76 91.5608 14.083 91.7988 14.321C92.0481 14.559 92.3938 14.678 92.8358 14.678C93.2664 14.678 93.6064 14.559 93.8558 14.321C94.1164 14.083 94.2524 13.76 94.2638 13.352H95.7088C95.6974 14.168 95.4481 14.7913 94.9608 15.222C94.4734 15.6413 93.7708 15.851 92.8528 15.851ZM99.9763 16.922H102.101V20.611H106.674V16.922H108.799V26H106.674V22.413H102.101V26H99.9763V16.922ZM119.737 21.512C119.737 21.6593 119.726 21.869 119.703 22.141H112.58C112.705 22.8097 113.028 23.3423 113.549 23.739C114.082 24.1243 114.739 24.317 115.521 24.317C116.519 24.317 117.34 23.9883 117.986 23.331L119.125 24.64C118.717 25.1273 118.202 25.4957 117.578 25.745C116.955 25.9943 116.252 26.119 115.47 26.119C114.473 26.119 113.595 25.9207 112.835 25.524C112.076 25.1273 111.487 24.5777 111.067 23.875C110.659 23.161 110.455 22.3563 110.455 21.461C110.455 20.577 110.654 19.7837 111.05 19.081C111.458 18.367 112.019 17.8117 112.733 17.415C113.447 17.0183 114.252 16.82 115.147 16.82C116.031 16.82 116.819 17.0183 117.51 17.415C118.213 17.8003 118.757 18.35 119.142 19.064C119.539 19.7667 119.737 20.5827 119.737 21.512ZM115.147 18.52C114.467 18.52 113.889 18.724 113.413 19.132C112.949 19.5287 112.665 20.0613 112.563 20.73H117.714C117.624 20.0727 117.346 19.54 116.881 19.132C116.417 18.724 115.839 18.52 115.147 18.52ZM126.683 16.82C127.567 16.82 128.355 17.0127 129.046 17.398C129.749 17.7833 130.299 18.3273 130.695 19.03C131.092 19.7327 131.29 20.543 131.29 21.461C131.29 22.379 131.092 23.195 130.695 23.909C130.299 24.6117 129.749 25.1557 129.046 25.541C128.355 25.9263 127.567 26.119 126.683 26.119C125.459 26.119 124.49 25.711 123.776 24.895V29.298H121.651V16.922H123.674V18.112C124.026 17.6813 124.456 17.3583 124.966 17.143C125.488 16.9277 126.06 16.82 126.683 16.82ZM126.445 24.3C127.227 24.3 127.868 24.0393 128.366 23.518C128.876 22.9967 129.131 22.311 129.131 21.461C129.131 20.611 128.876 19.9253 128.366 19.404C127.868 18.8827 127.227 18.622 126.445 18.622C125.935 18.622 125.476 18.741 125.068 18.979C124.66 19.2057 124.337 19.5343 124.099 19.965C123.861 20.3957 123.742 20.8943 123.742 21.461C123.742 22.0277 123.861 22.5263 124.099 22.957C124.337 23.3877 124.66 23.722 125.068 23.96C125.476 24.1867 125.935 24.3 126.445 24.3ZM141.415 26.119C140.474 26.119 139.63 25.9207 138.882 25.524C138.134 25.1273 137.55 24.5777 137.131 23.875C136.711 23.161 136.502 22.3563 136.502 21.461C136.502 20.5657 136.711 19.7667 137.131 19.064C137.55 18.3613 138.128 17.8117 138.865 17.415C139.613 17.0183 140.463 16.82 141.415 16.82C142.31 16.82 143.092 17.0013 143.761 17.364C144.441 17.7267 144.951 18.248 145.291 18.928L143.659 19.88C143.398 19.4607 143.069 19.149 142.673 18.945C142.287 18.7297 141.862 18.622 141.398 18.622C140.604 18.622 139.947 18.8827 139.426 19.404C138.904 19.914 138.644 20.5997 138.644 21.461C138.644 22.3223 138.899 23.0137 139.409 23.535C139.93 24.045 140.593 24.3 141.398 24.3C141.862 24.3 142.287 24.198 142.673 23.994C143.069 23.7787 143.398 23.4613 143.659 23.042L145.291 23.994C144.939 24.674 144.424 25.201 143.744 25.575C143.075 25.9377 142.299 26.119 141.415 26.119ZM155.086 26.119C154.168 26.119 153.34 25.9207 152.604 25.524C151.867 25.1273 151.289 24.5777 150.87 23.875C150.462 23.161 150.258 22.3563 150.258 21.461C150.258 20.5657 150.462 19.7667 150.87 19.064C151.289 18.3613 151.867 17.8117 152.604 17.415C153.34 17.0183 154.168 16.82 155.086 16.82C156.015 16.82 156.848 17.0183 157.585 17.415C158.321 17.8117 158.894 18.3613 159.302 19.064C159.721 19.7667 159.931 20.5657 159.931 21.461C159.931 22.3563 159.721 23.161 159.302 23.875C158.894 24.5777 158.321 25.1273 157.585 25.524C156.848 25.9207 156.015 26.119 155.086 26.119ZM155.086 24.3C155.868 24.3 156.514 24.0393 157.024 23.518C157.534 22.9967 157.789 22.311 157.789 21.461C157.789 20.611 157.534 19.9253 157.024 19.404C156.514 18.8827 155.868 18.622 155.086 18.622C154.304 18.622 153.658 18.8827 153.148 19.404C152.649 19.9253 152.4 20.611 152.4 21.461C152.4 22.311 152.649 22.9967 153.148 23.518C153.658 24.0393 154.304 24.3 155.086 24.3ZM170.324 16.922V26H168.216V18.724H163.745V26H161.62V16.922H170.324ZM177.201 19.914C178.357 19.914 179.241 20.1747 179.853 20.696C180.465 21.2173 180.771 21.954 180.771 22.906C180.771 23.9033 180.431 24.674 179.751 25.218C179.083 25.762 178.131 26.0283 176.895 26.017L172.781 26V16.922H174.906V19.897L177.201 19.914ZM181.944 16.922H184.069V26H181.944V16.922ZM176.708 24.453C177.332 24.4643 177.808 24.334 178.136 24.062C178.465 23.79 178.629 23.3933 178.629 22.872C178.629 22.362 178.471 21.988 178.153 21.75C177.836 21.512 177.354 21.3873 176.708 21.376L174.906 21.359V24.436L176.708 24.453ZM193.707 18.724H190.528V26H188.403V18.724H185.207V16.922H193.707V18.724ZM198.486 26.119C197.568 26.119 196.74 25.9207 196.004 25.524C195.267 25.1273 194.689 24.5777 194.27 23.875C193.862 23.161 193.658 22.3563 193.658 21.461C193.658 20.5657 193.862 19.7667 194.27 19.064C194.689 18.3613 195.267 17.8117 196.004 17.415C196.74 17.0183 197.568 16.82 198.486 16.82C199.415 16.82 200.248 17.0183 200.985 17.415C201.721 17.8117 202.294 18.3613 202.702 19.064C203.121 19.7667 203.331 20.5657 203.331 21.461C203.331 22.3563 203.121 23.161 202.702 23.875C202.294 24.5777 201.721 25.1273 200.985 25.524C200.248 25.9207 199.415 26.119 198.486 26.119ZM198.486 24.3C199.268 24.3 199.914 24.0393 200.424 23.518C200.934 22.9967 201.189 22.311 201.189 21.461C201.189 20.611 200.934 19.9253 200.424 19.404C199.914 18.8827 199.268 18.622 198.486 18.622C197.704 18.622 197.058 18.8827 196.548 19.404C196.049 19.9253 195.8 20.611 195.8 21.461C195.8 22.311 196.049 22.9967 196.548 23.518C197.058 24.0393 197.704 24.3 198.486 24.3ZM213.945 26V19.982L210.885 25.048H209.967L206.958 19.965V26H205.02V16.922H207.247L210.477 22.6L213.86 16.922H215.849L215.866 26H213.945ZM227.627 16.82C228.511 16.82 229.298 17.0127 229.99 17.398C230.692 17.7833 231.242 18.3273 231.639 19.03C232.035 19.7327 232.234 20.543 232.234 21.461C232.234 22.379 232.035 23.195 231.639 23.909C231.242 24.6117 230.692 25.1557 229.99 25.541C229.298 25.9263 228.511 26.119 227.627 26.119C226.403 26.119 225.434 25.711 224.72 24.895V29.298H222.595V16.922H224.618V18.112C224.969 17.6813 225.4 17.3583 225.91 17.143C226.431 16.9277 227.003 16.82 227.627 16.82ZM227.389 24.3C228.171 24.3 228.811 24.0393 229.31 23.518C229.82 22.9967 230.075 22.311 230.075 21.461C230.075 20.611 229.82 19.9253 229.31 19.404C228.811 18.8827 228.171 18.622 227.389 18.622C226.879 18.622 226.42 18.741 226.012 18.979C225.604 19.2057 225.281 19.5343 225.043 19.965C224.805 20.3957 224.686 20.8943 224.686 21.461C224.686 22.0277 224.805 22.5263 225.043 22.957C225.281 23.3877 225.604 23.722 226.012 23.96C226.42 24.1867 226.879 24.3 227.389 24.3ZM237.205 16.82C238.543 16.82 239.563 17.143 240.265 17.789C240.979 18.4237 241.336 19.387 241.336 20.679V26H239.33V24.895C239.07 25.2917 238.696 25.5977 238.208 25.813C237.732 26.017 237.154 26.119 236.474 26.119C235.794 26.119 235.199 26.0057 234.689 25.779C234.179 25.541 233.783 25.218 233.499 24.81C233.227 24.3907 233.091 23.9203 233.091 23.399C233.091 22.583 233.392 21.9313 233.992 21.444C234.604 20.9453 235.562 20.696 236.865 20.696H239.211V20.56C239.211 19.9253 239.019 19.438 238.633 19.098C238.259 18.758 237.698 18.588 236.95 18.588C236.44 18.588 235.936 18.6673 235.437 18.826C234.95 18.9847 234.536 19.2057 234.196 19.489L233.363 17.942C233.839 17.5793 234.412 17.3017 235.08 17.109C235.749 16.9163 236.457 16.82 237.205 16.82ZM236.916 24.572C237.449 24.572 237.919 24.453 238.327 24.215C238.747 23.9657 239.041 23.6143 239.211 23.161V22.107H237.018C235.794 22.107 235.182 22.5093 235.182 23.314C235.182 23.6993 235.335 24.0053 235.641 24.232C235.947 24.4587 236.372 24.572 236.916 24.572ZM248.469 17.364C249.33 17.364 250.089 17.551 250.747 17.925C251.404 18.2877 251.914 18.7977 252.277 19.455C252.651 20.1123 252.838 20.866 252.838 21.716C252.838 22.5887 252.634 23.365 252.226 24.045C251.818 24.7137 251.245 25.235 250.509 25.609C249.772 25.983 248.933 26.17 247.993 26.17C246.417 26.17 245.199 25.6487 244.338 24.606C243.476 23.5633 243.046 22.0617 243.046 20.101C243.046 18.2763 243.437 16.8313 244.219 15.766C245.001 14.7007 246.196 13.998 247.806 13.658L252.022 12.757L252.328 14.661L248.503 15.443C247.403 15.6697 246.582 16.055 246.038 16.599C245.494 17.143 245.176 17.908 245.086 18.894C245.494 18.4067 245.987 18.0327 246.565 17.772C247.143 17.5 247.777 17.364 248.469 17.364ZM248.044 24.453C248.826 24.453 249.455 24.2037 249.931 23.705C250.418 23.195 250.662 22.549 250.662 21.767C250.662 20.985 250.418 20.356 249.931 19.88C249.455 19.404 248.826 19.166 248.044 19.166C247.25 19.166 246.61 19.404 246.123 19.88C245.635 20.356 245.392 20.985 245.392 21.767C245.392 22.5603 245.635 23.2063 246.123 23.705C246.621 24.2037 247.262 24.453 248.044 24.453ZM258.531 26.119C257.613 26.119 256.785 25.9207 256.049 25.524C255.312 25.1273 254.734 24.5777 254.315 23.875C253.907 23.161 253.703 22.3563 253.703 21.461C253.703 20.5657 253.907 19.7667 254.315 19.064C254.734 18.3613 255.312 17.8117 256.049 17.415C256.785 17.0183 257.613 16.82 258.531 16.82C259.46 16.82 260.293 17.0183 261.03 17.415C261.766 17.8117 262.339 18.3613 262.747 19.064C263.166 19.7667 263.376 20.5657 263.376 21.461C263.376 22.3563 263.166 23.161 262.747 23.875C262.339 24.5777 261.766 25.1273 261.03 25.524C260.293 25.9207 259.46 26.119 258.531 26.119ZM258.531 24.3C259.313 24.3 259.959 24.0393 260.469 23.518C260.979 22.9967 261.234 22.311 261.234 21.461C261.234 20.611 260.979 19.9253 260.469 19.404C259.959 18.8827 259.313 18.622 258.531 18.622C257.749 18.622 257.103 18.8827 256.593 19.404C256.094 19.9253 255.845 20.611 255.845 21.461C255.845 22.311 256.094 22.9967 256.593 23.518C257.103 24.0393 257.749 24.3 258.531 24.3ZM271.924 18.724H268.745V26H266.62V18.724H263.424V16.922H271.924V18.724ZM277.475 19.914C278.631 19.914 279.515 20.1747 280.127 20.696C280.739 21.2173 281.045 21.954 281.045 22.906C281.045 23.9033 280.705 24.674 280.025 25.218C279.357 25.762 278.405 26.0283 277.169 26.017L273.055 26V16.922H275.18V19.897L277.475 19.914ZM282.218 16.922H284.343V26H282.218V16.922ZM276.982 24.453C277.606 24.4643 278.082 24.334 278.41 24.062C278.739 23.79 278.903 23.3933 278.903 22.872C278.903 22.362 278.745 21.988 278.427 21.75C278.11 21.512 277.628 21.3873 276.982 21.376L275.18 21.359V24.436L276.982 24.453ZM297.657 21.274C298.779 21.614 299.34 22.3393 299.34 23.45C299.34 24.266 299.034 24.895 298.422 25.337C297.81 25.779 296.903 26 295.702 26H291.078V16.922H295.515C296.626 16.922 297.493 17.126 298.116 17.534C298.739 17.942 299.051 18.52 299.051 19.268C299.051 19.7327 298.926 20.135 298.677 20.475C298.439 20.815 298.099 21.0813 297.657 21.274ZM293.101 20.713H295.328C296.427 20.713 296.977 20.3333 296.977 19.574C296.977 18.8373 296.427 18.469 295.328 18.469H293.101V20.713ZM295.532 24.453C296.699 24.453 297.283 24.0733 297.283 23.314C297.283 22.9173 297.147 22.6227 296.875 22.43C296.603 22.226 296.178 22.124 295.6 22.124H293.101V24.453H295.532ZM11.428 36.922H13.553V42.906L18.568 36.922H20.506V46H18.381V40.016L13.383 46H11.428V36.922ZM22.9545 36.922H25.0795V40.611H29.6525V36.922H31.7775V46H29.6525V42.413H25.0795V46H22.9545V36.922ZM43.9054 44.198V48.023H41.9164V46H34.9124V48.023H32.9404V44.198H33.3654C33.9434 44.1753 34.3344 43.807 34.5384 43.093C34.7538 42.3677 34.8954 41.3477 34.9634 40.033L35.0824 36.922H42.5624V44.198H43.9054ZM36.9014 40.186C36.8561 41.2287 36.7711 42.0787 36.6464 42.736C36.5218 43.3933 36.2951 43.8807 35.9664 44.198H40.4374V38.724H36.9524L36.9014 40.186ZM53.9613 36.922L49.7113 46.731C49.3146 47.717 48.833 48.4083 48.2663 48.805C47.6996 49.213 47.014 49.417 46.2093 49.417C45.756 49.417 45.3083 49.3433 44.8663 49.196C44.4243 49.0487 44.0616 48.8447 43.7783 48.584L44.6283 47.02C44.8323 47.2127 45.0703 47.3657 45.3423 47.479C45.6256 47.5923 45.909 47.649 46.1923 47.649C46.5663 47.649 46.8723 47.5527 47.1103 47.36C47.3596 47.1673 47.5863 46.8443 47.7903 46.391L47.9433 46.034L43.9823 36.922H46.1923L49.0483 43.637L51.9213 36.922H53.9613ZM58.9092 46.119C57.9686 46.119 57.1242 45.9207 56.3762 45.524C55.6282 45.1273 55.0446 44.5777 54.6252 43.875C54.2059 43.161 53.9962 42.3563 53.9962 41.461C53.9962 40.5657 54.2059 39.7667 54.6252 39.064C55.0446 38.3613 55.6226 37.8117 56.3592 37.415C57.1072 37.0183 57.9572 36.82 58.9092 36.82C59.8046 36.82 60.5866 37.0013 61.2552 37.364C61.9352 37.7267 62.4452 38.248 62.7852 38.928L61.1532 39.88C60.8926 39.4607 60.5639 39.149 60.1672 38.945C59.7819 38.7297 59.3569 38.622 58.8922 38.622C58.0989 38.622 57.4416 38.8827 56.9202 39.404C56.3989 39.914 56.1382 40.5997 56.1382 41.461C56.1382 42.3223 56.3932 43.0137 56.9032 43.535C57.4246 44.045 58.0876 44.3 58.8922 44.3C59.3569 44.3 59.7819 44.198 60.1672 43.994C60.5639 43.7787 60.8926 43.4613 61.1532 43.042L62.7852 43.994C62.4339 44.674 61.9182 45.201 61.2382 45.575C60.5696 45.9377 59.7932 46.119 58.9092 46.119ZM71.3542 38.724H68.1752V46H66.0502V38.724H62.8542V36.922H71.3542V38.724ZM77.5176 36.82C78.4016 36.82 79.1892 37.0127 79.8806 37.398C80.5832 37.7833 81.1329 38.3273 81.5296 39.03C81.9262 39.7327 82.1246 40.543 82.1246 41.461C82.1246 42.379 81.9262 43.195 81.5296 43.909C81.1329 44.6117 80.5832 45.1557 79.8806 45.541C79.1892 45.9263 78.4016 46.119 77.5176 46.119C76.2936 46.119 75.3246 45.711 74.6106 44.895V49.298H72.4856V36.922H74.5086V38.112C74.8599 37.6813 75.2906 37.3583 75.8006 37.143C76.3219 36.9277 76.8942 36.82 77.5176 36.82ZM77.2796 44.3C78.0616 44.3 78.7019 44.0393 79.2006 43.518C79.7106 42.9967 79.9656 42.311 79.9656 41.461C79.9656 40.611 79.7106 39.9253 79.2006 39.404C78.7019 38.8827 78.0616 38.622 77.2796 38.622C76.7696 38.622 76.3106 38.741 75.9026 38.979C75.4946 39.2057 75.1716 39.5343 74.9336 39.965C74.6956 40.3957 74.5766 40.8943 74.5766 41.461C74.5766 42.0277 74.6956 42.5263 74.9336 42.957C75.1716 43.3877 75.4946 43.722 75.9026 43.96C76.3106 44.1867 76.7696 44.3 77.2796 44.3ZM83.8295 36.922H85.9545V42.906L90.9695 36.922H92.9075V46H90.7825V40.016L85.7845 46H83.8295V36.922ZM95.356 36.922H97.481V42.906L102.496 36.922H104.434V46H102.309V40.016L97.311 46H95.356V36.922ZM116.084 37.364C116.945 37.364 117.704 37.551 118.362 37.925C119.019 38.2877 119.529 38.7977 119.892 39.455C120.266 40.1123 120.453 40.866 120.453 41.716C120.453 42.5887 120.249 43.365 119.841 44.045C119.433 44.7137 118.86 45.235 118.124 45.609C117.387 45.983 116.548 46.17 115.608 46.17C114.032 46.17 112.814 45.6487 111.953 44.606C111.091 43.5633 110.661 42.0617 110.661 40.101C110.661 38.2763 111.052 36.8313 111.834 35.766C112.616 34.7007 113.811 33.998 115.421 33.658L119.637 32.757L119.943 34.661L116.118 35.443C115.018 35.6697 114.197 36.055 113.653 36.599C113.109 37.143 112.791 37.908 112.701 38.894C113.109 38.4067 113.602 38.0327 114.18 37.772C114.758 37.5 115.392 37.364 116.084 37.364ZM115.659 44.453C116.441 44.453 117.07 44.2037 117.546 43.705C118.033 43.195 118.277 42.549 118.277 41.767C118.277 40.985 118.033 40.356 117.546 39.88C117.07 39.404 116.441 39.166 115.659 39.166C114.865 39.166 114.225 39.404 113.738 39.88C113.25 40.356 113.007 40.985 113.007 41.767C113.007 42.5603 113.25 43.2063 113.738 43.705C114.236 44.2037 114.877 44.453 115.659 44.453ZM126.146 46.119C125.228 46.119 124.4 45.9207 123.664 45.524C122.927 45.1273 122.349 44.5777 121.93 43.875C121.522 43.161 121.318 42.3563 121.318 41.461C121.318 40.5657 121.522 39.7667 121.93 39.064C122.349 38.3613 122.927 37.8117 123.664 37.415C124.4 37.0183 125.228 36.82 126.146 36.82C127.075 36.82 127.908 37.0183 128.645 37.415C129.381 37.8117 129.954 38.3613 130.362 39.064C130.781 39.7667 130.991 40.5657 130.991 41.461C130.991 42.3563 130.781 43.161 130.362 43.875C129.954 44.5777 129.381 45.1273 128.645 45.524C127.908 45.9207 127.075 46.119 126.146 46.119ZM126.146 44.3C126.928 44.3 127.574 44.0393 128.084 43.518C128.594 42.9967 128.849 42.311 128.849 41.461C128.849 40.611 128.594 39.9253 128.084 39.404C127.574 38.8827 126.928 38.622 126.146 38.622C125.364 38.622 124.718 38.8827 124.208 39.404C123.709 39.9253 123.46 40.611 123.46 41.461C123.46 42.311 123.709 42.9967 124.208 43.518C124.718 44.0393 125.364 44.3 126.146 44.3ZM140.808 36.922V46H138.683V38.724H135.283L135.198 40.526C135.142 41.7273 135.028 42.736 134.858 43.552C134.7 44.3567 134.422 44.997 134.025 45.473C133.64 45.9377 133.107 46.17 132.427 46.17C132.11 46.17 131.719 46.1077 131.254 45.983L131.356 44.198C131.515 44.232 131.651 44.249 131.764 44.249C132.195 44.249 132.518 44.079 132.733 43.739C132.949 43.3877 133.085 42.974 133.141 42.498C133.209 42.0107 133.266 41.3193 133.311 40.424L133.464 36.922H140.808ZM151.76 41.512C151.76 41.6593 151.749 41.869 151.726 42.141H144.603C144.728 42.8097 145.051 43.3423 145.572 43.739C146.105 44.1243 146.762 44.317 147.544 44.317C148.541 44.317 149.363 43.9883 150.009 43.331L151.148 44.64C150.74 45.1273 150.224 45.4957 149.601 45.745C148.978 45.9943 148.275 46.119 147.493 46.119C146.496 46.119 145.617 45.9207 144.858 45.524C144.099 45.1273 143.509 44.5777 143.09 43.875C142.682 43.161 142.478 42.3563 142.478 41.461C142.478 40.577 142.676 39.7837 143.073 39.081C143.481 38.367 144.042 37.8117 144.756 37.415C145.47 37.0183 146.275 36.82 147.17 36.82C148.054 36.82 148.842 37.0183 149.533 37.415C150.236 37.8003 150.78 38.35 151.165 39.064C151.562 39.7667 151.76 40.5827 151.76 41.512ZM147.17 38.52C146.49 38.52 145.912 38.724 145.436 39.132C144.971 39.5287 144.688 40.0613 144.586 40.73H149.737C149.646 40.0727 149.369 39.54 148.904 39.132C148.439 38.724 147.861 38.52 147.17 38.52ZM162.174 41.512C162.174 41.6593 162.163 41.869 162.14 42.141H155.017C155.142 42.8097 155.465 43.3423 155.986 43.739C156.519 44.1243 157.176 44.317 157.958 44.317C158.956 44.317 159.777 43.9883 160.423 43.331L161.562 44.64C161.154 45.1273 160.639 45.4957 160.015 45.745C159.392 45.9943 158.689 46.119 157.907 46.119C156.91 46.119 156.032 45.9207 155.272 45.524C154.513 45.1273 153.924 44.5777 153.504 43.875C153.096 43.161 152.892 42.3563 152.892 41.461C152.892 40.577 153.091 39.7837 153.487 39.081C153.895 38.367 154.456 37.8117 155.17 37.415C155.884 37.0183 156.689 36.82 157.584 36.82C158.468 36.82 159.256 37.0183 159.947 37.415C160.65 37.8003 161.194 38.35 161.579 39.064C161.976 39.7667 162.174 40.5827 162.174 41.512ZM157.584 38.52C156.904 38.52 156.326 38.724 155.85 39.132C155.386 39.5287 155.102 40.0613 155 40.73H160.151C160.061 40.0727 159.783 39.54 159.318 39.132C158.854 38.724 158.276 38.52 157.584 38.52ZM176.078 36.922V46H173.953V42.481C173.08 42.9003 172.168 43.11 171.216 43.11C170.048 43.11 169.153 42.8437 168.53 42.311C167.906 41.767 167.595 40.9397 167.595 39.829V36.922H169.72V39.693C169.72 40.271 169.89 40.7017 170.23 40.985C170.57 41.2683 171.051 41.41 171.675 41.41C172.468 41.41 173.227 41.24 173.953 40.9V36.922H176.078ZM187.025 41.512C187.025 41.6593 187.014 41.869 186.991 42.141H179.868C179.993 42.8097 180.316 43.3423 180.837 43.739C181.37 44.1243 182.027 44.317 182.809 44.317C183.807 44.317 184.628 43.9883 185.274 43.331L186.413 44.64C186.005 45.1273 185.49 45.4957 184.866 45.745C184.243 45.9943 183.54 46.119 182.758 46.119C181.761 46.119 180.883 45.9207 180.123 45.524C179.364 45.1273 178.775 44.5777 178.355 43.875C177.947 43.161 177.743 42.3563 177.743 41.461C177.743 40.577 177.942 39.7837 178.338 39.081C178.746 38.367 179.307 37.8117 180.021 37.415C180.735 37.0183 181.54 36.82 182.435 36.82C183.319 36.82 184.107 37.0183 184.798 37.415C185.501 37.8003 186.045 38.35 186.43 39.064C186.827 39.7667 187.025 40.5827 187.025 41.512ZM182.435 38.52C181.755 38.52 181.177 38.724 180.701 39.132C180.237 39.5287 179.953 40.0613 179.851 40.73H185.002C184.912 40.0727 184.634 39.54 184.169 39.132C183.705 38.724 183.127 38.52 182.435 38.52ZM197.865 46V39.982L194.805 45.048H193.887L190.878 39.965V46H188.94V36.922H191.167L194.397 42.6L197.78 36.922H199.769L199.786 46H197.865ZM209.557 38.707C211.234 38.707 212.475 39.0357 213.28 39.693C214.085 40.339 214.487 41.223 214.487 42.345C214.487 43.059 214.311 43.705 213.96 44.283C213.609 44.861 213.082 45.32 212.379 45.66C211.676 46 210.809 46.17 209.778 46.17C208.928 46.17 208.106 46.051 207.313 45.813C206.52 45.5637 205.851 45.2237 205.307 44.793L206.242 43.076C206.684 43.4387 207.211 43.7277 207.823 43.943C208.446 44.147 209.087 44.249 209.744 44.249C210.526 44.249 211.138 44.0903 211.58 43.773C212.033 43.4443 212.26 42.9967 212.26 42.43C212.26 41.818 212.016 41.359 211.529 41.053C211.053 40.7357 210.231 40.577 209.064 40.577H206.191L206.803 34.1H213.79V35.953H208.673L208.418 38.707H209.557ZM228.548 36.922V46H226.423V38.724H223.023L222.938 40.526C222.881 41.7273 222.768 42.736 222.598 43.552C222.439 44.3567 222.162 44.997 221.765 45.473C221.38 45.9377 220.847 46.17 220.167 46.17C219.85 46.17 219.459 46.1077 218.994 45.983L219.096 44.198C219.255 44.232 219.391 44.249 219.504 44.249C219.935 44.249 220.258 44.079 220.473 43.739C220.688 43.3877 220.824 42.974 220.881 42.498C220.949 42.0107 221.006 41.3193 221.051 40.424L221.204 36.922H228.548ZM239.5 41.512C239.5 41.6593 239.489 41.869 239.466 42.141H232.343C232.468 42.8097 232.791 43.3423 233.312 43.739C233.845 44.1243 234.502 44.317 235.284 44.317C236.281 44.317 237.103 43.9883 237.749 43.331L238.888 44.64C238.48 45.1273 237.964 45.4957 237.341 45.745C236.718 45.9943 236.015 46.119 235.233 46.119C234.236 46.119 233.357 45.9207 232.598 45.524C231.839 45.1273 231.249 44.5777 230.83 43.875C230.422 43.161 230.218 42.3563 230.218 41.461C230.218 40.577 230.416 39.7837 230.813 39.081C231.221 38.367 231.782 37.8117 232.496 37.415C233.21 37.0183 234.015 36.82 234.91 36.82C235.794 36.82 236.582 37.0183 237.273 37.415C237.976 37.8003 238.52 38.35 238.905 39.064C239.302 39.7667 239.5 40.5827 239.5 41.512ZM234.91 38.52C234.23 38.52 233.652 38.724 233.176 39.132C232.711 39.5287 232.428 40.0613 232.326 40.73H237.477C237.386 40.0727 237.109 39.54 236.644 39.132C236.179 38.724 235.601 38.52 234.91 38.52ZM248.273 38.724H245.094V46H242.969V38.724H239.773V36.922H248.273V38.724ZM249.221 43.297C249.618 43.297 249.946 43.4273 250.207 43.688C250.468 43.9487 250.598 44.2887 250.598 44.708C250.598 44.8893 250.57 45.082 250.513 45.286C250.468 45.4787 250.366 45.7733 250.207 46.17L249.34 48.567H247.963L248.643 45.966C248.394 45.864 248.195 45.7053 248.048 45.49C247.912 45.2633 247.844 45.0027 247.844 44.708C247.844 44.2887 247.974 43.9487 248.235 43.688C248.496 43.4273 248.824 43.297 249.221 43.297ZM264.254 36.922V46H262.35V43.263H259.953L258.1 46H255.822L257.964 42.974C257.306 42.7473 256.802 42.4017 256.451 41.937C256.111 41.461 255.941 40.8773 255.941 40.186C255.941 39.1433 256.309 38.3387 257.046 37.772C257.782 37.2053 258.797 36.922 260.089 36.922H264.254ZM260.157 38.707C258.785 38.707 258.1 39.2227 258.1 40.254C258.1 41.274 258.763 41.784 260.089 41.784H262.35V38.707H260.157ZM11.428 56.922H13.553V62.906L18.568 56.922H20.506V66H18.381V60.016L13.383 66H11.428V56.922ZM31.8795 66V59.982L28.8195 65.048H27.9015L24.8925 59.965V66H22.9545V56.922H25.1815L28.4115 62.6L31.7945 56.922H33.7835L33.8005 66H31.8795ZM44.7408 61.512C44.7408 61.6593 44.7295 61.869 44.7068 62.141H37.5838C37.7085 62.8097 38.0315 63.3423 38.5528 63.739C39.0855 64.1243 39.7428 64.317 40.5248 64.317C41.5221 64.317 42.3438 63.9883 42.9898 63.331L44.1288 64.64C43.7208 65.1273 43.2051 65.4957 42.5818 65.745C41.9585 65.9943 41.2558 66.119 40.4738 66.119C39.4765 66.119 38.5981 65.9207 37.8388 65.524C37.0795 65.1273 36.4901 64.5777 36.0708 63.875C35.6628 63.161 35.4588 62.3563 35.4588 61.461C35.4588 60.577 35.6571 59.7837 36.0538 59.081C36.4618 58.367 37.0228 57.8117 37.7368 57.415C38.4508 57.0183 39.2555 56.82 40.1508 56.82C41.0348 56.82 41.8225 57.0183 42.5138 57.415C43.2165 57.8003 43.7605 58.35 44.1458 59.064C44.5425 59.7667 44.7408 60.5827 44.7408 61.512ZM40.1508 58.52C39.4708 58.52 38.8928 58.724 38.4168 59.132C37.9521 59.5287 37.6688 60.0613 37.5668 60.73H42.7178C42.6271 60.0727 42.3495 59.54 41.8848 59.132C41.4201 58.724 40.8421 58.52 40.1508 58.52ZM54.951 56.82C55.8577 56.82 56.668 57.0183 57.382 57.415C58.096 57.8003 58.657 58.35 59.065 59.064C59.473 59.7667 59.677 60.5657 59.677 61.461C59.677 62.3563 59.473 63.161 59.065 63.875C58.657 64.5777 58.096 65.1273 57.382 65.524C56.668 65.9207 55.8577 66.119 54.951 66.119C54.1577 66.119 53.4324 65.966 52.775 65.66C52.1177 65.3427 51.5737 64.9007 51.143 64.334C50.7124 63.756 50.4347 63.0987 50.31 62.362H48.78V66H46.655V56.922H48.78V60.441H50.344C50.48 59.727 50.7634 59.098 51.194 58.554C51.6247 57.9987 52.163 57.5737 52.809 57.279C53.455 56.973 54.169 56.82 54.951 56.82ZM54.951 64.317C55.4497 64.317 55.8974 64.2037 56.294 63.977C56.6907 63.739 57.0024 63.4047 57.229 62.974C57.4557 62.532 57.569 62.0277 57.569 61.461C57.569 60.5997 57.3197 59.914 56.821 59.404C56.3337 58.8827 55.7104 58.622 54.951 58.622C54.1917 58.622 53.5684 58.8827 53.081 59.404C52.5937 59.914 52.35 60.5997 52.35 61.461C52.35 62.3223 52.5937 63.0137 53.081 63.535C53.5797 64.0563 54.203 64.317 54.951 64.317ZM74.2087 56.922L69.9587 66.731C69.562 67.717 69.0804 68.4083 68.5137 68.805C67.947 69.213 67.2614 69.417 66.4567 69.417C66.0034 69.417 65.5557 69.3433 65.1137 69.196C64.6717 69.0487 64.309 68.8447 64.0257 68.584L64.8757 67.02C65.0797 67.2127 65.3177 67.3657 65.5897 67.479C65.873 67.5923 66.1564 67.649 66.4397 67.649C66.8137 67.649 67.1197 67.5527 67.3577 67.36C67.607 67.1673 67.8337 66.8443 68.0377 66.391L68.1907 66.034L64.2297 56.922H66.4397L69.2957 63.637L72.1687 56.922H74.2087ZM75.2746 56.922H77.3996V60.611H81.9726V56.922H84.0976V66H81.9726V62.413H77.3996V66H75.2746V56.922ZM86.5355 56.922H88.6605V62.906L93.6755 56.922H95.6135V66H93.4885V60.016L88.4905 66H86.5355V56.922ZM101.836 62.362H100.187V66H98.0621V56.922H100.187V60.594H101.887L104.573 56.922H106.851L103.553 61.291L107.072 66H104.573L101.836 62.362ZM111.378 56.82C112.715 56.82 113.735 57.143 114.438 57.789C115.152 58.4237 115.509 59.387 115.509 60.679V66H113.503V64.895C113.242 65.2917 112.868 65.5977 112.381 65.813C111.905 66.017 111.327 66.119 110.647 66.119C109.967 66.119 109.372 66.0057 108.862 65.779C108.352 65.541 107.955 65.218 107.672 64.81C107.4 64.3907 107.264 63.9203 107.264 63.399C107.264 62.583 107.564 61.9313 108.165 61.444C108.777 60.9453 109.735 60.696 111.038 60.696H113.384V60.56C113.384 59.9253 113.191 59.438 112.806 59.098C112.432 58.758 111.871 58.588 111.123 58.588C110.613 58.588 110.109 58.6673 109.61 58.826C109.123 58.9847 108.709 59.2057 108.369 59.489L107.536 57.942C108.012 57.5793 108.584 57.3017 109.253 57.109C109.922 56.9163 110.63 56.82 111.378 56.82ZM111.089 64.572C111.622 64.572 112.092 64.453 112.5 64.215C112.919 63.9657 113.214 63.6143 113.384 63.161V62.107H111.191C109.967 62.107 109.355 62.5093 109.355 63.314C109.355 63.6993 109.508 64.0053 109.814 64.232C110.12 64.4587 110.545 64.572 111.089 64.572ZM125.956 56.922V66H123.831V58.724H120.431L120.346 60.526C120.29 61.7273 120.176 62.736 120.006 63.552C119.848 64.3567 119.57 64.997 119.173 65.473C118.788 65.9377 118.255 66.17 117.575 66.17C117.258 66.17 116.867 66.1077 116.402 65.983L116.504 64.198C116.663 64.232 116.799 64.249 116.912 64.249C117.343 64.249 117.666 64.079 117.881 63.739C118.097 63.3877 118.233 62.974 118.289 62.498C118.357 62.0107 118.414 61.3193 118.459 60.424L118.612 56.922H125.956ZM132.964 59.914C134.12 59.914 135.004 60.1747 135.616 60.696C136.24 61.2173 136.551 61.954 136.551 62.906C136.551 63.9033 136.211 64.674 135.531 65.218C134.851 65.762 133.894 66.0283 132.658 66.017L128.408 66V56.922H130.533V59.897L132.964 59.914ZM132.471 64.453C133.095 64.4643 133.571 64.334 133.899 64.062C134.228 63.79 134.392 63.3933 134.392 62.872C134.392 62.362 134.234 61.988 133.916 61.75C133.599 61.512 133.117 61.3873 132.471 61.376L130.533 61.359V64.436L132.471 64.453ZM138.009 56.922H140.134V60.611H144.707V56.922H146.832V66H144.707V62.413H140.134V66H138.009V56.922ZM153.69 59.914C154.846 59.914 155.73 60.1747 156.342 60.696C156.954 61.2173 157.26 61.954 157.26 62.906C157.26 63.9033 156.92 64.674 156.24 65.218C155.571 65.762 154.619 66.0283 153.384 66.017L149.27 66V56.922H151.395V59.897L153.69 59.914ZM158.433 56.922H160.558V66H158.433V56.922ZM153.197 64.453C153.82 64.4643 154.296 64.334 154.625 64.062C154.954 63.79 155.118 63.3933 155.118 62.872C155.118 62.362 154.959 61.988 154.642 61.75C154.325 61.512 153.843 61.3873 153.197 61.376L151.395 61.359V64.436L153.197 64.453ZM163.004 56.922H165.129V62.906L170.144 56.922H172.082V66H169.957V60.016L164.959 66H163.004V56.922ZM167.407 55.851C166.489 55.851 165.787 55.6413 165.299 55.222C164.823 54.7913 164.58 54.168 164.568 53.352H165.979C165.991 53.76 166.115 54.083 166.353 54.321C166.603 54.559 166.948 54.678 167.39 54.678C167.821 54.678 168.161 54.559 168.41 54.321C168.671 54.083 168.807 53.76 168.818 53.352H170.263C170.252 54.168 170.003 54.7913 169.515 55.222C169.028 55.6413 168.325 55.851 167.407 55.851ZM178.819 56.922H180.944V60.611H185.517V56.922H187.642V66H185.517V62.413H180.944V66H178.819V56.922ZM193.463 56.82C194.8 56.82 195.82 57.143 196.523 57.789C197.237 58.4237 197.594 59.387 197.594 60.679V66H195.588V64.895C195.327 65.2917 194.953 65.5977 194.466 65.813C193.99 66.017 193.412 66.119 192.732 66.119C192.052 66.119 191.457 66.0057 190.947 65.779C190.437 65.541 190.04 65.218 189.757 64.81C189.485 64.3907 189.349 63.9203 189.349 63.399C189.349 62.583 189.649 61.9313 190.25 61.444C190.862 60.9453 191.82 60.696 193.123 60.696H195.469V60.56C195.469 59.9253 195.276 59.438 194.891 59.098C194.517 58.758 193.956 58.588 193.208 58.588C192.698 58.588 192.194 58.6673 191.695 58.826C191.208 58.9847 190.794 59.2057 190.454 59.489L189.621 57.942C190.097 57.5793 190.669 57.3017 191.338 57.109C192.007 56.9163 192.715 56.82 193.463 56.82ZM193.174 64.572C193.707 64.572 194.177 64.453 194.585 64.215C195.004 63.9657 195.299 63.6143 195.469 63.161V62.107H193.276C192.052 62.107 191.44 62.5093 191.44 63.314C191.44 63.6993 191.593 64.0053 191.899 64.232C192.205 64.4587 192.63 64.572 193.174 64.572ZM204.727 57.364C205.588 57.364 206.347 57.551 207.005 57.925C207.662 58.2877 208.172 58.7977 208.535 59.455C208.909 60.1123 209.096 60.866 209.096 61.716C209.096 62.5887 208.892 63.365 208.484 64.045C208.076 64.7137 207.503 65.235 206.767 65.609C206.03 65.983 205.191 66.17 204.251 66.17C202.675 66.17 201.457 65.6487 200.596 64.606C199.734 63.5633 199.304 62.0617 199.304 60.101C199.304 58.2763 199.695 56.8313 200.477 55.766C201.259 54.7007 202.454 53.998 204.064 53.658L208.28 52.757L208.586 54.661L204.761 55.443C203.661 55.6697 202.84 56.055 202.296 56.599C201.752 57.143 201.434 57.908 201.344 58.894C201.752 58.4067 202.245 58.0327 202.823 57.772C203.401 57.5 204.035 57.364 204.727 57.364ZM204.302 64.453C205.084 64.453 205.713 64.2037 206.189 63.705C206.676 63.195 206.92 62.549 206.92 61.767C206.92 60.985 206.676 60.356 206.189 59.88C205.713 59.404 205.084 59.166 204.302 59.166C203.508 59.166 202.868 59.404 202.381 59.88C201.893 60.356 201.65 60.985 201.65 61.767C201.65 62.5603 201.893 63.2063 202.381 63.705C202.879 64.2037 203.52 64.453 204.302 64.453ZM214.788 66.119C213.87 66.119 213.043 65.9207 212.306 65.524C211.57 65.1273 210.992 64.5777 210.572 63.875C210.164 63.161 209.96 62.3563 209.96 61.461C209.96 60.5657 210.164 59.7667 210.572 59.064C210.992 58.3613 211.57 57.8117 212.306 57.415C213.043 57.0183 213.87 56.82 214.788 56.82C215.718 56.82 216.551 57.0183 217.287 57.415C218.024 57.8117 218.596 58.3613 219.004 59.064C219.424 59.7667 219.633 60.5657 219.633 61.461C219.633 62.3563 219.424 63.161 219.004 63.875C218.596 64.5777 218.024 65.1273 217.287 65.524C216.551 65.9207 215.718 66.119 214.788 66.119ZM214.788 64.3C215.57 64.3 216.216 64.0393 216.726 63.518C217.236 62.9967 217.491 62.311 217.491 61.461C217.491 60.611 217.236 59.9253 216.726 59.404C216.216 58.8827 215.57 58.622 214.788 58.622C214.006 58.622 213.36 58.8827 212.85 59.404C212.352 59.9253 212.102 60.611 212.102 61.461C212.102 62.311 212.352 62.9967 212.85 63.518C213.36 64.0393 214.006 64.3 214.788 64.3ZM226.355 56.82C227.239 56.82 228.026 57.0127 228.718 57.398C229.42 57.7833 229.97 58.3273 230.367 59.03C230.763 59.7327 230.962 60.543 230.962 61.461C230.962 62.379 230.763 63.195 230.367 63.909C229.97 64.6117 229.42 65.1557 228.718 65.541C228.026 65.9263 227.239 66.119 226.355 66.119C225.131 66.119 224.162 65.711 223.448 64.895V69.298H221.323V56.922H223.346V58.112C223.697 57.6813 224.128 57.3583 224.638 57.143C225.159 56.9277 225.731 56.82 226.355 56.82ZM226.117 64.3C226.899 64.3 227.539 64.0393 228.038 63.518C228.548 62.9967 228.803 62.311 228.803 61.461C228.803 60.611 228.548 59.9253 228.038 59.404C227.539 58.8827 226.899 58.622 226.117 58.622C225.607 58.622 225.148 58.741 224.74 58.979C224.332 59.2057 224.009 59.5343 223.771 59.965C223.533 60.3957 223.414 60.8943 223.414 61.461C223.414 62.0277 223.533 62.5263 223.771 62.957C224.009 63.3877 224.332 63.722 224.74 63.96C225.148 64.1867 225.607 64.3 226.117 64.3ZM11.428 76.922H13.553V80.611H18.126V76.922H20.251V86H18.126V82.413H13.553V86H11.428V76.922ZM26.0719 76.82C27.4092 76.82 28.4292 77.143 29.1319 77.789C29.8459 78.4237 30.2029 79.387 30.2029 80.679V86H28.1969V84.895C27.9362 85.2917 27.5622 85.5977 27.0749 85.813C26.5989 86.017 26.0209 86.119 25.3409 86.119C24.6609 86.119 24.0659 86.0057 23.5559 85.779C23.0459 85.541 22.6492 85.218 22.3659 84.81C22.0939 84.3907 21.9579 83.9203 21.9579 83.399C21.9579 82.583 22.2582 81.9313 22.8589 81.444C23.4709 80.9453 24.4286 80.696 25.7319 80.696H28.0779V80.56C28.0779 79.9253 27.8852 79.438 27.4999 79.098C27.1259 78.758 26.5649 78.588 25.8169 78.588C25.3069 78.588 24.8026 78.6673 24.3039 78.826C23.8166 78.9847 23.4029 79.2057 23.0629 79.489L22.2299 77.942C22.7059 77.5793 23.2782 77.3017 23.9469 77.109C24.6156 76.9163 25.3239 76.82 26.0719 76.82ZM25.7829 84.572C26.3156 84.572 26.7859 84.453 27.1939 84.215C27.6132 83.9657 27.9079 83.6143 28.0779 83.161V82.107H25.8849C24.6609 82.107 24.0489 82.5093 24.0489 83.314C24.0489 83.6993 24.2019 84.0053 24.5079 84.232C24.8139 84.4587 25.2389 84.572 25.7829 84.572ZM39.0015 81.274C40.1235 81.614 40.6845 82.3393 40.6845 83.45C40.6845 84.266 40.3785 84.895 39.7665 85.337C39.1545 85.779 38.2478 86 37.0465 86H32.4225V76.922H36.8595C37.9701 76.922 38.8371 77.126 39.4605 77.534C40.0838 77.942 40.3955 78.52 40.3955 79.268C40.3955 79.7327 40.2708 80.135 40.0215 80.475C39.7835 80.815 39.4435 81.0813 39.0015 81.274ZM34.4455 80.713H36.6725C37.7718 80.713 38.3215 80.3333 38.3215 79.574C38.3215 78.8373 37.7718 78.469 36.6725 78.469H34.4455V80.713ZM36.8765 84.453C38.0438 84.453 38.6275 84.0733 38.6275 83.314C38.6275 82.9173 38.4915 82.6227 38.2195 82.43C37.9475 82.226 37.5225 82.124 36.9445 82.124H34.4455V84.453H36.8765ZM46.9578 79.914C48.1138 79.914 48.9978 80.1747 49.6098 80.696C50.2218 81.2173 50.5278 81.954 50.5278 82.906C50.5278 83.9033 50.1878 84.674 49.5078 85.218C48.8392 85.762 47.8872 86.0283 46.6518 86.017L42.5378 86V76.922H44.6628V79.897L46.9578 79.914ZM51.7008 76.922H53.8258V86H51.7008V76.922ZM46.4648 84.453C47.0882 84.4643 47.5642 84.334 47.8928 84.062C48.2215 83.79 48.3858 83.3933 48.3858 82.872C48.3858 82.362 48.2272 81.988 47.9098 81.75C47.5925 81.512 47.1108 81.3873 46.4648 81.376L44.6628 81.359V84.436L46.4648 84.453ZM60.0464 82.362H58.3974V86H56.2724V76.922H58.3974V80.594H60.0974L62.7834 76.922H65.0614L61.7634 81.291L65.2824 86H62.7834L60.0464 82.362ZM70.1183 86.119C69.2003 86.119 68.373 85.9207 67.6363 85.524C66.8997 85.1273 66.3217 84.5777 65.9023 83.875C65.4943 83.161 65.2903 82.3563 65.2903 81.461C65.2903 80.5657 65.4943 79.7667 65.9023 79.064C66.3217 78.3613 66.8997 77.8117 67.6363 77.415C68.373 77.0183 69.2003 76.82 70.1183 76.82C71.0477 76.82 71.8807 77.0183 72.6173 77.415C73.354 77.8117 73.9263 78.3613 74.3343 79.064C74.7537 79.7667 74.9633 80.5657 74.9633 81.461C74.9633 82.3563 74.7537 83.161 74.3343 83.875C73.9263 84.5777 73.354 85.1273 72.6173 85.524C71.8807 85.9207 71.0477 86.119 70.1183 86.119ZM70.1183 84.3C70.9003 84.3 71.5463 84.0393 72.0563 83.518C72.5663 82.9967 72.8213 82.311 72.8213 81.461C72.8213 80.611 72.5663 79.9253 72.0563 79.404C71.5463 78.8827 70.9003 78.622 70.1183 78.622C69.3363 78.622 68.6903 78.8827 68.1803 79.404C67.6817 79.9253 67.4323 80.611 67.4323 81.461C67.4323 82.311 67.6817 82.9967 68.1803 83.518C68.6903 84.0393 69.3363 84.3 70.1183 84.3ZM83.2316 81.274C84.3536 81.614 84.9146 82.3393 84.9146 83.45C84.9146 84.266 84.6086 84.895 83.9966 85.337C83.3846 85.779 82.4779 86 81.2766 86H76.6526V76.922H81.0896C82.2002 76.922 83.0672 77.126 83.6906 77.534C84.3139 77.942 84.6256 78.52 84.6256 79.268C84.6256 79.7327 84.5009 80.135 84.2516 80.475C84.0136 80.815 83.6736 81.0813 83.2316 81.274ZM78.6756 80.713H80.9026C82.0019 80.713 82.5516 80.3333 82.5516 79.574C82.5516 78.8373 82.0019 78.469 80.9026 78.469H78.6756V80.713ZM81.1066 84.453C82.2739 84.453 82.8576 84.0733 82.8576 83.314C82.8576 82.9173 82.7216 82.6227 82.4496 82.43C82.1776 82.226 81.7526 82.124 81.1746 82.124H78.6756V84.453H81.1066ZM91.0562 76.922H93.1812V82.906L98.1962 76.922H100.134V86H98.0092V80.016L93.0112 86H91.0562V76.922ZM112.294 81.274C112.861 81.4327 113.297 81.6933 113.603 82.056C113.92 82.4073 114.079 82.8323 114.079 83.331C114.079 83.8863 113.892 84.3793 113.518 84.81C113.144 85.2293 112.628 85.558 111.971 85.796C111.314 86.034 110.566 86.153 109.727 86.153C109.024 86.153 108.339 86.0737 107.67 85.915C107.001 85.745 106.395 85.507 105.851 85.201L106.463 83.62C106.905 83.8693 107.404 84.062 107.959 84.198C108.514 84.334 109.07 84.402 109.625 84.402C110.339 84.402 110.894 84.2943 111.291 84.079C111.699 83.8523 111.903 83.5463 111.903 83.161C111.903 82.8097 111.744 82.5377 111.427 82.345C111.121 82.1523 110.685 82.056 110.118 82.056H108.35V80.628H109.948C110.481 80.628 110.894 80.5373 111.189 80.356C111.495 80.1747 111.648 79.9197 111.648 79.591C111.648 79.2623 111.467 79.0017 111.104 78.809C110.741 78.6163 110.243 78.52 109.608 78.52C108.701 78.52 107.744 78.741 106.735 79.183L106.191 77.619C107.381 77.0637 108.582 76.786 109.795 76.786C110.566 76.786 111.257 76.8937 111.869 77.109C112.481 77.313 112.957 77.6077 113.297 77.993C113.648 78.367 113.824 78.7977 113.824 79.285C113.824 79.727 113.688 80.1237 113.416 80.475C113.144 80.815 112.77 81.0813 112.294 81.274ZM115.874 76.922H117.999V80.611H122.572V76.922H124.697V86H122.572V82.413H117.999V86H115.874V76.922ZM130.518 76.82C131.855 76.82 132.875 77.143 133.578 77.789C134.292 78.4237 134.649 79.387 134.649 80.679V86H132.643V84.895C132.382 85.2917 132.008 85.5977 131.521 85.813C131.045 86.017 130.467 86.119 129.787 86.119C129.107 86.119 128.512 86.0057 128.002 85.779C127.492 85.541 127.095 85.218 126.812 84.81C126.54 84.3907 126.404 83.9203 126.404 83.399C126.404 82.583 126.704 81.9313 127.305 81.444C127.917 80.9453 128.875 80.696 130.178 80.696H132.524V80.56C132.524 79.9253 132.331 79.438 131.946 79.098C131.572 78.758 131.011 78.588 130.263 78.588C129.753 78.588 129.249 78.6673 128.75 78.826C128.263 78.9847 127.849 79.2057 127.509 79.489L126.676 77.942C127.152 77.5793 127.724 77.3017 128.393 77.109C129.062 76.9163 129.77 76.82 130.518 76.82ZM130.229 84.572C130.762 84.572 131.232 84.453 131.64 84.215C132.059 83.9657 132.354 83.6143 132.524 83.161V82.107H130.331C129.107 82.107 128.495 82.5093 128.495 83.314C128.495 83.6993 128.648 84.0053 128.954 84.232C129.26 84.4587 129.685 84.572 130.229 84.572ZM136.869 76.922H138.994V80.611H143.567V76.922H145.692V86H143.567V82.413H138.994V86H136.869V76.922ZM148.129 76.922H150.254V82.906L155.269 76.922H157.207V86H155.082V80.016L150.084 86H148.129V76.922ZM159.656 76.922H161.781V82.906L166.796 76.922H168.734V86H166.609V80.016L161.611 86H159.656V76.922ZM164.059 75.851C163.141 75.851 162.438 75.6413 161.951 75.222C161.475 74.7913 161.231 74.168 161.22 73.352H162.631C162.642 73.76 162.767 74.083 163.005 74.321C163.254 74.559 163.6 74.678 164.042 74.678C164.473 74.678 164.813 74.559 165.062 74.321C165.323 74.083 165.459 73.76 165.47 73.352H166.915C166.904 74.168 166.654 74.7913 166.167 75.222C165.68 75.6413 164.977 75.851 164.059 75.851ZM171.845 83.297C172.242 83.297 172.571 83.4273 172.831 83.688C173.092 83.9487 173.222 84.2887 173.222 84.708C173.222 84.8893 173.194 85.082 173.137 85.286C173.092 85.4787 172.99 85.7733 172.831 86.17L171.964 88.567H170.587L171.267 85.966C171.018 85.864 170.82 85.7053 170.672 85.49C170.536 85.2633 170.468 85.0027 170.468 84.708C170.468 84.2887 170.599 83.9487 170.859 83.688C171.12 83.4273 171.449 83.297 171.845 83.297ZM182.985 82.362H181.336V86H179.211V76.922H181.336V80.594H183.036L185.722 76.922H188L184.702 81.291L188.221 86H185.722L182.985 82.362ZM193.057 86.119C192.139 86.119 191.312 85.9207 190.575 85.524C189.838 85.1273 189.26 84.5777 188.841 83.875C188.433 83.161 188.229 82.3563 188.229 81.461C188.229 80.5657 188.433 79.7667 188.841 79.064C189.26 78.3613 189.838 77.8117 190.575 77.415C191.312 77.0183 192.139 76.82 193.057 76.82C193.986 76.82 194.819 77.0183 195.556 77.415C196.293 77.8117 196.865 78.3613 197.273 79.064C197.692 79.7667 197.902 80.5657 197.902 81.461C197.902 82.3563 197.692 83.161 197.273 83.875C196.865 84.5777 196.293 85.1273 195.556 85.524C194.819 85.9207 193.986 86.119 193.057 86.119ZM193.057 84.3C193.839 84.3 194.485 84.0393 194.995 83.518C195.505 82.9967 195.76 82.311 195.76 81.461C195.76 80.611 195.505 79.9253 194.995 79.404C194.485 78.8827 193.839 78.622 193.057 78.622C192.275 78.622 191.629 78.8827 191.119 79.404C190.62 79.9253 190.371 80.611 190.371 81.461C190.371 82.311 190.62 82.9967 191.119 83.518C191.629 84.0393 192.275 84.3 193.057 84.3ZM206.45 78.724H203.271V86H201.146V78.724H197.95V76.922H206.45V78.724ZM211.229 86.119C210.311 86.119 209.484 85.9207 208.747 85.524C208.011 85.1273 207.433 84.5777 207.013 83.875C206.605 83.161 206.401 82.3563 206.401 81.461C206.401 80.5657 206.605 79.7667 207.013 79.064C207.433 78.3613 208.011 77.8117 208.747 77.415C209.484 77.0183 210.311 76.82 211.229 76.82C212.159 76.82 212.992 77.0183 213.728 77.415C214.465 77.8117 215.037 78.3613 215.445 79.064C215.865 79.7667 216.074 80.5657 216.074 81.461C216.074 82.3563 215.865 83.161 215.445 83.875C215.037 84.5777 214.465 85.1273 213.728 85.524C212.992 85.9207 212.159 86.119 211.229 86.119ZM211.229 84.3C212.011 84.3 212.657 84.0393 213.167 83.518C213.677 82.9967 213.932 82.311 213.932 81.461C213.932 80.611 213.677 79.9253 213.167 79.404C212.657 78.8827 212.011 78.622 211.229 78.622C210.447 78.622 209.801 78.8827 209.291 79.404C208.793 79.9253 208.543 80.611 208.543 81.461C208.543 82.311 208.793 82.9967 209.291 83.518C209.801 84.0393 210.447 84.3 211.229 84.3ZM222.795 76.82C223.679 76.82 224.467 77.0127 225.158 77.398C225.861 77.7833 226.411 78.3273 226.807 79.03C227.204 79.7327 227.402 80.543 227.402 81.461C227.402 82.379 227.204 83.195 226.807 83.909C226.411 84.6117 225.861 85.1557 225.158 85.541C224.467 85.9263 223.679 86.119 222.795 86.119C221.571 86.119 220.602 85.711 219.888 84.895V89.298H217.763V76.922H219.786V78.112C220.138 77.6813 220.568 77.3583 221.078 77.143C221.6 76.9277 222.172 76.82 222.795 76.82ZM222.557 84.3C223.339 84.3 223.98 84.0393 224.478 83.518C224.988 82.9967 225.243 82.311 225.243 81.461C225.243 80.611 224.988 79.9253 224.478 79.404C223.98 78.8827 223.339 78.622 222.557 78.622C222.047 78.622 221.588 78.741 221.18 78.979C220.772 79.2057 220.449 79.5343 220.211 79.965C219.973 80.3957 219.854 80.8943 219.854 81.461C219.854 82.0277 219.973 82.5263 220.211 82.957C220.449 83.3877 220.772 83.722 221.18 83.96C221.588 84.1867 222.047 84.3 222.557 84.3ZM233.527 79.914C234.683 79.914 235.567 80.1747 236.179 80.696C236.791 81.2173 237.097 81.954 237.097 82.906C237.097 83.9033 236.757 84.674 236.077 85.218C235.409 85.762 234.457 86.0283 233.221 86.017L229.107 86V76.922H231.232V79.897L233.527 79.914ZM238.27 76.922H240.395V86H238.27V76.922ZM233.034 84.453C233.658 84.4643 234.134 84.334 234.462 84.062C234.791 83.79 234.955 83.3933 234.955 82.872C234.955 82.362 234.797 81.988 234.479 81.75C234.162 81.512 233.68 81.3873 233.034 81.376L231.232 81.359V84.436L233.034 84.453ZM251.342 81.512C251.342 81.6593 251.331 81.869 251.308 82.141H244.185C244.31 82.8097 244.633 83.3423 245.154 83.739C245.687 84.1243 246.344 84.317 247.126 84.317C248.123 84.317 248.945 83.9883 249.591 83.331L250.73 84.64C250.322 85.1273 249.806 85.4957 249.183 85.745C248.56 85.9943 247.857 86.119 247.075 86.119C246.078 86.119 245.199 85.9207 244.44 85.524C243.681 85.1273 243.091 84.5777 242.672 83.875C242.264 83.161 242.06 82.3563 242.06 81.461C242.06 80.577 242.258 79.7837 242.655 79.081C243.063 78.367 243.624 77.8117 244.338 77.415C245.052 77.0183 245.857 76.82 246.752 76.82C247.636 76.82 248.424 77.0183 249.115 77.415C249.818 77.8003 250.362 78.35 250.747 79.064C251.144 79.7667 251.342 80.5827 251.342 81.512ZM246.752 78.52C246.072 78.52 245.494 78.724 245.018 79.132C244.553 79.5287 244.27 80.0613 244.168 80.73H249.319C249.228 80.0727 248.951 79.54 248.486 79.132C248.021 78.724 247.443 78.52 246.752 78.52ZM20.132 96.922V106H18.024V98.724H13.553V106H11.428V96.922H20.132ZM26.6353 106.119C25.7173 106.119 24.89 105.921 24.1533 105.524C23.4166 105.127 22.8386 104.578 22.4193 103.875C22.0113 103.161 21.8073 102.356 21.8073 101.461C21.8073 100.566 22.0113 99.7667 22.4193 99.064C22.8386 98.3613 23.4166 97.8117 24.1533 97.415C24.89 97.0183 25.7173 96.82 26.6353 96.82C27.5646 96.82 28.3976 97.0183 29.1343 97.415C29.871 97.8117 30.4433 98.3613 30.8513 99.064C31.2706 99.7667 31.4803 100.566 31.4803 101.461C31.4803 102.356 31.2706 103.161 30.8513 103.875C30.4433 104.578 29.871 105.127 29.1343 105.524C28.3976 105.921 27.5646 106.119 26.6353 106.119ZM26.6353 104.3C27.4173 104.3 28.0633 104.039 28.5733 103.518C29.0833 102.997 29.3383 102.311 29.3383 101.461C29.3383 100.611 29.0833 99.9253 28.5733 99.404C28.0633 98.8827 27.4173 98.622 26.6353 98.622C25.8533 98.622 25.2073 98.8827 24.6973 99.404C24.1986 99.9253 23.9493 100.611 23.9493 101.461C23.9493 102.311 24.1986 102.997 24.6973 103.518C25.2073 104.039 25.8533 104.3 26.6353 104.3ZM38.4597 101.274C39.0264 101.433 39.4627 101.693 39.7687 102.056C40.086 102.407 40.2447 102.832 40.2447 103.331C40.2447 103.886 40.0577 104.379 39.6837 104.81C39.3097 105.229 38.794 105.558 38.1367 105.796C37.4794 106.034 36.7314 106.153 35.8927 106.153C35.19 106.153 34.5044 106.074 33.8357 105.915C33.167 105.745 32.5607 105.507 32.0167 105.201L32.6287 103.62C33.0707 103.869 33.5694 104.062 34.1247 104.198C34.68 104.334 35.2354 104.402 35.7907 104.402C36.5047 104.402 37.06 104.294 37.4567 104.079C37.8647 103.852 38.0687 103.546 38.0687 103.161C38.0687 102.81 37.91 102.538 37.5927 102.345C37.2867 102.152 36.8504 102.056 36.2837 102.056H34.5157V100.628H36.1137C36.6464 100.628 37.06 100.537 37.3547 100.356C37.6607 100.175 37.8137 99.9197 37.8137 99.591C37.8137 99.2623 37.6324 99.0017 37.2697 98.809C36.907 98.6163 36.4084 98.52 35.7737 98.52C34.867 98.52 33.9094 98.741 32.9007 99.183L32.3567 97.619C33.5467 97.0637 34.748 96.786 35.9607 96.786C36.7314 96.786 37.4227 96.8937 38.0347 97.109C38.6467 97.313 39.1227 97.6077 39.4627 97.993C39.814 98.367 39.9897 98.7977 39.9897 99.285C39.9897 99.727 39.8537 100.124 39.5817 100.475C39.3097 100.815 38.9357 101.081 38.4597 101.274ZM48.6188 101.274C49.7408 101.614 50.3018 102.339 50.3018 103.45C50.3018 104.266 49.9958 104.895 49.3838 105.337C48.7718 105.779 47.8651 106 46.6638 106H42.0398V96.922H46.4768C47.5875 96.922 48.4545 97.126 49.0778 97.534C49.7011 97.942 50.0128 98.52 50.0128 99.268C50.0128 99.7327 49.8881 100.135 49.6388 100.475C49.4008 100.815 49.0608 101.081 48.6188 101.274ZM44.0628 100.713H46.2898C47.3891 100.713 47.9388 100.333 47.9388 99.574C47.9388 98.8373 47.3891 98.469 46.2898 98.469H44.0628V100.713ZM46.4938 104.453C47.6611 104.453 48.2448 104.073 48.2448 103.314C48.2448 102.917 48.1088 102.623 47.8368 102.43C47.5648 102.226 47.1398 102.124 46.5618 102.124H44.0628V104.453H46.4938ZM56.2012 106.119C55.2832 106.119 54.4559 105.921 53.7192 105.524C52.9825 105.127 52.4045 104.578 51.9852 103.875C51.5772 103.161 51.3732 102.356 51.3732 101.461C51.3732 100.566 51.5772 99.7667 51.9852 99.064C52.4045 98.3613 52.9825 97.8117 53.7192 97.415C54.4559 97.0183 55.2832 96.82 56.2012 96.82C57.1305 96.82 57.9635 97.0183 58.7002 97.415C59.4369 97.8117 60.0092 98.3613 60.4172 99.064C60.8365 99.7667 61.0462 100.566 61.0462 101.461C61.0462 102.356 60.8365 103.161 60.4172 103.875C60.0092 104.578 59.4369 105.127 58.7002 105.524C57.9635 105.921 57.1305 106.119 56.2012 106.119ZM56.2012 104.3C56.9832 104.3 57.6292 104.039 58.1392 103.518C58.6492 102.997 58.9042 102.311 58.9042 101.461C58.9042 100.611 58.6492 99.9253 58.1392 99.404C57.6292 98.8827 56.9832 98.622 56.2012 98.622C55.4192 98.622 54.7732 98.8827 54.2632 99.404C53.7645 99.9253 53.5152 100.611 53.5152 101.461C53.5152 102.311 53.7645 102.997 54.2632 103.518C54.7732 104.039 55.4192 104.3 56.2012 104.3ZM70.8638 96.922V106H68.7388V98.724H65.3388L65.2538 100.526C65.1971 101.727 65.0838 102.736 64.9138 103.552C64.7551 104.357 64.4775 104.997 64.0808 105.473C63.6955 105.938 63.1628 106.17 62.4828 106.17C62.1655 106.17 61.7745 106.108 61.3098 105.983L61.4118 104.198C61.5705 104.232 61.7065 104.249 61.8198 104.249C62.2505 104.249 62.5735 104.079 62.7888 103.739C63.0041 103.388 63.1401 102.974 63.1968 102.498C63.2648 102.011 63.3215 101.319 63.3668 100.424L63.5198 96.922H70.8638ZM80.9827 96.922V106H79.0787V103.263H76.6817L74.8287 106H72.5507L74.6927 102.974C74.0353 102.747 73.531 102.402 73.1797 101.937C72.8397 101.461 72.6697 100.877 72.6697 100.186C72.6697 99.1433 73.038 98.3387 73.7747 97.772C74.5113 97.2053 75.5257 96.922 76.8177 96.922H80.9827ZM76.8857 98.707C75.5143 98.707 74.8287 99.2227 74.8287 100.254C74.8287 101.274 75.4917 101.784 76.8177 101.784H79.0787V98.707H76.8857ZM91.727 96.82C92.6337 96.82 93.444 97.0183 94.158 97.415C94.872 97.8003 95.433 98.35 95.841 99.064C96.249 99.7667 96.453 100.566 96.453 101.461C96.453 102.356 96.249 103.161 95.841 103.875C95.433 104.578 94.872 105.127 94.158 105.524C93.444 105.921 92.6337 106.119 91.727 106.119C90.9337 106.119 90.2084 105.966 89.551 105.66C88.8937 105.343 88.3497 104.901 87.919 104.334C87.4884 103.756 87.2107 103.099 87.086 102.362H85.556V106H83.431V96.922H85.556V100.441H87.12C87.256 99.727 87.5394 99.098 87.97 98.554C88.4007 97.9987 88.939 97.5737 89.585 97.279C90.231 96.973 90.945 96.82 91.727 96.82ZM91.727 104.317C92.2257 104.317 92.6734 104.204 93.07 103.977C93.4667 103.739 93.7784 103.405 94.005 102.974C94.2317 102.532 94.345 102.028 94.345 101.461C94.345 100.6 94.0957 99.914 93.597 99.404C93.1097 98.8827 92.4864 98.622 91.727 98.622C90.9677 98.622 90.3444 98.8827 89.857 99.404C89.3697 99.914 89.126 100.6 89.126 101.461C89.126 102.322 89.3697 103.014 89.857 103.535C90.3557 104.056 90.979 104.317 91.727 104.317ZM104.987 98.724H101.808V106H99.6834V98.724H96.4874V96.922H104.987V98.724ZM119.332 106V99.982L116.272 105.048H115.354L112.345 99.965V106H110.407V96.922H112.634L115.864 102.6L119.247 96.922H121.236L121.253 106H119.332ZM123.693 96.922H125.818V100.611H130.391V96.922H132.516V106H130.391V102.413H125.818V106H123.693V96.922ZM143.454 101.512C143.454 101.659 143.443 101.869 143.42 102.141H136.297C136.422 102.81 136.745 103.342 137.266 103.739C137.799 104.124 138.456 104.317 139.238 104.317C140.236 104.317 141.057 103.988 141.703 103.331L142.842 104.64C142.434 105.127 141.919 105.496 141.295 105.745C140.672 105.994 139.969 106.119 139.187 106.119C138.19 106.119 137.312 105.921 136.552 105.524C135.793 105.127 135.204 104.578 134.784 103.875C134.376 103.161 134.172 102.356 134.172 101.461C134.172 100.577 134.371 99.7837 134.767 99.081C135.175 98.367 135.736 97.8117 136.45 97.415C137.164 97.0183 137.969 96.82 138.864 96.82C139.748 96.82 140.536 97.0183 141.227 97.415C141.93 97.8003 142.474 98.35 142.859 99.064C143.256 99.7667 143.454 100.583 143.454 101.512ZM138.864 98.52C138.184 98.52 137.606 98.724 137.13 99.132C136.666 99.5287 136.382 100.061 136.28 100.73H141.431C141.341 100.073 141.063 99.54 140.598 99.132C140.134 98.724 139.556 98.52 138.864 98.52ZM153.788 106.119C152.847 106.119 152.003 105.921 151.255 105.524C150.507 105.127 149.923 104.578 149.504 103.875C149.084 103.161 148.875 102.356 148.875 101.461C148.875 100.566 149.084 99.7667 149.504 99.064C149.923 98.3613 150.501 97.8117 151.238 97.415C151.986 97.0183 152.836 96.82 153.788 96.82C154.683 96.82 155.465 97.0013 156.134 97.364C156.814 97.7267 157.324 98.248 157.664 98.928L156.032 99.88C155.771 99.4607 155.442 99.149 155.046 98.945C154.66 98.7297 154.235 98.622 153.771 98.622C152.977 98.622 152.32 98.8827 151.799 99.404C151.277 99.914 151.017 100.6 151.017 101.461C151.017 102.322 151.272 103.014 151.782 103.535C152.303 104.045 152.966 104.3 153.771 104.3C154.235 104.3 154.66 104.198 155.046 103.994C155.442 103.779 155.771 103.461 156.032 103.042L157.664 103.994C157.312 104.674 156.797 105.201 156.117 105.575C155.448 105.938 154.672 106.119 153.788 106.119ZM163.038 106.119C162.12 106.119 161.293 105.921 160.556 105.524C159.819 105.127 159.241 104.578 158.822 103.875C158.414 103.161 158.21 102.356 158.21 101.461C158.21 100.566 158.414 99.7667 158.822 99.064C159.241 98.3613 159.819 97.8117 160.556 97.415C161.293 97.0183 162.12 96.82 163.038 96.82C163.967 96.82 164.8 97.0183 165.537 97.415C166.274 97.8117 166.846 98.3613 167.254 99.064C167.673 99.7667 167.883 100.566 167.883 101.461C167.883 102.356 167.673 103.161 167.254 103.875C166.846 104.578 166.274 105.127 165.537 105.524C164.8 105.921 163.967 106.119 163.038 106.119ZM163.038 104.3C163.82 104.3 164.466 104.039 164.976 103.518C165.486 102.997 165.741 102.311 165.741 101.461C165.741 100.611 165.486 99.9253 164.976 99.404C164.466 98.8827 163.82 98.622 163.038 98.622C162.256 98.622 161.61 98.8827 161.1 99.404C160.601 99.9253 160.352 100.611 160.352 101.461C160.352 102.311 160.601 102.997 161.1 103.518C161.61 104.039 162.256 104.3 163.038 104.3ZM174.862 101.274C175.429 101.433 175.865 101.693 176.171 102.056C176.489 102.407 176.647 102.832 176.647 103.331C176.647 103.886 176.46 104.379 176.086 104.81C175.712 105.229 175.197 105.558 174.539 105.796C173.882 106.034 173.134 106.153 172.295 106.153C171.593 106.153 170.907 106.074 170.238 105.915C169.57 105.745 168.963 105.507 168.419 105.201L169.031 103.62C169.473 103.869 169.972 104.062 170.527 104.198C171.083 104.334 171.638 104.402 172.193 104.402C172.907 104.402 173.463 104.294 173.859 104.079C174.267 103.852 174.471 103.546 174.471 103.161C174.471 102.81 174.313 102.538 173.995 102.345C173.689 102.152 173.253 102.056 172.686 102.056H170.918V100.628H172.516C173.049 100.628 173.463 100.537 173.757 100.356C174.063 100.175 174.216 99.9197 174.216 99.591C174.216 99.2623 174.035 99.0017 173.672 98.809C173.31 98.6163 172.811 98.52 172.176 98.52C171.27 98.52 170.312 98.741 169.303 99.183L168.759 97.619C169.949 97.0637 171.151 96.786 172.363 96.786C173.134 96.786 173.825 96.8937 174.437 97.109C175.049 97.313 175.525 97.6077 175.865 97.993C176.217 98.367 176.392 98.7977 176.392 99.285C176.392 99.727 176.256 100.124 175.984 100.475C175.712 100.815 175.338 101.081 174.862 101.274ZM188.132 104.198V108.023H186.143V106H179.139V108.023H177.167V104.198H177.592C178.17 104.175 178.561 103.807 178.765 103.093C178.981 102.368 179.122 101.348 179.19 100.033L179.309 96.922H186.789V104.198H188.132ZM181.128 100.186C181.083 101.229 180.998 102.079 180.873 102.736C180.749 103.393 180.522 103.881 180.193 104.198H184.664V98.724H181.179L181.128 100.186ZM193.003 96.82C194.341 96.82 195.361 97.143 196.063 97.789C196.777 98.4237 197.134 99.387 197.134 100.679V106H195.128V104.895C194.868 105.292 194.494 105.598 194.006 105.813C193.53 106.017 192.952 106.119 192.272 106.119C191.592 106.119 190.997 106.006 190.487 105.779C189.977 105.541 189.581 105.218 189.297 104.81C189.025 104.391 188.889 103.92 188.889 103.399C188.889 102.583 189.19 101.931 189.79 101.444C190.402 100.945 191.36 100.696 192.663 100.696H195.009V100.56C195.009 99.9253 194.817 99.438 194.431 99.098C194.057 98.758 193.496 98.588 192.748 98.588C192.238 98.588 191.734 98.6673 191.235 98.826C190.748 98.9847 190.334 99.2057 189.994 99.489L189.161 97.942C189.637 97.5793 190.21 97.3017 190.878 97.109C191.547 96.9163 192.255 96.82 193.003 96.82ZM192.714 104.572C193.247 104.572 193.717 104.453 194.125 104.215C194.545 103.966 194.839 103.614 195.009 103.161V102.107H192.816C191.592 102.107 190.98 102.509 190.98 103.314C190.98 103.699 191.133 104.005 191.439 104.232C191.745 104.459 192.17 104.572 192.714 104.572ZM205.933 101.274C207.055 101.614 207.616 102.339 207.616 103.45C207.616 104.266 207.31 104.895 206.698 105.337C206.086 105.779 205.179 106 203.978 106H199.354V96.922H203.791C204.901 96.922 205.768 97.126 206.392 97.534C207.015 97.942 207.327 98.52 207.327 99.268C207.327 99.7327 207.202 100.135 206.953 100.475C206.715 100.815 206.375 101.081 205.933 101.274ZM201.377 100.713H203.604C204.703 100.713 205.253 100.333 205.253 99.574C205.253 98.8373 204.703 98.469 203.604 98.469H201.377V100.713ZM203.808 104.453C204.975 104.453 205.559 104.073 205.559 103.314C205.559 102.917 205.423 102.623 205.151 102.43C204.879 102.226 204.454 102.124 203.876 102.124H201.377V104.453H203.808ZM212.852 96.82C214.19 96.82 215.21 97.143 215.912 97.789C216.626 98.4237 216.983 99.387 216.983 100.679V106H214.977V104.895C214.717 105.292 214.343 105.598 213.855 105.813C213.379 106.017 212.801 106.119 212.121 106.119C211.441 106.119 210.846 106.006 210.336 105.779C209.826 105.541 209.43 105.218 209.146 104.81C208.874 104.391 208.738 103.92 208.738 103.399C208.738 102.583 209.039 101.931 209.639 101.444C210.251 100.945 211.209 100.696 212.512 100.696H214.858V100.56C214.858 99.9253 214.666 99.438 214.28 99.098C213.906 98.758 213.345 98.588 212.597 98.588C212.087 98.588 211.583 98.6673 211.084 98.826C210.597 98.9847 210.183 99.2057 209.843 99.489L209.01 97.942C209.486 97.5793 210.059 97.3017 210.727 97.109C211.396 96.9163 212.104 96.82 212.852 96.82ZM212.563 104.572C213.096 104.572 213.566 104.453 213.974 104.215C214.394 103.966 214.688 103.614 214.858 103.161V102.107H212.665C211.441 102.107 210.829 102.509 210.829 103.314C210.829 103.699 210.982 104.005 211.288 104.232C211.594 104.459 212.019 104.572 212.563 104.572ZM226.394 98.724H223.215V106H221.09V98.724H217.894V96.922H226.394V98.724ZM232.081 99.914C233.237 99.914 234.121 100.175 234.733 100.696C235.357 101.217 235.668 101.954 235.668 102.906C235.668 103.903 235.328 104.674 234.648 105.218C233.968 105.762 233.011 106.028 231.775 106.017L227.525 106V96.922H229.65V99.897L232.081 99.914ZM231.588 104.453C232.212 104.464 232.688 104.334 233.016 104.062C233.345 103.79 233.509 103.393 233.509 102.872C233.509 102.362 233.351 101.988 233.033 101.75C232.716 101.512 232.234 101.387 231.588 101.376L229.65 101.359V104.436L231.588 104.453ZM242.06 106.119C241.675 106.119 241.346 105.989 241.074 105.728C240.802 105.456 240.666 105.116 240.666 104.708C240.666 104.289 240.797 103.949 241.057 103.688C241.329 103.427 241.664 103.297 242.06 103.297C242.457 103.297 242.786 103.427 243.046 103.688C243.318 103.949 243.454 104.289 243.454 104.708C243.454 105.116 243.318 105.456 243.046 105.728C242.774 105.989 242.446 106.119 242.06 106.119ZM245.801 106.119C245.415 106.119 245.087 105.989 244.815 105.728C244.543 105.456 244.407 105.116 244.407 104.708C244.407 104.289 244.537 103.949 244.798 103.688C245.07 103.427 245.404 103.297 245.801 103.297C246.197 103.297 246.526 103.427 246.787 103.688C247.059 103.949 247.195 104.289 247.195 104.708C247.195 105.116 247.059 105.456 246.787 105.728C246.515 105.989 246.186 106.119 245.801 106.119ZM249.541 106.119C249.156 106.119 248.827 105.989 248.555 105.728C248.283 105.456 248.147 105.116 248.147 104.708C248.147 104.289 248.277 103.949 248.538 103.688C248.81 103.427 249.144 103.297 249.541 103.297C249.938 103.297 250.266 103.427 250.527 103.688C250.799 103.949 250.935 104.289 250.935 104.708C250.935 105.116 250.799 105.456 250.527 105.728C250.255 105.989 249.926 106.119 249.541 106.119Z" fill="white"/>
<path d="M299.617 8.1V13H299.26V8.422H298.063V8.1H299.617ZM301.922 8.065C302.556 8.065 303.042 8.282 303.378 8.716C303.718 9.14533 303.889 9.74733 303.889 10.522C303.889 11.0633 303.798 11.523 303.616 11.901C303.438 12.2743 303.186 12.5567 302.86 12.748C302.533 12.9393 302.15 13.035 301.712 13.035C301.25 13.035 300.879 12.951 300.599 12.783L300.746 12.496C300.979 12.6453 301.301 12.72 301.712 12.72C302.276 12.72 302.72 12.538 303.042 12.174C303.368 11.8053 303.532 11.2733 303.532 10.578C303.532 10.3633 303.518 10.1673 303.49 9.99C303.392 10.3073 303.2 10.5547 302.916 10.732C302.636 10.9093 302.307 10.998 301.929 10.998C301.607 10.998 301.32 10.9397 301.068 10.823C300.82 10.7017 300.629 10.5313 300.494 10.312C300.358 10.088 300.291 9.83133 300.291 9.542C300.291 9.248 300.361 8.989 300.501 8.765C300.641 8.541 300.834 8.36833 301.082 8.247C301.329 8.12567 301.609 8.065 301.922 8.065ZM301.978 10.69C302.239 10.69 302.472 10.6387 302.678 10.536C302.888 10.4333 303.049 10.2933 303.161 10.116C303.277 9.93867 303.336 9.74033 303.336 9.521C303.336 9.325 303.28 9.13833 303.168 8.961C303.06 8.78367 302.902 8.64133 302.692 8.534C302.482 8.42667 302.23 8.373 301.936 8.373C301.553 8.373 301.243 8.48033 301.005 8.695C300.767 8.905 300.648 9.185 300.648 9.535C300.648 9.885 300.767 10.165 301.005 10.375C301.243 10.585 301.567 10.69 301.978 10.69ZM306.873 10.438C307.209 10.5267 307.468 10.676 307.65 10.886C307.836 11.096 307.93 11.3527 307.93 11.656C307.93 12.0853 307.764 12.4237 307.433 12.671C307.101 12.9137 306.646 13.035 306.068 13.035C305.494 13.035 305.041 12.9137 304.71 12.671C304.383 12.4237 304.22 12.0853 304.22 11.656C304.22 11.348 304.308 11.0913 304.486 10.886C304.668 10.676 304.927 10.5267 305.263 10.438C304.983 10.3447 304.768 10.2047 304.619 10.018C304.469 9.83133 304.395 9.60267 304.395 9.332C304.395 8.94 304.546 8.632 304.85 8.408C305.153 8.17933 305.559 8.065 306.068 8.065C306.576 8.065 306.985 8.17933 307.293 8.408C307.601 8.63667 307.755 8.94467 307.755 9.332C307.755 9.598 307.678 9.82667 307.524 10.018C307.374 10.2047 307.157 10.3447 306.873 10.438ZM304.752 9.339C304.752 9.633 304.866 9.86633 305.095 10.039C305.328 10.2117 305.652 10.298 306.068 10.298C306.483 10.298 306.807 10.214 307.041 10.046C307.279 9.87333 307.398 9.64 307.398 9.346C307.398 9.04733 307.276 8.81167 307.034 8.639C306.796 8.46167 306.474 8.373 306.068 8.373C305.662 8.373 305.34 8.45933 305.102 8.632C304.868 8.80467 304.752 9.04033 304.752 9.339ZM306.068 12.727C306.539 12.727 306.908 12.6313 307.174 12.44C307.44 12.2487 307.573 11.9873 307.573 11.656C307.573 11.3293 307.44 11.0703 307.174 10.879C306.908 10.6877 306.539 10.592 306.068 10.592C305.601 10.592 305.235 10.6877 304.969 10.879C304.707 11.0703 304.577 11.3293 304.577 11.656C304.577 11.9873 304.707 12.2487 304.969 12.44C305.23 12.6313 305.596 12.727 306.068 12.727ZM310.027 7.106H310.349L308.039 13.7H307.717L310.027 7.106ZM313.366 12.678V13H309.999V12.748L312.071 10.69C312.341 10.4193 312.523 10.1883 312.617 9.997C312.715 9.801 312.764 9.60033 312.764 9.395C312.764 9.08233 312.656 8.83733 312.442 8.66C312.232 8.48267 311.926 8.394 311.525 8.394C311.217 8.394 310.946 8.44067 310.713 8.534C310.484 8.62733 310.286 8.76967 310.118 8.961L309.866 8.737C310.052 8.52233 310.288 8.35667 310.573 8.24C310.862 8.12333 311.189 8.065 311.553 8.065C312.033 8.065 312.416 8.18167 312.701 8.415C312.985 8.64833 313.128 8.96333 313.128 9.36C313.128 9.612 313.072 9.85233 312.96 10.081C312.848 10.3097 312.638 10.5757 312.33 10.879L310.524 12.678H313.366ZM315.524 13.035C315.15 13.035 314.817 12.9347 314.523 12.734C314.233 12.5287 314.007 12.2393 313.844 11.866C313.685 11.4927 313.606 11.054 313.606 10.55C313.606 10.046 313.685 9.60733 313.844 9.234C314.007 8.86067 314.233 8.57367 314.523 8.373C314.817 8.16767 315.15 8.065 315.524 8.065C315.897 8.065 316.228 8.16767 316.518 8.373C316.812 8.57367 317.038 8.86067 317.197 9.234C317.36 9.60733 317.442 10.046 317.442 10.55C317.442 11.054 317.36 11.4927 317.197 11.866C317.038 12.2393 316.812 12.5287 316.518 12.734C316.228 12.9347 315.897 13.035 315.524 13.035ZM315.524 12.706C315.832 12.706 316.102 12.622 316.336 12.454C316.574 12.2813 316.758 12.034 316.889 11.712C317.019 11.3853 317.085 10.998 317.085 10.55C317.085 10.102 317.019 9.717 316.889 9.395C316.758 9.06833 316.574 8.821 316.336 8.653C316.102 8.48033 315.832 8.394 315.524 8.394C315.216 8.394 314.943 8.48033 314.705 8.653C314.471 8.821 314.289 9.06833 314.159 9.395C314.028 9.717 313.963 10.102 313.963 10.55C313.963 10.998 314.028 11.3853 314.159 11.712C314.289 12.034 314.471 12.2813 314.705 12.454C314.943 12.622 315.216 12.706 315.524 12.706ZM319.723 13.035C319.35 13.035 319.016 12.9347 318.722 12.734C318.433 12.5287 318.206 12.2393 318.043 11.866C317.884 11.4927 317.805 11.054 317.805 10.55C317.805 10.046 317.884 9.60733 318.043 9.234C318.206 8.86067 318.433 8.57367 318.722 8.373C319.016 8.16767 319.35 8.065 319.723 8.065C320.096 8.065 320.428 8.16767 320.717 8.373C321.011 8.57367 321.237 8.86067 321.396 9.234C321.559 9.60733 321.641 10.046 321.641 10.55C321.641 11.054 321.559 11.4927 321.396 11.866C321.237 12.2393 321.011 12.5287 320.717 12.734C320.428 12.9347 320.096 13.035 319.723 13.035ZM319.723 12.706C320.031 12.706 320.302 12.622 320.535 12.454C320.773 12.2813 320.957 12.034 321.088 11.712C321.219 11.3853 321.284 10.998 321.284 10.55C321.284 10.102 321.219 9.717 321.088 9.395C320.957 9.06833 320.773 8.821 320.535 8.653C320.302 8.48033 320.031 8.394 319.723 8.394C319.415 8.394 319.142 8.48033 318.904 8.653C318.671 8.821 318.489 9.06833 318.358 9.395C318.227 9.717 318.162 10.102 318.162 10.55C318.162 10.998 318.227 11.3853 318.358 11.712C318.489 12.034 318.671 12.2813 318.904 12.454C319.142 12.622 319.415 12.706 319.723 12.706Z" fill="white"/>
</g>
<defs>
<filter id="filter0_b_12_292" x="-12" y="-12" width="354" height="144" filterUnits="userSpaceOnUse" color-interpolation-filters="sRGB">
<feFlood flood-opacity="0" result="BackgroundImageFix"/>
<feGaussianBlur in="BackgroundImageFix" stdDeviation="6"/>
<feComposite in2="SourceAlpha" operator="in" result="effect1_backgroundBlur_12_292"/>
<feBlend mode="normal" in="SourceGraphic" in2="effect1_backgroundBlur_12_292" result="shape"/>
</filter>
</defs>
</svg>
